<svg width="32" height="32" viewBox="0 0 32 32" fill="none" xmlns="http://www.w3.org/2000/svg">
<path d="M22.5571 9.95297C22.9438 9.56635 22.9438 8.93951 22.5571 8.55289C22.1705 8.16627 21.5437 8.16627 21.1571 8.55289C20.7704 8.93951 20.7704 9.56635 21.1571 9.95297C21.5437 10.3396 22.1705 10.3396 22.5571 9.95297Z" fill="white"/>
<path d="M20.4517 12.0555C20.8383 11.6689 20.8383 11.0421 20.4517 10.6554C20.0651 10.2688 19.4382 10.2688 19.0516 10.6554C18.665 11.0421 18.665 11.6689 19.0516 12.0555C19.4382 12.4421 20.0651 12.4421 20.4517 12.0555Z" fill="white"/>
<path d="M22.5532 14.1571C22.9399 13.7704 22.9399 13.1436 22.5532 12.757C22.1666 12.3704 21.5398 12.3704 21.1532 12.757C20.7665 13.1436 20.7665 13.7704 21.1532 14.1571C21.5398 14.5437 22.1666 14.5437 22.5532 14.1571Z" fill="white"/>
<path d="M18.354 9.9559C18.7406 9.56928 18.7406 8.94244 18.354 8.55582C17.9674 8.1692 17.3406 8.1692 16.9539 8.55582C16.5673 8.94244 16.5673 9.56928 16.9539 9.9559C17.3406 10.3425 17.9674 10.3425 18.354 9.9559Z" fill="white"/>
<path d="M18.354 14.1561C18.7406 13.7695 18.7406 13.1426 18.354 12.756C17.9674 12.3694 17.3406 12.3694 16.9539 12.756C16.5673 13.1426 16.5673 13.7695 16.9539 14.1561C17.3406 14.5427 17.9674 14.5427 18.354 14.1561Z" fill="white"/>
<path d="M16.2564 16.2586C16.643 15.872 16.643 15.2452 16.2564 14.8586C15.8697 14.4719 15.2429 14.4719 14.8563 14.8586C14.4697 15.2452 14.4697 15.872 14.8563 16.2586C15.2429 16.6452 15.8697 16.6452 16.2564 16.2586Z" fill="white"/>
<path d="M14.1548 18.3573C14.5414 17.9706 14.5414 17.3438 14.1548 16.9572C13.7682 16.5706 13.1413 16.5706 12.7547 16.9572C12.3681 17.3438 12.3681 17.9706 12.7547 18.3573C13.1413 18.7439 13.7682 18.7439 14.1548 18.3573Z" fill="white"/>
<path d="M12.0532 20.4569C12.4399 20.0703 12.4399 19.4434 12.0532 19.0568C11.6666 18.6702 11.0398 18.6702 10.6532 19.0568C10.2665 19.4434 10.2665 20.0703 10.6532 20.4569C11.0398 20.8435 11.6666 20.8435 12.0532 20.4569Z" fill="white"/>
<path d="M9.95167 22.5565C10.3383 22.1699 10.3383 21.543 9.95167 21.1564C9.56505 20.7698 8.93822 20.7698 8.5516 21.1564C8.16498 21.543 8.16498 22.1699 8.5516 22.5565C8.93822 22.9431 9.56505 22.9431 9.95167 22.5565Z" fill="white"/>
<path d="M22.5571 18.3563C22.9438 17.9697 22.9438 17.3428 22.5571 16.9562C22.1705 16.5696 21.5437 16.5696 21.1571 16.9562C20.7704 17.3428 20.7704 17.9697 21.1571 18.3563C21.5437 18.7429 22.1705 18.7429 22.5571 18.3563Z" fill="white"/>
<path d="M14.1548 9.95492C14.5414 9.5683 14.5414 8.94147 14.1548 8.55485C13.7682 8.16823 13.1413 8.16823 12.7547 8.55485C12.3681 8.94147 12.3681 9.5683 12.7547 9.95492C13.1413 10.3415 13.7682 10.3415 14.1548 9.95492Z" fill="white"/>
</svg>
