<svg width="28" height="28" viewBox="0 0 28 28" fill="none" xmlns="http://www.w3.org/2000/svg">
<path d="M25.342 15.2593C26.0379 15.2593 26.602 14.6951 26.602 13.9993C26.602 13.3034 26.0379 12.7393 25.342 12.7393C24.6462 12.7393 24.082 13.3034 24.082 13.9993C24.082 14.6951 24.6462 15.2593 25.342 15.2593Z" fill="white"/>
<path d="M21.5569 15.2593C22.2528 15.2593 22.8169 14.6951 22.8169 13.9993C22.8169 13.3034 22.2528 12.7393 21.5569 12.7393C20.861 12.7393 20.2969 13.3034 20.2969 13.9993C20.2969 14.6951 20.861 15.2593 21.5569 15.2593Z" fill="white"/>
<path d="M21.5569 19.0395C22.2528 19.0395 22.8169 18.4754 22.8169 17.7795C22.8169 17.0837 22.2528 16.5195 21.5569 16.5195C20.861 16.5195 20.2969 17.0837 20.2969 17.7795C20.2969 18.4754 20.861 19.0395 21.5569 19.0395Z" fill="white"/>
<path d="M21.5569 11.479C22.2528 11.479 22.8169 10.9149 22.8169 10.219C22.8169 9.52311 22.2528 8.95898 21.5569 8.95898C20.861 8.95898 20.2969 9.52311 20.2969 10.219C20.2969 10.9149 20.861 11.479 21.5569 11.479Z" fill="white"/>
<path d="M17.7795 15.2593C18.4754 15.2593 19.0395 14.6951 19.0395 13.9993C19.0395 13.3034 18.4754 12.7393 17.7795 12.7393C17.0837 12.7393 16.5195 13.3034 16.5195 13.9993C16.5195 14.6951 17.0837 15.2593 17.7795 15.2593Z" fill="white"/>
<path d="M13.9944 15.2593C14.6903 15.2593 15.2544 14.6951 15.2544 13.9993C15.2544 13.3034 14.6903 12.7393 13.9944 12.7393C13.2985 12.7393 12.7344 13.3034 12.7344 13.9993C12.7344 14.6951 13.2985 15.2593 13.9944 15.2593Z" fill="white"/>
<path d="M10.217 15.2593C10.9129 15.2593 11.477 14.6951 11.477 13.9993C11.477 13.3034 10.9129 12.7393 10.217 12.7393C9.52115 12.7393 8.95703 13.3034 8.95703 13.9993C8.95703 14.6951 9.52115 15.2593 10.217 15.2593Z" fill="white"/>
<path d="M6.43578 15.2593C7.13166 15.2593 7.69578 14.6951 7.69578 13.9993C7.69578 13.3034 7.13166 12.7393 6.43578 12.7393C5.7399 12.7393 5.17578 13.3034 5.17578 13.9993C5.17578 14.6951 5.7399 15.2593 6.43578 15.2593Z" fill="white"/>
<path d="M2.65844 15.2593C3.35432 15.2593 3.91844 14.6951 3.91844 13.9993C3.91844 13.3034 3.35432 12.7393 2.65844 12.7393C1.96256 12.7393 1.39844 13.3034 1.39844 13.9993C1.39844 14.6951 1.96256 15.2593 2.65844 15.2593Z" fill="white"/>
<path d="M17.7795 22.8198C18.4754 22.8198 19.0395 22.2557 19.0395 21.5598C19.0395 20.8639 18.4754 20.2998 17.7795 20.2998C17.0837 20.2998 16.5195 20.8639 16.5195 21.5598C16.5195 22.2557 17.0837 22.8198 17.7795 22.8198Z" fill="white"/>
<path d="M17.7795 7.69871C18.4754 7.69871 19.0395 7.13459 19.0395 6.43871C19.0395 5.74283 18.4754 5.17871 17.7795 5.17871C17.0837 5.17871 16.5195 5.74283 16.5195 6.43871C16.5195 7.13459 17.0837 7.69871 17.7795 7.69871Z" fill="white"/>
</svg>
