<svg width="22" height="16" viewBox="0 0 22 16" fill="none" xmlns="http://www.w3.org/2000/svg">
<path d="M20.5214 8.64047C21.1179 8.64047 21.6014 8.15694 21.6014 7.56047C21.6014 6.964 21.1179 6.48047 20.5214 6.48047C19.9249 6.48047 19.4414 6.964 19.4414 7.56047C19.4414 8.15694 19.9249 8.64047 20.5214 8.64047Z" fill="white"/>
<path d="M17.2792 8.64047C17.8757 8.64047 18.3592 8.15694 18.3592 7.56047C18.3592 6.964 17.8757 6.48047 17.2792 6.48047C16.6828 6.48047 16.1992 6.964 16.1992 7.56047C16.1992 8.15694 16.6828 8.64047 17.2792 8.64047Z" fill="white"/>
<path d="M17.2792 11.8807C17.8757 11.8807 18.3592 11.3972 18.3592 10.8007C18.3592 10.2042 17.8757 9.7207 17.2792 9.7207C16.6828 9.7207 16.1992 10.2042 16.1992 10.8007C16.1992 11.3972 16.6828 11.8807 17.2792 11.8807Z" fill="white"/>
<path d="M17.2792 5.40023C17.8757 5.40023 18.3592 4.9167 18.3592 4.32023C18.3592 3.72377 17.8757 3.24023 17.2792 3.24023C16.6828 3.24023 16.1992 3.72377 16.1992 4.32023C16.1992 4.9167 16.6828 5.40023 17.2792 5.40023Z" fill="white"/>
<path d="M14.0409 8.64047C14.6374 8.64047 15.1209 8.15694 15.1209 7.56047C15.1209 6.964 14.6374 6.48047 14.0409 6.48047C13.4445 6.48047 12.9609 6.964 12.9609 7.56047C12.9609 8.15694 13.4445 8.64047 14.0409 8.64047Z" fill="white"/>
<path d="M10.7988 8.64047C11.3952 8.64047 11.8788 8.15694 11.8788 7.56047C11.8788 6.964 11.3952 6.48047 10.7988 6.48047C10.2023 6.48047 9.71875 6.964 9.71875 7.56047C9.71875 8.15694 10.2023 8.64047 10.7988 8.64047Z" fill="white"/>
<path d="M7.56047 8.64047C8.15694 8.64047 8.64047 8.15694 8.64047 7.56047C8.64047 6.964 8.15694 6.48047 7.56047 6.48047C6.964 6.48047 6.48047 6.964 6.48047 7.56047C6.48047 8.15694 6.964 8.64047 7.56047 8.64047Z" fill="white"/>
<path d="M4.31828 8.64047C4.91475 8.64047 5.39828 8.15694 5.39828 7.56047C5.39828 6.964 4.91475 6.48047 4.31828 6.48047C3.72181 6.48047 3.23828 6.964 3.23828 7.56047C3.23828 8.15694 3.72181 8.64047 4.31828 8.64047Z" fill="white"/>
<path d="M1.08 8.64047C1.67647 8.64047 2.16 8.15694 2.16 7.56047C2.16 6.964 1.67647 6.48047 1.08 6.48047C0.483532 6.48047 0 6.964 0 7.56047C0 8.15694 0.483532 8.64047 1.08 8.64047Z" fill="white"/>
<path d="M14.0409 15.1209C14.6374 15.1209 15.1209 14.6374 15.1209 14.0409C15.1209 13.4445 14.6374 12.9609 14.0409 12.9609C13.4445 12.9609 12.9609 13.4445 12.9609 14.0409C12.9609 14.6374 13.4445 15.1209 14.0409 15.1209Z" fill="white"/>
<path d="M14.0409 2.16C14.6374 2.16 15.1209 1.67647 15.1209 1.08C15.1209 0.483532 14.6374 0 14.0409 0C13.4445 0 12.9609 0.483532 12.9609 1.08C12.9609 1.67647 13.4445 2.16 14.0409 2.16Z" fill="white"/>
</svg>
