<svg width="24" height="24" viewBox="0 0 24 24" fill="none" xmlns="http://www.w3.org/2000/svg">
<path d="M18.75 2.97021H17.625V5.19019C17.625 5.60268 17.2875 5.94019 16.875 5.94019C16.4625 5.94019 16.125 5.60268 16.125 5.19019V2.97021H7.875V5.19019C7.875 5.60268 7.53749 5.94019 7.125 5.94019C6.71251 5.94019 6.375 5.60268 6.375 5.19019V2.97021H5.25C3.17999 2.97021 1.5 4.65021 1.5 6.72021V7.47768H22.5V6.72021C22.5 4.65021 20.82 2.97021 18.75 2.97021Z" fill="white"/>
<path d="M1.5 18.7501C1.5 20.8201 3.17999 22.5001 5.25 22.5001H18.75C20.82 22.5001 22.5 20.8201 22.5 18.7501V8.97754H1.5V18.7501ZM7.71748 14.1301C8.00999 13.8376 8.49001 13.8376 8.78252 14.1301L10.9725 16.3201L15.2175 12.0676C15.51 11.7751 15.99 11.7751 16.2825 12.0676C16.575 12.36 16.575 12.8326 16.2825 13.1326L11.4975 17.9101C11.355 18.0526 11.16 18.1275 10.9725 18.1275C10.7775 18.1275 10.5825 18.0526 10.44 17.9101L7.71748 15.1876C7.42502 14.8951 7.42502 14.4225 7.71748 14.1301Z" fill="white"/>
<path d="M7.875 2.25C7.875 1.83751 7.53749 1.5 7.125 1.5C6.71251 1.5 6.375 1.83751 6.375 2.25V2.97002H7.875V2.25Z" fill="white"/>
<path d="M17.625 2.25C17.625 1.83751 17.2875 1.5 16.875 1.5C16.4625 1.5 16.125 1.83751 16.125 2.25V2.97002H17.625V2.25Z" fill="white"/>
</svg>
