<svg width="18" height="19" viewBox="0 0 18 19" fill="none" xmlns="http://www.w3.org/2000/svg">
<g clip-path="url(#clip0_34139_256)">
<path d="M17.7539 1.64389C18 2.75222 18 3.6181 17.9649 4.48398C17.9649 8.05143 16.0313 10.1988 13.4649 11.7921V15.4288C13.4649 15.983 13.0782 16.641 12.5508 16.9181L9.07032 18.6152C8.96485 18.6499 8.82422 18.6845 8.71875 18.6845C8.22657 18.6845 7.875 18.3382 7.83985 17.8533V14.2858L7.0664 15.0478C6.60937 15.4981 5.8711 15.4288 5.48437 15.0478L3.6914 13.2814C3.23437 12.8311 3.26953 12.1038 3.6914 11.7228L4.46485 10.9262H0.84375C0.351563 10.9262 0 10.5798 0 10.0949C0 9.99102 0.0351563 9.85247 0.0703125 9.74856L1.79297 6.31966C2.07422 5.80012 2.74218 5.41914 3.30468 5.38451H6.9961C8.61328 2.89076 10.793 0.951172 14.414 0.951172C15.2929 0.951172 16.1718 0.951172 17.2968 1.19362C17.5078 1.26289 17.6836 1.43606 17.7539 1.64389ZM13.5 6.76992C14.2735 6.76992 14.9063 6.18112 14.9063 5.38451C14.9063 4.62253 14.2735 3.99909 13.5 3.99909C12.6914 3.99909 12.0938 4.62253 12.0938 5.38451C12.0938 6.18112 12.6914 6.76992 13.5 6.76992Z" fill="#FD3F00"/>
</g>
<defs>
<clipPath id="clip0_34139_256">
<rect width="18" height="19" fill="white"/>
</clipPath>
</defs>
</svg>
