<svg width="26" height="26" viewBox="0 0 26 26" fill="none" xmlns="http://www.w3.org/2000/svg">
<g clip-path="url(#clip0_34160_281)">
<path d="M6.52344 14.1426H10.332V14.1099V6.47461C10.332 5.00454 11.528 3.80859 12.998 3.80859C13.924 3.80859 14.7409 4.28335 15.219 5.00195H19.3043C18.6376 2.13566 16.0673 0 12.998 0C9.42223 0 6.52344 2.8988 6.52344 6.47461V14.1426Z" fill="white"/>
<path d="M14.1426 19.4742V15.6656H6.47461C5.00454 15.6656 3.80859 14.4697 3.80859 12.9996C3.80859 12.0737 4.28335 11.2568 5.00195 10.7787V6.69336C2.13566 7.36007 0 9.93041 0 12.9996C0 16.5754 2.8988 19.4742 6.47461 19.4742H14.1426Z" fill="white"/>
<path d="M19.4762 11.8574H15.6676V19.5254C15.6676 20.9955 14.4716 22.1914 13.0016 22.1914C12.0756 22.1914 11.2587 21.7167 10.7807 20.998H6.69531C7.36202 23.8643 9.93236 26 13.0016 26C16.5774 26 19.4762 23.1012 19.4762 19.5254V11.8574Z" fill="white"/>
<path d="M19.5273 6.52539H11.8594V10.334H19.5273C20.9974 10.334 22.1934 11.53 22.1934 13C22.1934 13.9259 21.7186 14.7428 21 15.2209V19.3062C23.8663 18.6396 26.002 16.0692 26.002 13C26.002 9.42419 23.1032 6.52539 19.5273 6.52539Z" fill="white"/>
</g>
<defs>
<clipPath id="clip0_34160_281">
<rect width="26" height="26" fill="white"/>
</clipPath>
</defs>
</svg>
