<svg width="18" height="18" viewBox="0 0 18 18" fill="none" xmlns="http://www.w3.org/2000/svg">
<g clip-path="url(#clip0_34245_735)">
<path d="M17.0999 8.1H9.90005V0.899945C9.90005 0.403253 9.4968 0 8.99994 0C8.50325 0 8.1 0.403253 8.1 0.899945V8.1H0.899945C0.403253 8.1 0 8.50325 0 8.99994C0 9.4968 0.403253 9.90005 0.899945 9.90005H8.1V17.0999C8.1 17.5968 8.50325 18.0001 8.99994 18.0001C9.4968 18.0001 9.90005 17.5968 9.90005 17.0999V9.90005H17.0999C17.5968 9.90005 18.0001 9.4968 18.0001 8.99994C18.0001 8.50325 17.5968 8.1 17.0999 8.1Z" fill="white"/>
</g>
<defs>
<clipPath id="clip0_34245_735">
<rect width="18" height="18" fill="white"/>
</clipPath>
</defs>
</svg>
