<svg width="210" height="210" viewBox="0 0 210 210" fill="none" xmlns="http://www.w3.org/2000/svg">
<path d="M83.1028 203.41L85.4927 189.063L87.4822 189.394L93.0223 201.133L93.1554 201.155L94.9081 190.632L97.0729 190.993L94.683 205.341L92.6794 205.007L87.1347 193.253L87.0016 193.231L85.2465 203.768L83.1028 203.41Z" fill="white"/>
<path d="M63.0673 188.648C63.675 187.219 64.4589 186.101 65.419 185.296C66.3772 184.494 67.4292 184.011 68.575 183.845C69.7147 183.682 70.8617 183.846 72.0162 184.337C73.1751 184.83 74.093 185.545 74.7701 186.482C75.441 187.421 75.8192 188.516 75.9047 189.767C75.9902 191.018 75.7301 192.355 75.1242 193.78C74.5165 195.209 73.7335 196.325 72.7753 197.126C71.8153 197.932 70.7654 198.417 69.6258 198.58C68.48 198.746 67.3276 198.582 66.1688 198.089C65.0143 197.597 64.1016 196.882 63.4307 195.943C62.7536 195.006 62.3723 193.913 62.2868 192.662C62.1994 191.415 62.4596 190.077 63.0673 188.648ZM65.067 189.499C64.6038 190.589 64.3902 191.581 64.4263 192.476C64.4561 193.374 64.6945 194.144 65.1414 194.788C65.582 195.433 66.1857 195.919 66.9525 196.245C67.7236 196.574 68.4944 196.673 69.2649 196.543C70.0335 196.417 70.7536 196.055 71.4251 195.455C72.0905 194.859 72.6548 194.016 73.118 192.926C73.5812 191.837 73.7979 190.843 73.768 189.946C73.732 189.05 73.4936 188.28 73.0529 187.634C72.6104 186.993 72.0036 186.508 71.2325 186.18C70.4657 185.854 69.698 185.753 68.9294 185.879C68.1546 186.007 67.4345 186.37 66.7692 186.966C66.0976 187.566 65.5302 188.41 65.067 189.499Z" fill="white"/>
<path d="M58.7776 177.85L50.2197 189.611L46.0289 186.559C45.118 185.896 44.4763 185.188 44.1039 184.436C43.7276 183.682 43.5922 182.919 43.6976 182.146C43.8002 181.377 44.1148 180.631 44.6413 179.907C45.165 179.188 45.7772 178.664 46.4779 178.337C47.172 178.011 47.9315 177.917 48.7562 178.054C49.5772 178.19 50.4431 178.589 51.354 179.252L54.5287 181.565L53.4172 183.092L50.4032 180.897C49.8292 180.479 49.3023 180.221 48.8228 180.124C48.3394 180.024 47.8993 180.069 47.5025 180.26C47.1056 180.452 46.747 180.768 46.4267 181.208C46.1035 181.652 45.9097 182.099 45.8451 182.55C45.7767 182.998 45.8617 183.441 46.0999 183.878C46.3315 184.316 46.7401 184.749 47.3257 185.175L49.5531 186.798L57.0036 176.558L58.7776 177.85ZM49.1125 178.929L50.0686 171.507L52.0894 172.979L51.0759 180.359L49.1125 178.929Z" fill="white"/>
<path d="M34.3631 177.01L32.7111 175.143L35.1431 167.913L35.0396 167.796L27.5718 169.334L25.9199 167.467L36.0307 165.562L40.3053 161.775L41.7548 163.414L37.4802 167.2L34.3631 177.01Z" fill="white"/>
<path d="M19.0572 157.421L22.3368 151.612L22.2816 151.513L15.6196 151.238L14.384 149.016L22.9407 149.439L27.0796 141.917L28.3221 144.152L25.1176 149.935L25.1728 150.034L31.7735 150.359L33.016 152.594L24.4075 152.077L20.2928 159.643L19.0572 157.421Z" fill="white"/>
<path d="M20.4519 120.803L21.2233 125.448L6.87468 127.833L6.07892 123.041C5.84547 121.635 5.93223 120.38 6.33921 119.275C6.74151 118.172 7.43287 117.263 8.41329 116.548C9.38825 115.829 10.6207 115.346 12.1107 115.098C13.6053 114.849 14.9352 114.909 16.1002 115.277C17.2644 115.64 18.2215 116.288 18.9713 117.219C19.7164 118.151 20.21 119.346 20.4519 120.803ZM18.9721 123.598L18.5801 121.237C18.3986 120.144 18.0422 119.269 17.511 118.614C16.975 117.959 16.2849 117.517 15.4405 117.287C14.5914 117.059 13.5994 117.039 12.4644 117.228C11.3387 117.415 10.4134 117.753 9.68843 118.244C8.96269 118.729 8.45519 119.358 8.16595 120.131C7.87671 120.904 7.81896 121.813 7.99269 122.86L8.40685 125.354L18.9721 123.598Z" fill="white"/>
<path d="M4.49949 103.212L19.0439 103.385L19.0177 105.58L4.4733 105.406L4.49949 103.212Z" fill="white"/>
<path d="M11.4385 83.6801C10.9896 83.7342 10.576 83.8432 10.1976 84.0072C9.81556 84.1657 9.47621 84.3781 9.1796 84.6444C8.87833 84.9099 8.62678 85.2306 8.42494 85.6066C8.22398 85.978 8.07827 86.4009 7.98782 86.8753C7.83439 87.6799 7.90301 88.445 8.19367 89.1705C8.48432 89.896 8.99371 90.5235 9.72183 91.0529C10.4462 91.5768 11.3851 91.9488 12.5385 92.169C13.6966 92.39 14.7115 92.3885 15.5833 92.1645C16.4551 91.9404 17.1604 91.54 17.6994 90.9632C18.2384 90.3864 18.5877 89.6794 18.7473 88.8422C18.8954 88.0655 18.8663 87.3586 18.66 86.7215C18.4546 86.0798 18.0937 85.5457 17.5773 85.1194C17.0572 84.6875 16.4041 84.3965 15.6181 84.2465L15.8291 83.7083L15.0496 87.7966L13.2706 87.4571L14.3415 81.8409L15.967 82.1512C17.1669 82.3802 18.1599 82.8349 18.9461 83.5151C19.7284 84.1899 20.2735 85.0218 20.5814 86.0109C20.8902 86.9953 20.9346 88.0643 20.7146 89.2177C20.4681 90.5107 19.9541 91.5888 19.1725 92.4519C18.3918 93.3103 17.4032 93.9073 16.2064 94.2429C15.0051 94.5775 13.6509 94.6011 12.144 94.3134C11.0046 94.0959 10.0115 93.7425 9.16492 93.2531C8.31831 92.7637 7.63328 92.1727 7.10984 91.4798C6.58264 90.7815 6.22566 90.012 6.0389 89.1714C5.84837 88.3252 5.84135 87.4393 6.01783 86.5137C6.16505 85.7417 6.41601 85.0448 6.77072 84.4232C7.12632 83.797 7.56308 83.2633 8.08098 82.8223C8.59978 82.3766 9.18034 82.0368 9.82268 81.8027C10.4604 81.5677 11.1395 81.4563 11.8602 81.4685L11.4385 83.6801Z" fill="white"/>
<path d="M11.3618 68.5624L24.9477 73.7578L24.1646 75.8079L10.5786 70.6125L11.3618 68.5624Z" fill="white"/>
<path d="M16.8592 60.4248L15.2309 59.4668L20.9347 49.7617L22.563 50.7196L20.2635 54.6323L31.172 61.0499L30.0636 62.9359L19.1551 56.5182L16.8592 60.4248Z" fill="white"/>
<path d="M38.8337 50.008L37.2488 51.7153L30.1547 37.9777L31.8798 36.1194L46.0961 42.1845L44.5112 43.8919L32.9937 38.8028L32.9164 38.8861L38.8337 50.008ZM34.9268 45.8443L40.068 40.306L41.4208 41.563L36.2795 47.1013L34.9268 45.8443Z" fill="white"/>
<path d="M51.6336 37.5405L43.2388 25.6621L45.0303 24.3946L52.3348 34.7303L57.7154 30.9237L58.8057 32.4665L51.6336 37.5405Z" fill="white"/>
<path d="M76.1434 23.9752L73.9096 24.6362L74.8056 9.20217L77.2369 8.48273L86.3794 20.9463L84.1456 21.6073L76.8281 11.359L76.7191 11.3912L76.1434 23.9752ZM74.9033 18.402L82.1496 16.2578L82.673 18.0286L75.4268 20.1728L74.9033 18.402Z" fill="white"/>
<path d="M102.695 9.13841C102.531 8.71664 102.324 8.34263 102.072 8.01639C101.824 7.68514 101.534 7.4086 101.203 7.18676C100.872 6.9602 100.499 6.79545 100.085 6.69249C99.6751 6.58924 99.2293 6.55224 98.7472 6.58147C97.9296 6.63106 97.2051 6.88608 96.5736 7.34655C95.9421 7.80702 95.4596 8.45531 95.1261 9.29143C94.7969 10.1225 94.6679 11.1241 94.7389 12.2962C94.8102 13.4731 95.0618 14.4563 95.4939 15.246C95.926 16.0357 96.4879 16.6206 97.1798 17.0009C97.8717 17.3811 98.643 17.5454 99.4937 17.4938C100.283 17.4459 100.961 17.2435 101.527 16.8866C102.099 16.5294 102.527 16.048 102.813 15.4425C103.104 14.832 103.225 14.1273 103.176 13.3286L103.75 13.4005L99.5954 13.6525L99.4859 11.8447L105.193 11.4986L105.293 13.1504C105.367 14.3698 105.171 15.4442 104.705 16.3737C104.244 17.2982 103.572 18.0315 102.69 18.5736C101.812 19.1154 100.787 19.4219 99.6148 19.493C98.3009 19.5727 97.1294 19.3401 96.1003 18.7953C95.0759 18.2503 94.2535 17.4392 93.6333 16.3621C93.0127 15.2802 92.6561 13.9737 92.5633 12.4424C92.4932 11.2845 92.5909 10.235 92.8564 9.29388C93.122 8.35279 93.5259 7.54323 94.0683 6.86522C94.6151 6.18219 95.2729 5.6466 96.0415 5.25845C96.8146 4.86529 97.6714 4.64019 98.6119 4.58315C99.3965 4.53558 100.134 4.60709 100.824 4.79769C101.518 4.988 102.143 5.27978 102.698 5.67304C103.258 6.06601 103.73 6.54491 104.116 7.10975C104.501 7.66986 104.776 8.30065 104.942 9.00213L102.695 9.13841Z" fill="white"/>
<path d="M113.433 19.3982L115.698 5.03012L124.705 6.4512L124.411 8.31737L117.571 7.23828L116.881 11.6161L123.251 12.621L122.958 14.4802L116.588 13.4752L115.895 17.8741L122.819 18.9664L122.525 20.8326L113.433 19.3982Z" fill="white"/>
<path d="M146.681 13.4873L141.379 27.0319L139.501 26.2959L136.506 13.6647L136.38 13.6155L132.492 23.549L130.448 22.7483L135.751 9.20373L137.642 9.94488L140.638 22.5919L140.764 22.6411L144.658 12.6944L146.681 13.4873Z" fill="white"/>
<path d="M164.213 29.6235L162.391 28.362C162.59 27.9241 162.697 27.4911 162.711 27.0631C162.725 26.6351 162.665 26.2222 162.531 25.8244C162.398 25.4267 162.196 25.0566 161.926 24.7143C161.66 24.3746 161.336 24.0727 160.955 23.8086C160.266 23.3315 159.529 23.0776 158.744 23.0468C157.963 23.0187 157.184 23.2303 156.405 23.6818C155.63 24.1359 154.909 24.8459 154.241 25.8116C153.568 26.7851 153.155 27.7146 153.003 28.6C152.855 29.4881 152.935 30.2922 153.243 31.0122C153.551 31.7322 154.046 32.3281 154.727 32.7998C155.105 33.0612 155.498 33.2586 155.906 33.3919C156.322 33.5239 156.738 33.5844 157.154 33.5733C157.57 33.5622 157.975 33.4766 158.368 33.3166C158.767 33.1555 159.136 32.9097 159.474 32.5793L161.291 33.8466C160.787 34.3672 160.224 34.7777 159.602 35.0782C158.986 35.3775 158.336 35.5553 157.653 35.6117C156.975 35.6668 156.291 35.599 155.6 35.4083C154.908 35.2175 154.234 34.8944 153.576 34.4389C152.54 33.7219 151.788 32.8378 151.317 31.7865C150.85 30.7313 150.7 29.5825 150.869 28.34C151.041 27.1003 151.568 25.8437 152.448 24.5703C153.332 23.2931 154.324 22.3587 155.424 21.767C156.527 21.1715 157.653 20.9087 158.802 20.9787C159.953 21.0448 161.045 21.435 162.077 22.1493C162.711 22.5886 163.24 23.0898 163.662 23.6529C164.091 24.2148 164.404 24.8233 164.601 25.4783C164.802 26.1295 164.872 26.8059 164.813 27.5077C164.756 28.2056 164.556 28.9109 164.213 29.6235Z" fill="white"/>
<path d="M174.589 32.2741L176.267 34.1181L173.935 41.3808L174.04 41.4964L181.486 39.8552L183.163 41.6992L173.08 43.7444L168.858 47.5891L167.386 45.9709L171.608 42.1263L174.589 32.2741Z" fill="white"/>
<path d="M183.265 69.1164L195.457 60.2139L196.27 62.3743L186.726 68.9968L186.774 69.1231L198.353 67.9115L199.158 70.052L189.648 76.7834L189.696 76.9097L201.239 75.5826L202.055 77.7496L187.02 79.094L186.242 77.0267L195.359 70.3216L195.319 70.2153L184.046 71.1903L183.265 69.1164Z" fill="white"/>
<path d="M198.339 102.351C196.792 102.495 195.436 102.336 194.271 101.874C193.111 101.411 192.185 100.715 191.495 99.7849C190.81 98.8595 190.409 97.7721 190.293 96.5228C190.177 95.2687 190.37 94.1214 190.873 93.0808C191.38 92.0445 192.164 91.1918 193.224 90.5226C194.284 89.8534 195.585 89.4471 197.127 89.3038C198.673 89.16 200.027 89.3195 201.187 89.7823C202.352 90.2446 203.277 90.9384 203.962 91.8638C204.653 92.7935 205.056 93.8854 205.172 95.1394C205.289 96.3888 205.093 97.5316 204.585 98.5679C204.083 99.6085 203.301 100.463 202.241 101.133C201.186 101.801 199.885 102.208 198.339 102.351ZM198.138 100.187C199.316 100.078 200.291 99.7946 201.062 99.3377C201.837 98.8852 202.402 98.3096 202.756 97.611C203.114 96.9167 203.255 96.1546 203.178 95.3248C203.101 94.4904 202.822 93.765 202.341 93.1487C201.866 92.5319 201.204 92.0703 200.358 91.7638C199.517 91.4616 198.507 91.3653 197.328 91.4748C196.15 91.5844 195.172 91.8655 194.397 92.318C193.626 92.7749 193.061 93.3505 192.702 94.0448C192.348 94.7387 192.21 95.5029 192.288 96.3374C192.365 97.1671 192.641 97.8904 193.117 98.5071C193.598 99.1281 194.259 99.5898 195.1 99.892C195.946 100.198 196.959 100.297 198.138 100.187Z" fill="white"/>
<path d="M190.875 111.257L205.29 113.207L204.595 118.345C204.445 119.462 204.127 120.362 203.643 121.047C203.158 121.736 202.55 122.218 201.821 122.492C201.096 122.766 200.29 122.844 199.403 122.724C198.521 122.605 197.769 122.314 197.148 121.853C196.531 121.397 196.088 120.773 195.817 119.981C195.546 119.195 195.486 118.243 195.637 117.126L196.163 113.234L198.035 113.487L197.536 117.182C197.441 117.886 197.464 118.472 197.606 118.94C197.748 119.413 197.997 119.779 198.354 120.038C198.711 120.296 199.159 120.462 199.699 120.535C200.243 120.609 200.729 120.567 201.156 120.41C201.583 120.257 201.932 119.972 202.203 119.555C202.479 119.143 202.665 118.578 202.762 117.86L203.131 115.129L190.582 113.432L190.875 111.257ZM196.417 119.253L189.433 121.935L189.768 119.457L196.743 116.846L196.417 119.253Z" fill="white"/>
<path d="M186.085 133.617L187.727 129.204L201.358 134.28L199.664 138.833C199.167 140.169 198.468 141.214 197.565 141.97C196.667 142.727 195.615 143.171 194.409 143.303C193.206 143.441 191.897 143.246 190.482 142.719C189.062 142.19 187.938 141.476 187.111 140.577C186.282 139.682 185.774 138.644 185.587 137.463C185.404 136.284 185.57 135.002 186.085 133.617ZM188.759 131.93L187.925 134.173C187.538 135.211 187.412 136.147 187.547 136.981C187.686 137.815 188.065 138.543 188.683 139.162C189.306 139.783 190.156 140.294 191.234 140.696C192.304 141.094 193.275 141.261 194.147 141.197C195.018 141.137 195.771 140.844 196.407 140.318C197.042 139.792 197.545 139.031 197.914 138.037L198.796 135.668L188.759 131.93Z" fill="white"/>
<path d="M179.914 147.577L192.093 155.531L189.26 159.873C188.641 160.821 187.957 161.494 187.205 161.891C186.454 162.288 185.679 162.446 184.878 162.364C184.082 162.285 183.311 162.003 182.566 161.516C181.816 161.026 181.245 160.43 180.85 159.725C180.458 159.028 180.291 158.252 180.351 157.397C180.412 156.55 180.751 155.654 181.367 154.71L183.315 151.724L184.873 152.741L183.033 155.561C182.643 156.16 182.429 156.713 182.392 157.22C182.359 157.73 182.465 158.19 182.712 158.6C182.959 159.01 183.313 159.366 183.773 159.666C184.232 159.966 184.698 160.146 185.168 160.204C185.639 160.263 186.098 160.17 186.546 159.925C186.992 159.684 187.413 159.259 187.812 158.648L189.318 156.34L178.715 149.416L179.914 147.577Z" fill="white"/>
<path d="M169.318 162.398L179.551 172.735L175.869 176.385C175.068 177.178 174.267 177.698 173.466 177.946C172.662 178.196 171.887 178.208 171.141 177.98C170.399 177.755 169.714 177.325 169.084 176.689C168.458 176.056 168.039 175.368 167.829 174.623C167.618 173.886 167.647 173.121 167.915 172.328C168.18 171.539 168.713 170.748 169.513 169.955L172.303 167.19L173.632 168.533L170.983 171.157C170.479 171.657 170.14 172.136 169.967 172.594C169.791 173.055 169.765 173.497 169.891 173.92C170.016 174.343 170.27 174.747 170.653 175.134C171.039 175.525 171.45 175.788 171.884 175.924C172.315 176.063 172.766 176.05 173.235 175.885C173.704 175.727 174.196 175.392 174.711 174.882L176.668 172.943L167.759 163.943L169.318 162.398ZM168.835 172.116L161.665 169.982L163.441 168.223L170.56 170.407L168.835 172.116Z" fill="white"/>
<path d="M155.829 174.64L163.722 186.858L156.064 191.81L155.039 190.223L160.854 186.463L158.449 182.74L153.033 186.242L152.012 184.661L157.428 181.159L155.011 177.418L149.125 181.225L148.1 179.638L155.829 174.64Z" fill="white"/>
<path d="M137.324 196.307C137.636 196.908 138.114 197.282 138.759 197.43C139.406 197.582 140.118 197.508 140.896 197.209C141.453 196.995 141.901 196.721 142.239 196.388C142.58 196.059 142.804 195.699 142.912 195.308C143.018 194.922 142.997 194.537 142.849 194.152C142.725 193.83 142.543 193.58 142.303 193.404C142.058 193.229 141.781 193.11 141.473 193.046C141.161 192.988 140.842 192.961 140.514 192.966C140.187 192.974 139.879 192.997 139.588 193.032L138.13 193.197C137.656 193.258 137.157 193.285 136.632 193.279C136.107 193.273 135.593 193.196 135.091 193.05C134.588 192.903 134.133 192.657 133.727 192.311C133.316 191.967 132.993 191.49 132.759 190.88C132.463 190.111 132.4 189.351 132.568 188.602C132.732 187.854 133.124 187.163 133.743 186.529C134.357 185.897 135.195 185.378 136.255 184.97C137.272 184.579 138.213 184.402 139.08 184.439C139.946 184.476 140.703 184.71 141.35 185.141C141.999 185.576 142.503 186.194 142.861 186.995L140.806 187.785C140.578 187.31 140.262 186.962 139.858 186.742C139.451 186.528 138.998 186.426 138.5 186.435C137.998 186.45 137.485 186.559 136.959 186.761C136.38 186.984 135.9 187.272 135.519 187.627C135.135 187.988 134.875 188.382 134.74 188.809C134.607 189.241 134.625 189.678 134.795 190.12C134.949 190.522 135.191 190.807 135.519 190.975C135.843 191.145 136.231 191.239 136.685 191.257C137.134 191.277 137.626 191.258 138.161 191.199L139.934 191.02C141.135 190.898 142.164 191.002 143.021 191.332C143.873 191.663 144.481 192.302 144.845 193.248C145.145 194.03 145.195 194.795 144.995 195.541C144.795 196.288 144.395 196.962 143.794 197.563C143.195 198.169 142.44 198.647 141.53 198.997C140.61 199.351 139.737 199.501 138.911 199.449C138.08 199.398 137.352 199.168 136.728 198.758C136.106 198.353 135.646 197.79 135.348 197.067L137.324 196.307Z" fill="white"/>
<path d="M117.435 201.076C117.613 201.729 118.003 202.195 118.602 202.475C119.203 202.76 119.914 202.838 120.738 202.709C121.327 202.617 121.822 202.443 122.224 202.189C122.625 201.939 122.921 201.634 123.109 201.274C123.293 200.919 123.353 200.539 123.29 200.132C123.236 199.79 123.111 199.508 122.913 199.285C122.71 199.062 122.465 198.888 122.177 198.76C121.885 198.638 121.578 198.545 121.256 198.48C120.935 198.42 120.629 198.377 120.337 198.351L118.877 198.205C118.401 198.164 117.907 198.086 117.395 197.97C116.883 197.853 116.397 197.67 115.937 197.421C115.476 197.172 115.083 196.836 114.758 196.412C114.429 195.989 114.213 195.455 114.112 194.81C113.985 193.996 114.083 193.24 114.405 192.542C114.723 191.846 115.251 191.253 115.989 190.764C116.723 190.275 117.651 189.943 118.774 189.767C119.85 189.599 120.807 189.624 121.646 189.843C122.486 190.062 123.176 190.45 123.719 191.007C124.262 191.569 124.624 192.279 124.806 193.137L122.631 193.477C122.508 192.965 122.272 192.558 121.923 192.258C121.57 191.964 121.149 191.768 120.66 191.672C120.166 191.582 119.641 191.58 119.085 191.667C118.472 191.763 117.942 191.944 117.495 192.21C117.044 192.482 116.707 192.813 116.485 193.202C116.264 193.596 116.19 194.027 116.263 194.495C116.329 194.92 116.505 195.25 116.791 195.483C117.072 195.717 117.432 195.891 117.872 196.004C118.306 196.119 118.792 196.203 119.328 196.258L121.098 196.456C122.298 196.589 123.282 196.908 124.051 197.41C124.815 197.914 125.275 198.666 125.431 199.667C125.56 200.495 125.449 201.253 125.096 201.941C124.744 202.629 124.21 203.203 123.497 203.665C122.783 204.131 121.945 204.439 120.981 204.59C120.008 204.742 119.123 204.706 118.326 204.481C117.524 204.256 116.861 203.878 116.337 203.347C115.814 202.82 115.483 202.172 115.344 201.403L117.435 201.076Z" fill="white"/>
<path d="M87.6546 96.43V96.2108C87.6546 92.1041 92.632 90.0474 95.5431 92.9513L114.002 111.365V76.457C111.096 75.5125 107.995 75 104.773 75C88.3296 75 75 88.2967 75 104.699C75 114.745 80.0011 123.625 87.6546 129V96.43Z" fill="white"/>
<path d="M122.344 81.0005V115.226C122.344 116.559 122.01 117.814 121.424 118.914C120.098 121.401 117.476 123.095 114.455 123.095L95.9961 104.682V133.543C98.9021 134.487 102.004 135 105.226 135C121.669 135 134.998 121.703 134.998 105.301C134.998 95.255 129.997 86.375 122.344 81.0005Z" fill="#FD3F00"/>
<path d="M122.344 81.0005V115.226C122.344 116.559 122.01 117.814 121.424 118.914C120.098 121.401 117.476 123.095 114.455 123.095L95.9961 104.682V133.543C98.9021 134.487 102.004 135 105.226 135C121.669 135 134.998 121.703 134.998 105.301C134.998 95.255 129.997 86.375 122.344 81.0005Z" fill="url(#paint0_linear_36174_139)"/>
<defs>
<linearGradient id="paint0_linear_36174_139" x1="115.497" y1="175.875" x2="115.497" y2="81.0005" gradientUnits="userSpaceOnUse">
<stop stop-color="#5C3FE9"/>
<stop offset="1" stop-color="#B019D6"/>
</linearGradient>
</defs>
</svg>
