<svg width="32" height="32" viewBox="0 0 32 32" fill="none" xmlns="http://www.w3.org/2000/svg">
<path d="M18.9993 27.9996C18.9993 28.2648 18.894 28.5192 18.7064 28.7067C18.5189 28.8943 18.2645 28.9996 17.9993 28.9996H13.9993C13.7341 28.9996 13.4797 28.8943 13.2922 28.7067C13.1047 28.5192 12.9993 28.2648 12.9993 27.9996C12.9993 27.7344 13.1047 27.48 13.2922 27.2925C13.4797 27.105 13.7341 26.9996 13.9993 26.9996H17.9993C18.2645 26.9996 18.5189 27.105 18.7064 27.2925C18.894 27.48 18.9993 27.7344 18.9993 27.9996ZM15.9993 13.9996C16.296 13.9996 16.586 13.9116 16.8327 13.7468C17.0793 13.582 17.2716 13.3477 17.3851 13.0736C17.4987 12.7995 17.5284 12.4979 17.4705 12.207C17.4126 11.916 17.2698 11.6487 17.06 11.4389C16.8502 11.2292 16.5829 11.0863 16.292 11.0284C16.001 10.9706 15.6994 11.0003 15.4253 11.1138C15.1512 11.2273 14.9169 11.4196 14.7521 11.6663C14.5873 11.9129 14.4993 12.2029 14.4993 12.4996C14.4993 12.8974 14.6574 13.279 14.9387 13.5603C15.22 13.8416 15.6015 13.9996 15.9993 13.9996ZM27.9518 19.4784L26.4068 26.4321C26.3335 26.7623 26.1777 27.0686 25.9538 27.3222C25.73 27.5758 25.4455 27.7685 25.127 27.8822C24.8084 27.996 24.4662 28.0271 24.1324 27.9726C23.7985 27.9182 23.484 27.7799 23.2181 27.5709L19.8131 24.9996H12.1881L8.78056 27.5709C8.51467 27.7799 8.2001 27.9182 7.86626 27.9726C7.53241 28.0271 7.19022 27.996 6.87167 27.8822C6.55312 27.7685 6.26862 27.5758 6.04479 27.3222C5.82096 27.0686 5.66511 26.7623 5.59181 26.4321L4.04681 19.4784C3.98128 19.1799 3.98459 18.8705 4.0565 18.5736C4.1284 18.2766 4.26702 18 4.46181 17.7646L8.03182 13.4821C8.15164 11.9083 8.51295 10.3623 9.10307 8.89836C10.7156 4.85586 13.6031 2.31961 14.7743 1.41711C15.1249 1.14546 15.5558 0.998047 15.9993 0.998047C16.4428 0.998047 16.8737 1.14546 17.2243 1.41711C18.3918 2.31961 21.2831 4.85586 22.8956 8.89836C23.4857 10.3623 23.847 11.9083 23.9668 13.4821L27.5368 17.7646C27.7316 18 27.8702 18.2766 27.9421 18.5736C28.014 18.8705 28.0174 19.1799 27.9518 19.4784ZM12.4281 22.9996H19.5706C22.2106 18.3071 22.7043 13.8146 21.0381 9.63961C19.5681 5.95461 16.8106 3.62461 15.9993 2.99961C15.1856 3.62461 12.4281 5.95461 10.9581 9.63961C9.29431 13.8146 9.78806 18.3071 12.4281 22.9996ZM10.5531 23.7309C9.20723 21.285 8.39056 18.8813 8.10307 16.5196L5.99931 19.0446L7.54431 25.9996L7.56681 25.9834L10.5531 23.7309ZM25.9993 19.0446L23.8956 16.5196C23.6106 18.8763 22.7956 21.28 21.4506 23.7309L24.4318 25.9809L24.4543 25.9971L25.9993 19.0446Z" fill="white"/>
</svg>
