<svg width="32" height="32" viewBox="0 0 32 32" fill="none" xmlns="http://www.w3.org/2000/svg">
<path d="M17.6687 25.9003C17.2782 25.5098 16.645 25.5098 16.2544 25.9003C15.8639 26.2909 15.8639 26.9241 16.2544 27.3146L17.6687 25.9003ZM4.68411 15.7442C5.07464 16.1347 5.7078 16.1347 6.09832 15.7442C6.48886 15.3537 6.48886 14.7205 6.09832 14.3299L4.68411 15.7442ZM15.0332 5.39513L15.7403 6.10223C15.9278 5.9147 16.0332 5.66034 16.0332 5.39513C16.0332 5.12991 15.9278 4.87555 15.7403 4.68802L15.0332 5.39513ZM26.6035 16.9654L27.3107 16.2583C27.1231 16.0709 26.8687 15.9654 26.6035 15.9654C26.3383 15.9654 26.084 16.0709 25.8964 16.2583L26.6035 16.9654ZM11.1121 7.90201C10.7215 8.29254 10.7215 8.9257 11.1121 9.31622C11.5026 9.70675 12.1358 9.70675 12.5263 9.31622L11.1121 7.90201ZM22.6824 19.4723C22.2919 19.8629 22.2919 20.4961 22.6824 20.8866C23.073 21.2771 23.7062 21.2771 24.0967 20.8866L22.6824 19.4723ZM6.61251 4.68802L4.68411 6.61642L6.09832 8.03063L8.02672 6.10223L6.61251 4.68802ZM25.3823 27.3146L27.3107 25.3862L25.8964 23.9719L23.968 25.9003L25.3823 27.3146ZM16.2544 27.3146C17.1435 28.2037 17.8799 28.943 18.5415 29.4478C19.2263 29.9702 19.947 30.3346 20.8183 30.3346V28.3346C20.56 28.3346 20.2615 28.2445 19.7547 27.8578C19.2248 27.4535 18.5978 26.8294 17.6687 25.9003L16.2544 27.3146ZM23.968 25.9003C23.039 26.8294 22.4119 27.4535 21.882 27.8578C21.3752 28.2445 21.0766 28.3346 20.8183 28.3346V30.3346C21.6898 30.3346 22.4104 29.9702 23.0951 29.4478C23.7567 28.943 24.4932 28.2037 25.3823 27.3146L23.968 25.9003ZM4.68411 6.61642C3.79504 7.50549 3.05562 8.24191 2.55083 8.90351C2.02843 9.58821 1.66406 10.3089 1.66406 11.1803H3.66406C3.66406 10.922 3.7542 10.6234 4.14087 10.1167C4.54514 9.58682 5.16928 8.95967 6.09832 8.03063L4.68411 6.61642ZM6.09832 14.3299C5.16928 13.4009 4.54514 12.7738 4.14087 12.2439C3.7542 11.7371 3.66406 11.4385 3.66406 11.1803H1.66406C1.66406 12.0517 2.02843 12.7724 2.55083 13.4571C3.05562 14.1187 3.79504 14.8551 4.68411 15.7442L6.09832 14.3299ZM15.7403 4.68802C14.8512 3.79895 14.1148 3.05953 13.4532 2.55474C12.7685 2.03234 12.0477 1.66797 11.1764 1.66797V3.66797C11.4346 3.66797 11.7332 3.75811 12.24 4.14478C12.7699 4.54905 13.397 5.17319 14.326 6.10223L15.7403 4.68802ZM8.02672 6.10223C8.95576 5.17319 9.58291 4.54905 10.1127 4.14478C10.6195 3.75813 10.9181 3.66797 11.1764 3.66797V1.66797C10.305 1.66797 9.5843 2.03234 8.8996 2.55474C8.238 3.05953 7.50158 3.79895 6.61251 4.68802L8.02672 6.10223ZM25.8964 17.6726C26.8255 18.6017 27.4496 19.2287 27.8539 19.7586C28.2406 20.2654 28.3307 20.5639 28.3307 20.8222H30.3307C30.3307 19.9509 29.9663 19.2302 29.4439 18.5454C28.9391 17.8838 28.1998 17.1474 27.3107 16.2583L25.8964 17.6726ZM27.3107 25.3862C28.1998 24.4971 28.9391 23.7606 29.4439 23.099C29.9663 22.4143 30.3307 21.6937 30.3307 20.8222H28.3307C28.3307 21.0805 28.2406 21.3791 27.8539 21.8859C27.4496 22.4158 26.8255 23.0429 25.8964 23.9719L27.3107 25.3862ZM14.326 4.68802L11.1121 7.90201L12.5263 9.31622L15.7403 6.10223L14.326 4.68802ZM25.8964 16.2583L22.6824 19.4723L24.0967 20.8866L27.3107 17.6726L25.8964 16.2583Z" fill="#B019D6"/>
<path d="M5.59461 28.9055L6.66406 28.549L9.96963 27.4471C11.0021 27.103 11.5183 26.931 12.004 26.6996C12.5769 26.4265 13.1185 26.0918 13.619 25.7014C14.0432 25.3705 14.4279 24.9857 15.1975 24.2162L26.5591 12.8545L27.795 11.6187C29.8426 9.5711 29.8426 6.25128 27.795 4.20368C25.7474 2.15606 22.4275 2.15606 20.3799 4.20368L19.1442 5.43952L7.78248 16.8012C7.01294 17.5708 6.62816 17.9554 6.29725 18.3797C5.90689 18.8802 5.57224 19.4217 5.29918 19.9946C5.0677 20.4804 4.89563 20.9966 4.55147 22.029L3.44962 25.3346L3.09314 26.4041M5.59461 28.9055L4.52517 29.2621C4.01709 29.4314 3.45694 29.2991 3.07823 28.9205C2.69952 28.5417 2.5673 27.9815 2.73666 27.4735L3.09314 26.4041M5.59461 28.9055L3.09314 26.4041" stroke="#B019D6" stroke-width="2"/>
<path d="M19.1484 5.4375C19.1484 5.4375 19.3029 8.06366 21.6201 10.3809C23.9373 12.6981 26.5634 12.8526 26.5634 12.8526" stroke="#B019D6" stroke-width="2"/>
</svg>
