<svg width="16" height="16" viewBox="0 0 16 16" fill="none" xmlns="http://www.w3.org/2000/svg">
<g clip-path="url(#clip0_34083_2633)">
<path d="M11.2245 5.5755C11.2803 5.63122 11.3246 5.6974 11.3548 5.77024C11.385 5.84307 11.4004 5.92115 11.4004 6C11.4004 6.07885 11.385 6.15693 11.3548 6.22976C11.3246 6.3026 11.2803 6.36878 11.2245 6.4245L7.0245 10.6245C6.96878 10.6803 6.9026 10.7246 6.82977 10.7548C6.75693 10.785 6.67885 10.8004 6.6 10.8004C6.52115 10.8004 6.44308 10.785 6.37024 10.7548C6.2974 10.7246 6.23123 10.6803 6.1755 10.6245L4.3755 8.8245C4.26292 8.71191 4.19967 8.55922 4.19967 8.4C4.19967 8.24078 4.26292 8.08808 4.3755 7.9755C4.48808 7.86291 4.64079 7.79967 4.8 7.79967C4.95922 7.79967 5.11191 7.86291 5.2245 7.9755L6.6 9.35175L10.3755 5.5755C10.4312 5.51971 10.4974 5.47546 10.5702 5.44527C10.6431 5.41507 10.7212 5.39953 10.8 5.39953C10.8788 5.39953 10.9569 5.41507 11.0298 5.44527C11.1026 5.47546 11.1687 5.51971 11.2245 5.5755ZM15.6 7.8C15.6 9.3427 15.1425 10.8508 14.2854 12.1334C13.4284 13.4161 12.2102 14.4159 10.785 15.0063C9.35967 15.5966 7.79135 15.751 6.2783 15.4501C4.76525 15.1491 3.37542 14.4063 2.28456 13.3154C1.19372 12.2245 0.450842 10.8348 0.149878 9.32171C-0.151086 7.80865 0.00337938 6.24033 0.593743 4.81507C1.18411 3.3898 2.18385 2.17162 3.46656 1.31454C4.74926 0.457462 6.25731 0 7.8 0C9.86802 0.00218386 11.8507 0.824669 13.3131 2.28698C14.7754 3.74929 15.5979 5.73198 15.6 7.8ZM14.4 7.8C14.4 6.49465 14.0129 5.2186 13.2877 4.13324C12.5625 3.04787 11.5317 2.20193 10.3257 1.7024C9.11972 1.20286 7.79268 1.07215 6.51241 1.32682C5.23213 1.58148 4.05613 2.21007 3.1331 3.1331C2.21007 4.05612 1.58148 5.23213 1.32682 6.5124C1.07216 7.79268 1.20286 9.11972 1.7024 10.3257C2.20194 11.5317 3.04787 12.5625 4.13324 13.2877C5.2186 14.0129 6.49465 14.4 7.8 14.4C9.54982 14.398 11.2274 13.702 12.4647 12.4647C13.702 11.2274 14.398 9.54982 14.4 7.8Z" fill="#171717"/>
</g>
<defs>
<clipPath id="clip0_34083_2633">
<rect width="16" height="16" fill="white"/>
</clipPath>
</defs>
</svg>
