<svg width="24" height="24" viewBox="0 0 24 24" fill="none" xmlns="http://www.w3.org/2000/svg">
<path d="M20.5148 11.9998C23.5961 7.67356 25.1673 3.20231 22.9823 1.01732C20.7973 -1.16768 16.3261 0.403565 11.9998 3.48482C7.67356 0.403565 3.20231 -1.16768 1.01732 1.01732C-1.16768 3.20231 0.403565 7.67356 3.48482 11.9998C0.403565 16.3261 -1.16768 20.7973 1.01732 22.9823C1.72107 23.6861 2.66106 23.9998 3.75606 23.9998C6.06606 23.9998 9.06607 22.6036 12.0061 20.5148C14.9336 22.6036 17.9336 23.9998 20.2498 23.9998C21.3448 23.9998 22.2861 23.6848 22.9886 22.9823C25.1673 20.7973 23.5961 16.3261 20.5148 11.9998ZM21.5686 2.43107C22.5236 3.38607 21.8786 6.48107 19.2536 10.3411C18.4231 9.31305 17.539 8.32959 16.6048 7.39482C15.6699 6.46194 14.6865 5.57904 13.6586 4.74981C17.5186 2.12481 20.6136 1.47482 21.5686 2.43107ZM18.0361 11.9998C17.1515 13.1188 16.2015 14.1844 15.1911 15.1911C14.1844 16.2015 13.1188 17.1515 11.9998 18.0361C10.8809 17.1515 9.81525 16.2015 8.80857 15.1911C7.79809 14.1844 6.8481 13.1188 5.96356 11.9998C7.7382 9.76352 9.76352 7.7382 11.9998 5.96356C13.1188 6.8481 14.1844 7.79809 15.1911 8.80857C16.2015 9.81525 17.1515 10.8809 18.0361 11.9998ZM2.43107 2.43107C2.70607 2.15482 3.15981 2.01231 3.75856 2.01231C5.23606 2.01231 7.59482 2.87481 10.3398 4.74981C9.31286 5.57972 8.32986 6.46258 7.39482 7.39482C6.46194 8.32969 5.57904 9.31314 4.74981 10.3411C2.12481 6.48107 1.47607 3.38607 2.43107 2.43107ZM2.43107 21.5686C1.47607 20.6136 2.12481 17.5186 4.74981 13.6586C5.58026 14.6866 6.46441 15.67 7.39857 16.6048C8.33283 17.537 9.31499 18.4198 10.3411 19.2498C6.48107 21.8748 3.38607 22.5248 2.43107 21.5686ZM21.5686 21.5686C20.6136 22.5248 17.5186 21.8786 13.6586 19.2536C14.686 18.4224 15.6694 17.5383 16.6048 16.6048C17.5377 15.6699 18.4206 14.6865 19.2498 13.6586C21.8748 17.5186 22.5236 20.6136 21.5686 21.5686ZM13.4998 11.9998C13.4998 12.2965 13.4118 12.5865 13.247 12.8332C13.0822 13.0798 12.8479 13.2721 12.5738 13.3856C12.2998 13.4992 11.9982 13.5289 11.7072 13.471C11.4162 13.4131 11.1489 13.2703 10.9392 13.0605C10.7294 12.8507 10.5865 12.5834 10.5286 12.2924C10.4708 12.0015 10.5005 11.6999 10.614 11.4258C10.7275 11.1517 10.9198 10.9174 11.1665 10.7526C11.4131 10.5878 11.7031 10.4998 11.9998 10.4998C12.3976 10.4998 12.7792 10.6579 13.0605 10.9392C13.3418 11.2205 13.4998 11.602 13.4998 11.9998Z" fill="#B019D6"/>
</svg>
