<svg width="28" height="28" viewBox="0 0 28 28" fill="none" xmlns="http://www.w3.org/2000/svg">
<path d="M19.832 8.17446C19.4994 6.38335 18.6839 4.71712 17.4735 3.35566C16.2631 1.9942 14.7037 0.989254 12.9639 0.44932C11.224 -0.0906131 9.3697 -0.145017 7.60117 0.291983C5.83264 0.728982 4.21708 1.64078 2.92893 2.92893C1.64078 4.21708 0.728982 5.83264 0.291983 7.60117C-0.145017 9.3697 -0.0906131 11.224 0.44932 12.9639C0.989254 14.7037 1.9942 16.2631 3.35566 17.4735C4.71712 18.6839 6.38335 19.4994 8.17446 19.832C8.50702 21.6231 9.32254 23.2893 10.5329 24.6508C11.7434 26.0122 13.3027 27.0172 15.0425 27.5571C16.7824 28.097 18.6367 28.1514 20.4052 27.7144C22.1738 27.2774 23.7893 26.3656 25.0775 25.0775C26.3656 23.7893 27.2774 22.1738 27.7144 20.4052C28.1514 18.6367 28.097 16.7824 27.5571 15.0425C27.0172 13.3027 26.0122 11.7434 24.6508 10.5329C23.2893 9.32254 21.6231 8.50702 19.832 8.17446ZM26.0032 18.0032C26.0032 18.1932 25.9945 18.3782 25.9807 18.567L19.7307 12.317C19.8931 11.6404 19.9844 10.9487 20.0032 10.2532C21.72 10.6989 23.2403 11.7015 24.3261 13.104C25.4119 14.5065 26.0017 16.2296 26.0032 18.0032ZM24.3195 22.9045L17.742 16.3282C18.2279 15.7343 18.6444 15.0868 18.9832 14.3982L25.4657 20.8782C25.1845 21.6059 24.7983 22.2885 24.3195 22.9045ZM20.8782 25.4657L14.3957 18.9832C15.0843 18.6444 15.7318 18.2279 16.3257 17.742L22.902 24.3195C22.2868 24.7981 21.605 25.1842 20.8782 25.4657ZM3.68696 5.10196L10.2645 11.6782C9.77847 12.2721 9.36201 12.9196 9.02321 13.6082L2.54071 7.12821C2.82195 6.40051 3.20812 5.71787 3.68696 5.10196ZM7.12821 2.54071L13.6107 9.02321C12.9221 9.36201 12.2746 9.77847 11.6807 10.2645L5.10196 3.68696C5.71787 3.20812 6.40051 2.82195 7.12821 2.54071ZM18.0032 10.0032C18.0009 12.1242 17.1573 14.1577 15.6575 15.6575C14.1577 17.1573 12.1242 18.0009 10.0032 18.0032C10.0055 15.8822 10.8491 13.8487 12.3489 12.3489C13.8487 10.8491 15.8822 10.0055 18.0032 10.0032ZM17.7532 8.00321C17.0587 8.02012 16.3679 8.10935 15.692 8.26946L9.44196 2.01946C9.62821 2.01196 9.81321 2.00321 10.0032 2.00321C11.7777 2.00503 13.5014 2.59577 14.904 3.68277C16.3066 4.76977 17.3087 6.29155 17.7532 8.00946V8.00321ZM2.00321 10.0032C2.00321 9.81321 2.01196 9.62821 2.02571 9.43946L8.27571 15.6895C8.11543 16.3662 8.0262 17.0579 8.00946 17.7532C6.29155 17.3087 4.76977 16.3066 3.68277 14.904C2.59577 13.5014 2.00503 11.7777 2.00321 10.0032ZM10.2532 20.0032C10.9477 19.9863 11.6385 19.8971 12.3145 19.737L18.5645 25.987C18.3782 26.0007 18.1895 26.0095 18.0007 26.0095C16.2266 26.0071 14.5035 25.4161 13.1015 24.3291C11.6994 23.2422 10.6976 21.7207 10.2532 20.0032Z" fill="#B019D6"/>
</svg>
