<svg width="80" height="80" viewBox="0 0 80 80" fill="none" xmlns="http://www.w3.org/2000/svg">
<path opacity="0.7" d="M16.8728 28.5724V28.2801C16.8728 22.8047 23.5094 20.0625 27.3909 23.9343L52.0029 48.4846V1.94263C48.1282 0.683364 43.9929 0 39.6968 0C17.7729 0 0 17.7284 0 39.5974C0 52.9917 6.66821 64.8313 16.8728 71.9971V28.5724Z" fill="#E4E4E4"/>
<path opacity="0.4" d="M63.1262 8.00391V53.6368C63.1262 55.4139 62.6816 57.0869 61.8997 58.5537C60.1325 61.8697 56.6355 64.1284 52.6081 64.1284L27.9961 39.5781V78.0583C31.8708 79.3176 36.0061 80.001 40.3022 80.001C62.2262 80.001 79.999 62.2726 79.999 40.4035C79.999 27.0093 73.3308 15.1696 63.1262 8.00391Z" fill="white"/>
</svg>
