<svg width="50" height="50" viewBox="0 0 50 50" fill="none" xmlns="http://www.w3.org/2000/svg">
<path fill-rule="evenodd" clip-rule="evenodd" d="M44.5681 29.8881C40.1898 29.8881 37.9931 35.1924 41.0888 38.2881C41.659 38.8583 41.659 39.7833 41.0888 40.3536L37.9445 43.4977C37.3743 44.068 36.4493 44.068 35.879 43.4977C32.7833 40.402 27.4791 42.5988 27.4791 46.9771C27.4791 47.784 26.8251 48.4375 26.0188 48.4375H21.5723C20.7659 48.4375 20.1119 47.784 20.1119 46.9771C20.1119 42.5934 14.8115 40.3981 11.712 43.4977C11.1418 44.068 10.2168 44.068 9.64658 43.4977L6.50234 40.3536C5.93213 39.7834 5.93213 38.8584 6.50234 38.2881C9.59805 35.1924 7.40137 29.8881 3.02305 29.8881C2.21611 29.8881 1.5625 29.2341 1.5625 28.4277V23.9813C1.5625 23.1749 2.21611 22.5209 3.02295 22.5209C7.40127 22.5209 9.59795 17.2167 6.50225 14.121C5.93203 13.5508 5.93203 12.6258 6.50225 12.0556L9.64648 8.91131C10.2167 8.3411 11.1417 8.3411 11.7119 8.91131C14.8076 12.007 20.1118 9.81034 20.1118 5.43202C20.1118 4.62518 20.7658 3.97157 21.5722 3.97157H26.0187C26.825 3.97157 27.479 4.62518 27.479 5.43202C27.479 6.13612 27.6168 6.78348 27.86 7.3618L13.6871 11.1595C12.8793 11.3759 12.4225 12.2293 12.693 13.0211C13.2395 14.6204 13.9326 15.3538 14.7569 15.6365C15.2519 15.8062 15.7437 15.7996 16.2551 15.7142L15.5795 19.3774C14.0396 21.2286 13.113 23.6083 13.113 26.2045C13.113 31.8943 17.5615 36.5444 23.1702 36.8681C23.1381 37.0171 23.1212 37.1716 23.1212 37.3299V38.8455C23.1212 39.223 23.4272 39.5291 23.8048 39.5291H32.3738C32.7514 39.5291 33.0574 39.223 33.0574 38.8455V37.3299C33.0574 36.3267 32.3717 35.4484 31.4042 35.1995C31.2992 34.7799 31.2082 34.372 31.1294 33.9708C33.191 32.0232 34.4778 29.2642 34.4778 26.2044C34.4778 25.7311 34.4467 25.2652 34.387 24.8082L37.5226 23.164C38.759 22.5158 39.5673 21.4375 39.8422 20.0687L39.9822 19.3718C40.6661 21.1376 42.3323 22.5208 44.568 22.5208C45.3749 22.5208 46.0283 23.1748 46.0283 23.9812V28.4277C46.0284 29.2341 45.3749 29.8881 44.5681 29.8881ZM31.9354 16.5263L29.5086 17.1765C30.5851 17.8592 31.5311 18.729 32.3008 19.7403L32.4811 19.6348C32.901 19.3892 33.1187 18.969 33.083 18.4847L32.9937 17.2753C32.9542 16.7406 32.4584 16.3863 31.9354 16.5263ZM41.7238 2.19208C40.9321 2.40419 40.4595 3.22294 40.6717 4.01454L43.352 14.0176C43.5641 14.8093 44.3827 15.2819 45.1744 15.0698L47.3347 14.491C48.1264 14.2789 48.599 13.4601 48.3869 12.6685L45.7064 2.66542C45.4943 1.87372 44.6756 1.40106 43.884 1.61327L41.7238 2.19208ZM23.1133 14.4058C23.3006 14.08 23.7166 13.9676 24.0426 14.1549C24.3685 14.3422 24.4809 14.7582 24.2936 15.0842L22.1905 18.7267C21.8601 19.2992 21.7843 19.8875 21.9553 20.5256L23.8083 27.4413C23.942 27.9404 24.4674 28.199 24.9444 28.0011C26.2251 27.4697 26.4477 26.8219 26.0926 25.4968L24.9683 21.3009C24.8114 20.7156 24.892 20.1334 25.1995 19.6116L26.4656 17.4624C26.8706 16.7749 27.4845 16.3056 28.2556 16.0989L31.583 15.2073C32.9231 14.8483 34.2535 15.7966 34.3555 17.1793L34.4448 18.3887C34.5187 19.3903 34.0362 20.303 33.1699 20.8099L31.0993 22.0212C30.2211 22.5282 29.1731 23.2657 29.4846 24.4278C29.611 24.8996 29.7542 25.2726 29.9406 25.4189C30.1176 25.5579 30.4638 25.3161 30.6303 25.2408L36.8924 21.9573C37.7619 21.5015 38.3138 20.7643 38.5071 19.8019L39.5979 14.3724C39.7741 13.4948 40.429 12.8617 41.29 12.6504L41.5529 12.5859L39.683 5.60741L29.1911 8.41874C28.9229 8.49061 28.706 8.5993 28.4879 8.77118L20.3929 15.1493C19.8544 15.5735 19.5595 16.1202 19.5008 16.8032L18.8829 23.9976C18.8363 24.5399 19.2795 24.9721 19.8203 24.9081C20.4734 24.8308 21.1837 24.5558 21.4467 23.9029L20.6362 20.878C20.3727 19.8942 20.5013 18.9303 21.0104 18.0485L23.1133 14.4058ZM24.4885 38.1619H31.6903V37.3299C31.6903 36.8736 31.3146 36.4978 30.8583 36.4978H25.3205C24.8643 36.4978 24.4885 36.8736 24.4885 37.3299V38.1619ZM28.0986 24.4757C27.8121 24.4757 27.5402 24.5217 27.2732 24.6273L27.4117 25.1443C27.7369 26.3579 27.7244 27.5792 26.7578 28.4792C27.1366 28.7627 27.6117 28.9199 28.0894 28.9199C29.2722 28.9199 30.2487 27.9926 30.3086 26.8122C28.9511 27.0218 28.2896 25.5947 28.0986 24.4757ZM29.3217 30.0698C28.5317 30.3587 27.6468 30.358 26.8572 30.0682C26.7875 31.7928 26.5901 33.4472 26.196 35.1306H29.9826C29.5884 33.447 29.3914 31.7952 29.3217 30.0698ZM25.4602 9.41844L14.0396 12.4785C13.9896 12.4919 13.9689 12.5345 13.9855 12.5831C14.3706 13.7101 14.7686 14.196 15.2003 14.344C15.5741 14.4723 16.0749 14.3773 16.6422 14.232C16.776 13.9 16.9393 13.5911 17.1304 13.3064C17.3397 12.9938 17.763 12.9101 18.0757 13.1195C18.3883 13.3289 18.472 13.7521 18.2626 14.0648C17.9551 14.5228 17.7669 15.0313 17.6672 15.5723L16.5595 21.5785C16.5508 21.626 16.5818 21.6701 16.6306 21.6747C16.9571 21.7059 17.2929 21.7166 17.523 21.6345C17.6272 21.5974 17.7081 21.5169 17.7379 21.3618L18.139 16.6911C18.2299 15.6321 18.7141 14.7338 19.549 14.076L25.4602 9.41844Z" fill="#FD3F00"/>
</svg>
