<svg width="48" height="48" viewBox="0 0 48 48" fill="none" xmlns="http://www.w3.org/2000/svg">
<path d="M38.7354 19.6368H37.6318C37.5404 16.041 36.3673 12.5563 34.2656 9.63721C32.1638 6.71815 29.2311 4.50035 25.8499 3.27318H34.9947C35.1275 3.78735 35.4432 4.23546 35.8827 4.53351C36.3222 4.83155 36.8554 4.95906 37.3822 4.89215C37.909 4.82524 38.3933 4.56849 38.7443 4.17003C39.0954 3.77157 39.2891 3.25876 39.2891 2.72772C39.2891 2.19668 39.0954 1.68387 38.7443 1.28541C38.3933 0.886955 37.909 0.630207 37.3822 0.563294C36.8554 0.49638 36.3222 0.623896 35.8827 0.921939C35.4432 1.21998 35.1275 1.66809 34.9947 2.18227H21.8264V1.09136C21.8264 0.946695 21.7689 0.807956 21.6666 0.705664C21.5643 0.603371 21.4256 0.545904 21.2809 0.545904H18.0082C17.8635 0.545904 17.7248 0.603371 17.6225 0.705664C17.5202 0.807956 17.4627 0.946695 17.4627 1.09136V2.18227H4.29435C4.16159 1.66809 3.84587 1.21998 3.40635 0.921939C2.96683 0.623896 2.43371 0.49638 1.9069 0.563294C1.38009 0.630207 0.895772 0.886955 0.544724 1.28541C0.193676 1.68387 0 2.19668 0 2.72772C0 3.25876 0.193676 3.77157 0.544724 4.17003C0.895772 4.56849 1.38009 4.82524 1.9069 4.89215C2.43371 4.95906 2.96683 4.83155 3.40635 4.53351C3.84587 4.23546 4.16159 3.78735 4.29435 3.27318H13.439C10.0579 4.50035 7.12511 6.71815 5.02339 9.63721C2.92167 12.5563 1.74859 16.041 1.65719 19.6368H0.553627C0.408964 19.6368 0.270225 19.6943 0.167933 19.7966C0.0656401 19.8989 0.00817264 20.0376 0.00817264 20.1823V23.455C0.00817264 23.5997 0.0656401 23.7384 0.167933 23.8407C0.270225 23.943 0.408964 24.0005 0.553627 24.0005H3.82635C3.97102 24.0005 4.10976 23.943 4.21205 23.8407C4.31434 23.7384 4.37181 23.5997 4.37181 23.455V20.1823C4.37181 20.0376 4.31434 19.8989 4.21205 19.7966C4.10976 19.6943 3.97102 19.6368 3.82635 19.6368H2.74821C2.85766 15.6208 4.40193 11.7769 7.10124 8.8014C9.80056 5.82588 13.4764 3.91562 17.4627 3.41669V4.36409C17.4627 4.50875 17.5202 4.64749 17.6225 4.74978C17.7248 4.85207 17.8635 4.90954 18.0082 4.90954H21.2809C21.4256 4.90954 21.5643 4.85207 21.6666 4.74978C21.7689 4.64749 21.8264 4.50875 21.8264 4.36409V3.41669C25.8127 3.91562 29.4885 5.82588 32.1878 8.8014C34.8871 11.7769 36.4314 15.6208 36.5409 19.6368H35.4627C35.318 19.6368 35.1793 19.6943 35.077 19.7966C34.9747 19.8989 34.9173 20.0376 34.9173 20.1823V23.455C34.9173 23.5997 34.9747 23.7384 35.077 23.8407C35.1793 23.943 35.318 24.0005 35.4627 24.0005H38.7354C38.8801 24.0005 39.0188 23.943 39.1211 23.8407C39.2234 23.7384 39.2809 23.5997 39.2809 23.455V20.1823C39.2809 20.0376 39.2234 19.8989 39.1211 19.7966C39.0188 19.6943 38.8801 19.6368 38.7354 19.6368Z" fill="#FD3F00"/>
<path d="M21.2234 7.39242C21.1684 7.28249 21.078 7.19434 20.9667 7.14225C20.8554 7.09016 20.7297 7.07718 20.6101 7.10542C20.4905 7.13366 20.3839 7.20146 20.3077 7.29783C20.2314 7.39421 20.19 7.51351 20.19 7.6364V25.3146C20.19 25.4202 20.2207 25.5235 20.2783 25.612C20.3358 25.7005 20.4179 25.7703 20.5144 25.8131C20.9743 26.0131 21.3513 26.3654 21.582 26.8107C21.8126 27.2561 21.8828 27.7673 21.7807 28.2583C21.6786 28.7493 21.4104 29.1901 21.0213 29.5066C20.6323 29.8231 20.1461 29.9959 19.6445 29.9959C19.143 29.9959 18.6568 29.8231 18.2678 29.5066C17.8787 29.1901 17.6105 28.7493 17.5084 28.2583C17.4063 27.7673 17.4765 27.2561 17.7071 26.8107C17.9377 26.3654 18.3148 26.0131 18.7747 25.8131C18.8712 25.7703 18.9533 25.7005 19.0108 25.612C19.0684 25.5235 19.0991 25.4202 19.0991 25.3146V7.6364C19.0991 7.51351 19.0576 7.39421 18.9814 7.29783C18.9051 7.20146 18.7986 7.13366 18.679 7.10542C18.5594 7.07718 18.4337 7.09016 18.3224 7.14225C18.2111 7.19434 18.1207 7.28249 18.0657 7.39242L7.70209 28.1197C7.66424 28.1954 7.64453 28.279 7.64453 28.3637C7.64453 28.4484 7.66424 28.5319 7.70209 28.6077L11.671 36.5455H27.6181L31.587 28.6077C31.6249 28.5319 31.6446 28.4484 31.6446 28.3637C31.6446 28.279 31.6249 28.1954 31.587 28.1197L21.2234 7.39242Z" fill="#FD3F00"/>
<path d="M28.919 37.6367H10.3736C10.0723 37.6367 9.82812 37.8809 9.82812 38.1822V41.4549C9.82812 41.7561 10.0723 42.0004 10.3736 42.0004H28.919C29.2203 42.0004 29.4645 41.7561 29.4645 41.4549V38.1822C29.4645 37.8809 29.2203 37.6367 28.919 37.6367Z" fill="#FD3F00"/>
<path d="M11.4648 46.91C11.4648 47.0546 11.5223 47.1934 11.6246 47.2957C11.7269 47.398 11.8656 47.4554 12.0103 47.4554H27.283C27.4277 47.4554 27.5664 47.398 27.6687 47.2957C27.771 47.1934 27.8285 47.0546 27.8285 46.91V43.0918H11.4648V46.91Z" fill="#FD3F00"/>
</svg>
