<svg width="50" height="50" viewBox="0 0 50 50" fill="none" xmlns="http://www.w3.org/2000/svg">
<path fill-rule="evenodd" clip-rule="evenodd" d="M31.0269 19.6909C31.0269 19.6554 31.0036 19.6254 30.9745 19.609L22.0323 15.1633C22.0032 15.1506 21.974 15.1506 21.9507 15.1633L13.0084 19.609C12.9385 19.6428 12.9371 19.7384 13.0084 19.772L21.9507 24.2174C21.974 24.2302 22.0031 24.2302 22.0323 24.2174L30.9745 19.772C31.0036 19.7564 31.0269 19.7263 31.0269 19.6909ZM31.9415 20.8615C31.9706 20.8788 31.9823 20.907 31.9823 20.9395V29.6159C31.9823 29.7934 31.9007 29.9282 31.7435 30.0073L22.8071 34.4518C22.7468 34.4819 22.6731 34.4352 22.6731 34.3708V25.4798C22.6731 25.4443 22.6906 25.4143 22.7255 25.3979L31.8542 20.8578C31.8833 20.8432 31.9124 20.8448 31.9415 20.8615ZM21.2575 25.3979C21.2924 25.4143 21.3099 25.4443 21.3099 25.4798V34.3708C21.3099 34.4352 21.2362 34.4819 21.1759 34.4518L12.2395 30.0073C12.0822 29.9281 11.989 29.7934 11.989 29.6159V20.9386C11.989 20.8768 12.06 20.8264 12.123 20.8578L21.2575 25.3979ZM33.3514 19.6909V29.616C33.3514 30.3151 32.9786 30.9186 32.3552 31.2299L22.2944 36.2306C22.1022 36.3244 21.875 36.3262 21.6886 36.2306L11.6278 31.2299C11.0045 30.9186 10.6316 30.3151 10.6316 29.616V19.6909C10.6316 19.4315 10.7773 19.1948 11.0044 19.0792L21.6885 13.7697C21.8807 13.6742 22.1021 13.6742 22.2943 13.7697L32.9726 19.0792C33.2057 19.1948 33.3514 19.4315 33.3514 19.6909ZM36.6661 26.5776C36.6661 35.4393 29.0827 41.0768 22.0498 46.4805C22.0149 46.5069 21.9682 46.5069 21.9333 46.4814C21.7469 46.3358 21.5604 46.1892 21.3682 46.0436C14.4533 40.7216 7.3169 35.2174 7.3169 26.5776V15.4355C7.3169 15.3891 7.3518 15.3509 7.3926 15.3454C12.8453 14.6272 18.1408 11.0636 21.9215 6.20039C21.9583 6.15269 22.0244 6.15269 22.0613 6.20039C25.8537 11.0745 31.1142 14.6254 36.5902 15.3454C36.631 15.3509 36.6659 15.3891 36.6659 15.4355V26.5776H36.6661ZM43.2956 3.0127H36.2525C35.8739 3.0127 35.5709 3.3185 35.5709 3.6954C35.5709 4.0731 35.8738 4.3781 36.2525 4.3781H41.4256C41.5089 4.3781 41.5512 4.4751 41.4897 4.53369L33.2873 12.7357C33.2434 12.7791 33.2579 12.8631 33.3164 12.885C33.7358 13.0407 34.1611 13.1799 34.5864 13.301C34.6213 13.3101 34.6563 13.3019 34.6796 13.2782L42.4626 5.4995C42.516 5.44169 42.6141 5.4808 42.6141 5.56319V10.7407C42.6141 11.1173 42.917 11.4232 43.2957 11.4232C43.6685 11.4232 43.9831 11.1173 43.9831 10.7407V3.6954C43.983 3.3185 43.6684 3.0127 43.2956 3.0127ZM0.6874 11.4231C1.0661 11.4231 1.369 11.1172 1.369 10.7406V5.56319C1.369 5.48189 1.4663 5.44099 1.5205 5.4995L9.3035 13.2764C9.3268 13.301 9.3617 13.3091 9.3909 13.3C9.822 13.178 10.2415 13.0397 10.6551 12.884C10.7284 12.8588 10.7293 12.7727 10.6901 12.7348L2.4934 4.53369C2.4319 4.4752 2.4741 4.3781 2.5575 4.3781H7.7306C8.1093 4.3781 8.4122 4.0731 8.4122 3.6954C8.4122 3.3185 8.1093 3.0127 7.7306 3.0127H0.6874C0.3146 3.0127 0 3.3185 0 3.6954V10.7407C0 11.1173 0.3146 11.4231 0.6874 11.4231ZM43.2956 38.578C42.9169 38.578 42.614 38.8839 42.614 39.2607V44.4379C42.614 44.5192 42.5167 44.5602 42.4625 44.5016L34.8835 36.9231C34.8424 36.8859 34.78 36.8861 34.7437 36.9349C34.5107 37.2571 34.2718 37.5739 34.0271 37.887C33.998 37.9234 33.998 37.9744 34.0329 38.0071L41.4896 45.4663C41.5514 45.5261 41.5081 45.6219 41.4255 45.6219H36.2525C35.8739 45.6219 35.5709 45.9277 35.5709 46.3046C35.5709 46.6824 35.8738 46.9873 36.2525 46.9873H43.2956C43.6684 46.9873 43.983 46.6824 43.983 46.3046V39.2605C43.983 38.8838 43.6684 38.578 43.2956 38.578ZM9.9559 37.888C9.7112 37.5749 9.4724 37.2581 9.2394 36.9359C9.2064 36.8917 9.1431 36.8846 9.0996 36.924L1.5206 44.5016C1.4665 44.5602 1.3691 44.5192 1.3691 44.4379V39.2607C1.3691 38.8838 1.0662 38.578 0.6875 38.578C0.303 38.578 0.000100136 38.8839 0.000100136 39.2607V46.3048C0.000100136 46.6826 0.303 46.9875 0.6875 46.9875H7.7306C8.1093 46.9875 8.4122 46.6826 8.4122 46.3048C8.4122 45.928 8.1093 45.6221 7.7306 45.6221H2.5516C2.469 45.6221 2.4258 45.5262 2.4875 45.4665L9.9501 38.0091C9.985 37.9754 9.985 37.9244 9.9559 37.888Z" fill="#FD3F00"/>
</svg>
