<svg width="140" height="140" viewBox="0 0 140 140" fill="none" xmlns="http://www.w3.org/2000/svg">
<g opacity="0.8">
<path opacity="0.7" d="M29.5269 50.0013V49.4899C29.5269 39.908 41.1407 35.1092 47.9332 41.8847L91.0035 84.8476V3.39959C84.2229 1.19588 76.9862 0 69.4683 0C31.1019 0 0 31.0245 0 69.2951C0 92.7349 11.6692 113.454 29.5269 125.994V50.0013Z" fill="#E4E4E4"/>
<path opacity="0.2" d="M110.473 14.0059V93.8629C110.473 96.9728 109.695 99.9005 108.326 102.467C105.234 108.27 99.1142 112.223 92.0664 112.223L48.9961 69.2604V136.6C55.7767 138.804 63.0134 140 70.5313 140C108.898 140 140 108.975 140 70.7049C140 47.2651 128.33 26.5458 110.473 14.0059Z" fill="black"/>
</g>
</svg>
