<svg width="18" height="18" viewBox="0 0 18 18" fill="none" xmlns="http://www.w3.org/2000/svg">
<path d="M1.07934 10.0803H16.9193C17.0611 10.0803 17.2016 10.0523 17.3326 9.99804C17.4637 9.94376 17.5828 9.86418 17.6831 9.76387C17.7834 9.66356 17.8629 9.54447 17.9172 9.41341C17.9715 9.28235 17.9994 9.14188 17.9994 9.00003C17.9994 8.85818 17.9715 8.71772 17.9172 8.58667C17.8629 8.45561 17.7834 8.33653 17.6831 8.23623C17.5828 8.13593 17.4637 8.05637 17.3326 8.0021C17.2016 7.94783 17.0611 7.9199 16.9193 7.91992H1.07934C0.795043 7.92325 0.523523 8.03852 0.323663 8.24073C0.123803 8.44294 0.0117188 8.71579 0.0117188 9.0001C0.0117188 9.28441 0.123803 9.55726 0.323663 9.75947C0.523523 9.96168 0.795043 10.077 1.07934 10.0803Z" fill="white"/>
</svg>
