<svg width="40" height="40" viewBox="0 0 40 40" fill="none" xmlns="http://www.w3.org/2000/svg">
<g clip-path="url(#clip0_34096_3168)">
<path d="M40 20C40 29.9828 32.6859 38.257 23.125 39.757V25.7812H27.7852L28.6719 20H23.125V16.2484C23.125 14.6664 23.9 13.125 26.3844 13.125H28.9063V8.20314C28.9063 8.20314 26.6172 7.81249 24.4289 7.81249C19.8609 7.81249 16.875 10.5812 16.875 15.5937V20H11.7969V25.7812H16.875V39.757C7.31409 38.257 0 29.9828 0 20C0 8.95471 8.95471 0 20 0C31.0453 0 40 8.95471 40 20Z" fill="#1877F2"/>
<path d="M27.7852 25.7812L28.6719 20H23.125V16.2484C23.125 14.6667 23.8998 13.125 26.3843 13.125H28.9063V8.20315C28.9063 8.20315 26.6175 7.8125 24.4293 7.8125C19.8609 7.8125 16.875 10.5812 16.875 15.5937V20H11.7969V25.7812H16.875V39.7569C17.8933 39.9167 18.9369 40 20 40C21.0632 40 22.1067 39.9167 23.125 39.7569V25.7812H27.7852Z" fill="white"/>
</g>
<defs>
<clipPath id="clip0_34096_3168">
<rect width="40" height="40" fill="white"/>
</clipPath>
</defs>
</svg>
