<svg width="40" height="40" viewBox="0 0 40 40" fill="none" xmlns="http://www.w3.org/2000/svg">
<g clip-path="url(#clip0_34096_3213)">
<path d="M19.9996 39.9993C31.0451 39.9993 39.9993 31.0451 39.9993 19.9996C39.9993 8.95415 31.0451 0 19.9996 0C8.95415 0 0 8.95415 0 19.9996C0 31.0451 8.95415 39.9993 19.9996 39.9993Z" fill="#CB2027"/>
<path d="M21.6153 26.7819C20.1033 26.665 19.468 25.9152 18.2822 25.1954C17.6305 28.6147 16.8341 31.8925 14.475 33.6048C13.746 28.4368 15.5438 24.5551 16.3788 20.4349C14.9556 18.0391 16.5499 13.217 19.5518 14.4052C23.2463 15.8662 16.3531 23.3134 20.9807 24.2435C25.8118 25.2147 27.784 15.8608 24.7879 12.8184C20.4591 8.42578 12.1876 12.7185 13.2048 19.0067C13.4525 20.544 15.0412 21.0107 13.8394 23.1319C11.0689 22.5184 10.2425 20.3333 10.3487 17.4202C10.5202 12.6519 14.6333 9.31314 18.7589 8.8511C23.9764 8.26713 28.8735 10.767 29.5494 15.6747C30.3099 21.2139 27.194 27.2126 21.6153 26.7819Z" fill="#F1F2F2"/>
</g>
<defs>
<clipPath id="clip0_34096_3213">
<rect width="40" height="40" fill="white"/>
</clipPath>
</defs>
</svg>
