<svg width="40" height="40" viewBox="0 0 40 40" fill="none" xmlns="http://www.w3.org/2000/svg">
<g clip-path="url(#clip0_34096_3209)">
<path d="M20 39.5312C30.7868 39.5312 39.5312 30.7868 39.5312 20C39.5312 9.21319 30.7868 0.46875 20 0.46875C9.21319 0.46875 0.46875 9.21319 0.46875 20C0.46875 30.7868 9.21319 39.5312 20 39.5312Z" fill="#5C6BC0"/>
<path opacity="0.49" d="M39.5269 20.218L31.605 12.2961C28.1428 9.81172 24.9167 9.70844 24.3003 9.69555L23.907 10.0689L25.196 11.358C23.4919 10.9564 21.749 10.7426 19.9984 10.7204C18.9812 10.7331 17.9659 10.8106 16.9587 10.9525L16.9547 10.9531L15.6969 9.69531C15.0805 9.7082 11.8544 9.81117 8.39219 12.2959C8.39219 12.2959 4.52344 18.7843 4.52344 26.7532L17.1316 39.322C18.0808 39.4618 19.0389 39.532 19.9984 39.532C30.7125 39.532 39.4102 30.9045 39.5269 20.218Z" fill="url(#paint0_linear_34096_3209)"/>
<path d="M31.6048 12.2959C28.1425 9.81149 24.9164 9.7082 24.3001 9.69531L23.9066 10.0687C28.3262 11.3045 30.4638 13.2356 30.4638 13.2356C26.6703 11.4035 23.0955 10.7592 19.9984 10.7205C16.9015 10.7595 13.3266 11.4035 9.53313 13.2356C9.53313 13.2356 11.6708 11.3045 16.0904 10.0687L15.6969 9.69531C15.0805 9.7082 11.8544 9.81117 8.39219 12.2959C8.39219 12.2959 4.52344 18.7843 4.52344 26.7532C4.65453 26.5988 6.92336 30.1777 12.7724 30.3064C12.7724 30.3064 13.756 29.2121 14.4641 28.2466C11.0544 27.281 9.76922 25.35 9.76922 25.35C13.3141 27.542 16.6251 28.3853 19.9984 28.2757C23.3718 28.3851 26.6828 27.542 30.2277 25.35C30.2277 25.35 28.9425 27.281 25.5323 28.2466C26.2405 29.2121 27.2241 30.3064 27.2241 30.3064C33.0731 30.1777 35.342 26.5988 35.473 26.7532C35.4734 18.7843 31.6048 12.2959 31.6048 12.2959ZM15.2376 24.2557C13.7425 24.2557 12.536 23.0198 12.536 21.5006C12.536 19.9815 13.7425 18.7456 15.2376 18.7456V18.7585C16.7195 18.7585 17.9391 19.9945 17.9391 21.5135C17.9395 23.0198 16.7328 24.2557 15.2379 24.2557H15.2376ZM24.7587 24.2557C23.2636 24.2557 22.0571 23.0198 22.0571 21.5135C22.0571 19.9945 23.2767 18.7585 24.7587 18.7585V18.7456C26.2537 18.7456 27.4602 19.9816 27.4602 21.5006C27.4602 23.0197 26.2541 24.2557 24.759 24.2557H24.7587Z" fill="white"/>
</g>
<defs>
<linearGradient id="paint0_linear_34096_3209" x1="9.61367" y1="11.0741" x2="33.0795" y2="34.54" gradientUnits="userSpaceOnUse">
<stop stop-color="#1D1D1B"/>
<stop offset="0.369" stop-color="#1D1D1B" stop-opacity="0.856"/>
<stop offset="0.75" stop-color="#1D1D1B" stop-opacity="0.429"/>
<stop offset="1" stop-color="#1D1D1B" stop-opacity="0"/>
</linearGradient>
<clipPath id="clip0_34096_3209">
<rect width="40" height="40" fill="white"/>
</clipPath>
</defs>
</svg>
