<svg width="40" height="40" viewBox="0 0 40 40" fill="none" xmlns="http://www.w3.org/2000/svg">
<g clip-path="url(#clip0_34096_3197)">
<path d="M40.0016 20.118C40.0016 9.13764 31.0994 0.236328 20.118 0.236328C9.13658 0.236328 0.234375 9.13764 0.234375 20.118C0.234375 31.0984 9.13658 39.9997 20.118 39.9997C31.0994 39.9997 40.0016 31.0984 40.0016 20.118Z" fill="url(#paint0_linear_34096_3197)"/>
<path opacity="0.1" d="M35.0814 7.03828C32.1826 12.3592 28.0829 17.8476 22.9602 22.9698C17.8376 28.0919 12.3487 32.1834 7.03508 35.0819C6.70191 34.7924 6.3784 34.4907 6.06444 34.1767C4.16675 32.3426 2.65325 30.149 1.61218 27.7239C0.57111 25.2988 0.023312 22.6908 0.000727993 20.0518C-0.021856 17.4129 0.481225 14.7958 1.48064 12.3532C2.48005 9.91071 3.95579 7.69151 5.82181 5.82518C7.68782 3.95881 9.90677 2.48259 12.3493 1.4826C14.7918 0.482599 17.409 -0.0211639 20.0482 0.000681203C22.6874 0.0225263 25.2959 0.569543 27.7215 1.60983C30.1471 2.65012 32.3414 4.16287 34.1762 6.05986C34.4902 6.37378 34.7919 6.69994 35.0814 7.03828Z" fill="white"/>
<path d="M24.8267 9.6543H15.4081C13.8816 9.6543 12.4176 10.2606 11.3382 11.34C10.2587 12.4193 9.65234 13.8831 9.65234 15.4095V24.8272C9.65234 26.3536 10.2587 27.8174 11.3382 28.8967C12.4176 29.976 13.8816 30.5824 15.4081 30.5824H24.8267C26.3532 30.5824 27.8172 29.976 28.8967 28.8967C29.976 27.8174 30.5824 26.3536 30.5824 24.8272V15.4095C30.5824 13.8831 29.976 12.4193 28.8967 11.34C27.8172 10.2606 26.3532 9.6543 24.8267 9.6543ZM28.7511 24.0005C28.7511 25.2604 28.2505 26.4688 27.3595 27.3597C26.4685 28.2507 25.26 28.7512 23.9999 28.7512H16.2349C14.9748 28.7512 13.7663 28.2507 12.8753 27.3597C11.9843 26.4688 11.4837 25.2604 11.4837 24.0005V16.2361C11.4837 14.9762 11.9843 13.7678 12.8753 12.8769C13.7663 11.986 14.9748 11.4855 16.2349 11.4855H23.9999C25.26 11.4855 26.4685 11.986 27.3595 12.8769C28.2505 13.7678 28.7511 14.9762 28.7511 16.2361V24.0005Z" fill="white"/>
<path d="M23.9344 16.3407L23.8847 16.291L23.8428 16.2492C22.8536 15.2634 21.5138 14.7103 20.1173 14.7109C19.4121 14.7157 18.7147 14.8594 18.065 15.1338C17.4153 15.4082 16.826 15.8078 16.3309 16.31C15.8357 16.8121 15.4444 17.4069 15.1792 18.0604C14.914 18.7138 14.7801 19.413 14.7853 20.1182C14.7843 21.5493 15.3484 22.9229 16.3551 23.9402C16.8482 24.4392 17.4358 24.8351 18.0835 25.1045C18.7312 25.374 19.4262 25.5118 20.1278 25.5098C21.1801 25.4877 22.2033 25.16 23.0726 24.5664C23.9418 23.9729 24.6195 23.1392 25.0231 22.1672C25.4267 21.1951 25.5386 20.1266 25.3453 19.092C25.1519 18.0575 24.6617 17.1015 23.9344 16.3407ZM20.1173 23.6655C19.4136 23.6754 18.7228 23.4757 18.1329 23.092C17.543 22.7083 17.0806 22.1578 16.8044 21.5105C16.5283 20.8632 16.4509 20.1485 16.5821 19.4572C16.7134 18.7658 17.0473 18.1291 17.5414 17.628C18.0355 17.1269 18.6675 16.7841 19.357 16.6431C20.0465 16.5022 20.7623 16.5695 21.4135 16.8364C22.0646 17.1034 22.6217 17.558 23.0137 18.1424C23.4058 18.7268 23.6151 19.4145 23.6152 20.1182C23.6187 20.5808 23.5309 21.0396 23.3569 21.4683C23.183 21.897 22.9263 22.2872 22.6014 22.6167C22.2766 22.9461 21.89 23.2083 21.4637 23.3882C21.0375 23.5682 20.5799 23.6624 20.1173 23.6655Z" fill="white"/>
<path d="M27.031 14.4636C27.0323 14.6315 27.0006 14.798 26.9375 14.9536C26.8745 15.1092 26.7814 15.2509 26.6634 15.3704C26.5456 15.49 26.4053 15.5851 26.2506 15.6504C26.0959 15.7157 25.9299 15.7498 25.762 15.7508C25.5956 15.7507 25.4308 15.7176 25.2772 15.6535C25.1236 15.5892 24.9842 15.4952 24.8673 15.3767C24.69 15.1969 24.5695 14.969 24.5206 14.7213C24.4716 14.4736 24.4964 14.217 24.592 13.9832C24.6876 13.7495 24.8496 13.549 25.058 13.4065C25.2665 13.264 25.5122 13.1858 25.7647 13.1816C26.0601 13.1816 26.3463 13.2853 26.5731 13.4747L26.5993 13.5008C26.6414 13.5352 26.68 13.5738 26.7143 13.616L26.7431 13.6474C26.9304 13.8781 27.0321 14.1665 27.031 14.4636Z" fill="white"/>
</g>
<defs>
<linearGradient id="paint0_linear_34096_3197" x1="6.05818" y1="6.05957" x2="34.175" y2="34.1792" gradientUnits="userSpaceOnUse">
<stop stop-color="#FAE100"/>
<stop offset="0.15" stop-color="#FCB720"/>
<stop offset="0.3" stop-color="#FF7950"/>
<stop offset="0.5" stop-color="#FF1C74"/>
<stop offset="1" stop-color="#6C1CD1"/>
</linearGradient>
<clipPath id="clip0_34096_3197">
<rect width="40" height="40" fill="white"/>
</clipPath>
</defs>
</svg>
