<svg width="40" height="40" viewBox="0 0 40 40" fill="none" xmlns="http://www.w3.org/2000/svg">
<g clip-path="url(#clip0_34096_3185)">
<path d="M20 39.998C31.0457 39.998 40 31.0438 40 19.998C40 8.95237 31.0457 -0.00195312 20 -0.00195312C8.95428 -0.00195312 0 8.95237 0 19.998C0 31.0438 8.95428 39.998 20 39.998Z" fill="#007AB9"/>
<path d="M31.9519 21.6104V29.856H27.1714V22.1631C27.1714 20.2314 26.4811 18.9123 24.7503 18.9123C23.4293 18.9123 22.6447 19.8004 22.2981 20.6603C22.1722 20.9676 22.1398 21.3944 22.1398 21.8254V29.8557H17.3589C17.3589 29.8557 17.4231 16.8263 17.3589 15.4776H22.1402V17.5151C22.1306 17.5311 22.117 17.5468 22.1084 17.5621H22.1402V17.5151C22.7755 16.5375 23.9085 15.14 26.4487 15.14C29.5939 15.14 31.9519 17.1949 31.9519 21.6104ZM12.3576 8.54688C10.7223 8.54688 9.65234 9.62035 9.65234 11.0308C9.65234 12.4112 10.6912 13.5157 12.2949 13.5157H12.3259C13.9933 13.5157 15.0301 12.4112 15.0301 11.0308C14.9984 9.62035 13.9933 8.54688 12.3576 8.54688ZM9.93653 29.856H14.7157V15.4776H9.93653V29.856Z" fill="white"/>
</g>
<defs>
<clipPath id="clip0_34096_3185">
<rect width="40" height="40" fill="white"/>
</clipPath>
</defs>
</svg>
