<svg width="40" height="40" viewBox="0 0 40 40" fill="none" xmlns="http://www.w3.org/2000/svg">
<g clip-path="url(#clip0_34096_3192)">
<path d="M20 40C31.0457 40 40 31.0457 40 20C40 8.95428 31.0457 0 20 0C8.95428 0 0 8.95428 0 20C0 31.0457 8.95428 40 20 40Z" fill="#FA597D"/>
<path d="M21.6034 37.722C10.5577 37.722 1.60336 28.7676 1.60336 17.722C1.60336 13.9438 2.65148 10.4106 4.47211 7.39648C1.67656 10.8364 0 15.2224 0 20.0005C0 31.0461 8.9544 40.0005 20 40.0005C27.2675 40.0005 33.6292 36.1239 37.1313 30.3261C33.4642 34.8383 27.871 37.722 21.6034 37.722Z" fill="#E0365C"/>
<path d="M30.8017 18.988C29.0455 18.988 27.3097 19.1227 25.6012 19.3891C25.2466 17.8128 24.7761 16.2633 24.1914 14.7463C25.3234 13.8722 26.4041 12.9239 27.4274 11.9004C29.5842 9.74365 31.4138 7.33633 32.8961 4.71484C32.0295 3.98289 31.0998 3.32336 30.1162 2.74547C28.2463 6.13156 25.7424 9.12057 22.765 11.5508C21.1779 8.44303 19.1195 5.61547 16.6257 3.12164C15.8313 2.32719 15.0023 1.57789 14.1418 0.873047C12.883 1.25812 11.677 1.76383 10.5374 2.37711C14.5353 5.2625 17.7986 9.10531 19.987 13.5674C15.312 16.5702 9.75446 18.3129 3.7975 18.3129C2.54297 18.3129 1.30649 18.2348 0.0918751 18.0847C0.031875 18.7155 0 19.3543 0 20.0007C0 20.499 0.0189062 20.9931 0.0546875 21.4824C1.29015 21.6195 2.53859 21.6885 3.7975 21.6885C8.30812 21.6885 12.6847 20.8047 16.8057 19.0616C18.376 18.3975 19.882 17.6184 21.3198 16.7323C21.7061 17.821 22.031 18.9386 22.291 20.0806C20.763 20.4824 19.262 20.9937 17.7934 21.6149C13.8138 23.2981 10.2403 25.7074 7.17169 28.776C6.08601 29.8616 5.08453 31.0119 4.16679 32.2197C4.87203 33.1321 5.65383 33.9822 6.50345 34.7597C10.4634 29.3221 16.2006 25.2577 22.8549 23.4306C22.9756 24.5214 23.038 25.6294 23.038 26.7518C23.038 31.5038 21.9287 36.0017 19.9559 40.0001C19.9706 40.0001 19.9852 40.0008 20 40.0008C21.3137 40.0008 22.5974 39.8726 23.8403 39.6309C25.5475 35.5476 26.4134 31.2154 26.4134 26.7519C26.4134 25.3947 26.3328 24.0496 26.1734 22.7199C27.6823 22.4856 29.2281 22.3638 30.8017 22.3638C33.8829 22.3638 36.8572 22.8303 39.6579 23.6961C39.8658 22.5833 39.9812 21.438 39.9966 20.2685C37.0241 19.4179 33.9455 18.988 30.8017 18.988Z" fill="#C73052"/>
</g>
<defs>
<clipPath id="clip0_34096_3192">
<rect width="40" height="40" fill="white"/>
</clipPath>
</defs>
</svg>
