<svg width="40" height="32" viewBox="0 0 40 32" fill="none" xmlns="http://www.w3.org/2000/svg">
<path d="M9.55969 15.8682C9.6028 15.1956 9.71086 14.5202 9.89153 13.8557C10.542 11.4436 12.0316 9.39889 14.1121 8.0401C14.2822 7.92755 14.4549 7.82024 14.6329 7.71845C14.9135 7.55756 15.1995 7.41031 15.4885 7.279C15.6595 7.20093 15.833 7.12981 16.0069 7.06129C16.0536 7.0401 16.1032 7.02487 16.1511 7.00562C16.2733 6.95971 16.3965 6.91856 16.5196 6.87784C18.5076 6.30256 21.2265 7.17285 23.0116 8.87856L19.9925 3.68516C19.8952 3.67969 19.7982 3.67969 19.7009 3.67969C19.6173 3.67969 19.5311 3.67969 19.4472 3.68516C19.1233 3.68778 18.8023 3.70657 18.481 3.73869C18.141 3.77081 17.8037 3.81649 17.4664 3.8755C17.1075 3.93974 16.7486 4.02015 16.395 4.11389C15.3184 4.40059 14.2738 4.82956 13.2834 5.39772C10.3041 7.10482 8.17497 9.86261 7.28447 13.1616C6.68814 15.37 6.69603 17.64 7.2818 19.7866C7.37619 20.1349 7.48692 20.4808 7.61364 20.8237L9.5863 17.4309C9.53547 16.9134 9.52736 16.3907 9.55969 15.8682Z" fill="black"/>
<path d="M19.7183 1.60788L26.8536 13.8797C28.5026 16.7205 28.1731 19.0709 27.2961 20.5796C28.0193 19.7971 28.5941 18.6553 28.8883 17.3798C28.9856 16.967 29.0502 16.5383 29.0826 16.1041L24.719 8.59735H24.7163L23.9526 7.28138L21.9744 3.88052L19.7183 0L17.4648 3.87529C17.8022 3.81628 18.1395 3.77084 18.4795 3.73848L19.7183 1.60788Z" fill="black"/>
<path d="M31.8269 20.8232C31.7081 21.1449 31.5814 21.4585 31.441 21.7666L32.6796 23.8998H18.4311C15.1281 23.8972 13.2443 22.4392 12.3672 20.9303C12.6882 21.9434 13.3955 23.0074 14.3614 23.8998C14.6717 24.1894 15.0145 24.4599 15.376 24.7038H34.083L31.8269 20.8232Z" fill="black"/>
<path d="M6.75842 23.8999L13.8855 11.6417V11.6391C15.5398 8.80091 17.7525 7.90844 19.5067 7.90844C18.4624 7.68075 17.1804 7.75573 15.9203 8.13901C15.5128 8.26226 15.1052 8.42044 14.7114 8.61057L10.3559 16.1011V16.1037L5.35547 24.7039H9.87292C9.65414 24.4467 9.44381 24.1786 9.24403 23.8999H6.75842Z" fill="black"/>
<path d="M24.8062 25.2214C24.6279 25.3232 24.4473 25.4196 24.2664 25.5081C22.8172 26.229 21.2681 26.5747 19.7353 26.5747C18.1513 26.5747 16.5861 26.2076 15.1719 25.5081C14.7023 25.2775 14.2517 25.0096 13.82 24.7041C13.7338 24.6425 13.6473 24.5809 13.561 24.5167C13.4949 24.4667 13.4319 24.412 13.3667 24.3604L13.3708 24.3618C13.3028 24.3137 13.2393 24.2585 13.1743 24.2054C13.1372 24.1745 13.0981 24.1462 13.0617 24.1148C13.0483 24.1036 13.0361 24.0917 13.0227 24.0803C11.4755 22.6792 10.8488 19.8539 11.4528 17.4287L8.43359 22.6221C8.47676 22.7025 8.52276 22.7829 8.56848 22.8633C8.61426 22.9412 8.66026 23.0187 8.70887 23.0965C8.87609 23.3725 9.05426 23.6402 9.24304 23.9C9.44282 24.1786 9.65315 24.4468 9.87193 24.704C10.1067 24.9854 10.355 25.2538 10.6114 25.5083C13.0483 27.9337 16.3621 29.2523 19.738 29.2523C21.9212 29.2523 24.1339 28.7029 26.1552 27.5423C27.1456 26.9741 28.0416 26.2908 28.8296 25.5083C29.0886 25.2511 29.337 24.983 29.5718 24.7044H25.6183C25.3567 24.889 25.0867 25.0605 24.8062 25.2214Z" fill="black"/>
<path d="M25.3246 8.02947C26.6307 8.88431 27.729 10.0342 28.5332 11.417C29.3375 12.7998 29.7933 14.3221 29.8825 15.8712C29.9148 16.3884 29.9041 16.9083 29.8528 17.4281C29.8326 17.6363 29.8058 17.8445 29.7727 18.0525C29.7723 18.056 29.7716 18.0598 29.7711 18.0634C29.7445 18.2288 29.7105 18.3934 29.6755 18.5583C29.1626 20.5392 27.0588 22.419 24.6969 23.0965H30.7353C30.8297 22.9437 30.9215 22.7854 31.008 22.6275C31.1645 22.346 31.3074 22.0594 31.4425 21.7672C31.5829 21.4591 31.7096 21.1455 31.8285 20.8238C31.95 20.4834 32.0607 20.135 32.1577 19.7812V19.7786C33.0456 16.4796 32.5895 13.0356 30.8705 10.077C29.1515 7.12111 26.3746 5.00382 23.0527 4.11946H23.05C22.6938 4.0231 22.3354 3.94534 21.9766 3.88086L23.9547 7.28172C24.432 7.49612 24.8902 7.74539 25.3246 8.02947Z" fill="black"/>
<path d="M19.7345 12.6143C17.5912 12.6143 15.8555 14.3402 15.8555 16.4665C15.8555 18.5949 17.5912 20.3208 19.7345 20.3208C21.8777 20.3208 23.6134 18.5949 23.6134 16.4665C23.6136 14.3402 21.8779 12.6143 19.7345 12.6143ZM19.7345 19.0096C18.3188 19.0096 17.1734 17.8721 17.1734 16.4662C17.1734 15.0639 18.3188 13.9228 19.7345 13.9228C21.1501 13.9228 22.2952 15.0639 22.2952 16.4662C22.2955 17.8721 21.1501 19.0096 19.7345 19.0096Z" fill="black"/>
</svg>
