<svg width="30" height="29" viewBox="0 0 30 29" fill="none" xmlns="http://www.w3.org/2000/svg">
<g clip-path="url(#clip0_34299_493)">
<path d="M27.9474 26.9227V27.8265H29.3643V28.5449H25.2539V26.9227C25.2539 26.0977 25.7937 25.5645 26.5978 25.5645C27.3907 25.5645 27.9474 26.1033 27.9474 26.9227ZM25.8949 27.0631V27.8265H27.3063V27.0743C27.3063 26.5804 27.042 26.3165 26.5922 26.3165C26.1423 26.3165 25.8949 26.586 25.8949 27.0631Z" fill="#474747"/>
<path d="M27.9698 25.4734C27.1038 25.4734 26.5078 24.8503 26.5078 23.9916C26.5078 23.1328 27.1038 22.5098 27.9698 22.5098C28.8358 22.5098 29.4318 23.1328 29.4318 23.9916C29.4318 24.8503 28.8358 25.4734 27.9698 25.4734ZM27.9698 24.7886C28.4759 24.7886 28.8188 24.4631 28.8188 23.9916C28.8188 23.5201 28.4759 23.1945 27.9698 23.1945C27.4637 23.1945 27.1207 23.5201 27.1207 23.9916C27.1207 24.4631 27.4637 24.7886 27.9698 24.7886Z" fill="#474747"/>
<path d="M29.3637 21.6045L26.5859 22.5026V21.7897L27.778 21.4249C27.9973 21.3631 28.2391 21.307 28.4978 21.2565C28.2279 21.206 28.0535 21.1555 27.778 21.0656L26.5859 20.684V19.988L27.778 19.6176C27.8905 19.5839 28.3066 19.4716 28.4921 19.4379C28.2841 19.393 27.9524 19.3032 27.778 19.2527L26.5859 18.8823V18.1582L29.3637 19.118V19.7579L28.1604 20.1396C27.7949 20.2518 27.5306 20.3136 27.39 20.336C27.5194 20.3641 27.7162 20.4146 28.1716 20.5549L29.3637 20.9366V21.6045Z" fill="#474747"/>
<path d="M29.4391 16.7524C29.4391 17.5775 28.8375 18.1556 27.9771 18.1556C27.1055 18.1556 26.5039 17.5887 26.5039 16.7748C26.5039 15.9441 27.0606 15.4165 27.9265 15.4165H28.1346L28.1402 17.5045C28.6294 17.454 28.8768 17.1958 28.8768 16.7411C28.8768 16.3651 28.7306 16.1181 28.4663 16.0396V15.4053C29.0736 15.5231 29.4391 16.0283 29.4391 16.7524ZM27.0662 16.7692C27.0662 17.1733 27.2855 17.4203 27.7016 17.4876V16.0956C27.3193 16.0956 27.0662 16.3595 27.0662 16.7692Z" fill="#474747"/>
<path d="M26.5745 13.2412H27.2099V13.4938C27.2099 13.9877 27.4742 14.2964 28.014 14.2964H29.3635V14.9812H26.5913V14.3357L26.9962 14.2964C26.7207 14.1786 26.5352 13.9147 26.5352 13.5443C26.5352 13.4489 26.5464 13.3534 26.5745 13.2412Z" fill="#474747"/>
<path d="M29.4331 9.62847C29.4331 9.87541 29.2307 10.0831 28.9889 10.0831C28.7415 10.0831 28.5391 9.87541 28.5391 9.62847C28.5391 9.38148 28.7415 9.17383 28.9889 9.17383C29.2307 9.17383 29.4331 9.38148 29.4331 9.62847Z" fill="#474747"/>
<path d="M28.098 7.44996C27.6482 7.44996 27.3445 7.12439 27.2996 6.50696L27.2377 5.74924H27.1815C26.861 5.74924 26.6979 5.92882 26.6979 6.27124C26.6979 6.64168 26.8497 6.84938 27.1197 6.84938V7.37696C26.5742 7.37696 26.2143 6.93354 26.2143 6.24317C26.2143 5.54154 26.6023 5.14303 27.2827 5.14303H28.1543C28.3679 5.14303 28.4692 5.04761 28.4692 4.85678C28.4692 4.54806 28.0587 4.34039 27.4514 4.34039C26.3718 4.34039 25.6014 5.13181 25.6014 6.24876C25.6014 7.37133 26.4505 8.20204 27.5863 8.20204C28.7278 8.20204 29.5769 7.37133 29.5769 6.24876C29.5769 5.84467 29.4363 5.43491 29.1889 5.08129L29.5713 4.88484C29.8524 5.27774 29.9986 5.74924 29.9986 6.24876C29.9986 7.62954 28.9696 8.65669 27.5863 8.65669C26.2087 8.65669 25.1797 7.62396 25.1797 6.24876C25.1797 4.87923 26.1356 3.88574 27.4514 3.88574C28.3174 3.88574 28.8852 4.3011 28.8852 4.94658C28.8852 5.33387 28.7166 5.58082 28.4073 5.6594C28.6884 5.77168 28.8853 6.13653 28.8853 6.54067C28.8853 7.10754 28.5873 7.44996 28.098 7.44996ZM28.0756 6.81568C28.3005 6.81568 28.4129 6.66975 28.4129 6.37789C28.4129 5.98496 28.1824 5.74361 27.8 5.74361H27.6651L27.7101 6.27683C27.7438 6.65853 27.8562 6.81568 28.0756 6.81568Z" fill="#474747"/>
<path d="M22.492 14.5H7.22956C3.23679 14.5 0 17.7459 0 21.75C0 25.7541 3.23679 29 7.22956 29H22.492V14.5Z" fill="#474747"/>
<path d="M19.2789 0H7.22956C3.23679 0 0 3.24594 0 7.25C0 11.2541 3.23679 14.5 7.22956 14.5H11.246L19.2789 0Z" fill="#474747"/>
</g>
<defs>
<clipPath id="clip0_34299_493">
<rect width="30" height="29" fill="white"/>
</clipPath>
</defs>
</svg>
