<svg width="40" height="28" viewBox="0 0 40 28" fill="none" xmlns="http://www.w3.org/2000/svg">
<path fill-rule="evenodd" clip-rule="evenodd" d="M17.0086 0C20.3792 0.00011029 23.1117 2.71219 23.1118 6.05657C23.1118 6.24306 23.1032 6.42879 23.0913 6.6138H28.2321C33.2325 6.6138 35.196 13.0485 31.0354 15.8006L25.5952 19.3985C24.4241 20.1735 24.7452 21.962 26.1141 22.288C26.5616 22.3945 27.0343 22.3061 27.4121 22.0454L30.5684 19.7349C30.6882 19.6472 30.8327 19.6 30.981 19.6H39.6498C39.9912 19.6 40.1301 20.0397 39.8509 20.2363L30.6747 26.6978C28.9586 27.8823 26.8135 28.2834 24.7808 27.7993C18.5645 26.319 17.1077 18.201 22.4266 14.6824L26.0564 12.282H20.4861H16.9212C15.8976 12.282 14.9313 12.0348 14.0808 11.5984C14.9872 12.2174 17.2279 12.9064 19.1183 13.0376C19.2868 13.0376 19.5603 13.1869 19.2346 13.5228L7.78979 24.9947C7.65862 25.1261 7.48069 25.2 7.29517 25.2H0.350265C0.0387903 25.2 -0.117153 24.8229 0.103154 24.6024L13.4634 11.233C11.8172 10.1296 10.7346 8.26091 10.7344 6.14144C10.7344 2.75012 13.5052 0 16.9231 0H17.0086ZM17.1323 4.7244C16.3436 4.7244 15.7041 5.14736 15.7041 5.6691C15.7045 6.09923 16.1396 6.46106 16.7343 6.57504C16.7922 6.59993 16.8561 6.6138 16.9231 6.6138H17.3471C17.3479 6.60958 17.3472 6.6051 17.348 6.60088C18.0341 6.53206 18.5601 6.14209 18.5605 5.6691C18.5605 5.14736 17.921 4.7244 17.1323 4.7244Z" fill="#474747"/>
</svg>
