<svg width="60" height="60" viewBox="0 0 60 60" fill="none" xmlns="http://www.w3.org/2000/svg">
<path d="M12.6546 21.4292V21.21C12.6546 17.1035 17.6321 15.0469 20.5432 17.9507L39.0022 36.3634V1.45697C36.0962 0.512522 32.9947 0 29.7727 0C13.3296 0 0 13.2963 0 29.698C0 39.7437 5.00116 48.6234 12.6546 53.9977V21.4292Z" fill="black"/>
<path d="M47.3437 6.00195V40.2265C47.3437 41.5593 47.0103 42.8141 46.4238 43.9142C45.0984 46.4012 42.4757 48.0953 39.4551 48.0953L20.9961 29.6825V58.5427C23.9021 59.4871 27.0036 59.9996 30.2257 59.9996C46.6687 59.9996 59.9983 46.7034 59.9983 30.3016C59.9983 20.256 54.9972 11.3762 47.3437 6.00195Z" fill="#FD3F00"/>
</svg>
