<svg width="898" height="449" viewBox="0 0 898 449" fill="none" xmlns="http://www.w3.org/2000/svg">
<path d="M0 -3.05176e-05C-1.04105e-05 119.082 47.3052 233.287 131.509 317.491C215.713 401.695 329.918 449 449 449C568.082 449 682.287 401.695 766.491 317.491C850.695 233.287 898 119.082 898 0.00012207L828.649 9.15527e-05C828.649 100.689 788.65 197.254 717.452 268.452C646.254 339.65 549.689 379.649 449 379.649C348.311 379.649 251.746 339.65 180.548 268.452C109.35 197.254 69.3512 100.689 69.3512 -3.05176e-05H0Z" fill="url(#paint0_linear_36174_1258)"/>
<defs>
<linearGradient id="paint0_linear_36174_1258" x1="449" y1="0" x2="449" y2="449" gradientUnits="userSpaceOnUse">
<stop stop-color="#E0E0E0"/>
<stop offset="0.145876" stop-color="white"/>
<stop offset="0.303459" stop-color="white"/>
<stop offset="0.597332" stop-color="white"/>
<stop offset="1" stop-color="white"/>
</linearGradient>
</defs>
</svg>
