<svg width="36" height="36" viewBox="0 0 36 36" fill="none" xmlns="http://www.w3.org/2000/svg">
<g clip-path="url(#clip0_36174_1266)">
<path d="M18 35.5781C27.7081 35.5781 35.5781 27.7081 35.5781 18C35.5781 8.29187 27.7081 0.421875 18 0.421875C8.29187 0.421875 0.421875 8.29187 0.421875 18C0.421875 27.7081 8.29187 35.5781 18 35.5781Z" fill="#5C6BC0"/>
<path opacity="0.49" d="M35.5734 18.197L28.4437 11.0673C25.3278 8.83133 22.4243 8.73838 21.8695 8.72677L21.5155 9.0628L22.6756 10.223C21.1419 9.86156 19.5733 9.66915 17.9977 9.64913C17.0823 9.66056 16.1686 9.73034 15.262 9.85803L15.2584 9.85859L14.1264 8.72656C13.5717 8.73816 10.6682 8.83084 7.55219 11.0671C7.55219 11.0671 4.07031 16.9066 4.07031 24.0787L15.4176 35.3906C16.2719 35.5164 17.1342 35.5796 17.9977 35.5796C27.6405 35.5796 35.4684 27.8149 35.5734 18.197Z" fill="url(#paint0_linear_36174_1266)"/>
<path d="M28.4435 11.0671C25.3275 8.83112 22.424 8.73816 21.8693 8.72656L21.5152 9.06259C25.4928 10.1749 27.4167 11.9128 27.4167 11.9128C24.0025 10.2639 20.7851 9.68408 17.9978 9.6492C15.2106 9.68436 11.9931 10.2639 8.57903 11.9128C8.57903 11.9128 10.5029 10.1749 14.4806 9.06259L14.1264 8.72656C13.5717 8.73816 10.6682 8.83084 7.55219 11.0671C7.55219 11.0671 4.07031 16.9066 4.07031 24.0787C4.1883 23.9397 6.23024 27.1607 11.4944 27.2766C11.4944 27.2766 12.3796 26.2917 13.0169 25.4227C9.94816 24.5537 8.79152 22.8158 8.79152 22.8158C11.9819 24.7885 14.9618 25.5476 17.9978 25.4489C21.0338 25.5474 24.0138 24.7885 27.2041 22.8158C27.2041 22.8158 26.0475 24.5537 22.9783 25.4227C23.6157 26.2917 24.5009 27.2766 24.5009 27.2766C29.765 27.1607 31.807 23.9397 31.925 24.0787C31.9253 16.9066 28.4435 11.0671 28.4435 11.0671ZM13.713 21.8309C12.3675 21.8309 11.2816 20.7186 11.2816 19.3513C11.2816 17.9841 12.3675 16.8718 13.713 16.8718V16.8834C15.0468 16.8834 16.1444 17.9958 16.1444 19.3629C16.1447 20.7186 15.0588 21.8309 13.7133 21.8309H13.713ZM22.282 21.8309C20.9365 21.8309 19.8506 20.7186 19.8506 19.3629C19.8506 17.9958 20.9483 16.8834 22.282 16.8834V16.8718C23.6276 16.8718 24.7134 17.9842 24.7134 19.3513C24.7134 20.7185 23.6279 21.8309 22.2823 21.8309H22.282Z" fill="white"/>
</g>
<defs>
<linearGradient id="paint0_linear_36174_1266" x1="8.65152" y1="9.96751" x2="29.7708" y2="31.0868" gradientUnits="userSpaceOnUse">
<stop stop-color="#1D1D1B"/>
<stop offset="0.369" stop-color="#1D1D1B" stop-opacity="0.856"/>
<stop offset="0.75" stop-color="#1D1D1B" stop-opacity="0.429"/>
<stop offset="1" stop-color="#1D1D1B" stop-opacity="0"/>
</linearGradient>
<clipPath id="clip0_36174_1266">
<rect width="36" height="36" fill="white"/>
</clipPath>
</defs>
</svg>
