<svg width="74" height="74" viewBox="0 0 74 74" fill="none" xmlns="http://www.w3.org/2000/svg">
<circle cx="37" cy="37" r="37" fill="#E0E0E0"/>
<g clip-path="url(#clip0_36174_1270)">
<path d="M53 36.998C53 44.9843 47.1487 51.6037 39.5 52.8037V41.623H43.2281L43.9375 36.998H39.5V33.9968C39.5 32.7312 40.12 31.498 42.1075 31.498H44.125V27.5606C44.125 27.5606 42.2937 27.248 40.5431 27.248C36.8887 27.248 34.5 29.463 34.5 33.473V36.998H30.4375V41.623H34.5V52.8037C26.8513 51.6037 21 44.9843 21 36.998C21 28.1618 28.1638 20.998 37 20.998C45.8362 20.998 53 28.1618 53 36.998Z" fill="#1877F2"/>
<path d="M43.2281 41.623L43.9375 36.9981H39.5V33.9967C39.5 32.7314 40.1199 31.498 42.1075 31.498H44.125V27.5606C44.125 27.5606 42.294 27.248 40.5434 27.248C36.8887 27.248 34.5 29.463 34.5 33.473V36.9981H30.4375V41.623H34.5V52.8036C35.3146 52.9314 36.1495 52.9981 37 52.9981C37.8505 52.9981 38.6854 52.9314 39.5 52.8036V41.623H43.2281Z" fill="white"/>
</g>
<defs>
<clipPath id="clip0_36174_1270">
<rect width="32" height="32" fill="white" transform="translate(21 20.998)"/>
</clipPath>
</defs>
</svg>
