<svg width="36" height="36" viewBox="0 0 36 36" fill="none" xmlns="http://www.w3.org/2000/svg">
<g clip-path="url(#clip0_36174_1277)">
<path d="M17.9997 35.9994C27.9406 35.9994 35.9994 27.9406 35.9994 17.9997C35.9994 8.05873 27.9406 0 17.9997 0C8.05873 0 0 8.05873 0 17.9997C0 27.9406 8.05873 35.9994 17.9997 35.9994Z" fill="white"/>
<path d="M19.4526 24.1035C18.0918 23.9983 17.52 23.3235 16.4528 22.6757C15.8663 25.7531 15.1495 28.7031 13.0263 30.2442C12.3702 25.593 13.9883 22.0994 14.7397 18.3912C13.4589 16.235 14.8938 11.8951 17.5954 12.9645C20.9205 14.2794 14.7166 20.9819 18.8814 21.819C23.2294 22.693 25.0044 14.2746 22.3079 11.5363C18.412 7.58301 10.9677 11.4465 11.8831 17.1058C12.1061 18.4894 13.5359 18.9094 12.4543 20.8185C9.96084 20.2663 9.21708 18.2998 9.3127 15.678C9.46703 11.3865 13.1688 8.38163 16.8818 7.96579C21.5776 7.44022 25.985 9.6901 26.5933 14.1071C27.2777 19.0923 24.4734 24.4911 19.4526 24.1035Z" fill="#CB2027"/>
</g>
<defs>
<clipPath id="clip0_36174_1277">
<rect width="36" height="36" fill="white"/>
</clipPath>
</defs>
</svg>
