<svg width="74" height="74" viewBox="0 0 74 74" fill="none" xmlns="http://www.w3.org/2000/svg">
<circle cx="37" cy="37" r="37" fill="#E0E0E0"/>
<g clip-path="url(#clip0_36174_1282)">
<path d="M54.0013 37.0928C54.0013 28.3086 46.8795 21.1875 38.0944 21.1875C29.3093 21.1875 22.1875 28.3086 22.1875 37.0928C22.1875 45.8771 29.3093 52.9982 38.0944 52.9982C46.8795 52.9982 54.0013 45.8771 54.0013 37.0928Z" fill="url(#paint0_linear_36174_1282)"/>
<path opacity="0.1" d="M50.0651 26.6287C47.7461 30.8854 44.4663 35.2762 40.3682 39.3739C36.2701 43.4716 31.8789 46.7448 27.6281 49.0636C27.3615 48.8319 27.1027 48.5906 26.8516 48.3394C25.3334 46.8721 24.1226 45.1173 23.2897 43.1772C22.4569 41.2371 22.0186 39.1507 22.0006 37.0395C21.9825 34.9283 22.385 32.8347 23.1845 30.8806C23.984 28.9266 25.1646 27.1513 26.6574 25.6582C28.1503 24.1651 29.9254 22.9841 31.8794 22.1841C33.8335 21.3841 35.9272 20.9811 38.0385 20.9986C40.15 21.0161 42.2367 21.4537 44.1772 22.2859C46.1177 23.1181 47.8731 24.3283 49.3409 25.8459C49.5921 26.0971 49.8335 26.358 50.0651 26.6287Z" fill="white"/>
<path d="M41.8621 28.7207H34.3273C33.106 28.7207 31.9348 29.2058 31.0713 30.0692C30.2078 30.9327 29.7227 32.1037 29.7227 33.3249V40.859C29.7227 42.0801 30.2078 43.2512 31.0713 44.1146C31.9348 44.9781 33.106 45.4632 34.3273 45.4632H41.8621C43.0833 45.4632 44.2545 44.9781 45.1181 44.1146C45.9816 43.2512 46.4667 42.0801 46.4667 40.859V33.3249C46.4667 32.1037 45.9816 30.9327 45.1181 30.0692C44.2545 29.2058 43.0833 28.7207 41.8621 28.7207ZM45.0016 40.1977C45.0016 41.2056 44.6012 42.1723 43.8884 42.885C43.1756 43.5978 42.2088 43.9982 41.2007 43.9982H34.9887C33.9806 43.9982 33.0138 43.5978 32.301 42.885C31.5882 42.1723 31.1878 41.2056 31.1878 40.1977V33.9862C31.1878 32.9782 31.5882 32.0115 32.301 31.2988C33.0138 30.5861 33.9806 30.1857 34.9887 30.1857H41.2007C42.2088 30.1857 43.1756 30.5861 43.8884 31.2988C44.6012 32.0115 45.0016 32.9782 45.0016 33.9862V40.1977Z" fill="white"/>
<path d="M41.1475 34.0714L41.1077 34.0316L41.0743 33.9982C40.2829 33.2096 39.211 32.767 38.0938 32.7676C37.5297 32.7714 36.9717 32.8864 36.452 33.1058C35.9322 33.3254 35.4608 33.6451 35.0647 34.0468C34.6686 34.4485 34.3555 34.9244 34.1434 35.4471C33.9312 35.9698 33.8241 36.5293 33.8282 37.0934C33.8274 38.2383 34.2788 39.3372 35.0841 40.151C35.4786 40.5502 35.9486 40.8669 36.4668 41.0825C36.985 41.298 37.5409 41.4083 38.1022 41.4067C38.9441 41.389 39.7626 41.1268 40.4581 40.652C41.1534 40.1772 41.6956 39.5102 42.0185 38.7326C42.3413 37.9549 42.4309 37.1001 42.2762 36.2725C42.1216 35.4448 41.7294 34.68 41.1475 34.0714ZM38.0938 39.9312C37.5309 39.9391 36.9783 39.7794 36.5063 39.4724C36.0344 39.1655 35.6645 38.725 35.4436 38.2072C35.2227 37.6894 35.1607 37.1176 35.2657 36.5646C35.3707 36.0114 35.6378 35.5021 36.0331 35.1012C36.4284 34.7004 36.934 34.4261 37.4856 34.3133C38.0372 34.2006 38.6098 34.2544 39.1308 34.468C39.6517 34.6816 40.0973 35.0452 40.411 35.5127C40.7246 35.9802 40.8921 36.5304 40.8922 37.0934C40.8949 37.4635 40.8247 37.8305 40.6855 38.1735C40.5464 38.5165 40.341 38.8286 40.0811 39.0922C39.8212 39.3557 39.512 39.5655 39.171 39.7094C38.83 39.8534 38.464 39.9288 38.0938 39.9312Z" fill="white"/>
<path d="M43.6255 32.5685C43.6266 32.7029 43.6012 32.8361 43.5508 32.9606C43.5003 33.085 43.4259 33.1984 43.3315 33.294C43.2373 33.3897 43.125 33.4658 43.0013 33.518C42.8775 33.5702 42.7447 33.5975 42.6104 33.5983C42.4772 33.5983 42.3454 33.5718 42.2225 33.5204C42.0996 33.469 41.9882 33.3938 41.8946 33.299C41.7528 33.1552 41.6564 32.9728 41.6172 32.7747C41.5781 32.5765 41.5979 32.3712 41.6744 32.1842C41.7508 31.9973 41.8805 31.8368 42.0472 31.7229C42.214 31.6088 42.4105 31.5463 42.6125 31.543C42.8489 31.543 43.0778 31.6259 43.2593 31.7774L43.2802 31.7983C43.3139 31.8258 43.3448 31.8567 43.3723 31.8904L43.3953 31.9155C43.5451 32.1001 43.6265 32.3309 43.6255 32.5685Z" fill="white"/>
</g>
<defs>
<linearGradient id="paint0_linear_36174_1282" x1="26.8465" y1="25.8461" x2="49.34" y2="48.3418" gradientUnits="userSpaceOnUse">
<stop stop-color="#FAE100"/>
<stop offset="0.15" stop-color="#FCB720"/>
<stop offset="0.3" stop-color="#FF7950"/>
<stop offset="0.5" stop-color="#FF1C74"/>
<stop offset="1" stop-color="#6C1CD1"/>
</linearGradient>
<clipPath id="clip0_36174_1282">
<rect width="32" height="32" fill="white" transform="translate(22 20.998)"/>
</clipPath>
</defs>
</svg>
