<svg width="74" height="74" viewBox="0 0 74 74" fill="none" xmlns="http://www.w3.org/2000/svg">
<circle cx="37" cy="37" r="37" fill="#E0E0E0"/>
<g clip-path="url(#clip0_36174_1295)">
<path d="M37 52.9961C45.8366 52.9961 53 45.8327 53 36.9961C53 28.1596 45.8366 20.9961 37 20.9961C28.1634 20.9961 21 28.1596 21 36.9961C21 45.8327 28.1634 52.9961 37 52.9961Z" fill="#007AB9"/>
<path d="M46.5623 38.2868V44.8832H42.7379V38.7289C42.7379 37.1836 42.1857 36.1283 40.801 36.1283C39.7442 36.1283 39.1165 36.8388 38.8392 37.5267C38.7386 37.7725 38.7126 38.1139 38.7126 38.4588V44.883H34.8879C34.8879 44.883 34.9392 34.4595 34.8879 33.3805H38.7129V35.0105C38.7052 35.0233 38.6943 35.0359 38.6875 35.0481H38.7129V35.0105C39.2212 34.2285 40.1276 33.1104 42.1598 33.1104C44.6759 33.1104 46.5623 34.7544 46.5623 38.2868ZM30.8869 27.8359C29.5786 27.8359 28.7227 28.6947 28.7227 29.823C28.7227 30.9274 29.5538 31.811 30.8367 31.811H30.8615C32.1954 31.811 33.0249 30.9274 33.0249 29.823C32.9995 28.6947 32.1954 27.8359 30.8869 27.8359ZM28.95 44.8832H32.7733V33.3805H28.95V44.8832Z" fill="white"/>
</g>
<defs>
<clipPath id="clip0_36174_1295">
<rect width="32" height="32" fill="white" transform="translate(21 20.998)"/>
</clipPath>
</defs>
</svg>
