<svg width="32" height="32" viewBox="0 0 32 32" fill="none" xmlns="http://www.w3.org/2000/svg">
<g clip-path="url(#clip0_36174_1292)">
<path d="M16 32C24.8366 32 32 24.8366 32 16C32 7.16342 24.8366 0 16 0C7.16342 0 0 7.16342 0 16C0 24.8366 7.16342 32 16 32Z" fill="#4176FA"/>
<path d="M21.7369 13.2176C17.1155 13.2176 17.1095 17.8215 17.1095 17.8452C17.1095 17.8452 16.7929 22.4548 21.7369 22.4548C21.7369 22.4548 25.86 22.6893 25.86 19.2468H23.7428C23.7428 19.2468 23.8129 20.5428 21.8073 20.5428C21.8073 20.5428 19.6902 20.6837 19.6902 18.449H25.9304C25.9304 18.449 26.6166 13.2176 21.7369 13.2176ZM19.6665 16.8361C19.6665 16.8361 19.9246 14.9828 21.7839 14.9828C23.649 14.9828 23.6196 16.8361 23.6196 16.8361H19.6665ZM14.3769 15.6516C14.3769 15.6516 16.2125 15.5167 16.2125 13.3585C16.2125 11.2062 14.7112 10.1504 12.8051 10.1504H6.53516V22.2024H12.8045C12.8045 22.2024 16.6344 22.3199 16.6344 18.6426C16.6344 18.6426 16.7989 15.6516 14.3769 15.6516ZM9.29779 12.2909H12.8048C12.8048 12.2909 13.6553 12.2909 13.6553 13.5459C13.6553 14.8008 13.1567 14.9828 12.5877 14.9828H9.29779V12.2909ZM12.6291 20.0619H9.29779V16.8361H12.8048C12.8048 16.8361 14.0777 16.8244 14.0717 18.4958C14.0717 19.9036 13.1276 20.0502 12.6291 20.0619ZM19.1445 10.86V12.344H24.1181V10.86H19.1445Z" fill="#F1F2F2"/>
</g>
<defs>
<clipPath id="clip0_36174_1292">
<rect width="32" height="32" fill="white"/>
</clipPath>
</defs>
</svg>
