<svg width="74" height="74" viewBox="0 0 74 74" fill="none" xmlns="http://www.w3.org/2000/svg">
<circle cx="37" cy="37" r="37" fill="#E0E0E0"/>
<g clip-path="url(#clip0_36174_1264)">
<path d="M37 54.5781C46.7081 54.5781 54.5781 46.7081 54.5781 37C54.5781 27.2919 46.7081 19.4219 37 19.4219C27.2919 19.4219 19.4219 27.2919 19.4219 37C19.4219 46.7081 27.2919 54.5781 37 54.5781Z" fill="#5C6BC0"/>
<path opacity="0.49" d="M54.5734 37.197L47.4437 30.0673C44.3278 27.8313 41.4243 27.7384 40.8695 27.7268L40.5155 28.0628L41.6756 29.223C40.1419 28.8616 38.5733 28.6691 36.9977 28.6491C36.0823 28.6606 35.1686 28.7303 34.262 28.858L34.2584 28.8586L33.1264 27.7266C32.5717 27.7382 29.6682 27.8308 26.5522 30.0671C26.5522 30.0671 23.0703 35.9066 23.0703 43.0787L34.4176 54.3906C35.2719 54.5164 36.1342 54.5796 36.9977 54.5796C46.6405 54.5796 54.4684 46.8149 54.5734 37.197Z" fill="url(#paint0_linear_36174_1264)"/>
<path d="M47.4435 30.0671C44.3275 27.8311 41.424 27.7382 40.8693 27.7266L40.5152 28.0626C44.4928 29.1749 46.4167 30.9128 46.4167 30.9128C43.0025 29.2639 39.7851 28.6841 36.9978 28.6492C34.2106 28.6844 30.9931 29.2639 27.579 30.9128C27.579 30.9128 29.5029 29.1749 33.4806 28.0626L33.1264 27.7266C32.5717 27.7382 29.6682 27.8308 26.5522 30.0671C26.5522 30.0671 23.0703 35.9066 23.0703 43.0787C23.1883 42.9397 25.2302 46.1607 30.4944 46.2766C30.4944 46.2766 31.3796 45.2917 32.0169 44.4227C28.9482 43.5537 27.7915 41.8158 27.7915 41.8158C30.9819 43.7885 33.9618 44.5476 36.9978 44.4489C40.0338 44.5474 43.0138 43.7885 46.2041 41.8158C46.2041 41.8158 45.0475 43.5537 41.9783 44.4227C42.6157 45.2917 43.5009 46.2766 43.5009 46.2766C48.765 46.1607 50.807 42.9397 50.925 43.0787C50.9253 35.9066 47.4435 30.0671 47.4435 30.0671ZM32.713 40.8309C31.3675 40.8309 30.2816 39.7186 30.2816 38.3513C30.2816 36.9841 31.3675 35.8718 32.713 35.8718V35.8834C34.0468 35.8834 35.1444 36.9958 35.1444 38.3629C35.1447 39.7186 34.0588 40.8309 32.7133 40.8309H32.713ZM41.282 40.8309C39.9365 40.8309 38.8506 39.7186 38.8506 38.3629C38.8506 36.9958 39.9483 35.8834 41.282 35.8834V35.8718C42.6276 35.8718 43.7134 36.9842 43.7134 38.3513C43.7134 39.7185 42.6279 40.8309 41.2823 40.8309H41.282Z" fill="white"/>
</g>
<defs>
<linearGradient id="paint0_linear_36174_1264" x1="27.6515" y1="28.9675" x2="48.7708" y2="50.0868" gradientUnits="userSpaceOnUse">
<stop stop-color="#1D1D1B"/>
<stop offset="0.369" stop-color="#1D1D1B" stop-opacity="0.856"/>
<stop offset="0.75" stop-color="#1D1D1B" stop-opacity="0.429"/>
<stop offset="1" stop-color="#1D1D1B" stop-opacity="0"/>
</linearGradient>
<clipPath id="clip0_36174_1264">
<rect width="36" height="36" fill="white" transform="translate(19 19)"/>
</clipPath>
</defs>
</svg>
