<svg width="32" height="32" viewBox="0 0 32 32" fill="none" xmlns="http://www.w3.org/2000/svg">
<g clip-path="url(#clip0_36174_1284)">
<path d="M32.0013 16.0948C32.0013 7.3105 24.8795 0.189453 16.0944 0.189453C7.30926 0.189453 0.1875 7.3105 0.1875 16.0948C0.1875 24.8791 7.30926 32.0002 16.0944 32.0002C24.8795 32.0002 32.0013 24.8791 32.0013 16.0948Z" fill="url(#paint0_linear_36174_1284)"/>
<path opacity="0.1" d="M28.0651 5.63062C25.7461 9.88736 22.4663 14.2781 18.3682 18.3758C14.2701 22.4736 9.87894 25.7467 5.62806 28.0655C5.36153 27.8339 5.10272 27.5926 4.85155 27.3414C3.3334 25.8741 2.1226 24.1192 1.28974 22.1791C0.456888 20.2391 0.0186496 18.1526 0.000582394 16.0415C-0.0174848 13.9303 0.38498 11.8366 1.18451 9.88258C1.98404 7.92857 3.16463 6.15321 4.65745 4.66014C6.15025 3.16705 7.92542 1.98607 9.87943 1.18608C11.8335 0.38608 13.9272 -0.0169311 16.0385 0.000544963C18.15 0.0180211 20.2367 0.455634 22.1772 1.28787C24.1177 2.1201 25.8731 3.3303 27.3409 4.84789C27.5921 5.09903 27.8335 5.35995 28.0651 5.63062Z" fill="white"/>
<path d="M19.8621 7.72266H12.3273C11.106 7.72266 9.93484 8.20773 9.07133 9.07119C8.20778 9.93464 7.72266 11.1057 7.72266 12.3268V19.8609C7.72266 21.0821 8.20778 22.2531 9.07133 23.1166C9.93484 23.98 11.106 24.4651 12.3273 24.4651H19.8621C21.0833 24.4651 22.2545 23.98 23.1181 23.1166C23.9816 22.2531 24.4667 21.0821 24.4667 19.8609V12.3268C24.4667 11.1057 23.9816 9.93464 23.1181 9.07119C22.2545 8.20773 21.0833 7.72266 19.8621 7.72266ZM23.0016 19.1996C23.0016 20.2076 22.6012 21.1743 21.8884 21.887C21.1756 22.5998 20.2088 23.0001 19.2007 23.0001H12.9887C11.9806 23.0001 11.0138 22.5998 10.301 21.887C9.58821 21.1743 9.18776 20.2076 9.18776 19.1996V12.9881C9.18776 11.9802 9.58821 11.0135 10.301 10.3008C11.0138 9.58801 11.9806 9.18762 12.9887 9.18762H19.2007C20.2088 9.18762 21.1756 9.58801 21.8884 10.3008C22.6012 11.0135 23.0016 11.9802 23.0016 12.9881V19.1996Z" fill="white"/>
<path d="M19.1475 13.0734L19.1077 13.0336L19.0743 13.0001C18.2829 12.2115 17.211 11.769 16.0938 11.7695C15.5297 11.7734 14.9717 11.8883 14.452 12.1078C13.9322 12.3273 13.4608 12.647 13.0647 13.0487C12.6686 13.4505 12.3555 13.9263 12.1434 14.4491C11.9312 14.9718 11.8241 15.5312 11.8282 16.0953C11.8274 17.2403 12.2788 18.3391 13.0841 19.153C13.4786 19.5522 13.9486 19.8688 14.4668 20.0844C14.985 20.3 15.5409 20.4102 16.1022 20.4086C16.9441 20.391 17.7626 20.1288 18.4581 19.6539C19.1534 19.1791 19.6956 18.5122 20.0185 17.7345C20.3413 16.9569 20.4309 16.1021 20.2762 15.2744C20.1216 14.4467 19.7294 13.6819 19.1475 13.0734ZM16.0938 18.9332C15.5309 18.9411 14.9783 18.7814 14.5063 18.4744C14.0344 18.1674 13.6645 17.727 13.4436 17.2092C13.2227 16.6914 13.1607 16.1196 13.2657 15.5665C13.3707 15.0134 13.6378 14.5041 14.0331 14.1032C14.4284 13.7023 14.934 13.4281 15.4856 13.3153C16.0372 13.2025 16.6098 13.2563 17.1308 13.4699C17.6517 13.6835 18.0973 14.0472 18.411 14.5147C18.7246 14.9822 18.8921 15.5324 18.8922 16.0953C18.8949 16.4655 18.8247 16.8325 18.6855 17.1754C18.5464 17.5184 18.341 17.8306 18.0811 18.0941C17.8212 18.3576 17.512 18.5674 17.171 18.7114C16.83 18.8554 16.464 18.9307 16.0938 18.9332Z" fill="white"/>
<path d="M21.6255 11.5705C21.6266 11.7048 21.6012 11.838 21.5508 11.9625C21.5003 12.087 21.4259 12.2003 21.3315 12.296C21.2373 12.3916 21.125 12.4677 21.0013 12.5199C20.8775 12.5721 20.7447 12.5995 20.6104 12.6003C20.4772 12.6002 20.3454 12.5737 20.2225 12.5224C20.0996 12.471 19.9882 12.3958 19.8946 12.301C19.7528 12.1571 19.6564 11.9748 19.6172 11.7766C19.5781 11.5785 19.5979 11.3732 19.6744 11.1862C19.7508 10.9992 19.8805 10.8388 20.0472 10.7248C20.214 10.6108 20.4105 10.5483 20.6125 10.5449C20.8489 10.5449 21.0778 10.6279 21.2593 10.7794L21.2802 10.8003C21.3139 10.8278 21.3448 10.8586 21.3723 10.8924L21.3953 10.9175C21.5451 11.1021 21.6265 11.3328 21.6255 11.5705Z" fill="white"/>
</g>
<defs>
<linearGradient id="paint0_linear_36174_1284" x1="4.84654" y1="4.84805" x2="27.34" y2="27.3437" gradientUnits="userSpaceOnUse">
<stop stop-color="#FAE100"/>
<stop offset="0.15" stop-color="#FCB720"/>
<stop offset="0.3" stop-color="#FF7950"/>
<stop offset="0.5" stop-color="#FF1C74"/>
<stop offset="1" stop-color="#6C1CD1"/>
</linearGradient>
<clipPath id="clip0_36174_1284">
<rect width="32" height="32" fill="white"/>
</clipPath>
</defs>
</svg>
