<svg width="74" height="74" viewBox="0 0 74 74" fill="none" xmlns="http://www.w3.org/2000/svg">
<circle cx="37" cy="37" r="37" fill="#CB2027"/>
<g clip-path="url(#clip0_36174_1275)">
<path d="M36.9997 54.9994C46.9406 54.9994 54.9994 46.9406 54.9994 36.9997C54.9994 27.0587 46.9406 19 36.9997 19C27.0587 19 19 27.0587 19 36.9997C19 46.9406 27.0587 54.9994 36.9997 54.9994Z" fill="white"/>
<path d="M38.4526 43.1035C37.0918 42.9983 36.52 42.3235 35.4528 41.6757C34.8663 44.7531 34.1495 47.7031 32.0263 49.2442C31.3702 44.593 32.9883 41.0994 33.7397 37.3912C32.4589 35.235 33.8938 30.8951 36.5954 31.9645C39.9205 33.2794 33.7166 39.9819 37.8814 40.819C42.2294 41.693 44.0044 33.2746 41.3079 30.5363C37.412 26.583 29.9677 30.4465 30.8831 36.1058C31.1061 37.4894 32.5359 37.9094 31.4543 39.8185C28.9608 39.2663 28.2171 37.2998 28.3127 34.678C28.467 30.3865 32.1688 27.3816 35.8818 26.9658C40.5776 26.4402 44.985 28.6901 45.5933 33.1071C46.2777 38.0923 43.4734 43.4911 38.4526 43.1035Z" fill="#CB2027"/>
</g>
<defs>
<clipPath id="clip0_36174_1275">
<rect width="36" height="36" fill="white" transform="translate(19 19)"/>
</clipPath>
</defs>
</svg>
