<svg width="74" height="74" viewBox="0 0 74 74" fill="none" xmlns="http://www.w3.org/2000/svg">
<circle cx="37" cy="37" r="37" fill="#E0E0E0"/>
<g clip-path="url(#clip0_36174_1290)">
<path d="M37 52.998C45.8366 52.998 53 45.8346 53 36.998C53 28.1615 45.8366 20.998 37 20.998C28.1634 20.998 21 28.1615 21 36.998C21 45.8346 28.1634 52.998 37 52.998Z" fill="#4176FA"/>
<path d="M42.7369 34.2156C38.1155 34.2156 38.1095 38.8196 38.1095 38.8433C38.1095 38.8433 37.7929 43.4529 42.7369 43.4529C42.7369 43.4529 46.86 43.6874 46.86 40.2448H44.7428C44.7428 40.2448 44.8129 41.5408 42.8073 41.5408C42.8073 41.5408 40.6902 41.6817 40.6902 39.4471H46.9304C46.9304 39.4471 47.6166 34.2156 42.7369 34.2156ZM40.6665 37.8342C40.6665 37.8342 40.9246 35.9808 42.7839 35.9808C44.649 35.9808 44.6196 37.8342 44.6196 37.8342H40.6665ZM35.3769 36.6497C35.3769 36.6497 37.2125 36.5147 37.2125 34.3565C37.2125 32.2043 35.7112 31.1484 33.8051 31.1484H27.5352V43.2005H33.8045C33.8045 43.2005 37.6344 43.318 37.6344 39.6407C37.6344 39.6407 37.7989 36.6497 35.3769 36.6497ZM30.2978 33.289H33.8048C33.8048 33.289 34.6553 33.289 34.6553 34.5439C34.6553 35.7989 34.1567 35.9808 33.5877 35.9808H30.2978V33.289ZM33.6291 41.0599H30.2978V37.8342H33.8048C33.8048 37.8342 35.0777 37.8225 35.0717 39.4938C35.0717 40.9016 34.1276 41.0483 33.6291 41.0599ZM40.1445 31.858V33.342H45.1181V31.858H40.1445Z" fill="#F1F2F2"/>
</g>
<defs>
<clipPath id="clip0_36174_1290">
<rect width="32" height="32" fill="white" transform="translate(21 20.998)"/>
</clipPath>
</defs>
</svg>
