<svg width="32" height="32" viewBox="0 0 32 32" fill="none" xmlns="http://www.w3.org/2000/svg">
<g clip-path="url(#clip0_36174_1297)">
<path d="M16 31.998C24.8366 31.998 32 24.8346 32 15.998C32 7.16151 24.8366 -0.00195312 16 -0.00195312C7.16342 -0.00195312 0 7.16151 0 15.998C0 24.8346 7.16342 31.998 16 31.998Z" fill="#007AB9"/>
<path d="M25.5623 17.2887V23.8852H21.7379V17.7308C21.7379 16.1855 21.1857 15.1302 19.801 15.1302C18.7442 15.1302 18.1165 15.8407 17.8392 16.5286C17.7386 16.7745 17.7126 17.1159 17.7126 17.4607V23.8849H13.8879C13.8879 23.8849 13.9392 13.4614 13.8879 12.3825H17.7129V14.0125C17.7052 14.0253 17.6943 14.0378 17.6875 14.0501H17.7129V14.0125C18.2212 13.2304 19.1276 12.1124 21.1598 12.1124C23.6759 12.1124 25.5623 13.7563 25.5623 17.2887ZM9.88689 6.83789C8.57858 6.83789 7.72266 7.69667 7.72266 8.82499C7.72266 9.92934 8.55377 10.8129 9.83668 10.8129H9.86149C11.1954 10.8129 12.0249 9.92934 12.0249 8.82499C11.9995 7.69667 11.1954 6.83789 9.88689 6.83789ZM7.95 23.8852H11.7733V12.3825H7.95V23.8852Z" fill="white"/>
</g>
<defs>
<clipPath id="clip0_36174_1297">
<rect width="32" height="32" fill="white"/>
</clipPath>
</defs>
</svg>
