<svg width="80" height="27" viewBox="0 0 80 27" fill="none" xmlns="http://www.w3.org/2000/svg">
<g opacity="0.5" clip-path="url(#clip0_34160_294)">
<mask id="mask0_34160_294" style="mask-type:luminance" maskUnits="userSpaceOnUse" x="0" y="0" width="80" height="27">
<path d="M80 0H0V27H80V0Z" fill="white"/>
</mask>
<g mask="url(#mask0_34160_294)">
<path d="M77.0816 6.1543H79.9932L73.9206 23.5804C73.7543 24.0652 73.5601 24.4755 73.3383 24.8111C73.1349 25.1654 72.8853 25.4452 72.5897 25.6503C72.3123 25.8741 71.9703 26.0326 71.5637 26.1258C71.1569 26.2377 70.6764 26.2936 70.1217 26.2936H68.3747V23.8042H70.8149L71.647 21.3427L66.4062 6.1543H69.4287L72.3123 14.7135L73.1441 17.8743H73.2831L74.1978 14.7135L77.0816 6.1543Z" fill="white"/>
<path d="M31.1756 20.6988C30.1404 20.6988 29.364 20.4377 28.8464 19.9156C28.3473 19.3748 28.0977 18.6289 28.0977 17.6779V0H31.1203V18.2093H33.1167V20.6988H31.1756Z" fill="white"/>
<path d="M32.2109 6.1543H35.1501L36.6199 12.252L37.9231 17.7624H38.0063L39.5037 12.252L41.2506 6.1543H43.968L45.7425 12.252L47.2676 17.7624H47.3509L48.6264 12.252L50.1238 6.1543H52.9244L49.0425 20.6994H45.6316L43.7461 14.0701L42.5815 9.98635H42.5262L41.3892 14.0701L39.4761 20.6994H36.1485L32.2109 6.1543Z" fill="white"/>
<path d="M13.8643 22.441C13.8643 23.9514 13.2913 25.0889 12.1451 25.8535C10.999 26.618 9.13197 27.0003 6.54395 27.0003C5.36087 27.0003 4.35341 26.9164 3.52153 26.7485C2.70817 26.5994 2.03344 26.3756 1.49735 26.0772C0.979747 25.7789 0.600788 25.4153 0.360473 24.9864C0.120158 24.5575 0 24.0633 0 23.5039C0 22.7021 0.212586 22.0774 0.63776 21.6298C1.08142 21.1823 1.69145 20.8746 2.46785 20.7068V20.3991C1.37719 20.0448 0.83186 19.2989 0.83186 18.1614C0.83186 17.4155 1.08142 16.8467 1.58053 16.4551C2.07965 16.0449 2.68044 15.7558 3.38291 15.588V15.4761C2.53255 15.0659 1.87631 14.4971 1.41416 13.7699C0.970504 13.024 0.748675 12.1569 0.748675 11.1686C0.748675 9.67679 1.23855 8.47403 2.21829 7.56029C3.21652 6.64658 4.63992 6.18971 6.48852 6.18971C7.50523 6.18971 8.37405 6.33887 9.095 6.63725V6.24563C9.095 5.59298 9.2429 5.08949 9.53866 4.73519C9.85292 4.36223 10.3335 4.17578 10.9806 4.17578H13.1989V6.63725H10.2596V7.22465C10.9066 7.65353 11.4057 8.21297 11.7569 8.90291C12.1082 9.57422 12.2838 10.3294 12.2838 11.1686C12.2838 12.6417 11.7847 13.8351 10.7865 14.7489C9.78821 15.644 8.36483 16.0915 6.51623 16.0915C5.81378 16.0915 5.18526 16.0169 4.63067 15.8677C4.26098 15.9983 3.93747 16.1847 3.66018 16.4271C3.38291 16.6509 3.24426 16.9493 3.24426 17.3222C3.24426 17.7138 3.41988 17.9936 3.7711 18.1614C4.12233 18.3292 4.62145 18.4131 5.26844 18.4131H8.81771C10.5923 18.4131 11.8771 18.7767 12.672 19.504C13.4669 20.2126 13.8643 21.1916 13.8643 22.441ZM11.036 22.7766C11.036 22.2731 10.8419 21.8722 10.4537 21.5739C10.084 21.2755 9.40001 21.1263 8.4018 21.1263H3.52153C2.85605 21.5179 2.52331 22.0774 2.52331 22.8046C2.52331 23.4013 2.75438 23.8768 3.21652 24.2312C3.69714 24.6041 4.50128 24.7906 5.62892 24.7906H7.51448C9.86217 24.7906 11.036 24.1193 11.036 22.7766ZM6.51623 13.8818C7.40355 13.8818 8.08753 13.686 8.56816 13.2944C9.06728 12.8841 9.31683 12.2594 9.31683 11.4203V10.8609C9.31683 10.0217 9.06728 9.4064 8.56816 9.01481C8.08753 8.60456 7.40355 8.39942 6.51623 8.39942C5.62892 8.39942 4.93571 8.60456 4.43659 9.01481C3.95597 9.4064 3.71564 10.0217 3.71564 10.8609V11.4203C3.71564 12.2594 3.95597 12.8841 4.43659 13.2944C4.93571 13.686 5.62892 13.8818 6.51623 13.8818Z" fill="white"/>
<path d="M58.7088 20.6988C57.7658 20.6988 56.9015 20.5301 56.1158 20.1928C55.3476 19.8556 54.6928 19.3762 54.1515 18.7549C53.6102 18.1158 53.1912 17.3525 52.8944 16.4649C52.5976 15.5595 52.4492 14.5565 52.4492 13.4558C52.4492 12.3552 52.5976 11.3611 52.8944 10.4734C53.1912 9.56806 53.6102 8.80471 54.1515 8.18338C54.6928 7.54432 55.3476 7.05613 56.1158 6.71884C56.9015 6.38152 57.7658 6.21289 58.7088 6.21289C59.6516 6.21289 60.5072 6.38152 61.2754 6.71884C62.0611 7.05613 62.7246 7.54432 63.2659 8.18338C63.8071 8.80471 64.2261 9.56806 64.523 10.4734C64.8201 11.3611 64.9685 12.3552 64.9685 13.4558C64.9685 14.5565 64.8201 15.5595 64.523 16.4649C64.2261 17.3525 63.8071 18.1158 63.2659 18.7549C62.7246 19.3762 62.0611 19.8556 61.2754 20.1928C60.5072 20.5301 59.6516 20.6988 58.7088 20.6988ZM58.7088 18.3022C59.6867 18.3022 60.4724 18.0004 61.066 17.3968C61.6596 16.7755 61.9564 15.8524 61.9564 14.6275V12.2842C61.9564 11.0593 61.6596 10.145 61.066 9.54145C60.4724 8.92012 59.6867 8.60944 58.7088 8.60944C57.731 8.60944 56.9453 8.92012 56.3516 9.54145C55.758 10.145 55.4609 11.0593 55.4609 12.2842V14.6275C55.4609 15.8524 55.758 16.7755 56.3516 17.3968C56.9453 18.0004 57.731 18.3022 58.7088 18.3022Z" fill="white"/>
<path d="M63.0494 20.2226C63.4744 20.6701 64.0843 20.8939 64.8793 20.8939H66.5709V18.4045H65.0458V5.84186L62.0234 5.8418L62.2729 18.4604C62.3654 19.169 62.6241 19.7564 63.0494 20.2226Z" fill="white"/>
<path d="M18.9393 20.6988C17.9964 20.6988 17.1321 20.5301 16.3464 20.1928C15.5781 19.8556 14.9233 19.3762 14.382 18.7549C13.8408 18.1158 13.4217 17.3525 13.1249 16.4649C12.8281 15.5595 12.6797 14.5565 12.6797 13.4558C12.6797 12.3552 12.8281 11.3611 13.1249 10.4734C13.4217 9.56806 13.8408 8.80471 14.382 8.18338C14.9233 7.54432 15.5781 7.05613 16.3464 6.71884C17.1321 6.38152 17.9964 6.21289 18.9393 6.21289C19.8821 6.21289 20.7377 6.38152 21.5059 6.71884C22.2917 7.05613 22.9552 7.54432 23.4964 8.18338C24.0377 8.80471 24.4568 9.56806 24.7536 10.4734C25.0504 11.3611 25.1988 12.3552 25.1988 13.4558C25.1988 14.5565 25.0504 15.5595 24.7536 16.4649C24.4568 17.3525 24.0377 18.1158 23.4964 18.7549C22.9552 19.3762 22.2917 19.8556 21.5059 20.1928C20.7377 20.5301 19.8821 20.6988 18.9393 20.6988ZM18.9393 18.3022C19.917 18.3022 20.7028 18.0004 21.2964 17.3968C21.8901 16.7755 22.1869 15.8524 22.1869 14.6275V12.2842C22.1869 11.0593 21.8901 10.145 21.2964 9.54145C20.7028 8.92012 19.917 8.60944 18.9393 8.60944C17.9614 8.60944 17.1757 8.92012 16.5821 9.54145C15.9884 10.145 15.6916 11.0593 15.6916 12.2842V14.6275C15.6916 15.8524 15.9884 16.7755 16.5821 17.3968C17.1757 18.0004 17.9614 18.3022 18.9393 18.3022Z" fill="white"/>
<path d="M23.2799 20.2226C23.705 20.6701 24.3151 20.8939 25.11 20.8939H26.8014V18.4045H25.2763V5.84186L22.2539 5.8418L22.5035 18.4604C22.5959 19.169 22.8547 19.7564 23.2799 20.2226Z" fill="white"/>
<path d="M66.6585 23.5352H63.9922V26.2249H66.6585V23.5352Z" fill="white"/>
<path d="M62.661 23.5352H45.9961V26.2249H62.661V23.5352Z" fill="white"/>
</g>
</g>
<defs>
<clipPath id="clip0_34160_294">
<rect width="80" height="27" fill="white"/>
</clipPath>
</defs>
</svg>
