<svg width="101" height="26" viewBox="0 0 101 26" fill="none" xmlns="http://www.w3.org/2000/svg">
<g clip-path="url(#clip0_34245_313)">
<mask id="mask0_34245_313" style="mask-type:luminance" maskUnits="userSpaceOnUse" x="0" y="0" width="101" height="26">
<path d="M101 0H0V26H101V0Z" fill="white"/>
</mask>
<g mask="url(#mask0_34245_313)">
<path d="M39.5374 21.1425C37.9339 21.1425 36.5814 20.9175 35.4799 20.4674C34.3948 20.0173 33.5769 19.3823 33.0263 18.5624C32.4756 17.7264 32.2002 16.7458 32.2002 15.6205V15.4758H34.8241V15.8616C34.8241 16.5047 34.9697 17.0432 35.2614 17.4772C35.553 17.8952 36.0388 18.2168 36.7191 18.4418C37.3996 18.6508 38.3388 18.7553 39.5374 18.7553C40.5742 18.7553 41.4003 18.6829 42.0156 18.5383C42.6312 18.3775 43.0683 18.1363 43.3276 17.8148C43.603 17.4772 43.7407 17.0592 43.7407 16.5609C43.7407 15.8535 43.5139 15.3392 43.0602 15.0176C42.6068 14.6961 41.8697 14.4389 40.8495 14.246L36.8649 13.5949C35.9578 13.418 35.1481 13.1608 34.4353 12.8232C33.7228 12.4695 33.1639 12.0034 32.7587 11.4246C32.3702 10.8298 32.1758 10.0903 32.1758 9.20611C32.1758 8.62742 32.3053 8.05672 32.5647 7.49405C32.8236 6.93138 33.2285 6.42499 33.7793 5.97487C34.3299 5.52475 35.0428 5.17107 35.9174 4.91384C36.8081 4.64054 37.8935 4.50391 39.173 4.50391C40.7602 4.50391 42.0642 4.74504 43.0846 5.22734C44.1051 5.70961 44.8581 6.36874 45.3442 7.20467C45.8463 8.02457 46.0972 8.965 46.0972 10.026V10.1707H43.4977V9.85724C43.4977 9.19814 43.3518 8.65151 43.0602 8.21745C42.7689 7.76734 42.2909 7.43777 41.627 7.22879C40.9628 7.00372 40.064 6.89119 38.9299 6.89119C37.9421 6.89119 37.1402 6.97157 36.5249 7.13233C35.9256 7.2931 35.4881 7.53423 35.2128 7.85577C34.9374 8.1612 34.7997 8.56311 34.7997 9.06146C34.7997 9.51161 34.8969 9.88133 35.0914 10.1707C35.2858 10.4601 35.5854 10.6931 35.9902 10.87C36.3951 11.0308 36.9135 11.1835 37.5451 11.3281L41.5053 12.0034C42.5907 12.1963 43.4895 12.4857 44.2024 12.8715C44.9311 13.2573 45.4737 13.7476 45.8299 14.3424C46.1862 14.9372 46.3646 15.6285 46.3646 16.4163C46.3646 17.2361 46.1298 18.0077 45.66 18.7312C45.1902 19.4546 44.4532 20.0414 43.449 20.4915C42.4449 20.9255 41.1409 21.1425 39.5374 21.1425ZM54.0098 20.9014H50.7543L47.134 8.91673H49.8551L51.8716 15.7169L52.4305 18.8035H52.6249L53.5237 15.4758L56.0505 8.91673H59.4033L61.9545 15.4758L62.8533 18.8035H63.0477L63.6066 15.7169L65.6231 8.91673H68.2956L64.6271 20.9014H61.3715L58.7231 14.0048L57.7998 11.0629H57.6057L56.6824 14.0048L54.0098 20.9014ZM72.2524 20.9014H69.6285V8.91673H72.2524V20.9014ZM72.2524 7.51817H69.6285V4.74504H72.2524V7.51817ZM80.3918 21.1425C78.448 21.1425 76.9417 20.7728 75.8727 20.0333C74.8199 19.2938 74.2934 18.2328 74.2934 16.8503V16.7779H76.9173V16.9708C76.9173 17.7586 77.1766 18.3052 77.6948 18.6106C78.2295 18.9 79.1283 19.0447 80.3918 19.0447C81.5741 19.0447 82.376 18.924 82.7969 18.6829C83.2344 18.4257 83.453 18.0319 83.453 17.5013C83.453 17.003 83.283 16.6493 82.9427 16.4403C82.6187 16.2313 82.0195 16.0706 81.1448 15.9581L77.8406 15.524C76.6906 15.3793 75.7918 15.0578 75.1439 14.5594C74.496 14.045 74.172 13.2814 74.172 12.2687C74.172 11.5613 74.3827 10.9423 74.8036 10.4118C75.2247 9.86521 75.8564 9.43924 76.6987 9.13383C77.5411 8.82833 78.5776 8.67562 79.8085 8.67562C81.0397 8.67562 82.0925 8.83639 82.9671 9.15792C83.8578 9.47946 84.5383 9.96167 85.0078 10.6047C85.4939 11.2478 85.7369 12.0436 85.7369 12.9921V13.0643H83.1371V12.9197C83.1371 12.4535 83.0399 12.0596 82.8455 11.7381C82.6514 11.4165 82.3029 11.1754 81.8009 11.0147C81.315 10.8379 80.6267 10.7495 79.7357 10.7495C78.618 10.7495 77.8406 10.878 77.4034 11.1352C76.9659 11.3925 76.7473 11.8024 76.7473 12.3651C76.7473 12.8313 76.9095 13.1689 77.2334 13.3779C77.5571 13.5869 78.1645 13.7557 79.0555 13.8843L81.8495 14.27C83.2748 14.4469 84.3276 14.7926 85.0078 15.307C85.6883 15.8214 86.0283 16.577 86.0283 17.5737C86.0283 18.3132 85.7934 18.9562 85.3239 19.5028C84.8541 20.0333 84.198 20.4432 83.3557 20.7326C82.5137 21.006 81.5255 21.1425 80.3918 21.1425ZM93.6306 21.1425C91.6875 21.1425 90.1811 20.7728 89.1124 20.0333C88.0593 19.2938 87.5327 18.2328 87.5327 16.8503V16.7779H90.157V16.9708C90.157 17.7586 90.4159 18.3052 90.9339 18.6106C91.4682 18.9 92.3677 19.0447 93.6306 19.0447C94.8133 19.0447 95.6153 18.924 96.0365 18.6829C96.4733 18.4257 96.6926 18.0319 96.6926 17.5013C96.6926 17.003 96.5225 16.6493 96.1824 16.4403C95.8578 16.2313 95.2587 16.0706 94.3843 15.9581L91.0798 15.524C89.9299 15.3793 89.0313 15.0578 88.383 14.5594C87.7355 14.045 87.4118 13.2814 87.4118 12.2687C87.4118 11.5613 87.6216 10.9423 88.0429 10.4118C88.4641 9.86521 89.096 9.43924 89.9385 9.13383C90.7802 8.82833 91.817 8.67562 93.048 8.67562C94.279 8.67562 95.3313 8.83639 96.2066 9.15792C97.0975 9.47946 97.7777 9.96167 98.2473 10.6047C98.7333 11.2478 98.9759 12.0436 98.9759 12.9921V13.0643H96.3766V12.9197C96.3766 12.4535 96.2791 12.0596 96.0849 11.7381C95.8906 11.4165 95.5428 11.1754 95.0403 11.0147C94.5543 10.8379 93.8655 10.7495 92.9755 10.7495C91.8575 10.7495 91.0798 10.878 90.6429 11.1352C90.2053 11.3925 89.9869 11.8024 89.9869 12.3651C89.9869 12.8313 90.1483 13.1689 90.4729 13.3779C90.7966 13.5869 91.4043 13.7557 92.2943 13.8843L95.0887 14.27C96.5139 14.4469 97.5671 14.7926 98.2473 15.307C98.9275 15.8214 99.2677 16.577 99.2677 17.5737C99.2677 18.3132 99.0329 18.9562 98.5633 19.5028C98.0936 20.0333 97.4376 20.4432 96.595 20.7326C95.7525 21.006 94.765 21.1425 93.6306 21.1425Z" fill="#AAA9AD"/>
<path d="M15.7272 0H10.293V10.2152L15.7272 5.10759V0Z" fill="#AAA9AD"/>
<path d="M2.37539e-07 15.6094L0 10.2158H10.2922L5.14608 15.6094H2.37539e-07Z" fill="#AAA9AD"/>
<path d="M26.0187 10.2158V15.6093H15.7266L20.8726 10.2158H26.0187Z" fill="#AAA9AD"/>
<path d="M15.7471 10.1934H10.2695V25.8237H15.7471V10.1934Z" fill="#AAA9AD"/>
</g>
</g>
<defs>
<clipPath id="clip0_34245_313">
<rect width="101" height="26" fill="white"/>
</clipPath>
</defs>
</svg>
