<svg width="76" height="25" viewBox="0 0 76 25" fill="none" xmlns="http://www.w3.org/2000/svg">
<g clip-path="url(#clip0_34245_323)">
<mask id="mask0_34245_323" style="mask-type:luminance" maskUnits="userSpaceOnUse" x="0" y="0" width="76" height="25">
<path d="M76 0H0V25H76V0Z" fill="white"/>
</mask>
<g mask="url(#mask0_34245_323)">
<path d="M73.2237 5.69824H75.9896L70.2207 21.8335C70.0627 22.2825 69.8783 22.6623 69.6675 22.9731C69.4742 23.3012 69.2372 23.5602 68.9564 23.75C68.6927 23.9573 68.3678 24.1041 67.9817 24.1903C67.5951 24.294 67.1386 24.3458 66.6117 24.3458H64.9521V22.0407H67.2702L68.0607 19.7616L63.082 5.69824H65.9534L68.6927 13.6235L69.483 16.55H69.6149L70.484 13.6235L73.2237 5.69824Z" fill="#AAA9AD"/>
<path d="M29.6193 19.1655C28.6358 19.1655 27.8982 18.9238 27.4065 18.4403C26.9324 17.9396 26.6953 17.2489 26.6953 16.3684V0H29.5667V16.8605H31.4633V19.1655H29.6193Z" fill="#AAA9AD"/>
<path d="M30.6016 5.69824H33.3938L34.79 11.3443L36.028 16.4465H36.1072L37.5297 11.3443L39.1893 5.69824H41.7708L43.4566 11.3443L44.9054 16.4465H44.9845L46.1962 11.3443L47.6187 5.69824H50.2793L46.5915 19.1659H43.3512L41.5599 13.0278L40.4536 9.24641H40.401L39.3209 13.0278L37.5034 19.1659H34.3422L30.6016 5.69824Z" fill="#AAA9AD"/>
<path d="M13.1711 20.7785C13.1711 22.1771 12.6267 23.2303 11.5379 23.9382C10.4491 24.6461 8.6754 25.0001 6.21675 25.0001C5.09283 25.0001 4.13574 24.9224 3.34545 24.767C2.57276 24.6289 1.93177 24.4217 1.42248 24.1454C0.930757 23.8691 0.570749 23.5324 0.342449 23.1353C0.11415 22.7382 0 22.2806 0 21.7627C0 21.0202 0.201957 20.4418 0.605872 20.0274C1.02735 19.613 1.60688 19.3281 2.34446 19.1727V18.8878C1.30833 18.5598 0.790263 17.8691 0.790263 16.8159C0.790263 16.1252 1.02735 15.5986 1.50151 15.236C1.97567 14.8561 2.54642 14.5885 3.21377 14.4331V14.3296C2.40592 13.9497 1.78249 13.4231 1.34345 12.7497C0.921979 12.059 0.711241 11.2561 0.711241 10.3411C0.711241 8.95978 1.17662 7.84607 2.10738 7.00002C3.05569 6.15399 4.40792 5.73096 6.16409 5.73096C7.12997 5.73096 7.95538 5.86907 8.64029 6.14535V5.78274C8.64029 5.17844 8.78074 4.71224 9.06171 4.38419C9.36024 4.03885 9.81684 3.86621 10.4315 3.86621H12.5389V6.14535H9.74662V6.68924C10.3612 7.08635 10.8355 7.60432 11.1691 8.24319C11.5028 8.86478 11.6696 9.56402 11.6696 10.3411C11.6696 11.7051 11.1955 12.8101 10.2472 13.6561C9.29883 14.4849 7.94656 14.8993 6.19042 14.8993C5.5231 14.8993 4.926 14.8302 4.39914 14.6921C4.04793 14.813 3.7406 14.9857 3.47717 15.2101C3.21377 15.4174 3.08205 15.6936 3.08205 16.0389C3.08205 16.4015 3.24889 16.6605 3.58255 16.8159C3.91621 16.9713 4.39038 17.0489 5.00502 17.0489H8.3768C10.0627 17.0489 11.2833 17.3857 12.0384 18.059C12.7935 18.7152 13.1711 19.6216 13.1711 20.7785ZM10.4842 21.0892C10.4842 20.6231 10.2998 20.2518 9.93107 19.9756C9.5798 19.6993 8.93 19.5612 7.98167 19.5612H3.34545C2.71325 19.9238 2.39715 20.4418 2.39715 21.1152C2.39715 21.6677 2.61666 22.108 3.05569 22.4361C3.51229 22.7814 4.27621 22.954 5.34747 22.954H7.13876C9.36905 22.954 10.4842 22.3324 10.4842 21.0892ZM6.19042 12.8533C7.03337 12.8533 7.68314 12.672 8.13975 12.3094C8.61392 11.9296 8.85096 11.3511 8.85096 10.5741V10.0561C8.85096 9.27917 8.61392 8.7094 8.13975 8.34682C7.68314 7.9669 7.03337 7.77698 6.19042 7.77698C5.34747 7.77698 4.68893 7.9669 4.21476 8.34682C3.75817 8.7094 3.52986 9.27917 3.52986 10.0561V10.5741C3.52986 11.3511 3.75817 11.9296 4.21476 12.3094C4.68893 12.672 5.34747 12.8533 6.19042 12.8533Z" fill="#AAA9AD"/>
<path d="M55.7709 19.1658C54.875 19.1658 54.0539 19.0096 53.3075 18.6974C52.5778 18.385 51.9556 17.9412 51.4414 17.3659C50.9272 16.7742 50.5291 16.0674 50.2472 15.2455C49.9652 14.4072 49.8242 13.4785 49.8242 12.4593C49.8242 11.4402 49.9652 10.5197 50.2472 9.69788C50.5291 8.85955 50.9272 8.15273 51.4414 7.57743C51.9556 6.98574 52.5778 6.53371 53.3075 6.22141C54.0539 5.90907 54.875 5.75293 55.7709 5.75293C56.6665 5.75293 57.4793 5.90907 58.2091 6.22141C58.9555 6.53371 59.5859 6.98574 60.1 7.57743C60.6142 8.15273 61.0123 8.85955 61.2943 9.69788C61.5766 10.5197 61.7175 11.4402 61.7175 12.4593C61.7175 13.4785 61.5766 14.4072 61.2943 15.2455C61.0123 16.0674 60.6142 16.7742 60.1 17.3659C59.5859 17.9412 58.9555 18.385 58.2091 18.6974C57.4793 19.0096 56.6665 19.1658 55.7709 19.1658ZM55.7709 16.9467C56.6999 16.9467 57.4463 16.6674 58.0102 16.1084C58.5741 15.5331 58.8561 14.6784 58.8561 13.5442V11.3745C58.8561 10.2403 58.5741 9.39379 58.0102 8.83493C57.4463 8.25963 56.6999 7.97198 55.7709 7.97198C54.8419 7.97198 54.0955 8.25963 53.5316 8.83493C52.9677 9.39379 52.6854 10.2403 52.6854 11.3745V13.5442C52.6854 14.6784 52.9677 15.5331 53.5316 16.1084C54.0955 16.6674 54.8419 16.9467 55.7709 16.9467Z" fill="#AAA9AD"/>
<path d="M59.8966 18.7238C60.3003 19.1382 60.8798 19.3454 61.6349 19.3454H63.2419V17.0403H61.7932V5.40826L58.9219 5.4082L59.1589 17.0921C59.2468 17.7483 59.4926 18.2921 59.8966 18.7238Z" fill="#AAA9AD"/>
<path d="M17.9935 19.1658C17.0978 19.1658 16.2767 19.0096 15.5303 18.6974C14.8004 18.385 14.1784 17.9412 13.6642 17.3659C13.1499 16.7742 12.7519 16.0674 12.4699 15.2455C12.1879 14.4072 12.0469 13.4785 12.0469 12.4593C12.0469 11.4402 12.1879 10.5197 12.4699 9.69788C12.7519 8.85955 13.1499 8.15273 13.6642 7.57743C14.1784 6.98574 14.8004 6.53371 15.5303 6.22141C16.2767 5.90907 17.0978 5.75293 17.9935 5.75293C18.8892 5.75293 19.702 5.90907 20.4319 6.22141C21.1783 6.53371 21.8086 6.98574 22.3228 7.57743C22.8371 8.15273 23.2351 8.85955 23.5171 9.69788C23.7991 10.5197 23.9401 11.4402 23.9401 12.4593C23.9401 13.4785 23.7991 14.4072 23.5171 15.2455C23.2351 16.0674 22.8371 16.7742 22.3228 17.3659C21.8086 17.9412 21.1783 18.385 20.4319 18.6974C19.702 19.0096 18.8892 19.1658 17.9935 19.1658ZM17.9935 16.9467C18.9224 16.9467 19.6688 16.6674 20.2328 16.1084C20.7968 15.5331 21.0788 14.6784 21.0788 13.5442V11.3745C21.0788 10.2403 20.7968 9.39379 20.2328 8.83493C19.6688 8.25963 18.9224 7.97198 17.9935 7.97198C17.0645 7.97198 16.3182 8.25963 15.7542 8.83493C15.1902 9.39379 14.9082 10.2403 14.9082 11.3745V13.5442C14.9082 14.6784 15.1902 15.5331 15.7542 16.1084C16.3182 16.6674 17.0645 16.9467 17.9935 16.9467Z" fill="#AAA9AD"/>
<path d="M22.1153 18.7238C22.5193 19.1382 23.0988 19.3454 23.8539 19.3454H25.4608V17.0403H24.0119V5.40826L21.1406 5.4082L21.3777 17.0921C21.4655 17.7483 21.7114 18.2921 22.1153 18.7238Z" fill="#AAA9AD"/>
<path d="M63.326 21.792H60.793V24.2824H63.326V21.792Z" fill="#AAA9AD"/>
<path d="M59.5269 21.792H43.6953V24.2824H59.5269V21.792Z" fill="url(#paint0_linear_34245_323)"/>
</g>
</g>
<defs>
<linearGradient id="paint0_linear_34245_323" x1="59.527" y1="24.2824" x2="44.3287" y2="24.2824" gradientUnits="userSpaceOnUse">
<stop/>
<stop offset="1" stop-opacity="0"/>
</linearGradient>
<clipPath id="clip0_34245_323">
<rect width="76" height="25" fill="white"/>
</clipPath>
</defs>
</svg>
