<svg width="36" height="24" viewBox="0 0 36 24" fill="none" xmlns="http://www.w3.org/2000/svg">
<g clip-path="url(#clip0_34160_309)">
<mask id="mask0_34160_309" style="mask-type:luminance" maskUnits="userSpaceOnUse" x="0" y="0" width="36" height="24">
<path d="M36 0H0V24H36V0Z" fill="white"/>
</mask>
<g mask="url(#mask0_34160_309)">
<path d="M0 15.5292C0 10.851 3.76451 7.05859 8.4083 7.05859C13.0521 7.05859 16.8166 10.851 16.8166 15.5292V20.2351C16.8166 22.3143 15.1435 23.9998 13.0796 23.9998H8.4083C3.76451 23.9998 0 20.2074 0 15.5292Z" fill="white"/>
<path d="M18.918 6.6804V4.23531C18.918 1.89621 20.8003 0 23.1222 0C25.4441 0 27.3265 1.8962 27.3265 4.23528V4.80552C27.3265 5.92579 28.0364 6.92099 29.0905 7.27811L30.2848 7.68283C33.5412 8.78619 35.7346 11.8608 35.7346 15.3218V15.5805C35.7346 20.2305 31.993 24 27.377 24H22.655C20.5912 24 18.918 22.3145 18.918 20.2353V6.6804Z" fill="white"/>
<path d="M34.4418 3.05453C34.1559 3.05453 33.8962 2.98877 33.6622 2.85723C33.4335 2.72043 33.2517 2.53625 33.1167 2.30472C32.9867 2.0732 32.9219 1.81273 32.9219 1.52333C32.9219 1.23392 32.9894 0.976085 33.1244 0.749824C33.2596 0.518299 33.4415 0.336763 33.6702 0.205215C33.8986 0.0684051 34.1559 0 34.4418 0C34.7274 0 34.9847 0.0684051 35.2134 0.205215C35.4421 0.336763 35.6213 0.518299 35.7513 0.749824C35.8863 0.976085 35.9538 1.23392 35.9538 1.52333C35.9538 1.81273 35.8863 2.0732 35.7513 2.30472C35.6213 2.53625 35.4421 2.72043 35.2134 2.85723C34.99 2.98877 34.7327 3.05453 34.4418 3.05453ZM34.4418 2.83355C34.6859 2.83355 34.9042 2.77829 35.0964 2.66779C35.2939 2.55203 35.4472 2.39417 35.5565 2.19422C35.6706 1.99427 35.7277 1.77064 35.7277 1.52333C35.7277 1.27602 35.6706 1.05502 35.5565 0.860325C35.4472 0.660371 35.2939 0.505144 35.0964 0.394645C34.9042 0.278883 34.6859 0.221001 34.4418 0.221001C34.1975 0.221001 33.9767 0.278883 33.7792 0.394645C33.5868 0.505144 33.4335 0.660371 33.3192 0.860325C33.2101 1.05502 33.1556 1.27602 33.1556 1.52333C33.1556 1.77064 33.2101 1.99427 33.3192 2.19422C33.4335 2.39417 33.5868 2.55203 33.7792 2.66779C33.9767 2.77829 34.1975 2.83355 34.4418 2.83355ZM34.122 2.35997H33.8806V0.655109H34.4884C34.6703 0.655109 34.8158 0.702467 34.9249 0.797181C35.0342 0.886635 35.0887 1.01292 35.0887 1.17604C35.0887 1.28654 35.0602 1.38389 35.003 1.46808C34.9458 1.55227 34.8574 1.61541 34.738 1.65751L35.12 2.35997H34.8471L34.504 1.71275H34.122V2.35997ZM34.8315 1.18393C34.8315 0.983979 34.7145 0.884003 34.4807 0.884003H34.122V1.48386H34.4807C34.5898 1.48386 34.6755 1.46018 34.738 1.41283C34.8002 1.36021 34.8315 1.28391 34.8315 1.18393Z" fill="white"/>
</g>
</g>
<defs>
<clipPath id="clip0_34160_309">
<rect width="36" height="24" fill="white"/>
</clipPath>
</defs>
</svg>
