<svg width="86" height="38" viewBox="0 0 86 38" fill="none" xmlns="http://www.w3.org/2000/svg">
<g clip-path="url(#clip0_34245_388)">
<mask id="mask0_34245_388" style="mask-type:luminance" maskUnits="userSpaceOnUse" x="0" y="0" width="86" height="38">
<path d="M86 0H0V38H86V0Z" fill="white"/>
</mask>
<g mask="url(#mask0_34245_388)">
<path d="M58.5578 13.4866V11.034L52.1522 8.1872L58.5578 5.47174V3.04102L49.625 7.24555V9.2164L58.5578 13.4866Z" fill="#AAA9AD"/>
<path d="M4.31271 26.1374C4.80656 26.9987 5.75066 27.4294 7.14506 27.4294C8.53942 27.4294 9.47627 27.006 9.95563 26.1593C10.4494 25.3125 10.6964 23.8965 10.6964 21.911C10.6964 19.9109 10.4422 18.4583 9.93386 17.5532C9.43998 16.648 8.51038 16.1954 7.14506 16.1954C5.77969 16.1954 4.84287 16.648 4.33448 17.5532C3.82612 18.4583 3.57194 19.9036 3.57194 21.8891C3.57194 23.8599 3.81886 25.276 4.31271 26.1374ZM11.8511 27.7141C10.9651 28.9404 9.39636 29.5536 7.14506 29.5536C4.89368 29.5536 3.31775 28.9404 2.41722 27.7141C1.51668 26.4731 1.06641 24.5315 1.06641 21.8891C1.06641 19.2466 1.51668 17.283 2.41722 15.9983C3.33228 14.7136 4.90822 14.0713 7.14506 14.0713C9.38185 14.0713 10.9505 14.7136 11.8511 15.9983C12.7516 17.2684 13.2019 19.2321 13.2019 21.8891C13.2019 24.5461 12.7516 26.4878 11.8511 27.7141ZM17.0719 29.3126H14.6972V18.3634H17.0502V19.0422C18.1105 18.4291 19.1127 18.1225 20.0569 18.1225C21.5093 18.1225 22.497 18.5386 23.0199 19.3707C23.5573 20.1882 23.826 21.546 23.826 23.4438V29.3126H21.473V23.5096C21.473 22.3271 21.3423 21.4876 21.0808 20.9912C20.8339 20.4948 20.3183 20.2467 19.534 20.2467C18.7932 20.2467 18.0815 20.3927 17.3987 20.6846L17.0719 20.816V29.3126ZM26.2722 31.0865H35.5972V33.123H26.2722V31.0865ZM38.4161 29.3126V14.3121H47.8281V16.4363H40.8345V20.6846H46.5211V22.7869H40.8345V27.1666H47.8281V29.3126H38.4161ZM48.0076 18.3634H50.4912L52.583 27.2761H53.2802L55.4589 18.3634H57.8772L55.0446 29.3126H50.8182L48.0076 18.3634ZM66.2824 27.3418L66.8923 27.2761L66.9359 29.0499C65.2799 29.3857 63.8129 29.5536 62.535 29.5536C60.9225 29.5536 59.7606 29.1083 59.0488 28.2178C58.3517 27.3272 58.0031 25.9038 58.0031 23.9475C58.0031 20.0642 59.579 18.1225 62.7311 18.1225C65.7809 18.1225 67.3061 19.7941 67.3061 23.1373L67.1536 24.8454H60.3995C60.4141 25.7505 60.6102 26.4148 60.9878 26.8381C61.3654 27.2615 62.07 27.4732 63.1012 27.4732C64.1324 27.4732 65.1931 27.4294 66.2824 27.3418ZM64.9749 23.0059C64.9749 21.9255 64.8009 21.1737 64.4519 20.7503C64.1179 20.3123 63.5441 20.0934 62.7311 20.0934C61.9175 20.0934 61.3218 20.3197 60.9441 20.7722C60.5811 21.2248 60.3924 21.9693 60.3779 23.0059H64.9749ZM70.9272 29.3126H68.5524V18.3634H70.9052V19.0422C71.9655 18.4291 72.9679 18.1225 73.9119 18.1225C75.3644 18.1225 76.3523 18.5386 76.8749 19.3707C77.4125 20.1882 77.6814 21.546 77.6814 23.4438V29.3126H75.3282V23.5096C75.3282 22.3271 75.1973 21.4876 74.936 20.9912C74.6892 20.4948 74.1732 20.2467 73.3892 20.2467C72.6485 20.2467 71.9368 20.3927 71.2537 20.6846L70.9272 20.816V29.3126ZM85.2693 20.3999H82.2626V25.2177C82.2626 26.1082 82.3279 26.6994 82.4587 26.9914C82.5896 27.2834 82.9236 27.4294 83.4608 27.4294L85.2473 27.3637L85.3565 29.2688C84.3831 29.4587 83.6423 29.5536 83.1342 29.5536C81.8995 29.5536 81.0499 29.2688 80.585 28.6996C80.1346 28.1302 79.9095 27.0572 79.9095 25.4804V20.3999H78.5152V18.3634H79.9095V15.188H82.2626V18.3634H85.2693V20.3999Z" fill="#AAA9AD"/>
<path d="M62.5894 16.1831L68.8204 0.766452L66.729 0L60.5195 15.4385L62.5894 16.1831Z" fill="#AAA9AD"/>
<path d="M70.2031 13.4866L79.1359 9.2164V7.24555L70.2031 3.04102V5.47174L76.6082 8.1872L70.2031 11.034V13.4866Z" fill="#AAA9AD"/>
</g>
</g>
<defs>
<clipPath id="clip0_34245_388">
<rect width="86" height="38" fill="white"/>
</clipPath>
</defs>
</svg>
