<svg width="89" height="22" viewBox="0 0 89 22" fill="none" xmlns="http://www.w3.org/2000/svg">
<g clip-path="url(#clip0_36174_802)">
<mask id="mask0_36174_802" style="mask-type:luminance" maskUnits="userSpaceOnUse" x="0" y="0" width="89" height="22">
<path d="M89 0H0V22H89V0Z" fill="white"/>
</mask>
<g mask="url(#mask0_36174_802)">
<path d="M34.8424 17.8904C33.4295 17.8904 32.2376 17.6999 31.2671 17.3191C30.3109 16.9382 29.5901 16.4009 29.1049 15.7072C28.6197 14.9998 28.377 14.17 28.377 13.2179V13.0954H30.6892V13.4219C30.6892 13.966 30.8174 14.4217 31.0745 14.789C31.3314 15.1426 31.7595 15.4147 32.3589 15.6052C32.9586 15.782 33.7862 15.8704 34.8424 15.8704C35.7561 15.8704 36.484 15.8092 37.0262 15.6868C37.5686 15.5507 37.9539 15.3467 38.1824 15.0746C38.425 14.789 38.5463 14.4353 38.5463 14.0136C38.5463 13.4151 38.3465 12.9798 37.9467 12.7078C37.5471 12.4357 36.8976 12.218 35.9987 12.0548L32.4874 11.5039C31.6882 11.3542 30.9747 11.1366 30.3466 10.851C29.7187 10.5517 29.2262 10.1572 28.8692 9.6675C28.5268 9.16421 28.3555 8.53846 28.3555 7.79031C28.3555 7.30065 28.4696 6.81775 28.6982 6.34164C28.9264 5.86554 29.2831 5.43705 29.7684 5.05618C30.2537 4.67532 30.8819 4.37604 31.6526 4.15839C32.4374 3.92714 33.3939 3.81152 34.5213 3.81152C35.9199 3.81152 37.069 4.01556 37.9682 4.42366C38.8674 4.83174 39.531 5.38946 39.9593 6.09678C40.4017 6.79054 40.6229 7.5863 40.6229 8.48404V8.60651H38.3322V8.34126C38.3322 7.78356 38.2037 7.32104 37.9467 6.95375C37.69 6.57289 37.2688 6.29403 36.6837 6.1172C36.0985 5.92675 35.3064 5.83153 34.3071 5.83153C33.4367 5.83153 32.7301 5.89954 32.1879 6.03558C31.6597 6.17161 31.2742 6.37565 31.0316 6.64771C30.789 6.90616 30.6676 7.24624 30.6676 7.66792C30.6676 8.04881 30.7533 8.36165 30.9247 8.60651C31.096 8.85137 31.3599 9.04856 31.7167 9.19824C32.0735 9.33427 32.5303 9.46348 33.0868 9.58588L36.5766 10.1572C37.533 10.3205 38.325 10.5653 38.9532 10.8918C39.5953 11.2182 40.0734 11.6331 40.3874 12.1364C40.7013 12.6397 40.8585 13.2246 40.8585 13.8912C40.8585 14.5849 40.6515 15.2378 40.2376 15.85C39.8236 16.4621 39.1742 16.9586 38.2893 17.3395C37.4045 17.7067 36.2554 17.8904 34.8424 17.8904ZM47.5954 17.6863H44.7266L41.5364 7.54545H43.9343L45.7112 13.2995L46.2037 15.9112H46.375L47.167 13.0954L49.3935 7.54545H52.348L54.5961 13.0954L55.3881 15.9112H55.5594L56.0519 13.2995L57.8288 7.54545H60.1838L56.9512 17.6863H54.0824L51.7486 11.8508L50.9351 9.36148H50.764L49.9504 11.8508L47.5954 17.6863ZM63.6705 17.6863H61.3583V7.54545H63.6705V17.6863ZM63.6705 6.36206H61.3583V4.01556H63.6705V6.36206ZM70.8428 17.8904C69.13 17.8904 67.8027 17.5775 66.8607 16.9518C65.9329 16.3261 65.469 15.4283 65.469 14.2585V14.1972H67.7812V14.3605C67.7812 15.027 68.0097 15.4895 68.4662 15.7479C68.9374 15.9928 69.7294 16.1153 70.8428 16.1153C71.8847 16.1153 72.5913 16.0132 72.9622 15.8092C73.3477 15.5915 73.5403 15.2583 73.5403 14.8093C73.5403 14.3877 73.3905 14.0884 73.0907 13.9116C72.8052 13.7347 72.2771 13.5988 71.5064 13.5035L68.5947 13.1362C67.5814 13.0138 66.7894 12.7417 66.2184 12.32C65.6475 11.8847 65.362 11.2387 65.362 10.3817C65.362 9.78314 65.5477 9.2594 65.9186 8.81052C66.2897 8.34801 66.8463 7.98758 67.5886 7.72915C68.3308 7.47065 69.2442 7.34144 70.3289 7.34144C71.4137 7.34144 72.3415 7.47747 73.1122 7.74954C73.8971 8.0216 74.4967 8.42963 74.9105 8.97376C75.3387 9.5179 75.5529 10.1912 75.5529 10.9938V11.055H73.262V10.9326C73.262 10.5381 73.1763 10.2048 73.005 9.93274C72.8339 9.66068 72.5269 9.45667 72.0845 9.32063C71.6564 9.17103 71.0498 9.09623 70.2647 9.09623C69.2798 9.09623 68.5947 9.20498 68.2095 9.42264C67.824 9.64029 67.6314 9.98716 67.6314 10.4633C67.6314 10.8578 67.7743 11.1434 68.0597 11.3203C68.3449 11.4971 68.8802 11.6399 69.6653 11.7488L72.1273 12.0752C73.3833 12.2249 74.311 12.5173 74.9105 12.9526C75.5101 13.3878 75.8097 14.0272 75.8097 14.8706C75.8097 15.4963 75.6027 16.0404 75.1889 16.5029C74.775 16.9518 74.1969 17.2986 73.4546 17.5435C72.7126 17.7748 71.8419 17.8904 70.8428 17.8904ZM82.5088 17.8904C80.7965 17.8904 79.4691 17.5775 78.5274 16.9518C77.5993 16.3261 77.1353 15.4283 77.1353 14.2585V14.1972H79.4478V14.3605C79.4478 15.027 79.676 15.4895 80.1324 15.7479C80.6033 15.9928 81.3959 16.1153 82.5088 16.1153C83.5509 16.1153 84.2576 16.0132 84.6288 15.8092C85.0137 15.5915 85.2069 15.2583 85.2069 14.8093C85.2069 14.3877 85.0571 14.0884 84.7574 13.9116C84.4713 13.7347 83.9434 13.5988 83.1728 13.5035L80.261 13.1362C79.2477 13.0138 78.4558 12.7417 77.8846 12.32C77.3141 11.8847 77.0288 11.2387 77.0288 10.3817C77.0288 9.78314 77.2137 9.2594 77.5849 8.81052C77.9561 8.34801 78.5129 7.98758 79.2553 7.72915C79.997 7.47065 80.9106 7.34144 81.9953 7.34144C83.0801 7.34144 84.0073 7.47747 84.7787 7.74954C85.5637 8.0216 86.1631 8.42963 86.5769 8.97376C87.0052 9.5179 87.2189 10.1912 87.2189 10.9938V11.055H84.9285V10.9326C84.9285 10.5381 84.8425 10.2048 84.6714 9.93274C84.5002 9.66068 84.1937 9.45667 83.751 9.32063C83.3227 9.17103 82.7157 9.09623 81.9314 9.09623C80.9463 9.09623 80.2609 9.20498 79.876 9.42264C79.4904 9.64029 79.2979 9.98716 79.2979 10.4633C79.2979 10.8578 79.4402 11.1434 79.7262 11.3203C80.0115 11.4971 80.547 11.6399 81.3312 11.7488L83.7936 12.0752C85.0495 12.2249 85.9775 12.5173 86.5769 12.9526C87.1763 13.3878 87.476 14.0272 87.476 14.8706C87.476 15.4963 87.2691 16.0404 86.8553 16.5029C86.4415 16.9518 85.8634 17.2986 85.121 17.5435C84.3785 17.7748 83.5083 17.8904 82.5088 17.8904Z" fill="white"/>
<path d="M13.8589 0H9.07031V8.6436L13.8589 4.32181V0Z" fill="white"/>
<path d="M2.09317e-07 13.2084L0 8.64453H9.06933L4.53466 13.2084H2.09317e-07Z" fill="white"/>
<path d="M22.9326 8.64453V13.2083H13.8633L18.3979 8.64453H22.9326Z" fill="white"/>
<path d="M13.8815 8.625H9.05469V21.8507H13.8815V8.625Z" fill="white"/>
</g>
</g>
<defs>
<clipPath id="clip0_36174_802">
<rect width="89" height="22" fill="white"/>
</clipPath>
</defs>
</svg>
