<svg width="67" height="18" viewBox="0 0 67 18" fill="none" xmlns="http://www.w3.org/2000/svg">
<g clip-path="url(#clip0_36174_812)">
<mask id="mask0_36174_812" style="mask-type:luminance" maskUnits="userSpaceOnUse" x="0" y="0" width="67" height="18">
<path d="M67 0H0V18H67V0Z" fill="white"/>
</mask>
<g mask="url(#mask0_36174_812)">
<path d="M0 9.8786H5.05419C5.10564 10.1556 5.25354 10.3948 5.49788 10.5963C5.74223 10.7852 6.07662 10.9363 6.501 11.0496C6.92541 11.1504 7.43341 11.2007 8.025 11.2007C8.79664 11.2007 9.39462 11.1252 9.819 10.974C10.2563 10.823 10.4749 10.5774 10.4749 10.2375C10.4749 10.0108 10.3527 9.8219 10.1084 9.67085C9.86407 9.50712 9.36249 9.4001 8.60371 9.3497L6.21164 9.19865C4.0382 9.06012 2.46922 8.60682 1.50468 7.83867C0.540142 7.07061 0.0578725 6.05697 0.0578725 4.79779C0.0578725 3.74007 0.366525 2.85865 0.983834 2.15351C1.60114 1.44837 2.46281 0.919512 3.56879 0.566942C4.68767 0.214372 5.993 0.0380859 7.48484 0.0380859C8.9381 0.0380859 10.2241 0.239554 11.343 0.642492C12.4747 1.03284 13.3686 1.58688 14.0244 2.30461C14.6932 3.02235 15.0597 3.85971 15.124 4.81667H10.0698C10.0312 4.59003 9.9026 4.39485 9.68401 4.23117C9.47822 4.06747 9.18242 3.94155 8.79664 3.85341C8.41078 3.76527 7.9414 3.72119 7.38839 3.72119C6.68104 3.72119 6.12161 3.79045 5.71007 3.92895C5.31141 4.06747 5.11206 4.29411 5.11206 4.60891C5.11206 4.82297 5.22782 5.00555 5.4593 5.15665C5.70364 5.30777 6.16663 5.40849 6.84824 5.45887L9.54895 5.62885C10.9636 5.71699 12.1082 5.92475 12.9827 6.25215C13.8573 6.56695 14.4939 7.00765 14.8925 7.5743C15.304 8.14092 15.5098 8.83977 15.5098 9.67085C15.5098 10.716 15.1948 11.6289 14.5646 12.4095C13.9344 13.1902 13.047 13.8009 11.9024 14.2416C10.7707 14.6697 9.44608 14.8838 7.92854 14.8838C6.35955 14.8838 4.98345 14.676 3.80029 14.2605C2.61713 13.845 1.69116 13.2595 1.02241 12.504C0.366525 11.7485 0.0257211 10.8733 0 9.8786Z" fill="white"/>
<path d="M20.8663 17.9995C19.9405 17.9995 19.1239 17.8862 18.4165 17.6596C17.722 17.4454 17.0275 17.0866 16.3331 16.5829V13.372C17.0147 13.8001 17.6448 14.1086 18.2235 14.2975C18.8151 14.4738 19.4518 14.562 20.1333 14.562C20.6735 14.562 21.1429 14.4549 21.5416 14.2408C21.9531 14.0142 22.2875 13.5861 22.5446 12.9565L26.3064 3.68262H31.5148L26.4608 14.392C26.0364 15.2986 25.5155 16.0163 24.8982 16.5451C24.2937 17.074 23.6442 17.4454 22.9499 17.6596C22.2553 17.8862 21.5608 17.9995 20.8663 17.9995ZM20.2491 13.0887L15.793 3.68262H21.1944L24.9174 13.0887H20.2491Z" fill="white"/>
<path d="M41.6066 14.5435L41.0471 10.5016L41.7994 9.16057L41.0471 7.34732L42.0503 0H47.1429L45.9083 8.7261L46.6992 14.5435H41.6066ZM42.5325 9.12278C42.4038 10.2812 42.0823 11.2949 41.568 12.1637C41.0663 13.0199 40.4041 13.6873 39.5811 14.1658C38.7708 14.6443 37.8385 14.8835 36.7838 14.8835C35.7035 14.8835 34.7518 14.6443 33.9287 14.1658C33.1186 13.6873 32.4819 13.0136 32.0191 12.1448C31.5689 11.276 31.3438 10.2686 31.3438 9.12278C31.3438 7.96432 31.5689 6.95069 32.0191 6.08184C32.4819 5.21303 33.1186 4.53934 33.9287 4.06086C34.7518 3.58238 35.7035 3.34312 36.7838 3.34312C37.8385 3.34312 38.7708 3.58238 39.5811 4.06086C40.4041 4.52676 41.0728 5.19413 41.5872 6.06296C42.1017 6.9192 42.4167 7.93913 42.5325 9.12278ZM36.2823 9.12278C36.2823 9.53827 36.3659 9.90975 36.533 10.2371C36.7131 10.552 36.9574 10.8038 37.2661 10.9927C37.5876 11.1815 37.9541 11.276 38.3657 11.276C38.7901 11.276 39.2016 11.1815 39.6003 10.9927C39.999 10.8038 40.3463 10.552 40.6421 10.2371C40.9507 9.90975 41.1628 9.53827 41.2786 9.12278C41.1628 8.70728 40.9507 8.3358 40.6421 8.00842C40.3463 7.68098 39.999 7.42288 39.6003 7.234C39.2016 7.04513 38.7901 6.95069 38.3657 6.95069C37.9541 6.95069 37.5876 7.04513 37.2661 7.234C36.9574 7.42288 36.7131 7.68098 36.533 8.00842C36.3659 8.3358 36.2823 8.70728 36.2823 9.12278Z" fill="white"/>
<path d="M66.7661 0.502624V5.52675L59.4688 4.71459V1.31479L66.7661 0.502624ZM52.0664 3.01469C52.0664 2.24659 52.2851 1.62959 52.7222 1.16369C53.1725 0.697792 53.7575 0.464844 54.4778 0.464844C55.198 0.464844 55.7767 0.697792 56.214 1.16369C56.6641 1.62959 56.8891 2.24659 56.8891 3.01469C56.8891 3.78279 56.6641 4.39979 56.214 4.86569C55.7767 5.33159 55.198 5.56453 54.4778 5.56453C53.7575 5.56453 53.1725 5.33159 52.7222 4.86569C52.2851 4.39979 52.0664 3.78279 52.0664 3.01469Z" fill="white"/>
<path d="M62.7921 15.6924L66.9204 14.3729V9.38655L60.9788 10.9327L52.0664 8.95215V13.9384L59.5706 15.6924L61.4225 14.9558L62.7921 15.6924Z" fill="white"/>
</g>
</g>
<defs>
<clipPath id="clip0_36174_812">
<rect width="67" height="18" fill="white"/>
</clipPath>
</defs>
</svg>
