<svg width="73" height="32" viewBox="0 0 73 32" fill="none" xmlns="http://www.w3.org/2000/svg">
<g clip-path="url(#clip0_36174_822)">
<mask id="mask0_36174_822" style="mask-type:luminance" maskUnits="userSpaceOnUse" x="0" y="0" width="73" height="32">
<path d="M73 0H0V32H73V0Z" fill="white"/>
</mask>
<g mask="url(#mask0_36174_822)">
<path d="M49.7075 11.3578V9.29244L44.2702 6.89515L49.7075 4.60845V2.56152L42.125 6.10219V7.76185L49.7075 11.3578Z" fill="white"/>
<path d="M3.66183 22.0105C4.08103 22.7359 4.88242 23.0985 6.06603 23.0985C7.24962 23.0985 8.04485 22.742 8.45175 22.029C8.87089 21.3159 9.08054 20.1234 9.08054 18.4514C9.08054 16.7672 8.86473 15.5439 8.43327 14.7817C8.01405 14.0194 7.22497 13.6383 6.06603 13.6383C4.90706 13.6383 4.11185 14.0194 3.68031 14.7817C3.2488 15.5439 3.03304 16.761 3.03304 18.433C3.03304 20.0927 3.24264 21.2852 3.66183 22.0105ZM10.0607 23.3383C9.30859 24.371 7.97702 24.8873 6.06603 24.8873C4.15499 24.8873 2.81728 24.371 2.05287 23.3383C1.28846 22.2933 0.90625 20.6582 0.90625 18.433C0.90625 16.2078 1.28846 14.5542 2.05287 13.4724C2.82961 12.3905 4.16733 11.8496 6.06603 11.8496C7.9647 11.8496 9.29627 12.3905 10.0607 13.4724C10.8251 14.542 11.2073 16.1955 11.2073 18.433C11.2073 20.6705 10.8251 22.3056 10.0607 23.3383ZM14.4923 24.6844H12.4766V15.464H14.4739V16.0357C15.3739 15.5193 16.2247 15.2612 17.0261 15.2612C18.2589 15.2612 19.0974 15.6115 19.5412 16.3122C19.9974 17.0007 20.2254 18.1441 20.2254 19.7423V24.6844H18.2281V19.7976C18.2281 18.8018 18.1172 18.0949 17.8952 17.6769C17.6856 17.2589 17.2479 17.0499 16.5822 17.0499C15.9534 17.0499 15.3493 17.1729 14.7697 17.4188L14.4923 17.5294V24.6844ZM22.3019 26.1782H30.2173V27.8932H22.3019V26.1782ZM32.61 24.6844V12.0524H40.5993V13.8412H34.6629V17.4188H39.4899V19.189H34.6629V22.8773H40.5993V24.6844H32.61ZM40.7517 15.464H42.8598L44.6355 22.9695H45.2272L47.0766 15.464H49.1294L46.725 24.6844H43.1374L40.7517 15.464ZM56.264 23.0248L56.7817 22.9695L56.8187 24.4632C55.413 24.7459 54.1678 24.8873 53.083 24.8873C51.7144 24.8873 50.728 24.5124 50.1239 23.7624C49.5321 23.0125 49.2362 21.8138 49.2362 20.1664C49.2362 16.8962 50.5739 15.2612 53.2495 15.2612C55.8383 15.2612 57.1329 16.6688 57.1329 19.4841L57.0035 20.9225H51.2703C51.2827 21.6847 51.4492 22.2441 51.7697 22.6006C52.0903 22.9572 52.6884 23.1354 53.5637 23.1354C54.439 23.1354 55.3393 23.0985 56.264 23.0248ZM55.1542 19.3735C55.1542 18.4637 55.0064 17.8306 54.7102 17.4741C54.4267 17.1052 53.9396 16.9208 53.2495 16.9208C52.559 16.9208 52.0533 17.1114 51.7327 17.4925C51.4245 17.8736 51.2643 18.5006 51.252 19.3735H55.1542ZM60.2067 24.6844H58.1909V15.464H60.188V16.0357C61.088 15.5193 61.9389 15.2612 62.7402 15.2612C63.9731 15.2612 64.8117 15.6115 65.2553 16.3122C65.7116 17.0007 65.9398 18.1441 65.9398 19.7423V24.6844H63.9424V19.7976C63.9424 18.8018 63.8313 18.0949 63.6095 17.6769C63.4 17.2589 62.962 17.0499 62.2965 17.0499C61.6678 17.0499 61.0637 17.1729 60.4839 17.4188L60.2067 17.5294V24.6844ZM72.3808 17.179H69.8286V21.236C69.8286 21.9859 69.884 22.4838 69.9951 22.7297C70.1062 22.9756 70.3897 23.0985 70.8457 23.0985L72.3621 23.0432L72.4548 24.6476C71.6285 24.8074 70.9997 24.8873 70.5684 24.8873C69.5203 24.8873 68.7992 24.6476 68.4046 24.1682C68.0222 23.6887 67.8312 22.7851 67.8312 21.4573V17.179H66.6477V15.464H67.8312V12.79H69.8286V15.464H72.3808V17.179Z" fill="white"/>
<path d="M53.128 13.6279L58.4172 0.645433L56.6419 0L51.3711 13.0008L53.128 13.6279Z" fill="white"/>
<path d="M59.5898 11.3578L67.1723 7.76185V6.10219L59.5898 2.56152V4.60845L65.0267 6.89515L59.5898 9.29244V11.3578Z" fill="white"/>
</g>
</g>
<defs>
<clipPath id="clip0_36174_822">
<rect width="73" height="32" fill="white"/>
</clipPath>
</defs>
</svg>
