<svg width="60" height="22" viewBox="0 0 60 22" fill="none" xmlns="http://www.w3.org/2000/svg">
<g clip-path="url(#clip0_36174_831)">
<mask id="mask0_36174_831" style="mask-type:luminance" maskUnits="userSpaceOnUse" x="0" y="0" width="60" height="23">
<path d="M0 0H59.8848V22.0422H0V0Z" fill="white"/>
</mask>
<g mask="url(#mask0_36174_831)">
<path d="M34.2961 8.01024H28.6369C29.1371 12.4985 29.1404 17.0277 28.6469 21.5166H34.3094C33.8564 17.026 33.852 12.5018 34.2961 8.01024ZM59.8092 13.7655C59.654 12.0781 59.0518 10.576 57.7554 9.42204C55.4188 7.34456 50.9684 7.18917 48.4577 9.11125C46.5946 10.5374 46.079 12.5598 46.0224 14.7541C46.0701 16.9803 46.5669 18.9906 48.4012 20.4167C49.5035 21.273 50.7921 21.6367 52.1539 21.7348C54.3431 21.8913 56.3991 21.5221 58.0227 19.8855C59.7083 18.1882 60.0166 16.0336 59.8092 13.7666V13.7655ZM52.9801 20.5181H52.9735C52.9487 20.5199 52.9239 20.5199 52.8992 20.5181C52.7789 20.5002 52.6648 20.4537 52.5665 20.3825C52.4778 20.3286 52.3996 20.2592 52.3358 20.1775C51.6128 19.3752 51.096 17.2603 51.096 14.7772C51.096 12.2952 51.6172 10.166 52.3436 9.36914C52.3891 9.31628 52.44 9.26826 52.4955 9.22587C52.6187 9.11479 52.7738 9.045 52.9391 9.02638H52.9801C54.0226 9.02638 54.8654 11.5987 54.8654 14.7706C54.8654 17.9425 54.0226 20.5181 52.9801 20.5181ZM27.5069 13.7985C27.2807 11.839 26.5864 10.1296 24.9052 8.97459C23.6321 8.10061 22.1938 7.80084 20.6756 7.77549C17.2477 7.72038 14.7991 9.56862 14.0006 12.8452C13.7988 13.6773 13.8554 13.8018 14.6294 14.2339C15.744 12.2192 17.8377 12.0869 19.6487 12.67C21.1358 13.1516 22.2481 14.257 22.2193 14.9932C21.6837 14.6736 21.1181 14.235 20.4715 13.9738C19.347 13.5175 18.1582 13.5528 16.9783 13.7699C14.9533 14.1413 13.6214 15.5773 13.5948 17.4068C13.5571 19.9593 14.574 21.3248 16.8685 21.8043C17.2843 21.8924 17.7046 21.9641 18.1227 22.0423H19.5921C20.5946 21.8406 21.5927 21.6301 22.2758 20.5578V21.4957H27.8862C27.7642 19.0225 27.6533 16.5935 27.5379 14.1655C27.5269 14.0454 27.5213 13.9209 27.5069 13.7985ZM21.5461 20.2569C21.518 20.482 21.406 20.6884 21.2323 20.8355C21.0605 20.9813 20.8391 21.0563 20.6135 21.0449H20.5004C19.6531 21.0449 18.9678 19.7345 18.9678 18.1177C18.9678 16.5362 19.6254 15.2478 20.4482 15.1949H20.4671C20.9905 15.1508 21.3243 15.4583 21.5151 15.8936L21.5761 16.0347C21.8921 16.6828 22.0496 17.3991 22.0352 18.1221C22.0285 18.963 21.8411 19.7235 21.5472 20.258L21.5461 20.2569Z" fill="white"/>
<path d="M46.5505 8.11986C45.6533 7.15221 43.6039 7.06183 42.6646 8.10112C42.0358 8.79545 41.5911 9.68155 41.1664 10.5357C40.8481 11.1727 40.694 11.8957 40.4655 12.5757L40.3513 12.5526L40.5332 9.70139C40.5955 8.82324 40.7646 7.95582 41.0366 7.11804C41.4037 5.9465 41.6177 3.76322 39.4098 1.4036C38.049 -0.0489873 33.6065 -0.37411 31.5061 0.428227C28.8135 1.46421 28.5307 3.99025 28.5307 3.99025C28.5307 3.99025 28.5307 4.03213 28.5373 4.10487C28.5451 4.17871 28.5307 4.22941 28.5307 4.29002C28.5304 4.72038 28.6276 5.14528 28.8152 5.53316C29.0028 5.92105 29.2759 6.26198 29.6142 6.53062C30.0844 6.94721 30.6865 7.18086 31.3109 7.19188H31.4817C31.8834 7.19318 32.2811 7.11292 32.6505 6.95603C33.4934 6.68601 34.4881 6.11843 34.4881 4.93256C34.4881 2.8672 36.9489 3.35984 36.9489 4.58539C36.9489 5.45055 36.6894 5.9454 36.5386 6.1559C36.4624 6.2614 36.391 6.37025 36.3246 6.48212C35.9762 7.05991 35.531 7.57428 35.0082 8.00304C35.4859 12.4911 35.4882 17.0165 35.0149 21.505H40.6064C40.521 19.5267 40.4666 17.598 40.3402 15.6693C40.2737 14.6477 40.6407 13.82 41.2252 13.0529C41.6466 12.5008 42.2044 12.1756 42.9186 12.2539C43.6993 12.3409 44.4767 12.4688 45.2696 12.5801C45.2891 12.5561 45.3062 12.5303 45.3206 12.503C45.7908 11.3898 46.2344 10.2591 46.7401 9.16356C46.9397 8.72272 46.8444 8.43617 46.5505 8.11986ZM5.87759 7.23046C5.88646 6.75986 5.85763 6.08757 6.61173 6.1041C7.32702 6.12063 7.2993 6.76757 7.35696 7.2503C7.47895 8.30832 7.55436 9.36966 7.64752 10.4244H13.0072C12.9529 9.85348 12.9229 9.32557 12.8508 8.80427C12.5692 6.74112 11.3493 5.39875 9.31875 5.11551C8.16899 4.9576 7.00706 4.90522 5.84764 4.95901V4.94468C5.07806 4.94488 4.31623 5.09741 3.6066 5.39335C2.89696 5.6893 2.25375 6.12274 1.71448 6.66838C0.614755 7.78215 -0.000921287 9.28054 1.03478e-06 10.841V15.8578C1.03478e-06 17.1869 0.443592 18.4775 1.26091 19.519C2.07158 20.558 3.21337 21.2924 4.49913 21.602V21.6174C4.60337 21.6362 4.70872 21.6516 4.81408 21.6681C5.01702 21.7045 5.22107 21.7298 5.42623 21.7453C6.86271 21.8922 8.31309 21.8294 9.73129 21.559C11.9348 21.1457 13.1436 19.0947 12.8885 16.3449H7.62423C7.60759 16.5775 7.60094 16.7803 7.57987 16.9808C7.47562 17.9827 7.40798 18.9922 7.23608 19.9808C7.19173 20.242 6.86125 20.577 6.60064 20.6476C6.17147 20.7644 6.00845 20.3577 5.96741 19.9951C5.93082 19.681 5.88979 19.3669 5.85208 19.0506V8.89464C5.85763 8.34028 5.8665 7.78592 5.87648 7.23046H5.87759Z" fill="white"/>
</g>
</g>
<defs>
<clipPath id="clip0_36174_831">
<rect width="60" height="22" fill="white"/>
</clipPath>
</defs>
</svg>
