<svg width="78" height="20" viewBox="0 0 78 20" fill="none" xmlns="http://www.w3.org/2000/svg">
<g clip-path="url(#clip0_36174_838)">
<mask id="mask0_36174_838" style="mask-type:luminance" maskUnits="userSpaceOnUse" x="0" y="0" width="78" height="20">
<path d="M78 0H0V20H78V0Z" fill="white"/>
</mask>
<g mask="url(#mask0_36174_838)">
<path d="M39.651 3.11142C38.2538 3.97964 36.9409 5.01251 35.7114 6.21002C34.4821 7.37762 33.2805 8.57512 32.1071 9.80256C31.4365 10.4912 30.7799 11.1947 30.1373 11.9133C29.4947 12.6318 28.852 13.3502 28.2094 14.0688C27.874 14.4879 27.5108 14.907 27.1198 15.3262C26.7565 15.7154 26.3933 16.1346 26.03 16.5836C26.6169 16.4339 27.1896 16.2542 27.7484 16.0447C28.3351 15.8351 28.8661 15.6555 29.3409 15.5058C29.76 15.416 30.2071 15.2962 30.682 15.1466C31.1571 14.9969 31.632 14.8771 32.1071 14.7873C32.582 14.6675 33.0569 14.6077 33.532 14.6077C34.035 14.5778 34.4958 14.6526 34.9151 14.8322C35.4459 15.0418 35.7673 15.401 35.8789 15.91C35.9628 16.2393 35.9348 16.5537 35.7951 16.853C36.2702 16.7034 36.7311 16.5387 37.1782 16.359C37.6533 16.1794 38.1002 16.0148 38.5194 15.8651C39.3296 15.5957 40.1399 15.3262 40.9502 15.0567C41.7605 14.7574 42.5847 14.5178 43.423 14.3382C43.6465 14.2783 43.912 14.2484 44.2193 14.2484C44.5545 14.2185 44.848 14.2484 45.0993 14.3382C45.3509 14.4281 45.5324 14.5927 45.6442 14.8322C45.7839 15.0418 45.798 15.3562 45.686 15.7753C45.6022 16.0447 45.4347 16.2693 45.1831 16.4489C44.9318 16.5986 44.6384 16.7183 44.3029 16.8082C43.9678 16.8979 43.6325 16.9728 43.2971 17.0326C42.9619 17.0626 42.6965 17.1075 42.5008 17.1674C41.551 17.4668 40.615 17.7811 39.6928 18.1105C38.7708 18.4098 37.8489 18.7092 36.9269 19.0086C36.4517 19.1582 35.9348 19.308 35.376 19.4577C34.8173 19.6373 34.2864 19.6672 33.7834 19.5474C33.5879 19.5175 33.3784 19.4277 33.1548 19.278C32.6799 18.8888 32.4564 18.5296 32.4842 18.2002C32.5122 17.871 32.6379 17.5416 32.8614 17.2123H32.3585C31.3527 17.3919 30.3468 17.6165 29.3409 17.8859C28.5307 18.1254 27.7065 18.3949 26.8682 18.6942C26.0578 18.9936 25.2197 19.1882 24.3536 19.278C24.0462 19.3079 23.739 19.2481 23.4316 19.0984C23.1242 18.9786 22.9006 18.7242 22.7609 18.335C22.6493 18.0057 22.6493 17.6913 22.7609 17.3919C22.8729 17.0626 23.0263 16.7482 23.222 16.4489C22.4117 16.9578 21.6434 17.3919 20.9169 17.7512C20.2184 18.0805 19.6875 18.32 19.3243 18.4697C18.5979 18.799 17.8155 19.1433 16.9773 19.5026C16.1391 19.8618 15.3009 20.0265 14.4626 19.9966C13.5406 19.9366 12.9818 19.6672 12.7862 19.1882C12.5906 18.7092 12.6326 18.1105 12.912 17.3919C13.1634 16.6434 13.5686 15.8501 14.1274 15.0118C14.6862 14.1437 15.2729 13.3203 15.8876 12.5419C16.5302 11.7635 17.117 11.0899 17.6479 10.5211C18.1788 9.92232 18.528 9.53312 18.6956 9.35352L19.2824 8.7248C18.4721 8.7248 17.6759 8.7248 16.8935 8.7248C16.1112 8.7248 15.3149 8.73976 14.5046 8.76976C12.884 8.8296 11.2774 8.91944 9.68487 9.0392C8.06429 9.12896 6.44376 9.26368 4.82322 9.44336C4.23647 9.53312 3.6637 9.62296 3.10488 9.7128C2.51813 9.77264 1.93139 9.87744 1.34464 10.0271C1.20493 10.0571 1.05126 10.102 0.883619 10.1618C0.715973 10.2218 0.562301 10.2218 0.422599 10.1618C0.115254 10.0421 -0.0244483 9.83256 0.00349268 9.53312C0.00349268 9.20384 0.143195 8.99424 0.422599 8.90448C3.77545 7.97638 7.2261 7.39258 10.7745 7.15309C14.323 6.88364 17.8295 6.71898 21.2942 6.65909C22.0205 5.94058 22.7469 5.23704 23.4734 4.54846C24.1998 3.85989 24.9404 3.17131 25.6946 2.48274C26.0578 2.12347 26.4771 1.6744 26.952 1.13551C27.4549 0.566686 27.9579 0.207429 28.4608 0.0577384C28.7402 -0.0320767 28.9778 -0.0171077 29.1733 0.102645C29.3968 0.192459 29.5645 0.35712 29.6762 0.596624C29.788 0.806192 29.8298 1.0457 29.8021 1.31514C29.774 1.58458 29.6622 1.82409 29.4667 2.03366C28.6005 2.81204 27.7484 3.59044 26.9102 4.36882C26.0718 5.11729 25.2478 5.89566 24.4374 6.704C24.8565 6.704 25.2478 6.76389 25.611 6.88364C25.9462 6.97344 26.2396 7.12314 26.4909 7.33271C26.7705 7.54226 26.966 7.85662 27.0777 8.27576C27.1616 8.63504 27.1198 8.94936 26.952 9.2188C26.7843 9.45832 26.5748 9.63792 26.3234 9.75768C26.0718 9.84752 25.8065 9.86248 25.5271 9.80256C25.2756 9.7128 25.08 9.51816 24.9403 9.2188C24.5771 9.06912 24.158 8.96432 23.6829 8.90448C23.208 8.81464 22.7609 8.76976 22.3419 8.76976L21.9228 9.17392C20.7772 10.3415 19.5618 11.5989 18.2765 12.9461C17.0192 14.2934 16.0273 15.7454 15.3009 17.3021C16.2788 17.0926 17.2846 16.7931 18.3185 16.4039C19.3523 16.0148 20.3721 15.5806 21.3778 15.1017C22.3837 14.6226 23.3758 14.1137 24.3536 13.5748C25.3316 13.006 26.2396 12.4222 27.0777 11.8234C28.1396 10.6558 29.2153 9.51816 30.305 8.41048C31.4225 7.27282 32.554 6.18009 33.6998 5.13224C34.3982 4.47362 35.1107 3.82995 35.8371 3.20124C36.5636 2.57254 37.3041 1.98875 38.0584 1.44986C38.3658 1.21036 38.701 1.06066 39.0642 1.00079C39.4554 0.910976 39.7767 1.07563 40.0282 1.49477C40.168 1.76422 40.1957 2.06359 40.1121 2.39291C40.056 2.69229 39.9024 2.9318 39.651 3.11142Z" fill="white"/>
<path d="M64.1661 16.6272C63.5235 16.6871 62.8808 16.8068 62.2383 16.9864C61.6234 17.1362 60.9948 17.2859 60.3523 17.4355C58.6757 17.8547 57.0133 18.2588 55.3648 18.648C53.7164 19.0073 52.0399 19.2767 50.3356 19.4563C49.8885 19.5163 49.4134 19.5611 48.9105 19.5911C48.4356 19.621 47.9467 19.606 47.4437 19.5462C46.9687 19.4863 46.5077 19.3666 46.0607 19.1869C45.6136 19.0372 45.2085 18.7977 44.8453 18.4684C44.5379 18.199 44.3003 17.8846 44.1328 17.5254C43.9371 17.1661 43.8254 16.7919 43.7974 16.4027C43.7416 16.0135 43.7696 15.6392 43.8812 15.28C43.9932 14.8908 44.2027 14.5465 44.5099 14.2471C44.7056 14.0375 45.0128 13.8729 45.4321 13.7531C45.8789 13.6035 46.3681 13.4987 46.8988 13.4388C47.4297 13.3789 47.9607 13.3639 48.4914 13.3939C49.0224 13.4238 49.4832 13.5286 49.8745 13.7083C50.2657 13.8879 50.5312 14.1423 50.6708 14.4716C50.8385 14.7711 50.8245 15.1603 50.629 15.6392C50.4613 15.9985 50.2097 16.253 49.8745 16.4027C49.5393 16.5523 49.1621 16.6571 48.743 16.717C48.3237 16.747 47.8907 16.747 47.4437 16.717C46.9967 16.6571 46.6054 16.5972 46.2702 16.5374C46.3819 16.6571 46.6054 16.7619 46.9408 16.8518C47.2761 16.9116 47.6252 16.9565 47.9885 16.9864C48.3797 17.0164 48.729 17.0314 49.0364 17.0314C49.3716 17.0314 49.5811 17.0314 49.665 17.0314C51.0341 16.9116 52.3891 16.702 53.7304 16.4027C55.0995 16.1033 56.4545 15.789 57.7956 15.4596C58.7736 15.2201 59.7374 14.9806 60.6874 14.7411C61.6652 14.4716 62.6433 14.2771 63.6211 14.1573C64.0404 14.1274 64.3896 14.2322 64.669 14.4716C64.9484 14.7111 65.1299 14.9955 65.2137 15.3249C65.2976 15.6243 65.2557 15.9087 65.0881 16.1781C64.9484 16.4475 64.641 16.5972 64.1661 16.6272Z" fill="white"/>
<path d="M76.8173 16.6283C75.3921 16.6582 73.9392 16.7032 72.4584 16.763C70.9775 16.7929 69.5246 16.6133 68.0997 16.2241C67.988 16.2241 67.8761 16.1942 67.7644 16.1343C67.5968 16.6433 67.3454 17.1373 67.0099 17.6163C66.7028 18.0653 66.3534 18.4545 65.9623 18.7838C65.571 19.1132 65.1379 19.3527 64.663 19.5024C64.2159 19.6521 63.7689 19.667 63.3218 19.5473C62.9027 19.4275 62.5954 19.2029 62.3998 18.8737C62.1763 18.5444 62.0506 18.1701 62.0226 17.7509C61.9948 17.3318 62.0506 16.9127 62.1903 16.4936C62.3021 16.0745 62.4696 15.7002 62.6932 15.3709C63.0565 14.8919 63.5175 14.5326 64.0763 14.2931C64.635 14.0537 65.1938 14.0237 65.7528 14.2033C65.8086 13.7841 66.0321 13.4549 66.4232 13.2153C66.8145 12.9758 67.2335 13.0057 67.6806 13.3052C68.0997 13.5746 68.5468 13.7841 69.0217 13.9339C69.5246 14.0537 70.0415 14.1285 70.5724 14.1584C71.1034 14.1883 71.6201 14.2033 72.123 14.2033C72.654 14.1733 73.1569 14.1584 73.6318 14.1584C74.1908 14.1584 74.7914 14.1285 75.4339 14.0686C76.0767 13.9788 76.6636 14.0237 77.1945 14.2033C77.5019 14.3231 77.7109 14.5177 77.823 14.7871C77.9623 15.0565 78.0048 15.326 77.9487 15.5954C77.9207 15.8649 77.8094 16.1044 77.6132 16.314C77.4179 16.5235 77.1528 16.6283 76.8173 16.6283ZM64.2858 17.2121C64.3697 17.1223 64.5374 17.0773 64.7888 17.0773V16.6732C64.7329 16.7331 64.649 16.8079 64.5374 16.8977C64.4255 16.9577 64.3417 17.0624 64.2858 17.2121Z" fill="white"/>
</g>
</g>
<defs>
<clipPath id="clip0_36174_838">
<rect width="78" height="20" fill="white"/>
</clipPath>
</defs>
</svg>
