<svg width="77" height="26" viewBox="0 0 77 26" fill="none" xmlns="http://www.w3.org/2000/svg">
<g clip-path="url(#clip0_36174_846)">
<mask id="mask0_36174_846" style="mask-type:luminance" maskUnits="userSpaceOnUse" x="0" y="0" width="77" height="26">
<path d="M76.1905 0H0V25.1429H76.1905V0Z" fill="white"/>
</mask>
<g mask="url(#mask0_36174_846)">
<path d="M73.4054 5.73047H76.1782L70.3949 21.958C70.2365 22.4095 70.0515 22.7915 69.8403 23.104C69.6465 23.434 69.4089 23.6945 69.1273 23.8854C68.863 24.0939 68.5373 24.2415 68.1502 24.3282C67.7627 24.4325 67.305 24.4846 66.7768 24.4846H65.113V22.1663H67.437L68.2294 19.8742L63.2383 5.73047H66.1168L68.863 13.701L69.6553 16.6443H69.7875L70.6588 13.701L73.4054 5.73047Z" fill="white"/>
<path d="M29.693 19.275C28.7071 19.275 27.9677 19.0319 27.4747 18.5457C26.9994 18.0421 26.7617 17.3475 26.7617 16.4619V0H29.6403V16.9568H31.5417V19.275H29.693Z" fill="white"/>
<path d="M30.6758 5.73047H33.475L34.8747 11.4088L36.1159 16.5401H36.1952L37.6213 11.4088L39.285 5.73047H41.873L43.563 11.4088L45.0154 16.5401H45.0948L46.3095 11.4088L47.7356 5.73047H50.4029L46.7058 19.2751H43.4573L41.6616 13.1019L40.5525 9.29891H40.4998L39.417 13.1019L37.5949 19.2751H34.4258L30.6758 5.73047Z" fill="white"/>
<path d="M13.2041 20.8976C13.2041 22.3041 12.6584 23.3634 11.5668 24.0753C10.4753 24.7873 8.69714 25.1433 6.23234 25.1433C5.10559 25.1433 4.1461 25.0651 3.35384 24.9089C2.57921 24.77 1.93661 24.5616 1.42604 24.2837C0.93309 24.0059 0.572179 23.6673 0.343307 23.2679C0.114436 22.8685 0 22.4083 0 21.8874C0 21.1407 0.202463 20.559 0.607391 20.1422C1.02992 19.7254 1.6109 19.4389 2.35033 19.2827V18.9961C1.31161 18.6662 0.792244 17.9716 0.792244 16.9124C0.792244 16.2177 1.02992 15.6881 1.50527 15.3234C1.98062 14.9414 2.5528 14.6722 3.22182 14.516V14.4118C2.41195 14.0298 1.78696 13.5002 1.34682 12.8229C0.924289 12.1283 0.713023 11.3208 0.713023 10.4005C0.713023 9.01135 1.17957 7.89127 2.11266 7.04039C3.06335 6.18952 4.41897 5.76408 6.17954 5.76408C7.14784 5.76408 7.97531 5.90298 8.66194 6.18084V5.81615C8.66194 5.2084 8.80274 4.73954 9.08442 4.40961C9.3837 4.0623 9.84145 3.88867 10.4577 3.88867H12.5704V6.18084H9.77105V6.72783C10.3872 7.12722 10.8626 7.64815 11.1971 8.29066C11.5316 8.9158 11.6988 9.61904 11.6988 10.4005C11.6988 11.7723 11.2235 12.8837 10.2728 13.7345C9.32213 14.5681 7.96648 14.9848 6.20594 14.9848C5.53694 14.9848 4.93835 14.9153 4.41016 14.7765C4.05807 14.898 3.74997 15.0717 3.48588 15.2974C3.22182 15.5058 3.08978 15.7836 3.08978 16.131C3.08978 16.4956 3.25703 16.756 3.59153 16.9124C3.92603 17.0686 4.40139 17.1467 5.01756 17.1467H8.39779C10.0879 17.1467 11.3115 17.4854 12.0686 18.1626C12.8256 18.8225 13.2041 19.7341 13.2041 20.8976ZM10.5105 21.2101C10.5105 20.7413 10.3256 20.3679 9.95596 20.0901C9.60381 19.8123 8.95238 19.6734 8.00168 19.6734H3.35384C2.72005 20.038 2.40315 20.559 2.40315 21.2362C2.40315 21.7918 2.62322 22.2347 3.06335 22.5646C3.52109 22.9119 4.28693 23.0856 5.36088 23.0856H7.15665C9.39253 23.0856 10.5105 22.4604 10.5105 21.2101ZM6.20594 12.9271C7.051 12.9271 7.7024 12.7448 8.16015 12.3801C8.6355 11.9981 8.87314 11.4163 8.87314 10.6349V10.114C8.87314 9.33256 8.6355 8.75954 8.16015 8.39489C7.7024 8.01279 7.051 7.82178 6.20594 7.82178C5.36088 7.82178 4.70068 8.01279 4.22533 8.39489C3.76759 8.75954 3.5387 9.33256 3.5387 10.114V10.6349C3.5387 11.4163 3.76759 11.9981 4.22533 12.3801C4.70068 12.7448 5.36088 12.9271 6.20594 12.9271Z" fill="white"/>
<path d="M55.9108 19.2746C55.0126 19.2746 54.1895 19.1176 53.4413 18.8035C52.7097 18.4894 52.086 18.0431 51.5705 17.4645C51.055 16.8694 50.6559 16.1585 50.3732 15.3319C50.0906 14.4889 49.9492 13.5549 49.9492 12.5299C49.9492 11.505 50.0906 10.5792 50.3732 9.75265C50.6559 8.90953 51.055 8.19867 51.5705 7.62008C52.086 7.02501 52.7097 6.5704 53.4413 6.25631C54.1895 5.94219 55.0126 5.78516 55.9108 5.78516C56.8086 5.78516 57.6235 5.94219 58.3551 6.25631C59.1034 6.5704 59.7354 7.02501 60.2508 7.62008C60.7663 8.19867 61.1654 8.90953 61.448 9.75265C61.731 10.5792 61.8723 11.505 61.8723 12.5299C61.8723 13.5549 61.731 14.4889 61.448 15.3319C61.1654 16.1585 60.7663 16.8694 60.2508 17.4645C59.7354 18.0431 59.1034 18.4894 58.3551 18.8035C57.6235 19.1176 56.8086 19.2746 55.9108 19.2746ZM55.9108 17.0429C56.8421 17.0429 57.5904 16.7619 58.1557 16.1998C58.721 15.6212 59.0037 14.7616 59.0037 13.6209V11.4388C59.0037 10.2982 58.721 9.44683 58.1557 8.88477C57.5904 8.30618 56.8421 8.01688 55.9108 8.01688C54.9795 8.01688 54.2312 8.30618 53.6659 8.88477C53.1005 9.44683 52.8176 10.2982 52.8176 11.4388V13.6209C52.8176 14.7616 53.1005 15.6212 53.6659 16.1998C54.2312 16.7619 54.9795 17.0429 55.9108 17.0429Z" fill="white"/>
<path d="M60.0436 18.8302C60.4483 19.2469 61.0292 19.4553 61.7863 19.4553H63.3973V17.1371H61.9449V5.43854L59.0664 5.43848L59.304 17.1892C59.3921 17.8491 59.6385 18.396 60.0436 18.8302Z" fill="white"/>
<path d="M18.0357 19.2746C17.1378 19.2746 16.3147 19.1176 15.5663 18.8035C14.8347 18.4894 14.2111 18.0431 13.6956 17.4645C13.18 16.8694 12.781 16.1585 12.4983 15.3319C12.2156 14.4889 12.0742 13.5549 12.0742 12.5299C12.0742 11.505 12.2156 10.5792 12.4983 9.75265C12.781 8.90953 13.18 8.19867 13.6956 7.62008C14.2111 7.02501 14.8347 6.5704 15.5663 6.25631C16.3147 5.94219 17.1378 5.78516 18.0357 5.78516C18.9337 5.78516 19.7485 5.94219 20.4802 6.25631C21.2285 6.5704 21.8604 7.02501 22.3759 7.62008C22.8914 8.19867 23.2905 8.90953 23.5732 9.75265C23.8559 10.5792 23.9973 11.505 23.9973 12.5299C23.9973 13.5549 23.8559 14.4889 23.5732 15.3319C23.2905 16.1585 22.8914 16.8694 22.3759 17.4645C21.8604 18.0431 21.2285 18.4894 20.4802 18.8035C19.7485 19.1176 18.9337 19.2746 18.0357 19.2746ZM18.0357 17.0429C18.9669 17.0429 19.7153 16.7619 20.2806 16.1998C20.846 15.6212 21.1288 14.7616 21.1288 13.6209V11.4388C21.1288 10.2982 20.846 9.44683 20.2806 8.88477C19.7153 8.30618 18.9669 8.01688 18.0357 8.01688C17.1045 8.01688 16.3562 8.30618 15.7908 8.88477C15.2255 9.44683 14.9427 10.2982 14.9427 11.4388V13.6209C14.9427 14.7616 15.2255 15.6212 15.7908 16.1998C16.3562 16.7619 17.1045 17.0429 18.0357 17.0429Z" fill="white"/>
<path d="M22.1685 18.8302C22.5735 19.2469 23.1545 19.4553 23.9115 19.4553H25.5224V17.1371H24.0699V5.43854L21.1914 5.43848L21.4291 17.1892C21.5171 17.8491 21.7636 18.396 22.1685 18.8302Z" fill="white"/>
<path d="M63.4847 21.916H60.9453V24.4207H63.4847V21.916Z" fill="white"/>
<path d="M59.6721 21.916H43.8008V24.4207H59.6721V21.916Z" fill="white"/>
</g>
</g>
<defs>
<clipPath id="clip0_36174_846">
<rect width="76.1905" height="25.1429" fill="white"/>
</clipPath>
</defs>
</svg>
