<svg width="34" height="23" viewBox="0 0 34 23" fill="none" xmlns="http://www.w3.org/2000/svg">
<g clip-path="url(#clip0_36174_861)">
<mask id="mask0_36174_861" style="mask-type:luminance" maskUnits="userSpaceOnUse" x="0" y="0" width="34" height="23">
<path d="M33.5238 0H0V22.0952H33.5238V0Z" fill="white"/>
</mask>
<g mask="url(#mask0_36174_861)">
<path d="M0 14.2974C0 9.99047 3.50558 6.49902 7.82994 6.49902C12.1543 6.49902 15.6599 9.99047 15.6599 14.2974V18.6298C15.6599 20.5439 14.1019 22.0957 12.18 22.0957H7.82994C3.50558 22.0957 0 18.6043 0 14.2974Z" fill="white"/>
<path d="M17.6133 6.15021V3.89917C17.6133 1.74571 19.366 0 21.5283 0C23.6904 0 25.4434 1.74571 25.4434 3.89915V4.42413C25.4434 5.45549 26.1045 6.3717 27.086 6.70048L28.1982 7.07308C31.2307 8.08884 33.2731 10.9195 33.2731 14.1058V14.344C33.2731 18.6249 29.7889 22.0952 25.4905 22.0952H21.0932C19.1713 22.0952 17.6133 20.5435 17.6133 18.6293V6.15021Z" fill="white"/>
<path d="M32.0716 2.81211C31.8054 2.81211 31.5637 2.75157 31.3458 2.63046C31.1327 2.50452 30.9634 2.33496 30.8377 2.12181C30.7167 1.90866 30.6562 1.66887 30.6562 1.40243C30.6562 1.13599 30.7191 0.898621 30.8448 0.690314C30.9708 0.477164 31.1401 0.310036 31.3532 0.188928C31.5659 0.0629761 31.8054 0 32.0716 0C32.3376 0 32.5772 0.0629761 32.7902 0.188928C33.0032 0.310036 33.1701 0.477164 33.2911 0.690314C33.4168 0.898621 33.4796 1.13599 33.4796 1.40243C33.4796 1.66887 33.4168 1.90866 33.2911 2.12181C33.1701 2.33496 33.0032 2.50452 32.7902 2.63046C32.5822 2.75157 32.3426 2.81211 32.0716 2.81211ZM32.0716 2.60866C32.2989 2.60866 32.5023 2.55779 32.6812 2.45606C32.8652 2.34949 33.0079 2.20416 33.1097 2.02008C33.2159 1.83599 33.2692 1.63011 33.2692 1.40243C33.2692 1.17474 33.2159 0.971284 33.1097 0.792046C33.0079 0.60796 32.8652 0.465053 32.6812 0.363324C32.5023 0.256749 32.2989 0.203461 32.0716 0.203461C31.8441 0.203461 31.6386 0.256749 31.4547 0.363324C31.2754 0.465053 31.1327 0.60796 31.0263 0.792046C30.9247 0.971284 30.8739 1.17474 30.8739 1.40243C30.8739 1.63011 30.9247 1.83599 31.0263 2.02008C31.1327 2.20416 31.2754 2.34949 31.4547 2.45606C31.6386 2.55779 31.8441 2.60866 32.0716 2.60866ZM31.7739 2.17267H31.5491V0.603117H32.1151C32.2844 0.603117 32.42 0.646715 32.5215 0.733913C32.6233 0.816267 32.6742 0.932533 32.6742 1.0827C32.6742 1.18443 32.6475 1.27405 32.5942 1.35157C32.541 1.42907 32.4587 1.4872 32.3475 1.52596L32.7032 2.17267H32.4491L32.1296 1.57682H31.7739V2.17267ZM32.4345 1.08997C32.4345 0.905882 32.3256 0.813844 32.1079 0.813844H31.7739V1.3661H32.1079C32.2095 1.3661 32.2893 1.3443 32.3475 1.3007C32.4054 1.25225 32.4345 1.18201 32.4345 1.08997Z" fill="white"/>
</g>
</g>
<defs>
<clipPath id="clip0_36174_861">
<rect width="33.5238" height="22.0952" fill="white"/>
</clipPath>
</defs>
</svg>
