<svg width="92" height="24" viewBox="0 0 92 24" fill="none" xmlns="http://www.w3.org/2000/svg">
<g opacity="0.5" clip-path="url(#clip0_34160_317)">
<path d="M36.0143 19.517C34.5537 19.517 33.3216 19.3092 32.3184 18.8937C31.33 18.4783 30.585 17.8921 30.0833 17.1353C29.5817 16.3636 29.3309 15.4584 29.3309 14.4197V14.2861H31.721V14.6423C31.721 15.2358 31.8536 15.7329 32.1193 16.1336C32.3849 16.5195 32.8274 16.8162 33.447 17.024C34.0669 17.2169 34.9225 17.3133 36.0143 17.3133C36.9587 17.3133 37.7111 17.2466 38.2716 17.113C38.8323 16.9646 39.2306 16.742 39.4668 16.4452C39.7176 16.1336 39.843 15.7478 39.843 15.2878C39.843 14.6348 39.6365 14.16 39.2232 13.8632C38.8101 13.5664 38.1388 13.329 37.2095 13.1509L33.5799 12.5499C32.7537 12.3867 32.0161 12.1492 31.3668 11.8376C30.7178 11.5112 30.2087 11.0808 29.8397 10.5466C29.4857 9.9975 29.3086 9.31489 29.3086 8.49873C29.3086 7.96452 29.4266 7.43771 29.6628 6.91833C29.8988 6.39894 30.2676 5.9315 30.7692 5.51601C31.2709 5.10052 31.9202 4.77404 32.7169 4.5366C33.5282 4.28433 34.5168 4.1582 35.6823 4.1582C37.1281 4.1582 38.3159 4.38078 39.2454 4.82598C40.175 5.27116 40.8609 5.87958 41.3036 6.65121C41.761 7.40804 41.9895 8.27614 41.9895 9.25553V9.38907H39.6216V9.09971C39.6216 8.49132 39.4888 7.98676 39.2232 7.58609C38.9578 7.1706 38.5224 6.86638 37.9177 6.67348C37.3126 6.46572 36.4939 6.36185 35.461 6.36185C34.5611 6.36185 33.8307 6.43604 33.2702 6.58444C32.7243 6.73283 32.3258 6.95542 32.075 7.25222C31.8242 7.53417 31.6988 7.90516 31.6988 8.36515C31.6988 8.78068 31.7873 9.12198 31.9644 9.38907C32.1415 9.65619 32.4144 9.87137 32.7832 10.0346C33.1519 10.183 33.6241 10.324 34.1995 10.4576L37.8068 11.0808C38.7955 11.2589 39.6142 11.526 40.2635 11.8821C40.9274 12.2383 41.4216 12.6909 41.7461 13.2399C42.0706 13.789 42.2332 14.4271 42.2332 15.1542C42.2332 15.911 42.0192 16.6233 41.5913 17.2911C41.1634 17.9589 40.4921 18.5005 39.5774 18.916C38.6627 19.3167 37.4749 19.517 36.0143 19.517ZM49.1971 19.2944H46.2316L42.9339 8.23161H45.4126L47.2494 14.5087L47.7585 17.3579H47.9356L48.7543 14.2861L51.0559 8.23161H54.1099L56.4338 14.2861L57.2525 17.3579H57.4296L57.9387 14.5087L59.7755 8.23161H62.2099L58.8682 19.2944H55.9027L53.4903 12.9283L52.6493 10.2127H52.4725L51.6315 12.9283L49.1971 19.2944ZM65.8141 19.2944H63.4239V8.23161H65.8141V19.2944ZM65.8141 6.9406H63.4239V4.38078H65.8141V6.9406ZM73.2282 19.517C71.4576 19.517 70.0856 19.1757 69.1118 18.4931C68.1528 17.8105 67.6732 16.8311 67.6732 15.5549V15.4881H70.0633V15.6662C70.0633 16.3933 70.2995 16.8979 70.7715 17.1798C71.2585 17.4469 72.0772 17.5805 73.2282 17.5805C74.3051 17.5805 75.0355 17.4692 75.4189 17.2466C75.8174 17.0091 76.0165 16.6456 76.0165 16.1559C76.0165 15.6959 75.8617 15.3694 75.5517 15.1765C75.2567 14.9836 74.7108 14.8352 73.914 14.7313L70.9043 14.3306C69.8568 14.1971 69.038 13.9003 68.4479 13.4403C67.8577 12.9654 67.5626 12.2605 67.5626 11.3257C67.5626 10.6727 67.7546 10.1014 68.1379 9.61169C68.5216 9.10713 69.0969 8.7139 69.8642 8.43196C70.6315 8.15001 71.5756 8.00902 72.6968 8.00902C73.8183 8.00902 74.7773 8.15742 75.574 8.4542C76.3853 8.75099 77.0052 9.19617 77.4328 9.78974C77.8756 10.3833 78.097 11.1179 78.097 11.9934V12.0602H75.7289V11.9267C75.7289 11.4963 75.6403 11.1327 75.4632 10.836C75.2864 10.5392 74.969 10.3166 74.5116 10.1682C74.0691 10.0049 73.4421 9.92332 72.6306 9.92332C71.6125 9.92332 70.9043 10.042 70.5061 10.2795C70.1076 10.5169 69.9085 10.8953 69.9085 11.4147C69.9085 11.845 70.0561 12.1567 70.3512 12.3496C70.6461 12.5425 71.1994 12.6983 72.0109 12.817L74.5559 13.1732C75.8543 13.3364 76.8132 13.6555 77.4328 14.1303C78.0527 14.6052 78.3624 15.3026 78.3624 16.2227C78.3624 16.9053 78.1484 17.4988 77.7208 18.0034C77.2929 18.4931 76.6953 18.8715 75.928 19.1386C75.1609 19.3909 74.2608 19.517 73.2282 19.517ZM85.2876 19.517C83.5173 19.517 82.145 19.1757 81.1714 18.4931C80.2125 17.8105 79.7328 16.8311 79.7328 15.5549V15.4881H82.123V15.6662C82.123 16.3933 82.359 16.8979 82.8312 17.1798C83.3179 17.4469 84.1369 17.5805 85.2876 17.5805C86.3648 17.5805 87.095 17.4692 87.4786 17.2466C87.8768 17.0091 88.0762 16.6456 88.0762 16.1559C88.0762 15.6959 87.9211 15.3694 87.6114 15.1765C87.3164 14.9836 86.7705 14.8352 85.9737 14.7313L82.964 14.3306C81.9165 14.1971 81.0975 13.9003 80.5073 13.4403C79.9174 12.9654 79.6223 12.2605 79.6223 11.3257C79.6223 10.6727 79.814 10.1014 80.1976 9.61169C80.5813 9.10713 81.1566 8.7139 81.9239 8.43196C82.6909 8.15001 83.6353 8.00902 84.7565 8.00902C85.8778 8.00902 86.8367 8.15742 87.6334 8.4542C88.445 8.75099 89.0646 9.19617 89.4925 9.78974C89.935 10.3833 90.1564 11.1179 90.1564 11.9934V12.0602H87.7885V11.9267C87.7885 11.4963 87.7 11.1327 87.5229 10.836C87.3458 10.5392 87.0287 10.3166 86.5713 10.1682C86.1286 10.0049 85.5015 9.92332 84.6902 9.92332C83.6721 9.92332 82.964 10.042 82.5655 10.2795C82.1673 10.5169 81.9682 10.8953 81.9682 11.4147C81.9682 11.845 82.1156 12.1567 82.4107 12.3496C82.7058 12.5425 83.2591 12.6983 84.0704 12.817L86.6156 13.1732C87.914 13.3364 88.8729 13.6555 89.4925 14.1303C90.1121 14.6052 90.4221 15.3026 90.4221 16.2227C90.4221 16.9053 90.2081 17.4988 89.7802 18.0034C89.3523 18.4931 88.7549 18.8715 87.9877 19.1386C87.2204 19.3909 86.3205 19.517 85.2876 19.517Z" fill="white"/>
<path d="M14.325 0H9.375V9.42937L14.325 4.7147V0Z" fill="white"/>
<path d="M2.16372e-07 14.4083L0 9.42969H9.37504L4.68752 14.4083H2.16372e-07Z" fill="white"/>
<path d="M23.6992 9.42969V14.4084H14.3242L19.0117 9.42969H23.6992Z" fill="white"/>
<path d="M14.3449 9.41016H9.35547V23.8381H14.3449V9.41016Z" fill="white"/>
</g>
<defs>
<clipPath id="clip0_34160_317">
<rect width="92" height="24" fill="white"/>
</clipPath>
</defs>
</svg>
