<svg width="413" height="156" viewBox="0 0 413 156" fill="none" xmlns="http://www.w3.org/2000/svg">
<g clip-path="url(#clip0_34188_176)">
<path d="M79.7218 73.9711H13.9219V81.6444H79.7218L151.691 106.445L264.375 109.476L324.006 116.843H441.625V36.4707H324.006L264.375 45.3619L151.691 50.3941L79.7227 73.9702L79.7218 73.9711Z" fill="url(#paint0_linear_34188_176)"/>
<path d="M445.827 32.2773V121.037H323.75L323.492 121.005L264.052 113.662L151.58 110.637L150.933 110.62L150.322 110.41L79.0177 85.8382H9.72266V69.7769H79.0547L150.383 46.4096L150.93 46.231L151.505 46.205L263.97 41.1811L323.388 32.3243L323.696 32.2773H445.827Z" stroke="url(#paint1_linear_34188_176)" stroke-opacity="0.2" stroke-width="10"/>
<path d="M324 22V126M265.214 22V126M151 22V126" stroke="#FD3F00" stroke-width="2"/>
<g filter="url(#filter0_ii_34188_176)">
<path d="M50.4098 77.1613C50.4098 63.2651 39.1252 52 25.2049 52C11.2846 52 0 63.2651 0 77.1613C0 91.0575 11.2846 102.323 25.2049 102.323C39.1252 102.323 50.4098 91.0575 50.4098 77.1613Z" fill="#FD3F00"/>
</g>
<path d="M158.244 14.6777H138.08C132.28 14.6777 127.578 19.3715 127.578 25.1616C127.578 30.9517 132.28 35.6455 138.08 35.6455H158.244C164.044 35.6455 168.746 30.9517 168.746 25.1616C168.746 19.3715 164.044 14.6777 158.244 14.6777Z" fill="#FD3F00"/>
<path d="M139.195 29.5426C138.23 29.5426 137.486 29.3195 136.96 28.8733C136.443 28.4271 136.164 27.84 136.125 27.112L137.431 27.0416C137.478 27.5196 137.658 27.8635 137.972 28.0749C138.293 28.2787 138.701 28.3801 139.195 28.3801C139.524 28.3801 139.827 28.3374 140.101 28.251C140.383 28.157 140.606 28.0078 140.771 27.8048C140.944 27.5934 141.03 27.3192 141.03 26.9829C141.03 26.4821 140.862 26.1139 140.524 25.8791C140.187 25.6359 139.74 25.5151 139.183 25.5151H138.489V24.4114H139.183C139.63 24.4114 140.003 24.3216 140.301 24.1413C140.599 23.961 140.748 23.6481 140.748 23.2019C140.748 22.8103 140.622 22.5134 140.371 22.3096C140.121 22.0982 139.736 21.9925 139.218 21.9925C138.717 21.9925 138.336 22.0907 138.078 22.2861C137.819 22.4815 137.666 22.7474 137.619 23.0845L136.313 23.0141C136.392 22.3565 136.678 21.8281 137.172 21.4289C137.674 21.0297 138.356 20.8301 139.218 20.8301C139.815 20.8301 140.324 20.924 140.748 21.1119C141.171 21.2922 141.497 21.5539 141.724 21.8986C141.952 22.2425 142.065 22.6459 142.065 23.108C142.065 23.6171 141.9 24.0314 141.571 24.3527C141.25 24.6739 140.775 24.8928 140.148 25.0102V24.7989C140.83 24.8852 141.368 25.1276 141.759 25.5269C142.151 25.9185 142.347 26.4192 142.347 27.0298C142.347 27.554 142.215 28.0086 141.947 28.3919C141.681 28.7676 141.312 29.0536 140.842 29.249C140.371 29.4445 139.823 29.5426 139.195 29.5426ZM146.876 29.5426C146.186 29.5426 145.586 29.3665 145.076 29.0142C144.567 28.662 144.175 28.1612 143.9 27.5112C143.626 26.8612 143.488 26.0905 143.488 25.1981C143.488 24.3057 143.626 23.5349 143.9 22.8849C144.182 22.2274 144.575 21.7225 145.076 21.3702C145.586 21.0096 146.186 20.8301 146.876 20.8301C147.574 20.8301 148.174 21.0104 148.675 21.3702C149.185 21.7225 149.578 22.2232 149.852 22.8732C150.134 23.5232 150.275 24.2981 150.275 25.1981C150.275 26.0905 150.138 26.8612 149.863 27.5112C149.589 28.1612 149.197 28.662 148.687 29.0142C148.178 29.3665 147.574 29.5426 146.876 29.5426ZM146.876 28.3801C147.543 28.3801 148.056 28.1059 148.417 27.5582C148.778 27.0105 148.958 26.2238 148.958 25.1981C148.958 24.5095 148.875 23.9258 148.711 23.4485C148.554 22.9705 148.319 22.6107 148.005 22.3683C147.699 22.1175 147.323 21.9925 146.876 21.9925C146.437 21.9925 146.061 22.1183 145.747 22.3683C145.441 22.6115 145.205 22.9713 145.041 23.4485C144.885 23.9266 144.806 24.5095 144.806 25.1981C144.806 26.2238 144.986 27.0097 145.347 27.5582C145.708 28.1059 146.217 28.3801 146.876 28.3801ZM153.202 25.0572C152.661 25.0572 152.214 24.881 151.861 24.5288C151.516 24.1765 151.344 23.6641 151.344 22.9906C151.344 22.3096 151.516 21.7971 151.861 21.4524C152.214 21.1001 152.661 20.924 153.202 20.924C153.743 20.924 154.186 21.1001 154.531 21.4524C154.876 21.7963 155.049 22.3096 155.049 22.9906C155.049 23.6641 154.876 24.1765 154.531 24.5288C154.186 24.881 153.743 25.0572 153.202 25.0572ZM153.202 24.2705C153.5 24.2705 153.723 24.1614 153.873 23.9417C154.021 23.7228 154.096 23.4049 154.096 22.9906C154.096 22.5754 154.021 22.2584 153.873 22.0395C153.723 21.8206 153.5 21.7107 153.202 21.7107C152.911 21.7107 152.688 21.8198 152.532 22.0395C152.382 22.2584 152.308 22.5763 152.308 22.9906C152.308 23.4058 152.382 23.7228 152.532 23.9417C152.688 24.1606 152.911 24.2705 153.202 24.2705ZM158.025 29.4487C157.491 29.4487 157.048 29.2725 156.696 28.9203C156.343 28.568 156.166 28.0556 156.166 27.3821C156.166 26.701 156.343 26.1886 156.696 25.8439C157.048 25.4916 157.491 25.3155 158.025 25.3155C158.573 25.3155 159.02 25.4916 159.366 25.8439C159.71 26.1878 159.883 26.701 159.883 27.3821C159.883 28.0556 159.71 28.568 159.366 28.9203C159.02 29.2725 158.573 29.4487 158.025 29.4487ZM158.025 28.6619C158.322 28.6619 158.546 28.5529 158.695 28.3332C158.844 28.1143 158.919 27.7964 158.919 27.3821C158.919 26.9669 158.844 26.6499 158.695 26.431C158.546 26.2121 158.322 26.1022 158.025 26.1022C157.734 26.1022 157.511 26.2112 157.354 26.431C157.205 26.6499 157.131 26.9678 157.131 27.3821C157.131 27.7972 157.205 28.1143 157.354 28.3332C157.511 28.5521 157.734 28.6619 158.025 28.6619ZM152.273 29.3547L157.966 21.0179H158.954L153.261 29.3547H152.273Z" fill="#EAEAEA"/>
<path d="M274.27 121.613H254.106C248.074 121.613 243.184 126.495 243.184 132.517C243.184 138.538 248.074 143.42 254.106 143.42H274.27C280.302 143.42 285.192 138.538 285.192 132.517C285.192 126.495 280.302 121.613 274.27 121.613Z" fill="#FD3F00"/>
<path d="M274.271 122.033H254.108C248.307 122.033 243.605 126.727 243.605 132.517C243.605 138.307 248.307 143.001 254.108 143.001H274.271C280.072 143.001 284.774 138.307 284.774 132.517C284.774 126.727 280.072 122.033 274.271 122.033Z" stroke="white" stroke-opacity="0.1"/>
<path d="M255.336 136.898C254.716 136.898 254.187 136.8 253.748 136.605C253.333 136.421 252.975 136.129 252.713 135.759C252.459 135.391 252.308 134.961 252.277 134.514L253.583 134.432C253.646 134.871 253.83 135.2 254.136 135.419C254.449 135.63 254.849 135.736 255.336 135.736C255.884 135.736 256.316 135.583 256.629 135.278C256.951 134.972 257.112 134.545 257.112 133.998C257.112 133.638 257.037 133.329 256.888 133.07C256.752 132.809 256.538 132.596 256.277 132.46C256.01 132.311 255.693 132.237 255.324 132.237C254.955 132.237 254.626 132.315 254.336 132.471C254.062 132.611 253.842 132.839 253.712 133.117H252.395L252.96 128.373H257.853V129.536H254.089L253.736 132.389L253.536 132.213C253.669 131.978 253.838 131.786 254.042 131.638C254.253 131.477 254.492 131.358 254.747 131.285C255.029 131.198 255.323 131.155 255.618 131.156C256.182 131.156 256.672 131.278 257.088 131.52C257.506 131.757 257.849 132.107 258.076 132.53C258.311 132.96 258.429 133.45 258.429 133.998C258.429 134.569 258.3 135.074 258.041 135.513C257.785 135.949 257.409 136.303 256.959 136.534C256.496 136.776 255.955 136.898 255.336 136.898ZM263.083 136.898C262.392 136.898 261.792 136.722 261.283 136.37C260.773 136.017 260.381 135.517 260.107 134.867C259.832 134.217 259.695 133.446 259.695 132.554C259.695 131.661 259.832 130.89 260.107 130.24C260.389 129.583 260.781 129.078 261.283 128.726C261.792 128.366 262.392 128.186 263.083 128.186C263.78 128.186 264.38 128.366 264.882 128.726C265.391 129.078 265.784 129.579 266.059 130.229C266.341 130.879 266.482 131.654 266.482 132.554C266.482 133.446 266.344 134.217 266.07 134.867C265.796 135.517 265.403 136.017 264.894 136.37C264.384 136.722 263.78 136.898 263.083 136.898ZM263.083 135.736C263.749 135.736 264.262 135.461 264.624 134.914C264.984 134.366 265.165 133.579 265.165 132.554C265.165 131.865 265.082 131.281 264.918 130.804C264.76 130.327 264.525 129.966 264.212 129.724C263.906 129.473 263.53 129.348 263.083 129.348C262.643 129.348 262.267 129.473 261.954 129.724C261.648 129.966 261.412 130.327 261.248 130.804C261.091 131.281 261.013 131.865 261.013 132.554C261.013 133.579 261.192 134.366 261.554 134.914C261.914 135.461 262.424 135.736 263.083 135.736ZM269.408 132.413C268.867 132.413 268.42 132.237 268.067 131.884C267.722 131.532 267.55 131.02 267.55 130.346C267.55 129.665 267.722 129.153 268.067 128.808C268.42 128.456 268.867 128.279 269.408 128.279C269.949 128.279 270.392 128.456 270.737 128.808C271.083 129.153 271.255 129.665 271.255 130.346C271.255 131.02 271.083 131.532 270.737 131.884C270.392 132.237 269.949 132.413 269.408 132.413ZM269.408 131.626C269.707 131.626 269.93 131.516 270.079 131.297C270.227 131.078 270.302 130.761 270.302 130.346C270.302 129.931 270.227 129.614 270.079 129.395C269.93 129.176 269.707 129.066 269.408 129.066C269.118 129.066 268.895 129.176 268.738 129.395C268.589 129.614 268.514 129.931 268.514 130.346C268.514 130.761 268.589 131.078 268.738 131.297C268.895 131.516 269.118 131.626 269.408 131.626ZM274.231 136.804C273.697 136.804 273.255 136.628 272.902 136.276C272.549 135.923 272.372 135.411 272.372 134.738C272.372 134.057 272.549 133.544 272.902 133.199C273.255 132.847 273.697 132.671 274.231 132.671C274.779 132.671 275.226 132.847 275.572 133.199C275.917 133.544 276.089 134.057 276.089 134.738C276.089 135.411 275.917 135.923 275.572 136.276C275.226 136.628 274.779 136.804 274.231 136.804ZM274.231 136.017C274.529 136.017 274.753 135.908 274.901 135.689C275.05 135.47 275.125 135.153 275.125 134.738C275.125 134.322 275.05 134.005 274.901 133.786C274.753 133.568 274.529 133.458 274.231 133.458C273.941 133.458 273.717 133.568 273.56 133.786C273.412 134.005 273.337 134.322 273.337 134.738C273.337 135.153 273.412 135.47 273.56 135.689C273.717 135.908 273.941 136.017 274.231 136.017ZM268.479 136.71L274.172 128.373H275.16L269.467 136.71H268.479Z" fill="#EAEAEA"/>
<path d="M344.002 0.419922H323.838C318.038 0.419922 313.336 5.11371 313.336 10.9038C313.336 16.6939 318.038 21.3877 323.838 21.3877H344.002C349.802 21.3877 354.504 16.6939 354.504 10.9038C354.504 5.11371 349.802 0.419922 344.002 0.419922Z" fill="#FD3F00"/>
<path d="M325 15.2848C324.365 15.2848 323.805 15.1908 323.318 15.003C322.832 14.8151 322.452 14.5375 322.177 14.1693C321.911 13.8011 321.777 13.3516 321.777 12.819C321.777 12.2084 321.961 11.7035 322.33 11.3043C322.699 10.905 323.193 10.6392 323.812 10.5058L323.836 10.7407C323.334 10.6232 322.93 10.4077 322.624 10.0948C322.326 9.78201 322.177 9.37104 322.177 8.86194C322.177 8.41575 322.291 8.02072 322.518 7.67601C322.746 7.33214 323.067 7.06123 323.483 6.86581C323.906 6.67039 324.412 6.57227 325 6.57227C325.581 6.57227 326.082 6.67039 326.506 6.86581C326.929 7.06123 327.251 7.3313 327.47 7.67601C327.698 8.01988 327.811 8.41575 327.811 8.86194C327.811 9.37104 327.663 9.78201 327.364 10.0948C327.066 10.4001 326.663 10.6148 326.153 10.7407L326.176 10.5058C326.804 10.6392 327.301 10.905 327.67 11.3043C328.039 11.7035 328.223 12.2084 328.223 12.819C328.223 13.3516 328.086 13.8011 327.811 14.1693C327.545 14.5375 327.169 14.8151 326.682 15.003C326.196 15.1908 325.635 15.2848 325 15.2848ZM325 14.1223C325.581 14.1223 326.039 14.0049 326.376 13.7701C326.722 13.5268 326.894 13.167 326.894 12.6898C326.894 12.2361 326.737 11.8721 326.423 11.5978C326.118 11.3236 325.643 11.1868 325 11.1868C324.357 11.1868 323.879 11.3236 323.565 11.5978C323.252 11.8721 323.095 12.2352 323.095 12.6898C323.095 13.1679 323.267 13.5277 323.612 13.7701C323.958 14.0049 324.42 14.1223 325 14.1223ZM325 10.1418C325.478 10.1418 325.847 10.0437 326.106 9.84827C326.372 9.64446 326.506 9.33581 326.506 8.92065C326.506 8.56001 326.376 8.27065 326.118 8.05175C325.866 7.83285 325.494 7.72298 325 7.72298C324.506 7.72298 324.13 7.83201 323.871 8.05175C323.612 8.27065 323.483 8.56085 323.483 8.92065C323.483 9.33581 323.616 9.64446 323.883 9.84827C324.149 10.0437 324.522 10.1418 325 10.1418ZM332.634 15.2848C331.944 15.2848 331.344 15.1087 330.834 14.7564C330.324 14.4041 329.933 13.9034 329.658 13.2534C329.383 12.6034 329.246 11.8327 329.246 10.9403C329.246 10.0479 329.383 9.2771 329.658 8.6271C329.94 7.96956 330.333 7.46465 330.834 7.11239C331.344 6.75175 331.944 6.57227 332.634 6.57227C333.332 6.57227 333.932 6.75259 334.434 7.11239C334.944 7.46465 335.335 7.96536 335.61 8.61536C335.892 9.26536 336.033 10.0403 336.033 10.9403C336.033 11.8327 335.896 12.6034 335.622 13.2534C335.347 13.9034 334.955 14.4041 334.445 14.7564C333.935 15.1087 333.332 15.2848 332.634 15.2848ZM332.634 14.1223C333.3 14.1223 333.814 13.8481 334.175 13.3004C334.535 12.7527 334.716 11.966 334.716 10.9403C334.716 10.2517 334.634 9.66794 334.469 9.19072C334.312 8.71265 334.076 8.35285 333.763 8.11046C333.457 7.85969 333.081 7.73472 332.634 7.73472C332.195 7.73472 331.818 7.86052 331.505 8.11046C331.199 8.35369 330.964 8.71349 330.799 9.19072C330.642 9.66878 330.564 10.2517 330.564 10.9403C330.564 11.966 330.744 12.7519 331.105 13.3004C331.465 13.8481 331.975 14.1223 332.634 14.1223ZM338.96 10.7994C338.418 10.7994 337.972 10.6232 337.619 10.271C337.274 9.91872 337.101 9.40627 337.101 8.73278C337.101 8.05175 337.274 7.5393 337.619 7.19459C337.972 6.84233 338.418 6.6662 338.96 6.6662C339.501 6.6662 339.944 6.84233 340.289 7.19459C340.634 7.53846 340.806 8.05175 340.806 8.73278C340.806 9.40627 340.634 9.91872 340.289 10.271C339.944 10.6232 339.501 10.7994 338.96 10.7994ZM338.96 10.0127C339.258 10.0127 339.481 9.90362 339.63 9.68388C339.78 9.46498 339.853 9.1471 339.853 8.73278C339.853 8.31762 339.78 8.00059 339.63 7.78168C339.481 7.56278 339.258 7.45291 338.96 7.45291C338.67 7.45291 338.446 7.56194 338.289 7.78168C338.14 8.00059 338.066 8.31846 338.066 8.73278C338.066 9.14794 338.14 9.46498 338.289 9.68388C338.446 9.90278 338.67 10.0127 338.96 10.0127ZM343.782 15.1908C343.249 15.1908 342.806 15.0147 342.453 14.6625C342.1 14.3102 341.924 13.7977 341.924 13.1243C341.924 12.4432 342.1 11.9308 342.453 11.5861C342.806 11.2338 343.249 11.0577 343.782 11.0577C344.332 11.0577 344.779 11.2338 345.123 11.5861C345.468 11.9299 345.641 12.4432 345.641 13.1243C345.641 13.7977 345.468 14.3102 345.123 14.6625C344.779 15.0147 344.332 15.1908 343.782 15.1908ZM343.782 14.4041C344.08 14.4041 344.304 14.2951 344.453 14.0754C344.602 13.8565 344.676 13.5386 344.676 13.1243C344.676 12.7091 344.602 12.3921 344.453 12.1732C344.304 11.9543 344.08 11.8444 343.782 11.8444C343.492 11.8444 343.269 11.9534 343.112 12.1732C342.963 12.3921 342.888 12.7099 342.888 13.1243C342.888 13.5394 342.963 13.8565 343.112 14.0754C343.269 14.2943 343.492 14.4041 343.782 14.4041ZM338.03 15.0969L343.723 6.76014H344.711L339.018 15.0969H338.03Z" fill="#EAEAEA"/>
<path d="M4.77991 136.61V130.609H3V129.577H3.72383C4.03997 129.577 4.29764 129.537 4.49512 129.459C4.68741 129.377 4.84052 129.224 4.9223 129.032C5.0096 128.826 5.05283 128.546 5.05283 128.19H6.06144V136.61H4.77991ZM11.2172 136.8C10.5222 136.8 9.91621 136.622 9.40173 136.266C8.8881 135.91 8.49229 135.404 8.21513 134.748C7.93882 134.091 7.79982 133.313 7.79982 132.412C7.79982 131.51 7.93882 130.732 8.21513 130.075C8.49991 129.411 8.89573 128.901 9.40173 128.546C9.91621 128.182 10.5214 128 11.2172 128C11.9216 128 12.5267 128.182 13.0327 128.546C13.5472 128.901 13.943 129.407 14.2193 130.064C14.5041 130.72 14.6465 131.503 14.6465 132.412C14.6465 133.313 14.5084 134.091 14.2312 134.748C13.9549 135.404 13.5591 135.91 13.0446 136.266C12.531 136.622 11.9216 136.8 11.2172 136.8ZM11.2172 135.626C11.8902 135.626 12.4081 135.349 12.7717 134.795C13.1361 134.242 13.3175 133.448 13.3175 132.412C13.3175 131.716 13.2345 131.127 13.0683 130.645C12.9107 130.163 12.6734 129.798 12.3564 129.554C12.0479 129.3 11.6681 129.174 11.2172 129.174C10.7748 129.174 10.3951 129.3 10.0781 129.554C9.76958 129.798 9.53226 130.163 9.36614 130.645C9.20849 131.127 9.12881 131.716 9.12881 132.412C9.12881 133.448 9.31104 134.242 9.67465 134.795C10.0391 135.349 10.5527 135.626 11.2172 135.626ZM17.5995 132.269C17.0536 132.269 16.6027 132.091 16.2467 131.736C15.8984 131.38 15.7246 130.862 15.7246 130.182C15.7246 129.494 15.8984 128.977 16.2467 128.629C16.6027 128.273 17.0536 128.095 17.5995 128.095C18.1453 128.095 18.592 128.273 18.9403 128.629C19.2878 128.977 19.4625 129.494 19.4625 130.182C19.4625 130.862 19.2878 131.38 18.9403 131.736C18.592 132.091 18.1453 132.269 17.5995 132.269ZM17.5995 131.475C17.8995 131.475 18.125 131.364 18.2758 131.143C18.4259 130.922 18.5013 130.601 18.5013 130.182C18.5013 129.763 18.4259 129.443 18.2758 129.222C18.125 129 17.8995 128.889 17.5995 128.889C17.3062 128.889 17.0808 129 16.9231 129.222C16.7722 129.443 16.6977 129.763 16.6977 130.182C16.6977 130.601 16.7722 130.922 16.9231 131.143C17.0808 131.364 17.3062 131.475 17.5995 131.475ZM22.4646 136.705C21.9263 136.705 21.4797 136.527 21.1237 136.171C20.7677 135.815 20.5897 135.298 20.5897 134.618C20.5897 133.93 20.7677 133.412 21.1237 133.064C21.4797 132.708 21.9263 132.53 22.4646 132.53C23.018 132.53 23.4689 132.708 23.8173 133.064C24.1648 133.412 24.3394 133.93 24.3394 134.618C24.3394 135.298 24.1648 135.815 23.8173 136.171C23.4689 136.527 23.018 136.705 22.4646 136.705ZM22.4646 135.91C22.7646 135.91 22.9901 135.799 23.1409 135.578C23.2909 135.357 23.3664 135.037 23.3664 134.618C23.3664 134.198 23.2909 133.878 23.1409 133.657C22.9901 133.436 22.7646 133.325 22.4646 133.325C22.1713 133.325 21.9458 133.436 21.7882 133.657C21.6373 133.878 21.5627 134.198 21.5627 134.618C21.5627 135.037 21.6373 135.357 21.7882 135.578C21.9458 135.799 22.1713 135.91 22.4646 135.91ZM16.6621 136.61L22.4052 128.19H23.402L17.6588 136.61H16.6621ZM28.6078 136.61V130.301H29.7588L29.7944 131.866L29.652 131.819C29.7111 131.5 29.8364 131.197 30.0198 130.929C30.1944 130.691 30.4219 130.496 30.6843 130.36C30.9486 130.225 31.2418 130.155 31.5387 130.158C32.0769 130.158 32.516 130.313 32.8558 130.621C33.1957 130.922 33.4093 131.337 33.4966 131.866H33.2949C33.3661 131.494 33.4847 131.186 33.6509 130.941C33.8246 130.688 34.0467 130.495 34.3154 130.36C34.5998 130.222 34.9129 130.153 35.229 130.158C35.6723 130.158 36.0478 130.253 36.3563 130.443C36.6725 130.625 36.9098 130.894 37.0683 131.249C37.2344 131.605 37.3175 132.04 37.3175 132.554V136.61H36.0597V132.862C36.0597 132.317 35.9605 131.906 35.763 131.629C35.5655 131.352 35.2646 131.214 34.8612 131.214C34.6001 131.214 34.3704 131.281 34.173 131.415C33.9663 131.561 33.8057 131.763 33.7102 131.997C33.6076 132.25 33.5559 132.554 33.5559 132.91V136.61H32.3575V132.91C32.3575 132.372 32.2668 131.957 32.0845 131.665C31.9108 131.364 31.6099 131.214 31.1827 131.214C30.9342 131.208 30.6898 131.278 30.4826 131.415C30.2928 131.55 30.1427 131.748 30.0317 132.008C29.9215 132.262 29.8656 132.562 29.8656 132.91V136.61H28.6078ZM41.5664 136.752C40.9646 136.752 40.4391 136.618 39.9882 136.349C39.5342 136.077 39.1708 135.677 38.944 135.199C38.6982 134.701 38.5761 134.119 38.5761 133.455C38.5761 132.784 38.6982 132.202 38.944 131.712C39.1734 131.239 39.5364 130.843 39.9882 130.573C40.4391 130.296 40.9646 130.158 41.5664 130.158C42.1673 130.158 42.6936 130.296 43.1445 130.573C43.5963 130.843 43.9593 131.239 44.1888 131.712C44.4337 132.202 44.5566 132.784 44.5566 133.455C44.5566 134.119 44.4337 134.701 44.1888 135.199C43.943 135.697 43.5955 136.08 43.1445 136.349C42.6936 136.618 42.1673 136.752 41.5664 136.752ZM41.5664 135.661C42.1037 135.661 42.519 135.467 42.8123 135.08C43.1047 134.684 43.2513 134.143 43.2513 133.455C43.2513 132.767 43.1047 132.23 42.8123 131.842C42.519 131.447 42.1037 131.249 41.5664 131.249C41.0358 131.249 40.6205 131.447 40.3204 131.842C40.0272 132.23 39.8814 132.767 39.8814 133.455C39.8814 134.143 40.0272 134.684 40.3204 135.08C40.6205 135.467 41.0358 135.661 41.5664 135.661ZM45.8271 136.61V130.301H46.9781L47.0256 131.973L46.9188 131.937C47.0061 131.368 47.1798 130.953 47.4409 130.692C47.7104 130.431 48.0698 130.301 48.5207 130.301H49.1259V131.427H48.5207C48.2046 131.427 47.9393 131.479 47.7257 131.582C47.5152 131.681 47.344 131.848 47.2392 132.056C47.1375 132.269 47.0849 132.546 47.0849 132.886V136.61H45.8271ZM52.6213 136.752C52.0042 136.752 51.4703 136.618 51.0194 136.349C50.5706 136.074 50.2119 135.674 49.987 135.199C49.7497 134.701 49.631 134.119 49.631 133.455C49.631 132.791 49.7497 132.214 49.987 131.724C50.2119 131.248 50.5706 130.848 51.0194 130.573C51.4618 130.296 51.9839 130.158 52.5857 130.158C53.1553 130.158 53.657 130.293 54.0927 130.562C54.5275 130.823 54.864 131.202 55.1013 131.7C55.3462 132.198 55.4691 132.799 55.4691 133.503V133.823H50.9363C50.9677 134.44 51.1295 134.902 51.4228 135.21C51.7228 135.519 52.1263 135.673 52.6331 135.673C53.0044 135.673 53.3129 135.586 53.5587 135.412C53.8036 135.238 53.974 135.005 54.0689 134.712L55.3742 134.795C55.2171 135.368 54.8697 135.87 54.3893 136.219C53.9062 136.574 53.3171 136.752 52.6213 136.752ZM50.9363 132.874H54.1401C54.1003 132.313 53.9384 131.897 53.6536 131.629C53.3765 131.36 53.0205 131.226 52.5857 131.226C52.1348 131.226 51.7627 131.368 51.4703 131.653C51.1855 131.93 51.0075 132.336 50.9363 132.874ZM62.343 136.752C61.742 136.752 61.2157 136.618 60.7648 136.349C60.3107 136.077 59.9474 135.677 59.7206 135.199C59.4756 134.701 59.3527 134.119 59.3527 133.455C59.3527 132.791 59.4756 132.214 59.7206 131.724C59.9664 131.226 60.3139 130.842 60.7648 130.573C61.2157 130.296 61.742 130.158 62.343 130.158C62.8574 130.158 63.3126 130.249 63.7076 130.431C64.111 130.605 64.4356 130.862 64.6806 131.202C64.934 131.542 65.0959 131.957 65.1671 132.447L63.85 132.518C63.7872 132.108 63.6211 131.795 63.3516 131.582C63.0829 131.36 62.7464 131.249 62.343 131.249C61.8132 131.249 61.3979 131.447 61.097 131.842C60.8046 132.23 60.658 132.767 60.658 133.455C60.658 134.143 60.8046 134.684 61.097 135.08C61.3979 135.467 61.8132 135.661 62.343 135.661C62.7464 135.661 63.0829 135.55 63.3516 135.329C63.6211 135.1 63.7872 134.756 63.85 134.297L65.1671 134.368C65.1077 134.82 64.9409 135.251 64.6806 135.626C64.4343 135.982 64.0989 136.269 63.7076 136.456C63.3126 136.653 62.8574 136.752 62.343 136.752ZM68.9134 136.752C68.3116 136.752 67.7861 136.618 67.3352 136.349C66.8811 136.077 66.5178 135.677 66.291 135.199C66.0452 134.701 65.9231 134.119 65.9231 133.455C65.9231 132.784 66.046 132.202 66.291 131.712C66.5204 131.239 66.8834 130.843 67.3352 130.573C67.7861 130.296 68.3124 130.158 68.9134 130.158C69.5152 130.158 70.0406 130.296 70.4916 130.573C70.9434 130.843 71.3063 131.239 71.5358 131.712C71.7816 132.202 71.9036 132.784 71.9036 133.455C71.9036 134.119 71.7816 134.701 71.5358 135.199C71.29 135.697 70.9425 136.08 70.4916 136.349C70.0406 136.618 69.5152 136.752 68.9134 136.752ZM68.9134 135.661C69.4516 135.661 69.8669 135.467 70.1593 135.08C70.4526 134.684 70.5984 134.143 70.5984 133.455C70.5984 132.767 70.4526 132.23 70.1593 131.842C69.8669 131.447 69.4516 131.249 68.9134 131.249C68.3836 131.249 67.9683 131.447 67.6674 131.842C67.375 132.23 67.2284 132.767 67.2284 133.455C67.2284 134.143 67.375 134.684 67.6674 135.08C67.9683 135.467 68.3836 135.661 68.9134 135.661ZM73.175 136.61V130.301H74.326L74.3616 131.866L74.2192 131.819C74.2783 131.5 74.4036 131.197 74.587 130.929C74.7616 130.691 74.9891 130.496 75.2515 130.36C75.5158 130.225 75.809 130.155 76.1059 130.158C76.6441 130.158 77.0831 130.313 77.423 130.621C77.7629 130.922 77.9765 131.337 78.0638 131.866H77.8621C77.9333 131.494 78.0519 131.186 78.218 130.941C78.3918 130.688 78.6139 130.495 78.8825 130.36C79.167 130.222 79.48 130.153 79.7962 130.158C80.2395 130.158 80.615 130.253 80.9235 130.443C81.2397 130.625 81.477 130.894 81.6355 131.249C81.8016 131.605 81.8847 132.04 81.8847 132.554V136.61H80.6269V132.862C80.6269 132.317 80.5277 131.906 80.3302 131.629C80.1327 131.352 79.8318 131.214 79.4284 131.214C79.1673 131.214 78.9376 131.281 78.7402 131.415C78.5335 131.561 78.3729 131.763 78.2774 131.997C78.1748 132.25 78.1231 132.554 78.1231 132.91V136.61H76.9246V132.91C76.9246 132.372 76.834 131.957 76.6517 131.665C76.478 131.364 76.1771 131.214 75.7499 131.214C75.5014 131.208 75.257 131.278 75.0498 131.415C74.86 131.55 74.7099 131.748 74.5989 132.008C74.4887 132.262 74.4328 132.562 74.4328 132.91V136.61H73.175ZM83.4535 138.389V130.301H84.6401L84.6757 131.653L84.5333 131.582C84.6918 131.115 84.9529 130.763 85.3165 130.526C85.6809 130.281 86.0996 130.158 86.5743 130.158C87.1913 130.158 87.6973 130.313 88.0931 130.621C88.4966 130.922 88.7932 131.321 88.9831 131.819C89.1851 132.34 89.2858 132.896 89.2797 133.455C89.2858 134.015 89.1851 134.57 88.9831 135.092C88.8071 135.571 88.4984 135.991 88.0931 136.302C87.6973 136.602 87.1913 136.752 86.5743 136.752C86.2581 136.752 85.9615 136.697 85.6843 136.586C85.418 136.482 85.1757 136.325 84.9724 136.124C84.7824 135.918 84.6441 135.67 84.5689 135.4L84.7113 135.258V138.389H83.4535ZM86.3488 135.661C86.8548 135.661 87.2506 135.467 87.5354 135.08C87.8279 134.693 87.9745 134.151 87.9745 133.455C87.9745 132.76 87.8279 132.218 87.5354 131.831C87.2506 131.443 86.8548 131.249 86.3488 131.249C86.0166 131.249 85.7276 131.332 85.4826 131.499C85.2368 131.657 85.0478 131.902 84.913 132.234C84.7783 132.566 84.7113 132.973 84.7113 133.455C84.7113 133.937 84.7749 134.345 84.9012 134.677C85.0359 135.009 85.2258 135.258 85.4707 135.424C85.7242 135.582 86.0166 135.661 86.3488 135.661ZM92.4522 136.752C91.7962 136.752 91.2699 136.602 90.874 136.302C90.4867 136.001 90.2926 135.578 90.2926 135.033C90.2926 134.487 90.4553 134.064 90.7791 133.764C91.1114 133.455 91.6216 133.234 92.3098 133.1L94.4813 132.684C94.4813 132.194 94.3669 131.831 94.1372 131.593C93.9084 131.349 93.5676 131.226 93.1167 131.226C92.7133 131.226 92.3971 131.316 92.1674 131.499C91.9386 131.672 91.7801 131.933 91.6928 132.281L90.3994 132.198C90.5181 131.565 90.8113 131.067 91.2775 130.704C91.7521 130.341 92.3658 130.158 93.1167 130.158C93.9711 130.158 94.6203 130.388 95.0628 130.846C95.5137 131.297 95.7391 131.933 95.7391 132.756V135.21C95.7391 135.36 95.7628 135.467 95.8103 135.531C95.8662 135.586 95.9527 135.614 96.0714 135.614H96.2968V136.61C96.1437 136.633 95.989 136.645 95.834 136.645C95.5654 136.645 95.3323 136.602 95.1339 136.515C94.9449 136.429 94.7933 136.277 94.7068 136.088C94.6118 135.882 94.5644 135.609 94.5644 135.27L94.6949 135.329C94.6302 135.609 94.486 135.864 94.2796 136.064C94.0551 136.29 93.7837 136.465 93.4846 136.574C93.154 136.695 92.8043 136.756 92.4522 136.752ZM92.6539 135.756C93.0337 135.756 93.3583 135.685 93.627 135.543C93.8896 135.399 94.1073 135.186 94.2559 134.926C94.409 134.655 94.4869 134.348 94.4813 134.036V133.633L92.6302 133.989C92.2505 134.06 91.9818 134.175 91.8233 134.333C91.7482 134.409 91.6894 134.5 91.6507 134.6C91.6119 134.7 91.5939 134.807 91.5979 134.914C91.5979 135.183 91.6894 135.393 91.8708 135.543C92.0606 135.685 92.3217 135.756 92.6539 135.756ZM97.3588 136.61V130.301H98.5098L98.5573 131.973L98.4505 131.937C98.5378 131.368 98.7116 130.953 98.9726 130.692C99.2421 130.431 99.6015 130.301 100.052 130.301H100.658V131.427H100.052C99.7363 131.427 99.471 131.479 99.2574 131.582C99.047 131.681 98.8758 131.848 98.7709 132.056C98.6683 132.269 98.6166 132.546 98.6166 132.886V136.61H97.3588ZM104.152 136.752C103.535 136.752 103.001 136.618 102.55 136.349C102.102 136.074 101.743 135.674 101.518 135.199C101.281 134.701 101.162 134.119 101.162 133.455C101.162 132.791 101.281 132.214 101.518 131.724C101.743 131.248 102.102 130.849 102.55 130.573C102.994 130.296 103.516 130.158 104.117 130.158C104.686 130.158 105.189 130.293 105.624 130.562C106.059 130.823 106.395 131.202 106.632 131.7C106.878 132.198 107 132.799 107 133.503V133.823H102.467C102.499 134.44 102.661 134.902 102.954 135.21C103.255 135.519 103.658 135.673 104.164 135.673C104.536 135.673 104.845 135.586 105.09 135.412C105.335 135.238 105.505 135.005 105.6 134.712L106.905 134.795C106.748 135.368 106.401 135.87 105.92 136.219C105.438 136.574 104.849 136.752 104.152 136.752ZM102.467 132.874H105.671C105.632 132.313 105.469 131.897 105.184 131.629C104.908 131.36 104.552 131.226 104.117 131.226C103.666 131.226 103.294 131.368 103.001 131.653C102.716 131.93 102.538 132.336 102.467 132.874ZM5.84785 151.858C5.24607 151.858 4.80364 151.72 4.51885 151.443C4.23407 151.166 4.09168 150.735 4.09168 150.15V144.066H5.34948V150.055C5.34948 150.347 5.41305 150.549 5.53933 150.66C5.66647 150.771 5.85972 150.826 6.12077 150.826H7.02259V151.858H5.84785ZM3.13053 146.58V145.548H7.02259V146.58H3.13053ZM10.7189 152C10.1171 152 9.59159 151.865 9.14068 151.597C8.68663 151.325 8.3233 150.924 8.09647 150.446C7.85067 149.948 7.72862 149.367 7.72862 148.703C7.72862 148.031 7.85152 147.45 8.09647 146.96C8.32589 146.487 8.68888 146.091 9.14068 145.821C9.59159 145.544 10.1179 145.406 10.7189 145.406C11.3206 145.406 11.8461 145.544 12.2971 145.821C12.7488 146.091 13.1118 146.487 13.3413 146.96C13.5871 147.45 13.7091 148.031 13.7091 148.703C13.7091 149.367 13.5862 149.948 13.3413 150.446C13.0955 150.945 12.748 151.328 12.2971 151.597C11.8461 151.865 11.3198 152 10.7189 152ZM10.7189 150.909C11.2571 150.909 11.6724 150.715 11.9648 150.328C12.2572 149.932 12.4038 149.391 12.4038 148.703C12.4038 148.015 12.2572 147.477 11.9648 147.09C11.6724 146.695 11.2571 146.497 10.7189 146.497C10.1891 146.497 9.77382 146.695 9.47293 147.09C9.18052 147.477 9.03389 148.015 9.03389 148.703C9.03389 149.391 9.18052 149.932 9.47293 150.328C9.77382 150.715 10.1891 150.909 10.7189 150.909ZM20.4024 151.858C19.8006 151.858 19.3582 151.72 19.0734 151.443C18.7886 151.166 18.6462 150.735 18.6462 150.15V144.066H19.904V150.055C19.904 150.347 19.9676 150.549 20.0939 150.66C20.221 150.771 20.4143 150.826 20.6753 150.826H21.5772V151.858H20.4024ZM17.6851 146.58V145.548H21.5772V146.58H17.6851ZM22.779 151.858V143.438H24.0368V146.972L23.8826 146.948C23.9538 146.592 24.0843 146.303 24.2741 146.082C24.464 145.853 24.6979 145.683 24.9742 145.572C25.2653 145.459 25.5755 145.402 25.8879 145.406C26.3465 145.406 26.7346 145.509 27.0508 145.715C27.3669 145.912 27.6043 146.193 27.7628 146.557C27.9289 146.92 28.0119 147.335 28.0119 147.802V151.858H26.7541V148.134C26.7541 147.565 26.655 147.145 26.4575 146.877C26.2676 146.6 25.9667 146.462 25.5557 146.462C25.0971 146.462 24.7293 146.608 24.4521 146.9C24.175 147.185 24.0368 147.604 24.0368 148.158V151.858H22.779ZM32.2498 152C31.6328 152 31.0988 151.865 30.6479 151.597C30.1992 151.322 29.8404 150.922 29.6156 150.446C29.3782 149.948 29.2596 149.367 29.2596 148.703C29.2596 148.039 29.3782 147.462 29.6156 146.972C29.8404 146.496 30.1992 146.096 30.6479 145.821C31.0903 145.544 31.6124 145.406 32.2142 145.406C32.7829 145.406 33.2855 145.541 33.7204 145.809C34.156 146.07 34.4916 146.45 34.729 146.948C34.9748 147.446 35.0968 148.047 35.0968 148.751V149.071H30.5648C30.5962 149.687 30.7581 150.15 31.0513 150.458C31.3514 150.767 31.7548 150.921 32.2608 150.921C32.6338 150.921 32.9414 150.834 33.1864 150.66C33.4322 150.486 33.6017 150.252 33.6966 149.96L35.0019 150.043C34.845 150.615 34.498 151.117 34.0179 151.466C33.5347 151.822 32.9465 152 32.2498 152ZM30.5648 148.122H33.7687C33.7288 147.56 33.5661 147.145 33.2813 146.877C33.005 146.608 32.649 146.474 32.2134 146.474C31.7625 146.474 31.3912 146.616 31.098 146.9C30.8132 147.177 30.636 147.584 30.5648 148.122ZM40.7493 151.858C40.3382 151.858 40.006 151.751 39.7525 151.537C39.4991 151.324 39.3728 150.984 39.3728 150.518V143.438H40.6306V150.399C40.6306 150.541 40.6662 150.648 40.7374 150.719C40.8163 150.79 40.9273 150.826 41.0697 150.826H41.5681V151.858H40.7493ZM44.4786 152C43.8218 152 43.2954 151.85 42.9004 151.549C42.5123 151.249 42.319 150.826 42.319 150.28C42.319 149.735 42.4809 149.312 42.8055 149.011C43.1378 148.703 43.648 148.482 44.3362 148.347L46.5077 147.932C46.5077 147.442 46.3924 147.078 46.1636 146.841C45.9339 146.596 45.594 146.474 45.1431 146.474C44.7397 146.474 44.4227 146.564 44.1938 146.746C43.9641 146.92 43.8057 147.181 43.7192 147.529L42.4258 147.446C42.5445 146.813 42.8369 146.315 43.3039 145.952C43.7785 145.588 44.3913 145.406 45.1431 145.406C45.9975 145.406 46.6459 145.636 47.0892 146.094C47.5401 146.545 47.7655 147.181 47.7655 148.003V150.458C47.7655 150.608 47.7893 150.715 47.8367 150.778C47.8918 150.834 47.9791 150.861 48.0978 150.861H48.3232V151.858C48.1701 151.881 48.0154 151.893 47.8604 151.893C47.6205 151.899 47.3821 151.855 47.1604 151.763C46.9713 151.676 46.8197 151.525 46.7332 151.336C46.6382 151.13 46.5908 150.857 46.5908 150.518L46.7213 150.577C46.6563 150.857 46.5122 151.112 46.306 151.312C46.0814 151.538 45.81 151.712 45.511 151.822C45.194 151.941 44.8499 152 44.4786 152ZM44.6803 151.004C45.0601 151.004 45.3838 150.933 45.6534 150.79C45.922 150.64 46.1314 150.435 46.2823 150.174C46.4351 149.902 46.5129 149.595 46.5077 149.284V148.881L44.6566 149.237C44.2769 149.308 44.0074 149.422 43.8497 149.581C43.7745 149.657 43.7157 149.748 43.6769 149.848C43.6381 149.948 43.6202 150.055 43.6243 150.162C43.6243 150.43 43.715 150.64 43.8972 150.79C44.087 150.933 44.3481 151.004 44.6803 151.004ZM51.7712 152C51.1779 152 50.6752 151.909 50.2642 151.727C49.8607 151.545 49.548 151.296 49.3268 150.98C49.1028 150.649 48.9717 150.264 48.947 149.865L50.2404 149.806C50.304 150.154 50.454 150.43 50.6913 150.636C50.9287 150.842 51.2889 150.945 51.7712 150.945C52.167 150.945 52.4789 150.881 52.7086 150.755C52.9374 150.629 53.0527 150.427 53.0527 150.15C53.0571 150.014 53.0153 149.88 52.934 149.77C52.8628 149.659 52.7204 149.569 52.5069 149.498C52.2933 149.419 51.9771 149.343 51.5576 149.272C50.9329 149.154 50.4422 149.016 50.0862 148.857C49.7302 148.699 49.4768 148.497 49.3268 148.252C49.1767 148.008 49.1013 147.711 49.1013 147.363C49.1013 146.786 49.3149 146.315 49.7421 145.952C50.1769 145.588 50.8015 145.406 51.6169 145.406C52.1627 145.406 52.6213 145.501 52.9934 145.691C53.3654 145.873 53.6545 146.122 53.8596 146.438C54.0732 146.746 54.2071 147.094 54.263 147.482L52.9696 147.553C52.9365 147.347 52.8552 147.152 52.7323 146.983C52.6208 146.817 52.4645 146.685 52.2814 146.604C52.0701 146.504 51.8385 146.456 51.605 146.462C51.2016 146.462 50.9015 146.54 50.7032 146.699C50.6086 146.771 50.5323 146.864 50.4808 146.972C50.4292 147.079 50.4038 147.197 50.4066 147.316C50.4066 147.505 50.4498 147.659 50.5371 147.778C50.632 147.897 50.7829 147.996 50.988 148.075C51.194 148.146 51.4669 148.209 51.8068 148.264C52.4636 148.375 52.9773 148.513 53.3493 148.679C53.7214 148.838 53.9825 149.035 54.1325 149.272C54.2825 149.51 54.358 149.798 54.358 150.138C54.358 150.534 54.2478 150.869 54.0257 151.146C53.8045 151.423 53.5002 151.637 53.112 151.787C52.7247 151.929 52.2772 152 51.7712 152ZM57.8195 151.858C57.2185 151.858 56.7752 151.72 56.4905 151.443C56.2057 151.166 56.0633 150.735 56.0633 150.15V144.066H57.3211V150.055C57.3211 150.347 57.3847 150.549 57.5109 150.66C57.6381 150.771 57.8313 150.826 58.0924 150.826H58.9942V151.858H57.8195ZM55.1021 146.58V145.548H58.9942V146.58H55.1021ZM63.1516 151.858V145.548H64.3026L64.3382 147.114L64.1958 147.066C64.267 146.718 64.389 146.422 64.5636 146.177C64.7382 145.939 64.9656 145.744 65.2281 145.608C65.4924 145.472 65.7856 145.403 66.0825 145.406C66.6207 145.406 67.0597 145.56 67.3996 145.869C67.7395 146.169 67.9531 146.584 68.0404 147.114H67.8386C67.9098 146.742 68.0285 146.434 68.1946 146.189C68.3684 145.936 68.5896 145.742 68.8591 145.608C69.1436 145.47 69.4566 145.401 69.7728 145.406C70.2161 145.406 70.5916 145.501 70.9001 145.691C71.2187 145.875 71.4687 146.158 71.612 146.497C71.7782 146.853 71.8612 147.288 71.8612 147.802V151.858H70.6034V148.11C70.6034 147.565 70.5043 147.154 70.3068 146.877C70.1093 146.6 69.8084 146.462 69.405 146.462C69.1439 146.462 68.9142 146.529 68.7167 146.663C68.5101 146.809 68.3495 147.01 68.254 147.244C68.1514 147.498 68.0997 147.802 68.0997 148.158V151.858H66.9012V148.158C66.9012 147.62 66.8105 147.205 66.6283 146.912C66.4537 146.612 66.1537 146.462 65.7265 146.462C65.478 146.456 65.2335 146.526 65.0264 146.663C64.8365 146.798 64.6865 146.995 64.5755 147.256C64.4653 147.51 64.4094 147.809 64.4094 148.158V151.858H63.1516ZM76.1093 152C75.5083 152 74.982 151.865 74.5319 151.597C74.0779 151.325 73.7146 150.924 73.4877 150.446C73.2419 149.948 73.1199 149.367 73.1199 148.703C73.1199 148.031 73.2419 147.45 73.4877 146.96C73.7172 146.487 74.0801 146.091 74.5319 145.821C74.9829 145.544 75.5083 145.406 76.1101 145.406C76.7111 145.406 77.2374 145.544 77.6875 145.821C78.1393 146.091 78.5023 146.487 78.7317 146.96C78.9775 147.45 79.0995 148.031 79.0995 148.703C79.0995 149.367 78.9775 149.948 78.7317 150.446C78.5049 150.925 78.1416 151.325 77.6875 151.597C77.2366 151.865 76.7111 152 76.1093 152ZM76.1093 150.909C76.6475 150.909 77.0628 150.715 77.3552 150.328C77.6485 149.932 77.7951 149.391 77.7951 148.703C77.7951 148.015 77.6485 147.477 77.3552 147.09C77.0628 146.695 76.6475 146.497 76.1093 146.497C75.5795 146.497 75.1642 146.695 74.8633 147.09C74.5709 147.477 74.4251 148.015 74.4251 148.703C74.4251 149.391 74.5709 149.932 74.8633 150.328C75.1642 150.715 75.5795 150.909 76.1093 150.909ZM80.3709 151.858V145.548H81.5219L81.5694 147.233L81.4151 147.15C81.4863 146.739 81.6211 146.407 81.8185 146.153C82.0169 145.9 82.2576 145.715 82.5424 145.596C82.8272 145.47 83.1357 145.406 83.4679 145.406C83.9426 145.406 84.3342 145.513 84.6427 145.726C84.9597 145.932 85.197 146.217 85.3546 146.58C85.5208 146.936 85.6038 147.343 85.6038 147.802V151.858H84.346V148.181C84.346 147.809 84.307 147.498 84.2273 147.244C84.1632 147.013 84.0258 146.81 83.8358 146.663C83.6544 146.529 83.4171 146.462 83.1238 146.462C82.6814 146.462 82.3212 146.608 82.044 146.9C81.7677 147.193 81.6287 147.62 81.6287 148.181V151.858H80.3709ZM89.3509 151.858C88.7492 151.858 88.3067 151.72 88.0219 151.443C87.7372 151.166 87.5948 150.735 87.5948 150.15V144.066H88.8526V150.055C88.8526 150.347 88.9153 150.549 89.0424 150.66C89.1687 150.771 89.3628 150.826 89.6239 150.826H90.5257V151.858H89.3509ZM86.6328 146.58V145.548H90.5257V146.58H86.6328ZM91.7275 151.858V143.438H92.9853V146.972L92.8311 146.948C92.9023 146.592 93.0328 146.303 93.2227 146.082C93.4125 145.853 93.6456 145.683 93.9228 145.572C94.2138 145.459 94.524 145.402 94.8364 145.406C95.295 145.406 95.6823 145.509 95.9993 145.715C96.3155 145.912 96.5528 146.193 96.7113 146.557C96.8774 146.92 96.9605 147.335 96.9605 147.802V151.858H95.7027V148.134C95.7027 147.565 95.6035 147.145 95.406 146.877C95.2162 146.6 94.9153 146.462 94.5042 146.462C94.0448 146.462 93.677 146.608 93.4007 146.9C93.1235 147.185 92.9853 147.604 92.9853 148.158V151.858H91.7275Z" fill="#474747"/>
<path d="M18.0631 73.5724V73.4847C18.0631 71.842 20.0546 71.0193 21.2193 72.1809L28.6048 79.5466V65.5828C27.4421 65.205 26.2012 65 24.912 65C18.3332 65 13 70.319 13 76.8802C13 80.8988 15.001 84.451 18.0631 86.6009V73.5724Z" fill="#E4E4E4"/>
<path d="M31.9362 67.3984V81.0895C31.9362 81.6226 31.8028 82.1246 31.5682 82.5646C31.0379 83.5595 29.9885 84.2372 28.78 84.2372L21.3945 76.8715V88.4165C22.5572 88.7944 23.7981 88.9994 25.0873 88.9994C31.6661 88.9994 36.9993 83.6804 36.9993 77.1191C36.9993 73.1005 34.9984 69.5483 31.9362 67.3984Z" fill="white"/>
</g>
<defs>
<filter id="filter0_ii_34188_176" x="-1.941" y="50.059" width="54.2922" height="54.2043" filterUnits="userSpaceOnUse" color-interpolation-filters="sRGB">
<feFlood flood-opacity="0" result="BackgroundImageFix"/>
<feBlend mode="normal" in="SourceGraphic" in2="BackgroundImageFix" result="shape"/>
<feColorMatrix in="SourceAlpha" type="matrix" values="0 0 0 0 0 0 0 0 0 0 0 0 0 0 0 0 0 0 127 0" result="hardAlpha"/>
<feOffset dx="1.941" dy="1.941"/>
<feGaussianBlur stdDeviation="3.235"/>
<feComposite in2="hardAlpha" operator="arithmetic" k2="-1" k3="1"/>
<feColorMatrix type="matrix" values="0 0 0 0 1 0 0 0 0 1 0 0 0 0 1 0 0 0 1 0"/>
<feBlend mode="normal" in2="shape" result="effect1_innerShadow_34188_176"/>
<feColorMatrix in="SourceAlpha" type="matrix" values="0 0 0 0 0 0 0 0 0 0 0 0 0 0 0 0 0 0 127 0" result="hardAlpha"/>
<feOffset dx="-1.941" dy="-1.941"/>
<feGaussianBlur stdDeviation="3.235"/>
<feComposite in2="hardAlpha" operator="arithmetic" k2="-1" k3="1"/>
<feColorMatrix type="matrix" values="0 0 0 0 1 0 0 0 0 1 0 0 0 0 1 0 0 0 1 0"/>
<feBlend mode="normal" in2="effect1_innerShadow_34188_176" result="effect2_innerShadow_34188_176"/>
</filter>
<linearGradient id="paint0_linear_34188_176" x1="13.9219" y1="76.6575" x2="441.625" y2="76.6575" gradientUnits="userSpaceOnUse">
<stop stop-color="#401000"/>
<stop offset="0.37" stop-color="#502500"/>
<stop offset="1" stop-color="#FD3F00"/>
</linearGradient>
<linearGradient id="paint1_linear_34188_176" x1="9.72266" y1="76.6577" x2="445.827" y2="76.6577" gradientUnits="userSpaceOnUse">
<stop stop-color="#401000"/>
<stop offset="0.37" stop-color="#502500"/>
<stop offset="1" stop-color="#FD3F00"/>
</linearGradient>
<clipPath id="clip0_34188_176">
<rect width="413" height="156" fill="white"/>
</clipPath>
</defs>
</svg>
