<svg width="1970" height="44" viewBox="0 0 1970 44" fill="none" xmlns="http://www.w3.org/2000/svg">
<mask id="mask0_36174_1095" style="mask-type:alpha" maskUnits="userSpaceOnUse" x="0" y="0" width="1970" height="44">
<path d="M0 0H1969.23V44H0V0Z" fill="url(#paint0_linear_36174_1095)"/>
</mask>
<g mask="url(#mask0_36174_1095)">
<mask id="mask1_36174_1095" style="mask-type:luminance" maskUnits="userSpaceOnUse" x="-173" y="1" width="2315" height="39">
<path d="M-172.383 1H2141.62V39.594H-172.383V1Z" fill="white"/>
</mask>
<g mask="url(#mask1_36174_1095)">
<path opacity="0.32" d="M-166.297 39.1332V21.8672M-157.155 39.1332V31.0082M-148.013 39.1332V31.0082M-138.87 39.1332V31.0082M-129.728 39.1332V31.0082M-120.586 39.1332V31.0082M-111.444 39.1332V31.0082M-102.301 39.1332V31.0082M-93.1589 39.1332V31.0082M-84.0169 39.1332V31.0082M-74.8749 39.1332V31.0082M-65.7329 39.1332V31.0082M-56.5899 39.1332V31.0082M-47.4479 39.1332V31.0082M-38.3059 39.1332V31.0082M-29.1639 39.1332V31.0082M-20.0209 39.1332V31.0082M-10.8789 39.1332V31.0082M-1.73688 39.1332V31.0082M7.40512 39.1332V31.0082M16.5481 39.1332V31.0082M25.6901 39.1332V22.8832M34.8321 39.1332V31.0082M43.9741 39.1332V31.0082M53.1171 39.1332V31.0082M62.2591 39.1332V31.0082M71.4011 39.1332V31.0082M80.5431 39.1332V31.0082M89.6851 39.1332V31.0082M98.8281 39.1332V31.0082M107.97 39.1332V31.0082M117.112 39.1332V31.0082M126.254 39.1332V31.0082M135.397 39.1332V31.0082M144.539 39.1332V31.0082M153.681 39.1332V31.0082M162.823 39.1332V31.0082M171.965 39.1332V31.0082M181.108 39.1332V31.0082M190.25 39.1332V31.0082M199.392 39.1332V31.0082M208.534 39.1332V31.0082M217.677 39.1332V22.8832M226.819 39.1332V31.0082M235.961 39.1332V31.0082M245.103 39.1332V31.0082M254.246 39.1332V31.0082M263.388 39.1332V31.0082M272.53 39.1332V31.0082M281.672 39.1332V31.0082M290.814 39.1332V31.0082M299.957 39.1332V31.0082M309.099 39.1332V31.0082M318.241 39.1332V31.0082M327.383 39.1332V31.0082M336.526 39.1332V31.0082M345.668 39.1332V31.0082M354.81 39.1332V31.0082M363.952 39.1332V31.0082M373.095 39.1332V31.0082M382.237 39.1332V31.0082M391.379 39.1332V31.0082M400.521 39.1332V31.0082M409.663 39.1332V22.8832M418.806 39.1332V31.0082M427.948 39.1332V31.0082M437.09 39.1332V31.0082M446.232 39.1332V31.0082M455.375 39.1332V31.0082M464.517 39.1332V31.0082M473.659 39.1332V31.0082M482.801 39.1332V31.0082M491.944 39.1332V31.0082M501.086 39.1332V31.0082M510.228 39.1332V31.0082M519.37 39.1332V31.0082M528.512 39.1332V31.0082M537.655 39.1332V31.0082M546.797 39.1332V31.0082M555.939 39.1332V31.0082M565.081 39.1332V31.0082M574.224 39.1332V31.0082M583.366 39.1332V31.0082M592.508 39.1332V31.0082M601.65 39.1332V22.8832M610.793 39.1332V31.0082M619.935 39.1332V31.0082M629.077 39.1332V31.0082M638.219 39.1332V31.0082M647.361 39.1332V31.0082M656.504 39.1332V31.0082M665.646 39.1332V31.0082M674.788 39.1332V31.0082M683.93 39.1332V31.0082M693.073 39.1332V31.0082M702.215 39.1332V31.0082M711.357 39.1332V31.0082M720.499 39.1332V31.0082M729.642 39.1332V31.0082M738.784 39.1332V31.0082M747.926 39.1332V31.0082M757.068 39.1332V31.0082M766.21 39.1332V31.0082M775.353 39.1332V31.0082M784.495 39.1332V31.0082M793.637 39.1332V22.8832M802.779 39.1332V31.0082M811.922 39.1332V31.0082M821.064 39.1332V31.0082M830.206 39.1332V31.0082M839.348 39.1332V31.0082M848.491 39.1332V31.0082M857.633 39.1332V31.0082M866.775 39.1332V31.0082M875.917 39.1332V31.0082M885.059 39.1332V31.0082M894.202 39.1332V31.0082M903.344 39.1332V31.0082M912.486 39.1332V31.0082M921.628 39.1332V31.0082M930.771 39.1332V31.0082M939.913 39.1332V31.0082M949.055 39.1332V31.0082M958.197 39.1332V31.0082M967.34 39.1332V31.0082M976.482 39.1332V31.0082M985.624 39.1332V22.8832M994.766 39.1332V31.0082M1003.91 39.1332V31.0082M1013.05 39.1332V31.0082M1022.19 39.1332V31.0082M1031.34 39.1332V31.0082M1040.48 39.1332V31.0082M1049.62 39.1332V31.0082M1058.76 39.1332V31.0082M1067.91 39.1332V31.0082M1077.05 39.1332V31.0082M1086.19 39.1332V31.0082M1095.33 39.1332V31.0082M1104.47 39.1332V31.0082M1113.62 39.1332V31.0082M1122.76 39.1332V31.0082M1131.9 39.1332V31.0082M1141.04 39.1332V31.0082M1150.19 39.1332V31.0082M1159.33 39.1332V31.0082M1168.47 39.1332V31.0082M1177.61 39.1332V22.8832M1186.75 39.1332V31.0082M1195.9 39.1332V31.0082M1205.04 39.1332V31.0082M1214.18 39.1332V31.0082M1223.32 39.1332V31.0082M1232.47 39.1332V31.0082M1241.61 39.1332V31.0082M1250.75 39.1332V31.0082M1259.89 39.1332V31.0082M1269.03 39.1332V31.0082M1278.18 39.1332V31.0082M1287.32 39.1332V31.0082M1296.46 39.1332V31.0082M1305.6 39.1332V31.0082M1314.75 39.1332V31.0082M1323.89 39.1332V31.0082M1333.03 39.1332V31.0082M1342.17 39.1332V31.0082M1351.31 39.1332V31.0082M1360.46 39.1332V31.0082M1369.6 39.1332V22.8832M1378.74 39.1332V31.0082M1387.88 39.1332V31.0082M1397.03 39.1332V31.0082M1406.17 39.1332V31.0082M1415.31 39.1332V31.0082M1424.45 39.1332V31.0082M1433.59 39.1332V31.0082M1442.74 39.1332V31.0082M1451.88 39.1332V31.0082M1461.02 39.1332V31.0082M1470.16 39.1332V31.0082M1479.31 39.1332V31.0082M1488.45 39.1332V31.0082M1497.59 39.1332V31.0082M1506.73 39.1332V31.0082M1515.87 39.1332V31.0082M1525.02 39.1332V31.0082M1534.16 39.1332V31.0082M1543.3 39.1332V31.0082M1552.44 39.1332V31.0082M1561.59 39.1332V22.8832M1570.73 39.1332V31.0082M1579.87 39.1332V31.0082M1589.01 39.1332V31.0082M1598.15 39.1332V31.0082M1607.3 39.1332V31.0082M1616.44 39.1332V31.0082M1625.58 39.1332V31.0082M1634.72 39.1332V31.0082M1643.87 39.1332V31.0082M1653.01 39.1332V31.0082M1662.15 39.1332V31.0082M1671.29 39.1332V31.0082M1680.43 39.1332V31.0082M1689.58 39.1332V31.0082M1698.72 39.1332V31.0082M1707.86 39.1332V31.0082M1717 39.1332V31.0082M1726.15 39.1332V31.0082M1735.29 39.1332V31.0082M1744.43 39.1332V31.0082M1753.57 39.1332V22.8832M1762.71 39.1332V31.0082M1771.86 39.1332V31.0082M1781 39.1332V31.0082M1790.14 39.1332V31.0082M1799.28 39.1332V31.0082M1808.43 39.1332V31.0082M1817.57 39.1332V31.0082M1826.71 39.1332V31.0082M1835.85 39.1332V31.0082M1844.99 39.1332V31.0082M1854.14 39.1332V31.0082M1863.28 39.1332V31.0082M1872.42 39.1332V31.0082M1881.56 39.1332V31.0082M1890.71 39.1332V31.0082M1899.85 39.1332V31.0082M1908.99 39.1332V31.0082M1918.13 39.1332V31.0082M1927.27 39.1332V31.0082M1936.42 39.1332V31.0082M1945.56 39.1332V22.8832M1954.7 39.1332V31.0082M1963.84 39.1332V31.0082M1972.99 39.1332V31.0082M1982.13 39.1332V31.0082M1991.27 39.1332V31.0082M2000.41 39.1332V31.0082M2009.55 39.1332V31.0082M2018.7 39.1332V31.0082M2027.84 39.1332V31.0082M2036.98 39.1332V31.0082M2046.12 39.1332V31.0082M2055.27 39.1332V31.0082M2064.41 39.1332V31.0082M2073.55 39.1332V31.0082M2082.69 39.1332V31.0082M2091.83 39.1332V31.0082M2100.98 39.1332V31.0082M2110.12 39.1332V31.0082M2119.26 39.1332V31.0082M2128.4 39.1332V31.0082M2137.55 39.1332V22.8832" stroke="black" stroke-width="1.3"/>
<path opacity="0.6" d="M-168.822 7.86649C-169.356 7.86649 -169.815 7.73149 -170.199 7.46049C-170.579 7.18849 -170.872 6.79549 -171.078 6.28249C-171.281 5.76749 -171.383 5.14649 -171.383 4.42249C-171.381 3.69749 -171.278 3.08049 -171.075 2.57249C-170.869 2.06149 -170.575 1.67249 -170.195 1.40449C-169.812 1.13449 -169.354 1.00049 -168.822 1.00049C-168.289 1.00049 -167.832 1.13549 -167.449 1.40349C-167.065 1.67249 -166.772 2.06149 -166.568 2.57149C-166.363 3.08249 -166.26 3.69949 -166.26 4.42249C-166.26 5.14949 -166.363 5.77049 -166.568 6.28549C-166.771 6.79849 -167.066 7.18949 -167.449 7.46049C-167.83 7.73149 -168.287 7.86649 -168.822 7.86649ZM-168.822 6.85049C-168.406 6.85049 -168.079 6.64549 -167.838 6.23649C-167.595 5.82549 -167.474 5.22049 -167.474 4.42249C-167.474 3.89449 -167.529 3.45049 -167.64 3.09249C-167.75 2.73249 -167.906 2.46249 -168.107 2.27949C-168.301 2.09949 -168.557 1.99949 -168.822 2.00449C-169.235 2.00449 -169.562 2.20949 -169.802 2.62049C-170.042 3.03049 -170.164 3.63049 -170.166 4.42249C-170.168 4.95249 -170.115 5.39749 -170.007 5.75949C-169.896 6.12049 -169.74 6.39349 -169.539 6.57749C-169.338 6.75949 -169.098 6.85049 -168.822 6.85049ZM-162.843 1.09249V7.73949H-164.047V2.26349H-164.086L-165.641 3.25649V2.15349L-163.989 1.09149H-162.843V1.09249ZM22.5232 7.86649C21.9872 7.86649 21.5292 7.73149 21.1462 7.46049C20.7662 7.18849 20.4722 6.79549 20.2662 6.28249C20.0622 5.76749 19.9612 5.14649 19.9612 4.42249C19.9632 3.69749 20.0652 3.08049 20.2702 2.57249C20.4752 2.06149 20.7682 1.67249 21.1502 1.40449C21.5322 1.13449 21.9902 1.00049 22.5232 1.00049C23.0552 1.00049 23.5132 1.13549 23.8962 1.40349C24.2792 1.67249 24.5722 2.06149 24.7762 2.57149C24.9812 3.08249 25.0842 3.69949 25.0842 4.42249C25.0842 5.14949 24.9812 5.77049 24.7762 6.28549C24.5722 6.79849 24.2792 7.18949 23.8962 7.46049C23.5162 7.73149 23.0572 7.86649 22.5232 7.86649ZM22.5232 6.85049C22.9382 6.85049 23.2662 6.64549 23.5062 6.23649C23.7492 5.82549 23.8702 5.22049 23.8702 4.42249C23.8702 3.89449 23.8152 3.45049 23.7042 3.09249C23.5942 2.73249 23.4382 2.46249 23.2372 2.27949C23.0432 2.09949 22.7872 1.99949 22.5232 2.00449C22.1092 2.00449 21.7832 2.20949 21.5412 2.62049C21.3012 3.03049 21.1812 3.63049 21.1792 4.42249C21.1762 4.95249 21.2292 5.39749 21.3372 5.75949C21.4482 6.12049 21.6032 6.39349 21.8052 6.57749C22.0072 6.75949 22.2452 6.85049 22.5232 6.85049ZM25.7972 7.74049V6.87049L28.1052 4.60749C28.3262 4.38449 28.5102 4.18549 28.6572 4.01349C28.8042 3.84049 28.9142 3.67249 28.9882 3.51049C29.0612 3.34849 29.0992 3.17549 29.0992 2.99049C29.1045 2.80111 29.0549 2.61423 28.9562 2.45249C28.8609 2.30051 28.7247 2.1785 28.5632 2.10049C28.3858 2.01662 28.1913 1.97519 27.9952 1.97949C27.7762 1.97949 27.5852 2.02349 27.4202 2.11449C27.2582 2.20111 27.1251 2.33319 27.0372 2.49449C26.9447 2.67605 26.899 2.87781 26.9042 3.08149H25.7572C25.7572 2.65949 25.8542 2.29249 26.0462 1.98149C26.2381 1.67042 26.5136 1.41955 26.8412 1.25749C27.2058 1.08063 27.6071 0.992568 28.0122 1.00049C28.4572 1.00049 28.8482 1.08449 29.1862 1.25049C29.5242 1.41749 29.7862 1.64549 29.9722 1.93549C30.1612 2.22549 30.2542 2.55649 30.2542 2.92949C30.2542 3.17749 30.2062 3.42249 30.1122 3.66249C30.0162 3.90249 29.8492 4.16849 29.6082 4.46149C29.2942 4.83449 28.9602 5.18849 28.6052 5.52249L27.4602 6.68849V6.73349H30.3552V7.73949L25.7972 7.74049ZM214.37 7.86649C213.836 7.86649 213.377 7.73149 212.994 7.46049C212.613 7.18849 212.32 6.79549 212.114 6.28249C211.911 5.76749 211.809 5.14649 211.809 4.42249C211.812 3.69749 211.914 3.08049 212.117 2.57249C212.324 2.06149 212.617 1.67249 212.998 1.40449C213.381 1.13449 213.838 1.00049 214.37 1.00049C214.904 1.00049 215.361 1.13549 215.744 1.40349C216.127 1.67249 216.42 2.06149 216.623 2.57149C216.83 3.08249 216.932 3.69949 216.932 4.42249C216.932 5.14949 216.83 5.77049 216.623 6.28549C216.42 6.79849 216.127 7.18949 215.744 7.46049C215.363 7.73149 214.906 7.86649 214.37 7.86649ZM214.37 6.85049C214.787 6.85049 215.114 6.64549 215.355 6.23649C215.596 5.82549 215.718 5.22049 215.718 4.42249C215.718 3.89449 215.662 3.45049 215.553 3.09249C215.442 2.73249 215.287 2.46249 215.085 2.27949C214.892 2.09949 214.635 1.99949 214.37 2.00449C213.957 2.00449 213.631 2.20949 213.39 2.62049C213.15 3.03049 213.028 3.63049 213.026 4.42249C213.024 4.95249 213.077 5.39749 213.186 5.75949C213.297 6.12049 213.452 6.39349 213.653 6.57749C213.854 6.75949 214.094 6.85049 214.37 6.85049ZM220.031 7.83049C219.564 7.83049 219.149 7.75049 218.785 7.59049C218.445 7.44769 218.15 7.21716 217.928 6.92249C217.717 6.63486 217.6 6.28911 217.593 5.93249H218.814C218.825 6.11249 218.885 6.26749 218.992 6.40249C219.101 6.53449 219.245 6.63649 219.424 6.71049C219.604 6.78349 219.805 6.82049 220.028 6.82049C220.266 6.82049 220.477 6.78049 220.661 6.69849C220.845 6.61349 220.989 6.49549 221.093 6.34749C221.198 6.19632 221.251 6.01536 221.245 5.83149C221.251 5.6422 221.197 5.45587 221.09 5.29949C220.974 5.13753 220.814 5.01224 220.629 4.93849C220.401 4.84638 220.156 4.80213 219.909 4.80849H219.32V3.88049H219.909C220.14 3.88049 220.342 3.84049 220.515 3.76049C220.681 3.68822 220.824 3.57119 220.927 3.42249C221.028 3.2719 221.079 3.09364 221.074 2.91249C221.08 2.74029 221.036 2.57002 220.947 2.42249C220.861 2.28072 220.736 2.16681 220.587 2.09449C220.418 2.01332 220.233 1.97323 220.045 1.97749C219.851 1.97552 219.659 2.01329 219.48 2.08849C219.315 2.15565 219.171 2.26414 219.06 2.40349C218.954 2.5411 218.895 2.70953 218.892 2.88349H217.733C217.735 2.53149 217.848 2.18849 218.055 1.90349C218.27 1.61396 218.556 1.3857 218.886 1.24149C219.252 1.07715 219.65 0.995219 220.051 1.00149C220.495 1.00149 220.88 1.08449 221.207 1.25149C221.536 1.41549 221.79 1.63649 221.97 1.91649C222.149 2.19549 222.239 2.50449 222.239 2.84149C222.241 3.21649 222.131 3.52949 221.908 3.78249C221.681 4.03991 221.375 4.21471 221.038 4.27949V4.33149C221.505 4.39649 221.864 4.56949 222.113 4.85149C222.364 5.12949 222.488 5.47649 222.486 5.89349C222.486 6.26449 222.38 6.59849 222.168 6.89349C221.944 7.19553 221.644 7.43262 221.298 7.58049C220.899 7.75396 220.467 7.83924 220.031 7.83049ZM406.291 7.86649C405.756 7.86649 405.298 7.73149 404.914 7.46049C404.533 7.18849 404.24 6.79549 404.034 6.28249C403.831 5.76749 403.729 5.14649 403.729 4.42249C403.731 3.69749 403.834 3.08049 404.037 2.57249C404.243 2.06149 404.537 1.67249 404.918 1.40449C405.301 1.13449 405.758 1.00049 406.291 1.00049C406.823 1.00049 407.281 1.13549 407.664 1.40349C408.048 1.67249 408.34 2.06149 408.544 2.57149C408.749 3.08249 408.852 3.69949 408.852 4.42249C408.852 5.14949 408.749 5.77049 408.544 6.28549C408.34 6.79849 408.048 7.18949 407.664 7.46049C407.283 7.73149 406.825 7.86649 406.291 7.86649ZM406.291 6.85049C406.707 6.85049 407.034 6.64549 407.274 6.23649C407.517 5.82549 407.638 5.22049 407.638 4.42249C407.638 3.89449 407.583 3.45049 407.473 3.09249C407.362 2.73249 407.206 2.46249 407.005 2.27949C406.812 2.09883 406.556 2.00025 406.291 2.00449C405.878 2.00449 405.551 2.20949 405.31 2.62049C405.07 3.03049 404.949 3.63049 404.946 4.42249C404.944 4.95249 404.997 5.39749 405.106 5.75949C405.216 6.12049 405.372 6.39349 405.573 6.57749C405.774 6.75949 406.014 6.85049 406.291 6.85049ZM409.445 6.50549V5.54849L412.266 1.09149H413.065V2.45549H412.578L410.678 5.46549V5.51549H414.617V6.50549H409.445ZM412.617 7.74049V6.21449L412.63 5.78549V1.09149H413.766V7.73949L412.617 7.74049ZM598.429 7.86749C597.895 7.86749 597.436 7.73249 597.053 7.46149C596.672 7.18949 596.378 6.79649 596.173 6.28349C595.969 5.76849 595.868 5.14749 595.868 4.42349C595.87 3.69849 595.973 3.08149 596.176 2.57349C596.382 2.06249 596.675 1.67349 597.056 1.40549C597.439 1.13549 597.897 1.00149 598.429 1.00149C598.962 1.00149 599.42 1.13649 599.803 1.40449C600.186 1.67349 600.479 2.06249 600.682 2.57249C600.888 3.08349 600.991 3.70049 600.991 4.42349C600.991 5.15049 600.888 5.77149 600.682 6.28649C600.479 6.79949 600.186 7.19049 599.803 7.46149C599.422 7.73249 598.964 7.86749 598.429 7.86749ZM598.429 6.85149C598.845 6.85149 599.173 6.64649 599.413 6.23749C599.655 5.82649 599.776 5.22149 599.776 4.42349C599.776 3.89549 599.721 3.45149 599.611 3.09349C599.501 2.73349 599.345 2.46349 599.143 2.28049C598.95 2.09965 598.694 2.00104 598.429 2.00549C598.016 2.00549 597.689 2.21049 597.449 2.62149C597.208 3.03149 597.087 3.63149 597.085 4.42349C597.083 4.95349 597.136 5.39849 597.244 5.76049C597.355 6.12149 597.51 6.39449 597.712 6.57849C597.913 6.76049 598.152 6.85149 598.429 6.85149ZM604.015 7.83149C603.615 7.83838 603.218 7.75534 602.853 7.58849C602.528 7.4376 602.247 7.20463 602.039 6.91249C601.838 6.62456 601.727 6.28352 601.72 5.93249H602.889C602.897 6.06271 602.933 6.18976 602.993 6.30513C603.054 6.42051 603.139 6.52155 603.242 6.60149C603.457 6.77249 603.715 6.85849 604.015 6.85849C604.232 6.86513 604.447 6.81132 604.635 6.70306C604.823 6.59481 604.977 6.43638 605.08 6.24549C605.187 6.05149 605.238 5.83249 605.236 5.58449C605.243 5.3517 605.188 5.12123 605.077 4.91649C604.973 4.72644 604.819 4.56841 604.632 4.45949C604.436 4.34457 604.211 4.28609 603.983 4.29049C603.782 4.2885 603.583 4.32587 603.396 4.40049C603.223 4.46351 603.066 4.56545 602.938 4.69849L601.85 4.52149L602.197 1.09349H606.054V2.09849H603.193L603.002 3.86149H603.041C603.165 3.71649 603.339 3.59649 603.564 3.50149C603.798 3.40149 604.05 3.35149 604.304 3.35549C604.677 3.34759 605.044 3.44276 605.367 3.6305C605.689 3.81825 605.953 4.09128 606.129 4.41949C606.311 4.75049 606.401 5.13049 606.401 5.55749C606.401 5.99549 606.3 6.38749 606.097 6.73149C605.896 7.07284 605.605 7.35236 605.256 7.53949C604.874 7.73949 604.447 7.83949 604.015 7.83149ZM790.345 7.86749C789.81 7.86749 789.352 7.73249 788.969 7.46149C788.588 7.18949 788.294 6.79649 788.088 6.28349C787.885 5.76849 787.783 5.14749 787.783 4.42349C787.785 3.69849 787.888 3.08149 788.092 2.57349C788.297 2.06249 788.591 1.67349 788.972 1.40549C789.355 1.13549 789.812 1.00149 790.345 1.00149C790.877 1.00149 791.334 1.13649 791.718 1.40449C792.101 1.67349 792.394 2.06249 792.598 2.57249C792.803 3.08349 792.906 3.70049 792.906 4.42349C792.906 5.15049 792.803 5.77149 792.598 6.28649C792.394 6.79949 792.101 7.19049 791.718 7.46149C791.338 7.73249 790.879 7.86749 790.345 7.86749ZM790.345 6.85149C790.761 6.85149 791.089 6.64649 791.328 6.23749C791.571 5.82649 791.692 5.22149 791.692 4.42349C791.692 3.89549 791.637 3.45149 791.526 3.09349C791.416 2.73349 791.26 2.46349 791.059 2.28049C790.866 2.09983 790.61 2.00125 790.345 2.00549C789.932 2.00549 789.605 2.21049 789.364 2.62149C789.124 3.03149 789.003 3.63149 789 4.42349C788.998 4.95349 789.052 5.39849 789.16 5.76049C789.27 6.12149 789.426 6.39449 789.627 6.57849C789.828 6.76049 790.068 6.85149 790.345 6.85149ZM796.054 7.83149C795.736 7.82926 795.421 7.77313 795.122 7.66549C794.813 7.55114 794.534 7.36823 794.305 7.13049C794.062 6.88049 793.869 6.55049 793.727 6.14049C793.583 5.72649 793.513 5.21549 793.515 4.60549C793.515 4.03649 793.576 3.52849 793.697 3.08149C793.8 2.67649 793.977 2.29449 794.219 1.95349C794.433 1.65584 794.715 1.41321 795.041 1.24549C795.377 1.07953 795.748 0.995564 796.122 1.00049C796.54 1.00049 796.91 1.08349 797.232 1.24749C797.544 1.4042 797.813 1.63546 798.015 1.92081C798.217 2.20616 798.345 2.5368 798.388 2.88349H797.204C797.152 2.64369 797.02 2.42863 796.83 2.27349C796.644 2.12049 796.408 2.04349 796.122 2.04349C795.661 2.04349 795.306 2.24349 795.057 2.64349C794.811 3.04349 794.687 3.59349 794.684 4.29349H794.729C794.834 4.10452 794.974 3.93774 795.142 3.80249C795.499 3.52249 795.939 3.37249 796.392 3.37349C796.758 3.36809 797.118 3.46314 797.434 3.64828C797.749 3.83342 798.008 4.10155 798.181 4.42349C798.363 4.74749 798.452 5.11949 798.45 5.53949C798.458 5.95249 798.355 6.35949 798.152 6.71749C797.952 7.06215 797.66 7.34511 797.31 7.53549C796.951 7.73549 796.532 7.83449 796.054 7.83149ZM796.048 6.85749C796.283 6.85749 796.495 6.80049 796.681 6.68549C796.871 6.56863 797.027 6.40351 797.132 6.20694C797.238 6.01038 797.289 5.78939 797.281 5.56649C797.286 5.34136 797.233 5.11873 797.126 4.92049C797.026 4.73181 796.877 4.57361 796.694 4.46249C796.504 4.34818 796.286 4.28962 796.064 4.29349C795.898 4.29156 795.733 4.32437 795.581 4.38981C795.428 4.45524 795.29 4.55187 795.177 4.67349C794.944 4.916 794.814 5.23923 794.814 5.57549C794.816 5.80649 794.87 6.02049 794.976 6.21549C795.083 6.41049 795.228 6.56549 795.415 6.68249C795.601 6.79949 795.812 6.85749 796.048 6.85749ZM984.229 7.86749C983.691 7.86749 983.234 7.73249 982.848 7.46149C982.472 7.18949 982.178 6.79649 981.974 6.28349C981.761 5.76849 981.659 5.14749 981.659 4.42349C981.67 3.69849 981.771 3.08149 981.974 2.57349C982.178 2.06249 982.472 1.67349 982.848 1.40549C983.234 1.13549 983.691 1.00149 984.229 1.00149C984.758 1.00149 985.215 1.13649 985.601 1.40449C985.987 1.67349 986.271 2.06249 986.474 2.57249C986.688 3.08349 986.789 3.70049 986.789 4.42349C986.789 5.15049 986.688 5.77149 986.474 6.28649C986.271 6.79949 985.987 7.19049 985.601 7.46149C985.215 7.73249 984.758 7.86749 984.229 7.86749ZM984.229 6.85149C984.646 6.85149 984.971 6.64649 985.205 6.23749C985.448 5.82649 985.57 5.22149 985.57 4.42349C985.57 3.89549 985.52 3.45149 985.408 3.09349C985.296 2.73349 985.144 2.46349 984.94 2.28049C984.747 2.10064 984.493 2.00213 984.229 2.00549C983.813 2.00549 983.488 2.21049 983.244 2.62149C983 3.03149 982.889 3.63149 982.878 4.42349C982.878 4.95349 982.929 5.39849 983.041 5.76049C983.153 6.12149 983.305 6.39449 983.508 6.57849C983.711 6.76049 983.945 6.85149 984.229 6.85149ZM987.561 7.74149L990.395 2.14449V2.09849H987.114V1.09249H991.635V2.12049L988.811 7.73849H987.561V7.74149ZM1174.33 7.86749C1173.8 7.86749 1173.34 7.73249 1172.96 7.46149C1172.57 7.18949 1172.29 6.79649 1172.07 6.28349C1171.87 5.76849 1171.77 5.14749 1171.77 4.42349C1171.78 3.69849 1171.88 3.08149 1172.09 2.57349C1172.29 2.06249 1172.58 1.67349 1172.96 1.40549C1173.34 1.13549 1173.8 1.00149 1174.33 1.00149C1174.87 1.00149 1175.33 1.13649 1175.71 1.40449C1176.09 1.67349 1176.38 2.06249 1176.58 2.57249C1176.8 3.08349 1176.9 3.70049 1176.9 4.42349C1176.9 5.15049 1176.8 5.77149 1176.58 6.28649C1176.38 6.79949 1176.09 7.19049 1175.71 7.46149C1175.33 7.73249 1174.87 7.86749 1174.33 7.86749ZM1174.33 6.85149C1174.75 6.85149 1175.08 6.64649 1175.32 6.23749C1175.56 5.82649 1175.68 5.22149 1175.68 4.42349C1175.68 3.89549 1175.63 3.45149 1175.52 3.09349C1175.41 2.73349 1175.25 2.46349 1175.05 2.28049C1174.85 2.0991 1174.59 2.00053 1174.33 2.00549C1173.92 2.00549 1173.6 2.21049 1173.35 2.62149C1173.11 3.03149 1172.99 3.63149 1172.99 4.42349C1172.99 4.95349 1173.04 5.39849 1173.15 5.76049C1173.26 6.12149 1173.42 6.39449 1173.62 6.57849C1173.82 6.76049 1174.06 6.85149 1174.33 6.85149ZM1179.98 7.83149C1179.49 7.83149 1179.06 7.75149 1178.69 7.58849C1178.34 7.44696 1178.04 7.21778 1177.81 6.92349C1177.6 6.6447 1177.49 6.30551 1177.5 5.95849C1177.5 5.69449 1177.56 5.43449 1177.68 5.19849C1177.79 4.96349 1177.97 4.75949 1178.18 4.60449C1178.39 4.44649 1178.63 4.34649 1178.89 4.30249V4.25849C1178.56 4.19118 1178.26 4.00518 1178.06 3.73549C1177.85 3.46267 1177.74 3.12818 1177.74 2.78449C1177.74 2.44249 1177.83 2.13749 1178.03 1.86849C1178.22 1.60049 1178.48 1.38849 1178.82 1.23549C1179.15 1.08049 1179.54 1.00149 1179.98 1.00149C1180.39 1.00149 1180.78 1.08049 1181.12 1.23549C1181.45 1.38849 1181.71 1.60149 1181.91 1.86849C1182.1 2.13749 1182.19 2.44249 1182.19 2.78449C1182.19 3.14249 1182.09 3.46049 1181.88 3.73449C1181.66 4.00849 1181.39 4.18149 1181.05 4.25849V4.30049C1181.32 4.34449 1181.55 4.44449 1181.76 4.60349C1181.97 4.75849 1182.13 4.95349 1182.25 5.18749C1182.39 5.42049 1182.45 5.67749 1182.45 5.95649C1182.45 6.31649 1182.33 6.63649 1182.12 6.92149C1181.92 7.20149 1181.62 7.42349 1181.25 7.58649C1180.85 7.75563 1180.41 7.83975 1179.98 7.83149ZM1179.98 6.90249C1180.22 6.90249 1180.43 6.86149 1180.62 6.77649C1180.79 6.7032 1180.95 6.5763 1181.05 6.41349C1181.16 6.25349 1181.21 6.06549 1181.21 5.87449C1181.21 5.67419 1181.15 5.47805 1181.04 5.31249C1180.93 5.15006 1180.78 5.01739 1180.61 4.92649C1180.41 4.83209 1180.2 4.78419 1179.98 4.78649C1179.73 4.78649 1179.52 4.83249 1179.34 4.92649C1179.16 5.01449 1179 5.14749 1178.89 5.31249C1178.79 5.47449 1178.74 5.66249 1178.74 5.87349C1178.74 6.07749 1178.79 6.25649 1178.89 6.41249C1178.99 6.56649 1179.13 6.68649 1179.32 6.77349C1179.5 6.86049 1179.72 6.90249 1179.98 6.90249ZM1179.98 3.87549C1180.18 3.87549 1180.35 3.83449 1180.52 3.75149C1180.67 3.66751 1180.8 3.54469 1180.89 3.39549C1180.98 3.24549 1181.03 3.07349 1181.02 2.89849C1181.02 2.72284 1180.97 2.54977 1180.89 2.39749C1180.8 2.25344 1180.67 2.13763 1180.52 2.06349C1180.35 1.98141 1180.16 1.94029 1179.98 1.94349C1179.76 1.94349 1179.58 1.98349 1179.42 2.06349C1179.26 2.13479 1179.13 2.25144 1179.04 2.39849C1178.96 2.55149 1178.92 2.72349 1178.92 2.89749C1178.92 3.09049 1178.96 3.25949 1179.05 3.40749C1179.14 3.55249 1179.27 3.66749 1179.42 3.75249C1179.58 3.83349 1179.76 3.87549 1179.98 3.87549ZM1366.31 7.86749C1365.78 7.86749 1365.31 7.73249 1364.94 7.46149C1364.55 7.18949 1364.25 6.79649 1364.05 6.28349C1363.85 5.76849 1363.75 5.14749 1363.75 4.42349C1363.75 3.69849 1363.85 3.08149 1364.05 2.57349C1364.26 2.06249 1364.55 1.67349 1364.94 1.40549C1365.32 1.13549 1365.78 1.00149 1366.31 1.00149C1366.84 1.00149 1367.3 1.13649 1367.68 1.40449C1368.06 1.67349 1368.36 2.06249 1368.56 2.57249C1368.76 3.08349 1368.87 3.70049 1368.87 4.42349C1368.87 5.15049 1368.76 5.77149 1368.56 6.28649C1368.36 6.79949 1368.06 7.19049 1367.68 7.46149C1367.3 7.73249 1366.84 7.86749 1366.31 7.86749ZM1366.31 6.85149C1366.72 6.85149 1367.05 6.64649 1367.29 6.23749C1367.54 5.82649 1367.66 5.22149 1367.66 4.42349C1367.66 3.89549 1367.6 3.45149 1367.48 3.09349C1367.38 2.73349 1367.22 2.46349 1367.02 2.28049C1366.83 2.09849 1366.57 2.00049 1366.31 2.00549C1365.89 2.00549 1365.57 2.21049 1365.33 2.62149C1365.09 3.03149 1364.97 3.63149 1364.97 4.42349C1364.97 4.95349 1365.02 5.39849 1365.13 5.76049C1365.23 6.12149 1365.39 6.39449 1365.6 6.57849C1365.79 6.76049 1366.03 6.85149 1366.31 6.85149ZM1371.89 1.00149C1372.21 1.00349 1372.52 1.06149 1372.82 1.17049C1373.12 1.27949 1373.4 1.45649 1373.64 1.70249C1373.88 1.94749 1374.08 2.27549 1374.22 2.68649C1374.36 3.09849 1374.43 3.60649 1374.43 4.21249C1374.44 4.72849 1374.38 5.24349 1374.25 5.74349C1374.13 6.19149 1373.96 6.57049 1373.72 6.88149C1373.5 7.18394 1373.22 7.42888 1372.89 7.59459C1372.55 7.76031 1372.19 7.84168 1371.82 7.83149C1371.41 7.83149 1371.03 7.74849 1370.7 7.58549C1370.38 7.42931 1370.11 7.19537 1369.91 6.90578C1369.71 6.61619 1369.59 6.28052 1369.56 5.93049H1370.75C1370.81 6.19349 1370.93 6.40349 1371.11 6.55949C1371.3 6.71149 1371.54 6.78949 1371.82 6.78949C1372.28 6.78949 1372.63 6.58949 1372.89 6.18949C1373.13 5.78949 1373.26 5.23349 1373.26 4.52149H1373.21C1373.11 4.71149 1372.97 4.87549 1372.81 5.01349C1372.64 5.15049 1372.44 5.25549 1372.23 5.32849C1372.01 5.40214 1371.79 5.43932 1371.56 5.43849C1371.16 5.43849 1370.82 5.34549 1370.5 5.15949C1370.19 4.97621 1369.93 4.7118 1369.76 4.39449C1369.58 4.05174 1369.49 3.66859 1369.5 3.28149C1369.5 2.84749 1369.59 2.45949 1369.79 2.11549C1369.99 1.76949 1370.27 1.49549 1370.63 1.29749C1370.99 1.09649 1371.41 0.997491 1371.89 1.00149ZM1371.89 1.97549C1371.66 1.97549 1371.45 2.03249 1371.26 2.14849C1371.07 2.26049 1370.93 2.41349 1370.82 2.60849C1370.71 2.8072 1370.66 3.02841 1370.66 3.25299C1370.66 3.47758 1370.71 3.69878 1370.82 3.89749C1370.92 4.09049 1371.07 4.25049 1371.26 4.36049C1371.42 4.45567 1371.61 4.51112 1371.8 4.52256C1372 4.534 1372.19 4.50114 1372.37 4.42649C1372.52 4.36149 1372.65 4.26549 1372.77 4.14449C1372.88 4.02249 1372.97 3.88449 1373.03 3.73149C1373.1 3.57849 1373.13 3.41649 1373.13 3.24449C1373.13 3.02449 1373.08 2.80849 1372.97 2.61649C1372.86 2.42284 1372.71 2.26163 1372.52 2.15049C1372.34 2.03149 1372.12 1.97049 1371.89 1.97549ZM1559.31 1.09249V7.74049H1558.1V2.26349H1558.07L1556.52 3.25649V2.15349L1558.16 1.09149H1559.31V1.09249ZM1563.09 7.86649C1562.56 7.86649 1562.09 7.73149 1561.72 7.46149C1561.33 7.18949 1561.04 6.79649 1560.83 6.28349C1560.63 5.76849 1560.53 5.14749 1560.53 4.42349C1560.53 3.69849 1560.63 3.08149 1560.83 2.57349C1561.05 2.06249 1561.33 1.67349 1561.72 1.40549C1562.1 1.13549 1562.56 1.00149 1563.09 1.00149C1563.63 1.00149 1564.08 1.13649 1564.46 1.40449C1564.85 1.67349 1565.14 2.06249 1565.34 2.57249C1565.55 3.08349 1565.65 3.70049 1565.65 4.42349C1565.65 5.15049 1565.55 5.77149 1565.34 6.28649C1565.14 6.79949 1564.85 7.19049 1564.46 7.46149C1564.08 7.73249 1563.63 7.86649 1563.09 7.86649ZM1563.09 6.85049C1563.5 6.85049 1563.83 6.64649 1564.07 6.23749C1564.32 5.82649 1564.44 5.22149 1564.44 4.42349C1564.44 3.89549 1564.38 3.45149 1564.28 3.09349C1564.16 2.73349 1564 2.46349 1563.8 2.28049C1563.61 2.09849 1563.35 2.00049 1563.09 2.00549C1562.67 2.00549 1562.35 2.21049 1562.11 2.62149C1561.87 3.03149 1561.75 3.63149 1561.75 4.42349C1561.75 4.95349 1561.8 5.39849 1561.91 5.76049C1562.01 6.12149 1562.17 6.39449 1562.38 6.57849C1562.47 6.66838 1562.58 6.73869 1562.71 6.78537C1562.83 6.83205 1562.96 6.85418 1563.09 6.85049ZM1752.66 1.09249V7.74049H1751.45V2.26349H1751.42L1749.85 3.25649V2.15349L1751.51 1.09149H1752.66V1.09249ZM1756.68 1.09249V7.74049H1755.48V2.26349H1755.44L1753.89 3.25649V2.15349L1755.54 1.09149H1756.68V1.09249ZM1943.5 1.09249V7.74049H1942.29V2.26349H1942.25L1940.69 3.25649V2.15349L1942.35 1.09149H1943.5V1.09249ZM1944.82 7.74049V6.87049L1947.12 4.60849C1947.35 4.38549 1947.53 4.18649 1947.67 4.01449C1947.82 3.84149 1947.94 3.67349 1948.01 3.51149C1948.08 3.34758 1948.12 3.17055 1948.12 2.99149C1948.12 2.80149 1948.07 2.61549 1947.98 2.45349C1947.88 2.30149 1947.74 2.17949 1947.58 2.10149C1947.4 2.01703 1947.2 1.97558 1947.01 1.98049C1946.8 1.98049 1946.6 2.02449 1946.44 2.11549C1946.27 2.19927 1946.14 2.33218 1946.06 2.49549C1945.96 2.65949 1945.92 2.85549 1945.92 3.08249H1944.78C1944.78 2.66049 1944.88 2.29349 1945.06 1.98249C1945.25 1.67049 1945.53 1.42949 1945.86 1.25849C1946.22 1.08186 1946.62 0.993802 1947.03 1.00149C1947.48 1.00149 1947.86 1.08549 1948.21 1.25149C1948.54 1.41849 1948.81 1.64649 1948.99 1.93649C1949.15 2.19145 1949.25 2.48186 1949.27 2.78271C1949.29 3.08357 1949.25 3.38584 1949.13 3.66349C1949.03 3.90349 1948.87 4.16949 1948.63 4.46249C1948.39 4.75449 1948.06 5.10849 1947.62 5.52349L1946.48 6.68949V6.73449H1949.38V7.74049H1944.82ZM2135.34 1.09249V7.74049H2134.13V2.26349H2134.1L2132.55 3.25649V2.15349L2134.19 1.09149H2135.34V1.09249ZM2139.05 7.83249C2138.58 7.83249 2138.16 7.75049 2137.8 7.59149C2137.46 7.44723 2137.17 7.21685 2136.95 6.92349C2136.73 6.64003 2136.61 6.29196 2136.61 5.93349H2137.83C2137.84 6.11349 2137.9 6.26849 2138.01 6.40349C2138.12 6.53549 2138.27 6.63749 2138.44 6.71149C2138.62 6.78449 2138.82 6.82149 2139.05 6.82149C2139.28 6.82149 2139.5 6.78149 2139.68 6.69949C2139.85 6.62149 2140 6.50049 2140.11 6.34849C2140.21 6.19777 2140.27 6.01709 2140.27 5.83249C2140.27 5.64249 2140.22 5.45549 2140.1 5.30049C2139.99 5.13803 2139.83 5.01232 2139.65 4.93949C2139.42 4.84805 2139.17 4.80383 2138.93 4.80949H2138.34V3.88049H2138.93C2139.16 3.88049 2139.36 3.84049 2139.54 3.76049C2139.7 3.68856 2139.84 3.57122 2139.94 3.42249C2140.04 3.27449 2140.09 3.10549 2140.09 2.91249C2140.09 2.73971 2140.05 2.5687 2139.96 2.42249C2139.88 2.27981 2139.75 2.16529 2139.61 2.09449C2139.44 2.0123 2139.25 1.97219 2139.06 1.97749C2138.86 1.97749 2138.67 2.01449 2138.5 2.08849C2138.34 2.15449 2138.19 2.26349 2138.08 2.40349C2137.97 2.53938 2137.91 2.70877 2137.91 2.88349H2136.75C2136.76 2.51149 2136.86 2.18349 2137.08 1.90349C2137.28 1.61949 2137.56 1.39949 2137.9 1.24149C2138.25 1.08149 2138.64 1.00149 2139.07 1.00149C2139.52 1.00149 2139.9 1.08449 2140.23 1.25149C2140.55 1.41549 2140.81 1.63649 2140.99 1.91649C2141.17 2.19549 2141.26 2.50449 2141.26 2.84149C2141.26 3.21649 2141.15 3.52949 2140.93 3.78249C2140.7 4.03649 2140.42 4.20149 2140.05 4.27949V4.33149C2140.52 4.39649 2140.89 4.56949 2141.13 4.85149C2141.38 5.12949 2141.51 5.47649 2141.51 5.89349C2141.51 6.26449 2141.39 6.59849 2141.18 6.89349C2140.98 7.18549 2140.68 7.41349 2140.32 7.58049C2139.95 7.74649 2139.53 7.83049 2139.05 7.83049V7.83249Z" fill="black"/>
</g>
</g>
<defs>
<linearGradient id="paint0_linear_36174_1095" x1="0" y1="22" x2="1969.23" y2="22" gradientUnits="userSpaceOnUse">
<stop offset="0.02" stop-opacity="0"/>
<stop offset="0.254"/>
<stop offset="0.5"/>
<stop offset="0.75"/>
<stop offset="0.98" stop-opacity="0"/>
</linearGradient>
</defs>
</svg>
