<svg width="40" height="79" viewBox="0 0 40 79" fill="none" xmlns="http://www.w3.org/2000/svg">
<g clip-path="url(#clip0_34160_291)">
<path d="M27.8096 0.329582C27.6169 0.412487 27.4388 0.517064 27.2769 0.63997C27.1961 0.701701 27.1187 0.766705 27.0467 0.838313C26.9756 0.911711 26.9086 0.989246 26.8461 1.07042C26.5959 1.39525 26.4166 1.7786 26.3158 2.19534C26.2225 2.24028 26.1272 2.28109 26.0355 2.32936L25.7594 2.47184L25.2071 2.75679L24.9308 2.89933C24.8386 2.94649 24.7464 2.99383 24.6569 3.04612L24.1157 3.352C24.288 3.2023 24.4356 3.01619 24.5527 2.79704C24.6104 2.68592 24.6643 2.57351 24.7083 2.4506C24.7525 2.32813 24.7883 2.19769 24.8147 2.05979C24.9449 1.37735 24.8251 0.637497 24.5065 0C24.2427 0.141488 24.0099 0.342856 23.8271 0.594102C23.7364 0.720959 23.6553 0.855161 23.5941 1.00986C23.5321 1.16326 23.4847 1.32771 23.454 1.50204C23.3327 2.188 23.4945 2.89834 23.8372 3.50941L23.6165 3.63411C23.543 3.67584 23.4688 3.71621 23.3976 3.76177L22.966 4.02771L22.5344 4.29365L22.3185 4.42667L22.2106 4.49316L22.1053 4.56366C21.5452 4.94219 20.9749 5.30666 20.4339 5.71316C20.574 5.53944 20.6878 5.33678 20.7711 5.10825C20.8566 4.88287 20.915 4.63632 20.9355 4.36408C20.9917 3.63109 20.7792 2.86735 20.3696 2.23529C20.1084 2.41616 19.887 2.65623 19.7241 2.94266C19.6435 3.08705 19.5741 3.23811 19.5278 3.40805C19.4807 3.57682 19.4502 3.75535 19.4386 3.94228C19.3928 4.66842 19.641 5.3853 20.0646 5.98101C19.7954 6.16978 19.5398 6.37658 19.2808 6.57906L18.8928 6.88339C18.7644 6.98598 18.6317 7.08334 18.5081 7.19186C18.0086 7.61947 17.4963 8.03288 17.0178 8.48482C17.1277 8.29289 17.2102 8.07764 17.2621 7.8422C17.3175 7.61083 17.3441 7.36119 17.3347 7.09309C17.3076 6.31824 16.9963 5.54241 16.4935 4.92837C15.9888 5.37314 15.6699 6.0349 15.7157 6.8308C15.7524 7.58836 16.0903 8.30117 16.5954 8.87057L16.4178 9.03274C16.3589 9.08712 16.3031 9.14466 16.2455 9.20047L15.9027 9.53782L15.5598 9.87525C15.4458 9.98797 15.3296 10.0987 15.2214 10.2171C14.784 10.6862 14.3322 11.1427 13.9178 11.633C13.9985 11.427 14.0511 11.2024 14.0728 10.9624C14.0992 10.7266 14.0955 10.4759 14.0568 10.2121C13.9381 9.40542 13.5232 8.63038 12.9266 8.04751C12.4492 8.57309 12.1929 9.30516 12.3336 10.1316C12.459 10.9109 12.8884 11.6083 13.4743 12.1401C13.4233 12.1994 13.3702 12.2569 13.3209 12.3176L13.1732 12.4999L12.8777 12.8643L12.5821 13.2289L12.4343 13.4112C12.3852 13.4721 12.3399 13.5358 12.2924 13.5981L11.7289 14.349L11.588 14.5367L11.5176 14.6307L11.4507 14.7272L11.1832 15.1131C11.234 14.8971 11.2559 14.6668 11.2477 14.4257C11.2448 14.1885 11.211 13.9399 11.1436 13.6831C10.9258 12.8557 10.4039 12.0953 9.71451 11.5573C9.2764 12.1633 9.09404 12.9596 9.33703 13.8051C9.55651 14.5955 10.0784 15.2654 10.7429 15.748C10.6535 15.8721 10.5758 16.0039 10.4922 16.1318L10.2452 16.5181L9.99831 16.9046L9.87484 17.0978L9.75845 17.2953L9.29395 18.0865L9.1778 18.2843C9.1386 18.35 9.10031 18.4162 9.06505 18.4841L8.84791 18.8882C8.86945 18.6658 8.86009 18.4321 8.82402 18.1933C8.79196 17.9567 8.72905 17.7126 8.63316 17.4642C8.30985 16.6288 7.67898 15.8976 6.89971 15.4185C6.51386 16.1034 6.41588 16.9559 6.76787 17.8074C7.08596 18.5973 7.69996 19.2267 8.43959 19.6483C8.30345 19.914 8.17586 20.184 8.04353 20.4516L7.8467 20.854L7.74828 21.0552L7.65737 21.2599L7.29467 22.0793C7.23509 22.2162 7.17188 22.3517 7.11519 22.4899L6.94963 22.9063C6.94495 22.7937 6.93307 22.6794 6.91381 22.5639C6.89503 22.4486 6.86635 22.331 6.83718 22.2154C6.77569 21.9829 6.68386 21.7466 6.56027 21.5098C6.12623 20.6801 5.38629 19.9938 4.52172 19.5877C4.36046 19.9668 4.28193 20.3832 4.29836 20.808C4.30249 20.9143 4.31252 21.021 4.32864 21.1278C4.33671 21.1813 4.34631 21.2348 4.35745 21.2882C4.37007 21.3422 4.38422 21.3962 4.39992 21.4502C4.46276 21.666 4.5504 21.8803 4.66402 22.0902C5.08403 22.8669 5.78821 23.4427 6.59763 23.7917C6.49626 24.0653 6.40191 24.3414 6.30374 24.6163L6.1578 25.0291L6.08487 25.2355C6.06007 25.3041 6.04068 25.3746 6.01834 25.444L5.75854 26.2804L5.62867 26.6987C5.58811 26.839 5.55223 26.9804 5.51376 27.1213C5.42784 26.6704 5.25778 26.2163 4.95465 25.77C4.68064 25.3649 4.33148 25.0068 3.93332 24.7093C3.5335 24.4113 3.09287 24.1769 2.6203 24.0172C2.58473 24.119 2.56054 24.2244 2.54158 24.331C2.52244 24.4376 2.50909 24.5454 2.5017 24.654C2.48687 24.8713 2.49573 25.0919 2.52946 25.3118C2.56405 25.5319 2.61975 25.7503 2.7082 25.9663C2.79898 26.1829 2.91543 26.395 3.05822 26.5993C3.58206 27.3493 4.37241 27.8588 5.24461 28.1241C5.2251 28.1928 5.2091 28.2622 5.19371 28.3319L5.14632 28.5405L5.05153 28.9577C4.98968 29.2362 4.92228 29.5135 4.86498 29.793L4.70821 30.6345L4.62986 31.0554C4.61718 31.1256 4.60284 31.1955 4.59158 31.266L4.56068 31.4778C4.52689 31.3679 4.48129 31.2573 4.43759 31.1486C4.39253 31.0397 4.3404 30.9312 4.28113 30.8236C4.16252 30.6083 4.0153 30.3961 3.83853 30.19C3.5074 29.8032 3.10051 29.4727 2.65754 29.2121C2.21636 28.952 1.7289 28.7598 1.22266 28.6503C1.19983 28.7605 1.18222 28.8718 1.17219 28.984C1.16524 29.0969 1.16444 29.2104 1.16979 29.3241C1.18056 29.5515 1.21632 29.7793 1.27762 30.0035C1.33893 30.2276 1.42589 30.4481 1.53908 30.6609C1.65264 30.8736 1.80331 31.0804 1.97417 31.2747C2.6019 31.9844 3.47269 32.4154 4.39881 32.5875L4.3689 32.7943L4.34686 33.0021L4.30286 33.4177L4.2149 34.249L4.20395 34.353L4.19705 34.4572L4.18327 34.6658L4.15569 35.0829L4.10067 35.9173C3.91793 35.494 3.62681 35.0851 3.22453 34.7121C3.02966 34.5314 2.81781 34.3677 2.59347 34.2218C2.37368 34.0762 2.14023 33.9485 1.89686 33.8396C1.4102 33.6219 0.884021 33.4798 0.348611 33.4255C0.3291 33.6594 0.329592 33.8951 0.365967 34.129C0.404743 34.3631 0.469307 34.5949 0.559907 34.8197C0.650445 35.0445 0.767018 35.2625 0.909749 35.4693C0.981083 35.5727 1.059 35.6734 1.14351 35.7708C1.22795 35.8681 1.32477 35.9624 1.42485 36.0528C2.15451 36.7082 3.09817 37.0503 4.06811 37.1216L4.0574 37.5294L4.05931 37.9373C4.06183 38.2092 4.05875 38.4813 4.06959 38.7531C4.07863 39.0249 4.08288 39.297 4.09587 39.5687L4.13901 40.3837C4.01918 40.183 3.87325 39.9889 3.7014 39.8039C3.61548 39.7114 3.5231 39.6211 3.42425 39.5335C3.32565 39.4458 3.22379 39.3606 3.11362 39.2783C2.6757 38.9501 2.17389 38.6989 1.64427 38.5297C1.11735 38.3607 0.558491 38.2742 0 38.2795C0.00313897 38.4015 0.0109557 38.5234 0.0288664 38.6444C0.0473925 38.7655 0.0725657 38.8858 0.104263 39.0047C0.168274 39.2426 0.256288 39.4751 0.374831 39.6972C0.495712 39.9193 0.642567 40.1313 0.815087 40.3286C0.901316 40.4272 0.994008 40.5222 1.09304 40.613C1.1933 40.7038 1.30138 40.7902 1.41488 40.8722C1.82387 41.1667 2.27908 41.3755 2.75719 41.5053C3.23924 41.6349 3.74246 41.6857 4.24414 41.6674L4.28408 42.0639C4.29732 42.196 4.31 42.3283 4.32772 42.4599L4.42663 43.2509L4.544 44.0394C4.58315 44.3022 4.63294 44.5634 4.67695 44.8255C4.53003 44.6388 4.35856 44.4615 4.16283 44.296C3.96902 44.13 3.75501 43.9751 3.51436 43.8348C3.26866 43.6911 3.00849 43.5691 2.74008 43.4686C2.474 43.3677 2.19796 43.2886 1.91619 43.2316C1.35265 43.1178 0.766279 43.0924 0.191662 43.162C0.323622 44.1719 0.944708 45.11 1.94918 45.6796C2.85893 46.1892 3.91338 46.3218 4.93933 46.1673C5.15284 47.1826 5.41596 48.1872 5.71121 49.182C5.54053 49.0126 5.34192 48.8566 5.13001 48.712C4.91711 48.5677 4.68156 48.4376 4.42368 48.3242C4.28845 48.2647 4.15015 48.2112 4.00995 48.1635C3.87128 48.1153 3.73009 48.0731 3.58699 48.0367C3.30085 47.9639 3.00701 47.9146 2.71004 47.8886C2.1161 47.8369 1.50935 47.8786 0.926305 48.0169C1.18579 49.0434 1.92881 49.9414 3.03256 50.4091C3.52562 50.6171 4.05001 50.7238 4.57558 50.7444C5.10114 50.7651 5.63267 50.6984 6.14802 50.5604C6.47096 51.5196 6.83644 52.4643 7.23232 53.396C6.83982 53.101 6.38166 52.855 5.83535 52.6871C4.67738 52.3226 3.37132 52.359 2.20688 52.7771C2.59575 53.8045 3.461 54.6452 4.65356 54.9951C5.18048 55.151 5.73072 55.1982 6.26995 55.1583C6.80997 55.1182 7.34489 54.9883 7.85574 54.7874C8.27649 55.6799 8.73509 56.5543 9.22064 57.4133C9.11367 57.3507 9.00196 57.2924 8.88557 57.2383C8.77085 57.1833 8.65206 57.1323 8.52834 57.0862C8.28104 56.9938 8.01528 56.9198 7.73197 56.8663C7.11605 56.746 6.47589 56.7335 5.84329 56.8215C5.21211 56.909 4.59373 57.0949 4.01899 57.3783C4.53729 58.3911 5.52459 59.1562 6.79108 59.3754C7.34754 59.4736 7.91538 59.4579 8.4615 59.3546C8.73515 59.3027 9.00467 59.2283 9.26791 59.1339C9.5322 59.0388 9.7899 58.9239 10.0388 58.7921C10.5447 59.6092 11.0861 60.4041 11.6496 61.1827C11.5346 61.1329 11.4145 61.0882 11.2918 61.0473C11.1701 61.0056 11.0443 60.9688 10.9145 60.937C10.6549 60.8734 10.3791 60.83 10.0885 60.8085C9.44431 60.7555 8.78445 60.8177 8.14601 60.9806C7.51132 61.1413 6.89608 61.4044 6.33999 61.7609C6.98896 62.743 8.09246 63.4152 9.41735 63.4928C10.5832 63.5609 11.7099 63.1773 12.6666 62.5222L13.1065 63.0688L13.5582 63.6058C13.7071 63.7861 13.8643 63.9594 14.0184 64.1354C14.1729 64.311 14.3271 64.487 14.4872 64.6575C14.3656 64.6212 14.239 64.5913 14.1114 64.5643C13.9841 64.537 13.8532 64.5149 13.7189 64.4983C13.4505 64.4647 13.1676 64.4536 12.8742 64.4641C12.2082 64.4838 11.5373 64.6246 10.9034 64.863C10.2711 65.1004 9.67056 65.4405 9.14161 65.8695C9.92039 66.8045 11.1318 67.3675 12.4988 67.2941C13.6967 67.2294 14.8024 66.7077 15.7032 65.9298L16.189 66.4103L16.6851 66.8801C16.8489 67.0385 17.0206 67.1882 17.1887 67.3419C17.3574 67.4949 17.5258 67.6485 17.6994 67.7959C17.444 67.7543 17.181 67.7288 16.907 67.7261C16.6331 67.7233 16.3465 67.745 16.0532 67.788C15.3736 67.8845 14.7014 68.1067 14.0808 68.4216C13.46 68.737 12.8837 69.1535 12.3911 69.6532C13.2972 70.5244 14.6062 70.963 15.9977 70.7303C16.6044 70.6287 17.1769 70.4117 17.698 70.1107C18.2199 69.8089 18.6955 69.4168 19.1093 68.9706C19.8002 69.5256 20.5163 70.0485 21.2436 70.5549C20.9816 70.544 20.7145 70.5488 20.4382 70.5785C20.1624 70.6076 19.8762 70.6631 19.5868 70.7385C19.2442 70.8274 18.9079 70.9473 18.5818 71.0945C18.2553 71.2423 17.9399 71.4161 17.6408 71.612C17.0414 72.0054 16.4989 72.4972 16.0518 73.0644C17.0812 73.8551 18.4752 74.1546 19.8729 73.7559C20.4804 73.5817 21.0386 73.2955 21.535 72.9288C22.0331 72.5597 22.4718 72.1068 22.8422 71.6043C23.5712 72.0635 24.3204 72.4895 25.0784 72.899C24.8131 72.9199 24.5457 72.955 24.2707 73.018C23.9967 73.0793 23.7144 73.1694 23.4327 73.2765C22.0713 73.8047 20.8702 74.7961 20.0835 76.0585C20.3708 76.2298 20.6743 76.3739 20.9967 76.4729C21.3181 76.5733 21.6485 76.6452 21.992 76.6672C22.3346 76.6906 22.6803 76.6821 23.0313 76.6237C23.3821 76.5659 23.7328 76.4682 24.0783 76.328C24.6775 76.0803 25.2131 75.7243 25.6763 75.2936C26.1412 74.8595 26.5352 74.3482 26.8544 73.7936C27.6088 74.1555 28.3795 74.4826 29.1558 74.7954C28.8915 74.8482 28.6271 74.9141 28.3574 75.0108C28.0884 75.1056 27.8154 75.2277 27.5445 75.3671C27.2118 75.54 26.8928 75.7433 26.5906 75.9721C26.2879 76.2019 26.0054 76.4499 25.7414 76.7242C25.2144 77.2707 24.769 77.9045 24.4408 78.5937C25.6961 79.1712 27.2134 79.1537 28.5625 78.4082C29.1439 78.0874 29.6485 77.6616 30.0698 77.1697C30.4924 76.6747 30.8341 76.1079 31.0945 75.5068C33.9336 76.4713 36.8864 77.0988 39.872 77.4007L40 76.0098C37.1148 75.757 34.2537 75.1898 31.494 74.2934C31.6439 73.6538 31.7148 73.0011 31.7108 72.3593C31.7078 71.7144 31.6281 71.0861 31.472 70.4954C31.1074 69.1194 30.4126 68.1977 29.5022 67.7555C29.183 68.4488 28.9516 69.1817 28.8435 69.922C28.7898 70.2911 28.765 70.6664 28.7784 71.0313C28.7913 71.3972 28.8392 71.76 28.9253 72.1151C28.9952 72.4089 29.0918 72.6778 29.2077 72.9315C29.2657 73.0581 29.3289 73.1802 29.3968 73.2978C29.4645 73.4159 29.5374 73.5282 29.6157 73.633C28.8574 73.3396 28.1038 73.0318 27.3653 72.6896C27.5835 72.0864 27.7266 71.4605 27.7944 70.8379C27.8637 70.2118 27.8567 69.5917 27.7693 69.0015C27.5676 67.6276 26.9911 66.6576 26.1539 66.1272C25.3857 67.3962 24.9415 68.8733 25.124 70.2836C25.1605 70.5799 25.2266 70.8537 25.3126 71.1166C25.3994 71.3778 25.507 71.6265 25.6388 71.8491C24.8958 71.4609 24.1606 71.0559 23.4446 70.6182C23.7247 70.0581 23.9337 69.4679 24.0694 68.8709C24.2065 68.2714 24.2683 67.6688 24.2478 67.0859C24.2022 65.7341 23.7462 64.7299 22.9899 64.1232C22.5503 64.6962 22.1839 65.3251 21.9295 65.9871C21.8016 66.319 21.7037 66.6565 21.6393 66.9972C21.5746 67.3385 21.5425 67.6843 21.5471 68.0311C21.5514 68.3251 21.5857 68.6028 21.6421 68.8701C21.6989 69.137 21.7791 69.3914 21.8851 69.6243C21.1695 69.1406 20.4642 68.64 19.783 68.1077C20.1179 67.5965 20.3859 67.0491 20.5849 66.4843C20.7845 65.9184 20.9102 65.3414 20.9542 64.7727C21.0561 63.4611 20.7213 62.4374 20.0524 61.7665C19.5663 62.2725 19.1452 62.8408 18.8284 63.4533C18.5113 64.0658 18.3065 64.7148 18.2398 65.3869C18.2124 65.6758 18.2156 65.9533 18.2425 66.2219C18.2562 66.3561 18.2762 66.4875 18.3022 66.6162C18.3283 66.7447 18.3631 66.8674 18.4021 66.9884C17.7261 66.4106 17.0624 65.8171 16.4282 65.1926C17.1883 64.2808 17.7238 63.1835 17.9324 62.0914C18.1721 60.8358 17.9575 59.8074 17.3809 59.0849C16.8576 59.5208 16.3903 60.0242 16.0189 60.5815C15.6488 61.1375 15.3804 61.7433 15.2438 62.3849C15.1859 62.6653 15.1583 62.9389 15.1563 63.2057C15.1554 63.339 15.1611 63.4703 15.1732 63.5993C15.1857 63.7279 15.2068 63.8524 15.2328 63.9752C15.1545 63.8918 15.0743 63.8101 14.9977 63.7252L14.7673 63.4709C14.6144 63.3007 14.458 63.1336 14.31 62.959L13.861 62.4397L13.4233 61.9106C14.2618 61.1144 14.9034 60.111 15.224 59.0754C15.5906 57.8903 15.4937 56.8714 15.0128 56.1098C14.4614 56.4735 13.9568 56.9088 13.5388 57.4065C13.1242 57.9015 12.7985 58.4581 12.5979 59.062C12.511 59.331 12.4537 59.5977 12.4236 59.8597C12.4086 59.9907 12.4005 60.1204 12.3989 60.2486C12.3986 60.3759 12.406 60.5007 12.419 60.6241C11.8568 59.8692 11.3157 59.0977 10.8091 58.3034C11.035 58.1347 11.2496 57.952 11.451 57.7581C11.6535 57.5634 11.8431 57.3573 12.0176 57.1422C12.3677 56.7113 12.6528 56.2479 12.867 55.762C13.3491 54.6596 13.3651 53.6643 12.9818 52.8757C12.4121 53.1659 11.877 53.532 11.4235 53.9649C10.9711 54.3969 10.5956 54.8989 10.3384 55.4582C10.2231 55.7134 10.1376 55.9697 10.0802 56.2241C10.0516 56.3512 10.0294 56.4782 10.015 56.6037C10.0021 56.7284 9.99597 56.8522 9.99634 56.9748C9.50869 56.139 9.04708 55.2874 8.62245 54.417C9.09644 54.1429 9.53589 53.8084 9.92187 53.4317C10.3085 53.0546 10.6358 52.6382 10.8961 52.1917C11.4811 51.1826 11.6033 50.2237 11.3177 49.4203C10.7374 49.6379 10.1841 49.9318 9.70232 50.2987C9.2207 50.6654 8.80193 51.109 8.49634 51.6182C8.21346 52.0942 8.04297 52.5916 7.99792 53.0721C7.59675 52.1627 7.22506 51.2395 6.89509 50.301C7.3841 50.0908 7.84596 49.8182 8.26147 49.4978C8.67692 49.1773 9.04129 48.811 9.34023 48.4085C10.0162 47.5012 10.2327 46.5907 10.0464 45.783C9.46524 45.9288 8.90428 46.1507 8.39989 46.4517C8.14767 46.6022 7.90966 46.7724 7.69018 46.9623C7.58044 47.0572 7.47537 47.1571 7.37554 47.2619C7.27719 47.3663 7.18462 47.4753 7.09771 47.5892C6.93079 47.8081 6.79342 48.0347 6.68429 48.2657C6.57449 48.4969 6.50192 48.7299 6.4517 48.9647C6.14796 47.9906 5.87579 47.0056 5.65225 46.0091C6.64225 45.7159 7.56173 45.1693 8.22362 44.4589C8.97488 43.6606 9.27444 42.8069 9.18802 42.0058C8.61439 42.0828 8.05141 42.2356 7.53372 42.4704C7.27485 42.5877 7.02736 42.7256 6.79545 42.8844C6.56587 43.0428 6.35365 43.2219 6.16113 43.422C5.97248 43.6187 5.80975 43.827 5.67976 44.0421C5.55149 44.2568 5.45141 44.479 5.37872 44.7046C5.33195 44.447 5.27957 44.1905 5.23729 43.9321L5.11117 43.1568L5.00315 42.3787C4.98395 42.2491 4.96961 42.119 4.9549 41.9889L4.91028 41.5986C5.4058 41.5142 5.88865 41.3657 6.33586 41.1622C6.78689 40.9583 7.20407 40.6993 7.56345 40.3918C7.6634 40.3063 7.75566 40.2192 7.84282 40.1305C7.93114 40.0418 8.01275 39.9514 8.08766 39.86C8.23753 39.677 8.36056 39.4893 8.45689 39.2988C8.55561 39.1081 8.63199 38.9142 8.67945 38.7194C8.70345 38.622 8.72081 38.5242 8.73152 38.4264C8.74284 38.3286 8.75097 38.2304 8.75054 38.1325C8.19217 38.1451 7.63534 38.2319 7.11248 38.4022C6.5924 38.5723 6.11047 38.8261 5.69594 39.1688C5.59174 39.2554 5.49253 39.3456 5.40359 39.4388C5.31484 39.5319 5.23298 39.6282 5.15801 39.7272C5.00808 39.925 4.88578 40.1335 4.79063 40.3483L4.73727 39.5444C4.7204 39.2764 4.71295 39.0078 4.70034 38.7395C4.686 38.4712 4.68532 38.2025 4.67929 37.9339L4.6719 37.531L4.67719 37.128C5.65144 37.0771 6.61006 36.7741 7.36422 36.2581C7.46897 36.1869 7.56419 36.1129 7.65891 36.0373C7.75363 35.9615 7.84214 35.8836 7.92443 35.8038C8.08895 35.6442 8.22836 35.4771 8.34253 35.3042C8.4567 35.1314 8.54564 34.953 8.60916 34.7705C8.67508 34.5882 8.72573 34.403 8.74543 34.2147C8.20928 34.1674 7.66667 34.1916 7.14775 34.2993C6.88826 34.3531 6.63474 34.4278 6.39095 34.5246C6.15177 34.6218 5.92343 34.741 5.7093 34.8833C5.26351 35.1794 4.92456 35.5472 4.69277 35.9521L4.73622 35.1267L4.75788 34.7139L4.76872 34.5075C4.77161 34.4386 4.7761 34.3699 4.78343 34.3014L4.85944 33.4782L4.89741 33.0665L4.91637 32.8606L4.94321 32.6557C5.88656 32.7175 6.84518 32.5331 7.6306 32.1188C7.84725 32.0053 8.03473 31.8785 8.20989 31.7436C8.38543 31.6086 8.53795 31.4637 8.66695 31.3106C8.79596 31.1575 8.90145 30.9962 8.98313 30.8283C9.02399 30.7444 9.05883 30.6588 9.08776 30.5717C9.11977 30.4853 9.14715 30.3977 9.16777 30.3087C8.66012 30.2058 8.13807 30.1705 7.62931 30.2177C7.12239 30.2651 6.63881 30.3971 6.1959 30.6226C5.95851 30.7438 5.74623 30.8861 5.55955 31.0452C5.46625 31.1248 5.37934 31.2085 5.2989 31.2958C5.21777 31.383 5.15106 31.4752 5.08668 31.5697L5.11443 31.3596C5.12379 31.2896 5.1377 31.2204 5.14915 31.1507L5.22116 30.7332L5.36512 29.898C5.41768 29.6205 5.48114 29.3451 5.53863 29.0685L5.62695 28.654L5.67108 28.4467C5.68542 28.3775 5.70025 28.3084 5.71872 28.2402C6.61825 28.4084 7.56197 28.3396 8.36487 28.0277C8.58331 27.9425 8.78113 27.8431 8.95777 27.7315C9.13681 27.6205 9.3017 27.4992 9.44142 27.3665C9.58199 27.234 9.70115 27.0911 9.79827 26.9393C9.84684 26.8634 9.88992 26.7853 9.9274 26.7051C9.96476 26.6248 9.99603 26.5423 10.0274 26.4599C9.55485 26.3071 9.05588 26.2159 8.57155 26.2083C8.08563 26.2 7.6058 26.2727 7.15821 26.4399C6.663 26.6258 6.24982 26.9064 5.96873 27.2566C6.0048 27.1165 6.03902 26.9759 6.07662 26.8361L6.19984 26.4199L6.44628 25.5873C6.46746 25.5181 6.48598 25.448 6.50925 25.3796L6.57886 25.174L6.71808 24.7628C6.81182 24.4889 6.90174 24.2136 6.99862 23.9408C7.84251 24.2066 8.75749 24.2476 9.56433 24.036C9.78215 23.9786 9.982 23.9053 10.163 23.8179C10.2083 23.796 10.2524 23.7733 10.2952 23.7497C10.3395 23.7267 10.3828 23.7028 10.4248 23.6782C10.5088 23.6289 10.5881 23.5763 10.6626 23.5206C10.9606 23.2978 11.1813 23.0256 11.3197 22.7154C10.4502 22.3207 9.47909 22.1662 8.58774 22.3883C8.33114 22.452 8.09529 22.5433 7.88208 22.6576C7.66956 22.7722 7.49051 22.9142 7.33049 23.0721L7.48934 22.6564C7.54295 22.518 7.6045 22.383 7.66174 22.2462L8.01109 21.4274L8.09849 21.2227L8.19358 21.0215L8.38377 20.6191C8.51166 20.3514 8.63495 20.0812 8.76666 19.8153C9.54494 20.1679 10.4186 20.3108 11.2167 20.1957C12.0621 20.0654 12.7038 19.687 13.034 19.1238C12.2488 18.655 11.3401 18.4043 10.4672 18.5195C10.2054 18.5538 9.96193 18.6189 9.73925 18.7102C9.52106 18.804 9.32718 18.926 9.15528 19.0681L9.36584 18.6632L9.41852 18.562L9.47496 18.4629L9.58784 18.2646L10.0394 17.4713L10.1524 17.273L10.2726 17.0791L10.5132 16.6912L10.7538 16.3033C10.8354 16.1749 10.9109 16.0425 10.9983 15.9179C11.7028 16.3454 12.5241 16.5811 13.302 16.557C14.1195 16.524 14.7713 16.2311 15.1474 15.7298C14.4513 15.2009 13.614 14.8666 12.7722 14.8824C12.5085 14.8871 12.26 14.9257 12.0303 14.9936C11.8064 15.0656 11.6016 15.1671 11.4193 15.2932C11.7591 14.7697 12.1388 14.2746 12.5038 13.7687C12.5502 13.706 12.5949 13.642 12.6426 13.5804L12.7875 13.3967L13.0773 13.0293L13.367 12.6619L13.5119 12.4782C13.5602 12.4169 13.6124 12.3589 13.6624 12.2991C14.2868 12.7892 15.0463 13.1074 15.7938 13.168C16.5725 13.2237 17.2239 13.0144 17.6354 12.5774C17.0314 12.0025 16.2723 11.5974 15.4725 11.5227C15.2085 11.498 14.9559 11.5099 14.7216 11.5562C14.4917 11.6065 14.2785 11.6898 14.0865 11.8008C14.4937 11.3059 14.9377 10.8438 15.3685 10.3697C15.475 10.2499 15.5891 10.1375 15.7017 10.0235L16.0396 9.68197L16.3776 9.34035C16.4342 9.2838 16.4894 9.22559 16.5474 9.17041L16.7227 9.00608C17.2623 9.54604 17.9527 9.93562 18.6608 10.0737C19.3913 10.2089 20.0323 10.0798 20.4692 9.70864C19.9585 9.10133 19.2826 8.63846 18.534 8.4829C18.2722 8.42858 18.0175 8.41383 17.7796 8.43865C17.545 8.46717 17.3247 8.53241 17.1244 8.6292C17.597 8.17073 18.1031 7.74954 18.5977 7.31514C18.72 7.20488 18.8511 7.10525 18.9784 7.00099L19.3627 6.6911C19.6193 6.48498 19.8725 6.27429 20.1395 6.08169C20.5913 6.65887 21.2065 7.10853 21.8677 7.31625C22.0376 7.36952 22.2028 7.40421 22.3617 7.42131C22.5198 7.43724 22.678 7.44471 22.8253 7.43082C23.1217 7.40526 23.3885 7.31378 23.6161 7.1626C23.1984 6.53603 22.6089 6.02835 21.9191 5.80211C21.6606 5.71772 21.4042 5.6755 21.1634 5.68032C20.9245 5.68779 20.697 5.73649 20.4885 5.82119C21.0252 5.40672 21.5907 5.033 22.1474 4.64638L22.252 4.57427L22.3591 4.50588L22.5737 4.36964L23.0028 4.09715L23.4321 3.82462C23.5029 3.77801 23.5767 3.73634 23.6498 3.69362L23.8694 3.56559C24.232 4.16747 24.7678 4.66564 25.3755 4.93479C25.5297 5.00294 25.6815 5.05312 25.8293 5.08603C25.9764 5.11763 26.1248 5.14153 26.2652 5.14406C26.5474 5.15147 26.8089 5.09356 27.0399 4.97553C26.7131 4.34229 26.2115 3.80264 25.5866 3.51633C25.4576 3.45713 25.3285 3.41102 25.2003 3.37731C25.0722 3.34379 24.9443 3.32126 24.822 3.31688C24.5758 3.30527 24.3384 3.34145 24.1194 3.41978L24.6573 3.10625L24.7917 3.02785L24.9291 2.95464L25.2037 2.80821L25.7531 2.51536C25.9364 2.41801 26.1182 2.31757 26.3064 2.23004L26.302 2.24757C26.7026 2.43918 27.1132 2.55296 27.5133 2.5758C27.6134 2.58148 27.7128 2.58147 27.8114 2.57561C27.9102 2.5703 28.0103 2.56376 28.1082 2.54857C28.3044 2.51943 28.4963 2.46591 28.682 2.38591C28.8677 2.30591 29.0387 2.20324 29.1952 2.08052C29.3537 1.96274 29.4991 1.82823 29.6291 1.67421C29.8892 1.36716 30.0913 0.989864 30.2307 0.565956C29.8567 0.339959 29.4501 0.197295 29.0356 0.150379C28.8285 0.127353 28.6189 0.126241 28.4125 0.153959C28.2088 0.186861 28.0063 0.244948 27.8096 0.329582Z" fill="url(#paint0_linear_34160_291)"/>
</g>
<defs>
<linearGradient id="paint0_linear_34160_291" x1="0.000246194" y1="39.5" x2="40.0002" y2="39.5" gradientUnits="userSpaceOnUse">
<stop offset="1" stop-color="white"/>
</linearGradient>
<clipPath id="clip0_34160_291">
<rect width="40" height="79" fill="white"/>
</clipPath>
</defs>
</svg>
