<svg width="40" height="79" viewBox="0 0 40 79" fill="none" xmlns="http://www.w3.org/2000/svg">
<g clip-path="url(#clip0_34160_323)">
<path d="M12.1904 0.329582C12.3831 0.412487 12.5612 0.517064 12.7231 0.63997C12.8039 0.701701 12.8813 0.766705 12.9533 0.838313C13.0244 0.911711 13.0914 0.989246 13.1539 1.07042C13.4041 1.39525 13.5834 1.7786 13.6842 2.19534C13.7775 2.24028 13.8728 2.28109 13.9645 2.32936L14.2406 2.47184L14.7929 2.75679L15.0692 2.89933C15.1614 2.94649 15.2536 2.99383 15.3431 3.04612L15.8843 3.352C15.712 3.2023 15.5644 3.01619 15.4473 2.79704C15.3896 2.68592 15.3357 2.57351 15.2917 2.4506C15.2475 2.32813 15.2117 2.19769 15.1853 2.05979C15.0551 1.37735 15.1749 0.637497 15.4935 0C15.7573 0.141488 15.9901 0.342856 16.1729 0.594102C16.2636 0.720959 16.3447 0.855161 16.4059 1.00986C16.4679 1.16326 16.5153 1.32771 16.546 1.50204C16.6673 2.188 16.5055 2.89834 16.1628 3.50941L16.3835 3.63411C16.457 3.67584 16.5312 3.71621 16.6024 3.76177L17.034 4.02771L17.4656 4.29365L17.6815 4.42667L17.7894 4.49316L17.8947 4.56366C18.4548 4.94219 19.0251 5.30666 19.5661 5.71316C19.426 5.53944 19.3122 5.33678 19.2289 5.10825C19.1434 4.88287 19.085 4.63632 19.0645 4.36408C19.0083 3.63109 19.2208 2.86735 19.6304 2.23529C19.8916 2.41616 20.113 2.65623 20.2759 2.94266C20.3565 3.08705 20.4259 3.23811 20.4722 3.40805C20.5193 3.57682 20.5498 3.75535 20.5614 3.94228C20.6072 4.66842 20.3589 5.3853 19.9354 5.98101C20.2046 6.16978 20.4602 6.37658 20.7192 6.57906L21.1072 6.88339C21.2356 6.98598 21.3683 7.08334 21.4919 7.19186C21.9914 7.61947 22.5037 8.03288 22.9822 8.48482C22.8723 8.29289 22.7898 8.07764 22.7379 7.8422C22.6825 7.61083 22.6559 7.36119 22.6653 7.09309C22.6924 6.31824 23.0037 5.54241 23.5065 4.92837C24.0112 5.37314 24.3301 6.0349 24.2843 6.8308C24.2476 7.58836 23.9097 8.30117 23.4046 8.87057L23.5822 9.03274C23.6411 9.08712 23.6969 9.14466 23.7545 9.20047L24.0973 9.53782L24.4402 9.87525C24.5542 9.98797 24.6704 10.0987 24.7786 10.2171C25.216 10.6862 25.6678 11.1427 26.0822 11.633C26.0015 11.427 25.9489 11.2024 25.9272 10.9624C25.9008 10.7266 25.9045 10.4759 25.9432 10.2121C26.0619 9.40542 26.4768 8.63038 27.0734 8.04751C27.5508 8.57309 27.8071 9.30516 27.6664 10.1316C27.541 10.9109 27.1116 11.6083 26.5257 12.1401C26.5767 12.1994 26.6298 12.2569 26.6791 12.3176L26.8268 12.4999L27.1223 12.8643L27.4179 13.2289L27.5657 13.4112C27.6148 13.4721 27.6601 13.5358 27.7076 13.5981L28.2711 14.349L28.412 14.5367L28.4824 14.6307L28.5493 14.7272L28.8168 15.1131C28.766 14.8971 28.7441 14.6668 28.7523 14.4257C28.7552 14.1885 28.789 13.9399 28.8564 13.6831C29.0742 12.8557 29.5961 12.0953 30.2855 11.5573C30.7236 12.1633 30.906 12.9596 30.663 13.8051C30.4435 14.5955 29.9216 15.2654 29.2571 15.748C29.3465 15.8721 29.4242 16.0039 29.5078 16.1318L29.7548 16.5181L30.0017 16.9046L30.1252 17.0978L30.2415 17.2953L30.7061 18.0865L30.8222 18.2843C30.8614 18.35 30.8997 18.4162 30.935 18.4841L31.1521 18.8882C31.1306 18.6658 31.1399 18.4321 31.176 18.1933C31.208 17.9567 31.2709 17.7126 31.3668 17.4642C31.6902 16.6288 32.321 15.8976 33.1003 15.4185C33.4861 16.1034 33.5841 16.9559 33.2321 17.8074C32.914 18.5973 32.3 19.2267 31.5604 19.6483C31.6966 19.914 31.8241 20.184 31.9565 20.4516L32.1533 20.854L32.2517 21.0552L32.3426 21.2599L32.7053 22.0793C32.7649 22.2162 32.8281 22.3517 32.8848 22.4899L33.0504 22.9063C33.0551 22.7937 33.0669 22.6794 33.0862 22.5639C33.105 22.4486 33.1336 22.331 33.1628 22.2154C33.2243 21.9829 33.3161 21.7466 33.4397 21.5098C33.8738 20.6801 34.6137 19.9938 35.4783 19.5877C35.6395 19.9668 35.7181 20.3832 35.7016 20.808C35.6975 20.9143 35.6875 21.021 35.6714 21.1278C35.6633 21.1813 35.6537 21.2348 35.6426 21.2882C35.6299 21.3422 35.6158 21.3962 35.6001 21.4502C35.5372 21.666 35.4496 21.8803 35.336 22.0902C34.916 22.8669 34.2118 23.4427 33.4024 23.7917C33.5037 24.0653 33.5981 24.3414 33.6963 24.6163L33.8422 25.0291L33.9151 25.2355C33.9399 25.3041 33.9593 25.3746 33.9817 25.444L34.2415 26.2804L34.3713 26.6987C34.4119 26.839 34.4478 26.9804 34.4862 27.1213C34.5722 26.6704 34.7422 26.2163 35.0453 25.77C35.3194 25.3649 35.6685 25.0068 36.0667 24.7093C36.4665 24.4113 36.9071 24.1769 37.3797 24.0172C37.4153 24.119 37.4395 24.2244 37.4584 24.331C37.4776 24.4376 37.4909 24.5454 37.4983 24.654C37.5131 24.8713 37.5043 25.0919 37.4705 25.3118C37.436 25.5319 37.3802 25.7503 37.2918 25.9663C37.201 26.1829 37.0846 26.395 36.9418 26.5993C36.4179 27.3493 35.6276 27.8588 34.7554 28.1241C34.7749 28.1928 34.7909 28.2622 34.8063 28.3319L34.8537 28.5405L34.9485 28.9577C35.0103 29.2362 35.0777 29.5135 35.135 29.793L35.2918 30.6345L35.3701 31.0554C35.3828 31.1256 35.3972 31.1955 35.4084 31.266L35.4393 31.4778C35.4731 31.3679 35.5187 31.2573 35.5624 31.1486C35.6075 31.0397 35.6596 30.9312 35.7189 30.8236C35.8375 30.6083 35.9847 30.3961 36.1615 30.19C36.4926 29.8032 36.8995 29.4727 37.3425 29.2121C37.7836 28.952 38.2711 28.7598 38.7773 28.6503C38.8002 28.7605 38.8178 28.8718 38.8278 28.984C38.8348 29.0969 38.8356 29.2104 38.8302 29.3241C38.8194 29.5515 38.7837 29.7793 38.7224 30.0035C38.6611 30.2276 38.5741 30.4481 38.4609 30.6609C38.3474 30.8736 38.1967 31.0804 38.0258 31.2747C37.3981 31.9844 36.5273 32.4154 35.6012 32.5875L35.6311 32.7943L35.6531 33.0021L35.6971 33.4177L35.7851 34.249L35.7961 34.353L35.8029 34.4572L35.8167 34.6658L35.8443 35.0829L35.8993 35.9173C36.0821 35.494 36.3732 35.0851 36.7755 34.7121C36.9703 34.5314 37.1822 34.3677 37.4065 34.2218C37.6263 34.0762 37.8598 33.9485 38.1031 33.8396C38.5898 33.6219 39.116 33.4798 39.6514 33.4255C39.6709 33.6594 39.6704 33.8951 39.634 34.129C39.5953 34.3631 39.5307 34.5949 39.4401 34.8197C39.3496 35.0445 39.233 35.2625 39.0903 35.4693C39.0189 35.5727 38.941 35.6734 38.8565 35.7708C38.772 35.8681 38.6752 35.9624 38.5752 36.0528C37.8455 36.7082 36.9018 37.0503 35.9319 37.1216L35.9426 37.5294L35.9407 37.9373C35.9382 38.2092 35.9412 38.4813 35.9304 38.7531C35.9214 39.0249 35.9171 39.297 35.9041 39.5687L35.861 40.3837C35.9808 40.183 36.1268 39.9889 36.2986 39.8039C36.3845 39.7114 36.4769 39.6211 36.5757 39.5335C36.6743 39.4458 36.7762 39.3606 36.8864 39.2783C37.3243 38.9501 37.8261 38.6989 38.3557 38.5297C38.8826 38.3607 39.4415 38.2742 40 38.2795C39.9969 38.4015 39.989 38.5234 39.9711 38.6444C39.9526 38.7655 39.9274 38.8858 39.8957 39.0047C39.8317 39.2426 39.7437 39.4751 39.6252 39.6972C39.5043 39.9193 39.3574 40.1313 39.1849 40.3286C39.0987 40.4272 39.006 40.5222 38.907 40.613C38.8067 40.7038 38.6986 40.7902 38.5851 40.8722C38.1761 41.1667 37.7209 41.3755 37.2428 41.5053C36.7608 41.6349 36.2575 41.6857 35.7559 41.6674L35.7159 42.0639C35.7027 42.196 35.69 42.3283 35.6723 42.4599L35.5734 43.2509L35.456 44.0394C35.4169 44.3022 35.3671 44.5634 35.3231 44.8255C35.47 44.6388 35.6414 44.4615 35.8372 44.296C36.031 44.13 36.245 43.9751 36.4856 43.8348C36.7313 43.6911 36.9915 43.5691 37.2599 43.4686C37.526 43.3677 37.802 43.2886 38.0838 43.2316C38.6473 43.1178 39.2337 43.0924 39.8083 43.162C39.6764 44.1719 39.0553 45.11 38.0508 45.6796C37.1411 46.1892 36.0866 46.3218 35.0607 46.1673C34.8472 47.1826 34.584 48.1872 34.2888 49.182C34.4595 49.0126 34.6581 48.8566 34.87 48.712C35.0829 48.5677 35.3184 48.4376 35.5763 48.3242C35.7115 48.2647 35.8498 48.2112 35.9901 48.1635C36.1287 48.1153 36.2699 48.0731 36.413 48.0367C36.6992 47.9639 36.993 47.9146 37.29 47.8886C37.8839 47.8369 38.4906 47.8786 39.0737 48.0169C38.8142 49.0434 38.0712 49.9414 36.9674 50.4091C36.4744 50.6171 35.95 50.7238 35.4244 50.7444C34.8989 50.7651 34.3673 50.6984 33.852 50.5604C33.529 51.5196 33.1636 52.4643 32.7677 53.396C33.1602 53.101 33.6183 52.855 34.1646 52.6871C35.3226 52.3226 36.6287 52.359 37.7931 52.7771C37.4043 53.8045 36.539 54.6452 35.3464 54.9951C34.8195 55.151 34.2693 55.1982 33.7301 55.1583C33.19 55.1182 32.6551 54.9883 32.1443 54.7874C31.7235 55.6799 31.2649 56.5543 30.7794 57.4133C30.8863 57.3507 30.998 57.2924 31.1144 57.2383C31.2292 57.1833 31.3479 57.1323 31.4717 57.0862C31.719 56.9938 31.9847 56.9198 32.268 56.8663C32.8839 56.746 33.5241 56.7335 34.1567 56.8215C34.7879 56.909 35.4063 57.0949 35.981 57.3783C35.4627 58.3911 34.4754 59.1562 33.2089 59.3754C32.6525 59.4736 32.0846 59.4579 31.5385 59.3546C31.2649 59.3027 30.9953 59.2283 30.7321 59.1339C30.4678 59.0388 30.2101 58.9239 29.9612 58.7921C29.4553 59.6092 28.9139 60.4041 28.3504 61.1827C28.4654 61.1329 28.5855 61.0882 28.7082 61.0473C28.8299 61.0056 28.9557 60.9688 29.0855 60.937C29.3451 60.8734 29.6209 60.83 29.9115 60.8085C30.5557 60.7555 31.2156 60.8177 31.854 60.9806C32.4887 61.1413 33.1039 61.4044 33.66 61.7609C33.011 62.743 31.9075 63.4152 30.5826 63.4928C29.4168 63.5609 28.2901 63.1773 27.3334 62.5222L26.8935 63.0688L26.4418 63.6058C26.2929 63.7861 26.1357 63.9594 25.9816 64.1354C25.8271 64.311 25.6729 64.487 25.5128 64.6575C25.6344 64.6212 25.761 64.5913 25.8886 64.5643C26.0159 64.537 26.1468 64.5149 26.2811 64.4983C26.5495 64.4647 26.8324 64.4536 27.1258 64.4641C27.7918 64.4838 28.4627 64.6246 29.0966 64.863C29.7289 65.1004 30.3294 65.4405 30.8584 65.8695C30.0796 66.8045 28.8682 67.3675 27.5012 67.2941C26.3033 67.2294 25.1976 66.7077 24.2968 65.9298L23.811 66.4103L23.3149 66.8801C23.1511 67.0385 22.9794 67.1882 22.8113 67.3419C22.6426 67.4949 22.4742 67.6485 22.3006 67.7959C22.556 67.7543 22.819 67.7288 23.093 67.7261C23.3669 67.7233 23.6535 67.745 23.9468 67.788C24.6264 67.8845 25.2986 68.1067 25.9192 68.4216C26.54 68.737 27.1163 69.1535 27.6089 69.6532C26.7028 70.5244 25.3938 70.963 24.0023 70.7303C23.3956 70.6287 22.8231 70.4117 22.302 70.1107C21.7801 69.8089 21.3045 69.4168 20.8907 68.9706C20.1998 69.5256 19.4837 70.0485 18.7564 70.5549C19.0184 70.544 19.2855 70.5488 19.5618 70.5785C19.8376 70.6076 20.1238 70.6631 20.4132 70.7385C20.7558 70.8274 21.0921 70.9473 21.4182 71.0945C21.7447 71.2423 22.0601 71.4161 22.3592 71.612C22.9586 72.0054 23.5011 72.4972 23.9482 73.0644C22.9188 73.8551 21.5248 74.1546 20.1271 73.7559C19.5196 73.5817 18.9614 73.2955 18.465 72.9288C17.9669 72.5597 17.5282 72.1068 17.1578 71.6043C16.4288 72.0635 15.6796 72.4895 14.9216 72.899C15.1869 72.9199 15.4543 72.955 15.7293 73.018C16.0033 73.0792 16.2856 73.1694 16.5673 73.2765C17.9287 73.8046 19.1298 74.7961 19.9165 76.0585C19.6292 76.2298 19.3257 76.3739 19.0033 76.4729C18.6819 76.5733 18.3515 76.6452 18.008 76.6672C17.6654 76.6906 17.3197 76.6821 16.9687 76.6237C16.6179 76.5659 16.2672 76.4682 15.9217 76.328C15.3225 76.0803 14.7869 75.7243 14.3237 75.2936C13.8588 74.8595 13.4648 74.3482 13.1456 73.7936C12.3912 74.1555 11.6205 74.4826 10.8442 74.7954C11.1085 74.8482 11.3729 74.9141 11.6426 75.0108C11.9116 75.1056 12.1846 75.2277 12.4555 75.3671C12.7882 75.54 13.1072 75.7433 13.4094 75.9721C13.7121 76.2019 13.9946 76.4499 14.2586 76.7242C14.7856 77.2707 15.231 77.9045 15.5592 78.5937C14.3039 79.1712 12.7866 79.1537 11.4375 78.4082C10.8561 78.0874 10.3515 77.6616 9.93023 77.1697C9.50764 76.6747 9.16592 76.1079 8.90551 75.5068C6.0664 76.4713 3.11362 77.0988 0.128021 77.4007L0 76.0098C2.88521 75.757 5.74629 75.1898 8.506 74.2934C8.35613 73.6538 8.28523 73.0011 8.28917 72.3593C8.29218 71.7144 8.37189 71.0861 8.52804 70.4954C8.89265 69.1194 9.58741 68.1977 10.4978 67.7555C10.817 68.4488 11.0484 69.1817 11.1565 69.922C11.2102 70.2911 11.235 70.6664 11.2216 71.0313C11.2087 71.3972 11.1608 71.76 11.0747 72.1151C11.0048 72.4089 10.9082 72.6778 10.7923 72.9315C10.7343 73.0581 10.6711 73.1802 10.6032 73.2978C10.5355 73.4159 10.4626 73.5282 10.3843 73.633C11.1426 73.3396 11.8962 73.0318 12.6347 72.6896C12.4165 72.0864 12.2734 71.4605 12.2056 70.8379C12.1363 70.2118 12.1433 69.5917 12.2307 69.0015C12.4324 67.6276 13.0089 66.6575 13.8461 66.1272C14.6143 67.3962 15.0585 68.8733 14.876 70.2836C14.8395 70.5799 14.7734 70.8537 14.6874 71.1166C14.6006 71.3778 14.493 71.6265 14.3612 71.8491C15.1042 71.4609 15.8394 71.0559 16.5554 70.6182C16.2753 70.0581 16.0662 69.4679 15.9306 68.8709C15.7935 68.2714 15.7317 67.6688 15.7522 67.0859C15.7978 65.7341 16.2538 64.7299 17.0101 64.1232C17.4497 64.6962 17.8161 65.3251 18.0705 65.9871C18.1984 66.319 18.2963 66.6565 18.3607 66.9972C18.4254 67.3385 18.4575 67.6843 18.4529 68.0311C18.4486 68.3251 18.4143 68.6028 18.3579 68.8701C18.3011 69.137 18.2209 69.3914 18.1149 69.6243C18.8305 69.1406 19.5358 68.64 20.217 68.1077C19.8821 67.5965 19.6141 67.0491 19.4151 66.4843C19.2155 65.9184 19.0898 65.3414 19.0458 64.7727C18.9439 63.4611 19.2787 62.4374 19.9476 61.7665C20.4337 62.2725 20.8548 62.8408 21.1716 63.4533C21.4887 64.0658 21.6935 64.7148 21.7602 65.3869C21.7876 65.6758 21.7844 65.9533 21.7575 66.2219C21.7438 66.356 21.7238 66.4875 21.6978 66.6162C21.6717 66.7447 21.6369 66.8674 21.5979 66.9884C22.2739 66.4106 22.9376 65.8171 23.5718 65.1926C22.8117 64.2808 22.2762 63.1835 22.0676 62.0914C21.8279 60.8358 22.0425 59.8074 22.6191 59.0849C23.1424 59.5208 23.6097 60.0242 23.9811 60.5815C24.3512 61.1375 24.6196 61.7433 24.7562 62.3849C24.8141 62.6653 24.8417 62.9389 24.8437 63.2057C24.8446 63.339 24.8389 63.4703 24.8268 63.5993C24.8143 63.7279 24.7932 63.8524 24.7672 63.9752C24.8455 63.8918 24.9257 63.8101 25.0023 63.7252L25.2327 63.4709C25.3856 63.3007 25.542 63.1336 25.69 62.959L26.139 62.4397L26.5767 61.9106C25.7382 61.1144 25.0966 60.111 24.776 59.0754C24.4094 57.8903 24.5063 56.8714 24.9872 56.1098C25.5386 56.4735 26.0432 56.9088 26.4612 57.4065C26.8758 57.9015 27.2015 58.4581 27.4021 59.062C27.489 59.331 27.5463 59.5977 27.5764 59.8597C27.5914 59.9907 27.5995 60.1204 27.6011 60.2486C27.6014 60.3759 27.594 60.5007 27.581 60.6241C28.1432 59.8692 28.6843 59.0977 29.1909 58.3034C28.965 58.1347 28.7504 57.952 28.549 57.7581C28.3465 57.5634 28.1569 57.3573 27.9824 57.1422C27.6323 56.7113 27.3472 56.2479 27.133 55.762C26.6509 54.6596 26.6349 53.6643 27.0182 52.8757C27.5879 53.1659 28.123 53.532 28.5765 53.9649C29.0289 54.3969 29.4044 54.899 29.6616 55.4582C29.7769 55.7134 29.8624 55.9697 29.9198 56.2241C29.9484 56.3512 29.9706 56.4782 29.985 56.6037C29.9979 56.7284 30.004 56.8522 30.0037 56.9748C30.4913 56.139 30.9529 55.2874 31.3775 54.417C30.9036 54.1429 30.4641 53.8084 30.0781 53.4317C29.6915 53.0546 29.3642 52.6382 29.1039 52.1917C28.5189 51.1826 28.3967 50.2237 28.6823 49.4203C29.2626 49.6379 29.8159 49.9318 30.2977 50.2987C30.7793 50.6654 31.1981 51.109 31.5037 51.6182C31.7865 52.0942 31.957 52.5916 32.0021 53.0721C32.4033 52.1627 32.7749 51.2395 33.1049 50.301C32.6159 50.0908 32.154 49.8182 31.7385 49.4978C31.3231 49.1773 30.9587 48.811 30.6598 48.4085C29.9838 47.5012 29.7673 46.5907 29.9536 45.783C30.5348 45.9288 31.0957 46.1507 31.6001 46.4517C31.8523 46.6022 32.0903 46.7724 32.3098 46.9623C32.4196 47.0572 32.5246 47.1571 32.6245 47.2619C32.7228 47.3663 32.8154 47.4753 32.9023 47.5892C33.0692 47.8081 33.2066 48.0347 33.3157 48.2657C33.4255 48.4969 33.4981 48.7299 33.5483 48.9647C33.852 47.9906 34.1242 47.0056 34.3478 46.0091C33.3577 45.7159 32.4383 45.1693 31.7764 44.4589C31.0251 43.6606 30.7256 42.8069 30.812 42.0058C31.3856 42.0828 31.9486 42.2356 32.4663 42.4704C32.7252 42.5877 32.9726 42.7256 33.2046 42.8844C33.4341 43.0428 33.6463 43.2219 33.8389 43.422C34.0275 43.6187 34.1903 43.827 34.3202 44.0421C34.4485 44.2568 34.5486 44.479 34.6213 44.7046C34.6681 44.447 34.7204 44.1905 34.7627 43.9321L34.8888 43.1568L34.9968 42.3787C35.016 42.2491 35.0304 42.119 35.0451 41.9889L35.0897 41.5986C34.5942 41.5142 34.1113 41.3657 33.6641 41.1622C33.2131 40.9583 32.7959 40.6993 32.4366 40.3918C32.3366 40.3063 32.2443 40.2192 32.1572 40.1305C32.0689 40.0418 31.9872 39.9514 31.9123 39.86C31.7625 39.677 31.6394 39.4893 31.5431 39.2988C31.4444 39.1081 31.368 38.9142 31.3206 38.7194C31.2965 38.622 31.2792 38.5242 31.2685 38.4264C31.2572 38.3286 31.249 38.2304 31.2495 38.1325C31.8078 38.1451 32.3647 38.2319 32.8875 38.4022C33.4076 38.5723 33.8895 38.8261 34.3041 39.1688C34.4083 39.2554 34.5075 39.3456 34.5964 39.4388C34.6852 39.5319 34.767 39.6282 34.842 39.7272C34.9919 39.925 35.1142 40.1335 35.2094 40.3483L35.2627 39.5444C35.2796 39.2764 35.287 39.0078 35.2997 38.7395C35.314 38.4712 35.3147 38.2025 35.3207 37.9339L35.3281 37.531L35.3228 37.128C34.3486 37.0771 33.3899 36.7741 32.6358 36.2581C32.531 36.1869 32.4358 36.1129 32.3411 36.0373C32.2464 35.9615 32.1579 35.8836 32.0756 35.8038C31.911 35.6442 31.7716 35.4771 31.6575 35.3042C31.5433 35.1314 31.4544 34.953 31.3908 34.7705C31.3249 34.5882 31.2743 34.403 31.2546 34.2147C31.7907 34.1674 32.3333 34.1916 32.8522 34.2993C33.1117 34.3531 33.3653 34.4278 33.609 34.5246C33.8482 34.6218 34.0766 34.741 34.2907 34.8833C34.7365 35.1794 35.0754 35.5472 35.3072 35.9521L35.2638 35.1267L35.2421 34.7139L35.2313 34.5075C35.2284 34.4386 35.2239 34.3699 35.2166 34.3014L35.1406 33.4782L35.1026 33.0665L35.0836 32.8606L35.0568 32.6557C34.1134 32.7175 33.1548 32.5331 32.3694 32.1188C32.1528 32.0053 31.9653 31.8785 31.7901 31.7436C31.6146 31.6086 31.4621 31.4637 31.333 31.3106C31.204 31.1575 31.0985 30.9962 31.0169 30.8283C30.976 30.7444 30.9412 30.6588 30.9122 30.5717C30.8802 30.4853 30.8528 30.3977 30.8322 30.3087C31.3399 30.2058 31.8619 30.1705 32.3707 30.2177C32.8776 30.2651 33.3612 30.3971 33.8041 30.6226C34.0415 30.7438 34.2538 30.8861 34.4404 31.0452C34.5338 31.1248 34.6207 31.2085 34.7011 31.2958C34.7822 31.383 34.8489 31.4752 34.9133 31.5697L34.8856 31.3596C34.8762 31.2896 34.8623 31.2204 34.8509 31.1507L34.7788 30.7332L34.6349 29.898C34.5823 29.6205 34.5189 29.3451 34.4614 29.0685L34.3731 28.654L34.3289 28.4467C34.3146 28.3775 34.2997 28.3084 34.2813 28.2402C33.3818 28.4084 32.438 28.3396 31.6351 28.0277C31.4167 27.9425 31.2189 27.8431 31.0422 27.7315C30.8632 27.6205 30.6983 27.4992 30.5586 27.3665C30.418 27.234 30.2988 27.0911 30.2017 26.9393C30.1532 26.8634 30.1101 26.7853 30.0726 26.7051C30.0352 26.6248 30.004 26.5423 29.9726 26.4599C30.4451 26.3071 30.9441 26.2159 31.4284 26.2083C31.9144 26.2 32.3942 26.2727 32.8418 26.4399C33.337 26.6258 33.7502 26.9064 34.0313 27.2566C33.9952 27.1165 33.961 26.9759 33.9234 26.8361L33.8002 26.4199L33.5537 25.5873C33.5325 25.5181 33.514 25.448 33.4908 25.3796L33.4211 25.174L33.2819 24.7628C33.1882 24.4889 33.0983 24.2136 33.0014 23.9408C32.1575 24.2066 31.2425 24.2476 30.4357 24.036C30.2179 23.9786 30.018 23.9053 29.837 23.8179C29.7917 23.796 29.7476 23.7733 29.7048 23.7497C29.6605 23.7267 29.6172 23.7028 29.5752 23.6782C29.4912 23.6289 29.4119 23.5763 29.3374 23.5206C29.0394 23.2978 28.8187 23.0256 28.6803 22.7154C29.5498 22.3207 30.5209 22.1662 31.4123 22.3883C31.6689 22.452 31.9047 22.5433 32.1179 22.6576C32.3304 22.7722 32.5095 22.9142 32.6695 23.0721L32.5107 22.6564C32.457 22.518 32.3955 22.383 32.3383 22.2462L31.9889 21.4274L31.9015 21.2227L31.8064 21.0215L31.6162 20.6191C31.4883 20.3514 31.3651 20.0812 31.2333 19.8153C30.4551 20.1679 29.5814 20.3108 28.7833 20.1957C27.9379 20.0654 27.2962 19.687 26.966 19.1238C27.7512 18.655 28.6599 18.4043 29.5328 18.5195C29.7946 18.5538 30.0381 18.6189 30.2607 18.7102C30.4789 18.804 30.6728 18.926 30.8447 19.0681L30.6342 18.6632L30.5815 18.562L30.525 18.4629L30.4122 18.2646L29.9606 17.4713L29.8476 17.273L29.7274 17.0791L29.4868 16.6912L29.2462 16.3033C29.1646 16.1749 29.0891 16.0425 29.0017 15.9179C28.2972 16.3454 27.4759 16.5811 26.698 16.557C25.8805 16.524 25.2287 16.2311 24.8526 15.7298C25.5487 15.2009 26.386 14.8666 27.2278 14.8824C27.4915 14.8871 27.74 14.9257 27.9697 14.9936C28.1936 15.0656 28.3984 15.1671 28.5807 15.2932C28.2409 14.7697 27.8612 14.2746 27.4962 13.7687C27.4498 13.706 27.4051 13.642 27.3574 13.5804L27.2125 13.3967L26.9227 13.0293L26.633 12.6619L26.4881 12.4782C26.4398 12.4169 26.3876 12.3589 26.3376 12.2991C25.7132 12.7892 24.9537 13.1074 24.2062 13.168C23.4275 13.2237 22.7761 13.0144 22.3646 12.5774C22.9686 12.0025 23.7277 11.5974 24.5275 11.5227C24.7915 11.498 25.0441 11.5099 25.2784 11.5562C25.5083 11.6065 25.7215 11.6898 25.9135 11.8008C25.5063 11.3059 25.0623 10.8438 24.6315 10.3697C24.525 10.2499 24.4109 10.1375 24.2983 10.0235L23.9604 9.68197L23.6224 9.34035C23.5658 9.2838 23.5106 9.22559 23.4526 9.17041L23.2773 9.00608C22.7377 9.54604 22.0473 9.93562 21.3392 10.0737C20.6087 10.2089 19.9677 10.0798 19.5308 9.70864C20.0415 9.10133 20.7174 8.63846 21.466 8.4829C21.7278 8.42858 21.9825 8.41383 22.2204 8.43865C22.455 8.46717 22.6753 8.53241 22.8756 8.6292C22.403 8.17073 21.8969 7.74954 21.4023 7.31514C21.28 7.20488 21.1489 7.10525 21.0216 7.00099L20.6373 6.6911C20.3807 6.48497 20.1275 6.27429 19.8605 6.08169C19.4087 6.65887 18.7935 7.10853 18.1323 7.31625C17.9624 7.36952 17.7972 7.40421 17.6383 7.42131C17.4802 7.43724 17.322 7.44471 17.1747 7.43082C16.8783 7.40526 16.6115 7.31378 16.3839 7.1626C16.8016 6.53603 17.3911 6.02835 18.0809 5.80211C18.3394 5.71772 18.5958 5.6755 18.8366 5.68032C19.0755 5.68779 19.303 5.73649 19.5115 5.82119C18.9748 5.40672 18.4093 5.033 17.8526 4.64638L17.748 4.57427L17.6409 4.50588L17.4263 4.36964L16.9972 4.09715L16.5679 3.82462C16.4971 3.77801 16.4233 3.73634 16.3502 3.69362L16.1306 3.56559C15.768 4.16747 15.2322 4.66564 14.6245 4.93479C14.4703 5.00294 14.3185 5.05312 14.1707 5.08603C14.0236 5.11763 13.8752 5.14153 13.7348 5.14406C13.4526 5.15146 13.1911 5.09355 12.9601 4.97553C13.2869 4.34229 13.7885 3.80264 14.4134 3.51633C14.5424 3.45713 14.6715 3.41102 14.7997 3.37731C14.9278 3.34379 15.0557 3.32126 15.178 3.31688C15.4242 3.30527 15.6616 3.34145 15.8806 3.41978L15.3427 3.10625L15.2083 3.02785L15.0709 2.95464L14.7963 2.80821L14.2469 2.51536C14.0636 2.41801 13.8818 2.31757 13.6936 2.23004L13.698 2.24757C13.2974 2.43918 12.8868 2.55296 12.4867 2.5758C12.3866 2.58148 12.2872 2.58147 12.1886 2.57561C12.0898 2.5703 11.9897 2.56376 11.8918 2.54857C11.6956 2.51943 11.5037 2.46591 11.318 2.38591C11.1323 2.30591 10.9613 2.20324 10.8048 2.08052C10.6463 1.96274 10.5009 1.82823 10.3709 1.67421C10.1108 1.36716 9.90869 0.989864 9.76928 0.565956C10.1433 0.339959 10.5499 0.197295 10.9644 0.150379C11.1715 0.127353 11.3811 0.126241 11.5875 0.153959C11.7912 0.186861 11.9937 0.244948 12.1904 0.329582Z" fill="url(#paint0_linear_34160_323)"/>
</g>
<defs>
<linearGradient id="paint0_linear_34160_323" x1="39.9998" y1="39.5" x2="-0.000174045" y2="39.5" gradientUnits="userSpaceOnUse">
<stop offset="1" stop-color="white"/>
</linearGradient>
<clipPath id="clip0_34160_323">
<rect width="40" height="79" fill="white"/>
</clipPath>
</defs>
</svg>
