<svg width="145" height="36" viewBox="0 0 145 36" fill="none" xmlns="http://www.w3.org/2000/svg">
<path d="M7.59249 12.8577V12.7261C7.59249 10.2622 10.5788 9.02821 12.3254 10.7705L23.4004 21.8182V0.874191C21.6569 0.307516 19.7961 0 17.8629 0C7.99748 0 0 7.97784 0 17.819C0 23.8464 3.00058 29.1743 7.59249 32.3989V12.8577Z" fill="black"/>
<path d="M28.4056 3.60156V24.1365C28.4056 24.9362 28.2056 25.6891 27.8537 26.3491C27.0585 27.8413 25.4849 28.8578 23.6727 28.8578L12.5977 17.8101V35.1263C14.3412 35.693 16.202 36.0005 18.1352 36.0005C28.0006 36.0005 35.9981 28.0226 35.9981 18.1815C35.9981 12.154 32.9975 6.82616 28.4056 3.60156Z" fill="url(#paint0_linear_36174_1321)"/>
<path d="M47.112 29V6.6H55.144L59.592 26.12H60.168V6.6H64.328V29H56.296L51.848 9.48H51.272V29H47.112ZM76.2535 29.448C73.4375 29.448 71.1975 28.68 69.5335 27.144C67.8695 25.5867 67.0375 23.368 67.0375 20.488V15.112C67.0375 12.232 67.8695 10.024 69.5335 8.488C71.1975 6.93067 73.4375 6.152 76.2535 6.152C79.0695 6.152 81.3095 6.93067 82.9735 8.488C84.6375 10.024 85.4695 12.232 85.4695 15.112V20.488C85.4695 23.368 84.6375 25.5867 82.9735 27.144C81.3095 28.68 79.0695 29.448 76.2535 29.448ZM76.2535 25.672C77.8322 25.672 79.0588 25.2133 79.9335 24.296C80.8082 23.3787 81.2455 22.152 81.2455 20.616V14.984C81.2455 13.448 80.8082 12.2213 79.9335 11.304C79.0588 10.3867 77.8322 9.928 76.2535 9.928C74.6962 9.928 73.4695 10.3867 72.5735 11.304C71.6988 12.2213 71.2615 13.448 71.2615 14.984V20.616C71.2615 22.152 71.6988 23.3787 72.5735 24.296C73.4695 25.2133 74.6962 25.672 76.2535 25.672ZM88.1745 29V6.6H97.9025C99.3105 6.6 100.537 6.84533 101.583 7.336C102.628 7.82667 103.439 8.52 104.015 9.416C104.591 10.312 104.878 11.368 104.878 12.584V12.968C104.878 14.312 104.559 15.4 103.919 16.232C103.279 17.064 102.489 17.672 101.551 18.056V18.632C102.404 18.6747 103.065 18.9733 103.535 19.528C104.004 20.0613 104.239 20.776 104.239 21.672V29H100.015V22.28C100.015 21.768 99.8758 21.352 99.5985 21.032C99.3425 20.712 98.9052 20.552 98.2865 20.552H92.3985V29H88.1745ZM92.3985 16.712H97.4545C98.4572 16.712 99.2358 16.4453 99.7905 15.912C100.367 15.3573 100.655 14.632 100.655 13.736V13.416C100.655 12.52 100.377 11.8053 99.8225 11.272C99.2678 10.7173 98.4785 10.44 97.4545 10.44H92.3985V16.712ZM112.591 29V21.288L104.975 6.6H109.679L114.415 16.2H114.991L119.727 6.6H124.431L116.815 21.288V29H112.591ZM124.392 29L130.952 17.704L124.456 6.6H129.256L133.704 14.696H134.28L138.728 6.6H143.528L137.032 17.704L143.592 29H138.792L134.28 20.712H133.704L129.192 29H124.392Z" fill="black"/>
<defs>
<linearGradient id="paint0_linear_36174_1321" x1="24.2979" y1="3.60156" x2="24.2979" y2="36.0005" gradientUnits="userSpaceOnUse">
<stop stop-color="#5A16CB"/>
<stop offset="0.495992" stop-color="#720CEB"/>
<stop offset="1" stop-color="#462FE2"/>
</linearGradient>
</defs>
</svg>
