<svg width="134" height="36" viewBox="0 0 134 36" fill="none" xmlns="http://www.w3.org/2000/svg">
<path d="M7.59249 12.8577V12.7261C7.59249 10.2622 10.5788 9.02821 12.3254 10.7705L23.4004 21.8182V0.874191C21.6569 0.307516 19.7961 0 17.8629 0C7.99748 0 0 7.97784 0 17.819C0 23.8464 3.00058 29.1743 7.59249 32.3989V12.8577Z" fill="white"/>
<path d="M28.4056 3.60156V24.1365C28.4056 24.9362 28.2056 25.6891 27.8537 26.3491C27.0585 27.8413 25.4849 28.8578 23.6727 28.8578L12.5977 17.8101V35.1263C14.3412 35.693 16.202 36.0005 18.1352 36.0005C28.0006 36.0005 35.9981 28.0226 35.9981 18.1815C35.9981 12.154 32.9975 6.82616 28.4056 3.60156Z" fill="#FD3F00"/>
<path d="M47.112 29V6.6H55.144L59.592 26.12H60.168V6.6H64.328V29H56.296L51.848 9.48H51.272V29H47.112ZM75.2295 29.448C73.6508 29.448 72.2322 29.128 70.9735 28.488C69.7148 27.848 68.7228 26.92 67.9975 25.704C67.2722 24.488 66.9095 23.0267 66.9095 21.32V20.808C66.9095 19.1013 67.2722 17.64 67.9975 16.424C68.7228 15.208 69.7148 14.28 70.9735 13.64C72.2322 13 73.6508 12.68 75.2295 12.68C76.8082 12.68 78.2268 13 79.4855 13.64C80.7442 14.28 81.7362 15.208 82.4615 16.424C83.1868 17.64 83.5495 19.1013 83.5495 20.808V21.32C83.5495 23.0267 83.1868 24.488 82.4615 25.704C81.7362 26.92 80.7442 27.848 79.4855 28.488C78.2268 29.128 76.8082 29.448 75.2295 29.448ZM75.2295 25.864C76.4668 25.864 77.4908 25.4693 78.3015 24.68C79.1122 23.8693 79.5175 22.7173 79.5175 21.224V20.904C79.5175 19.4107 79.1122 18.2693 78.3015 17.48C77.5122 16.6693 76.4882 16.264 75.2295 16.264C73.9922 16.264 72.9682 16.6693 72.1575 17.48C71.3468 18.2693 70.9415 19.4107 70.9415 20.904V21.224C70.9415 22.7173 71.3468 23.8693 72.1575 24.68C72.9682 25.4693 73.9922 25.864 75.2295 25.864ZM86.2713 29V13.128H90.2393V14.92H90.8153C91.0499 14.28 91.4339 13.8107 91.9673 13.512C92.5219 13.2133 93.1619 13.064 93.8873 13.064H95.8073V16.648H93.8233C92.7993 16.648 91.9566 16.9253 91.2953 17.48C90.6339 18.0133 90.3033 18.8453 90.3033 19.976V29H86.2713ZM99.6868 35.4V31.88H108.327C108.924 31.88 109.223 31.56 109.223 30.92V26.92H108.647C108.476 27.2827 108.209 27.6453 107.847 28.008C107.484 28.3707 106.993 28.6693 106.375 28.904C105.756 29.1387 104.967 29.256 104.007 29.256C102.769 29.256 101.681 28.9787 100.743 28.424C99.8254 27.848 99.1108 27.0587 98.5988 26.056C98.0868 25.0533 97.8307 23.9013 97.8307 22.6V13.128H101.863V22.28C101.863 23.4747 102.151 24.3707 102.727 24.968C103.324 25.5653 104.167 25.864 105.255 25.864C106.492 25.864 107.452 25.4587 108.135 24.648C108.817 23.816 109.159 22.664 109.159 21.192V13.128H113.191V31.816C113.191 32.904 112.871 33.768 112.231 34.408C111.591 35.0693 110.737 35.4 109.671 35.4H99.6868ZM115.27 29L121.03 21L115.334 13.128H120.006L123.622 18.408H124.198L127.814 13.128H132.486L126.79 21L132.55 29H127.814L124.198 23.656H123.622L120.006 29H115.27Z" fill="white"/>
</svg>
