<svg width="13" height="16" viewBox="0 0 13 16" fill="none" xmlns="http://www.w3.org/2000/svg">
<path d="M12.1871 0.46875V11.7188C12.1871 11.8431 12.1377 11.9623 12.0498 12.0502C11.9619 12.1381 11.8427 12.1875 11.7183 12.1875H1.60037L4.54959 15.1375C4.59564 15.1804 4.63258 15.2322 4.6582 15.2897C4.68382 15.3472 4.6976 15.4092 4.69871 15.4722C4.69982 15.5351 4.68824 15.5976 4.66466 15.656C4.64109 15.7144 4.606 15.7674 4.56149 15.8119C4.51697 15.8564 4.46395 15.8915 4.40559 15.9151C4.34722 15.9387 4.2847 15.9502 4.22176 15.9491C4.15882 15.948 4.09675 15.9342 4.03925 15.9086C3.98175 15.883 3.93 15.8461 3.88709 15.8L0.137087 12.05C0.0493059 11.9621 0 11.843 0 11.7188C0 11.5945 0.0493059 11.4754 0.137087 11.3875L3.88709 7.6375C3.93 7.59145 3.98175 7.55451 4.03925 7.52889C4.09675 7.50327 4.15882 7.48949 4.22176 7.48838C4.2847 7.48727 4.34722 7.49885 4.40559 7.52242C4.46395 7.546 4.51697 7.58109 4.56149 7.6256C4.606 7.67011 4.64109 7.72313 4.66466 7.7815C4.68824 7.83987 4.69982 7.90239 4.69871 7.96533C4.6976 8.02827 4.68382 8.09034 4.6582 8.14784C4.63258 8.20534 4.59564 8.25709 4.54959 8.3L1.60037 11.25H11.2496V0.46875C11.2496 0.34443 11.299 0.225201 11.3869 0.137294C11.4748 0.049386 11.594 0 11.7183 0C11.8427 0 11.9619 0.049386 12.0498 0.137294C12.1377 0.225201 12.1871 0.34443 12.1871 0.46875Z" fill="white"/>
</svg>
