<svg width="13" height="16" viewBox="0 0 13 16" fill="none" xmlns="http://www.w3.org/2000/svg">
<path d="M12.05 12.05L8.3 15.8C8.21114 15.8828 8.09361 15.9279 7.97217 15.9257C7.85074 15.9236 7.73487 15.8744 7.64899 15.7885C7.5631 15.7026 7.51391 15.5868 7.51177 15.4653C7.50962 15.3439 7.5547 15.2264 7.6375 15.1375L10.5867 12.1875H0.46875C0.34443 12.1875 0.225201 12.1381 0.137294 12.0502C0.049386 11.9623 0 11.8431 0 11.7188V0.46875C0 0.34443 0.049386 0.225201 0.137294 0.137294C0.225201 0.049386 0.34443 0 0.46875 0C0.59307 0 0.712298 0.049386 0.800206 0.137294C0.888114 0.225201 0.9375 0.34443 0.9375 0.46875V11.25H10.5867L7.6375 8.3C7.59145 8.25709 7.55451 8.20534 7.52889 8.14784C7.50327 8.09034 7.48949 8.02827 7.48838 7.96533C7.48727 7.90239 7.49885 7.83987 7.52242 7.7815C7.546 7.72313 7.58109 7.67011 7.6256 7.6256C7.67011 7.58109 7.72313 7.546 7.7815 7.52242C7.83987 7.49885 7.90239 7.48727 7.96533 7.48838C8.02827 7.48949 8.09034 7.50327 8.14784 7.52889C8.20534 7.55451 8.25709 7.59145 8.3 7.6375L12.05 11.3875C12.1378 11.4754 12.1871 11.5945 12.1871 11.7188C12.1871 11.843 12.1378 11.9621 12.05 12.05Z" fill="white"/>
</svg>
